G04 #@! TF.GenerationSoftware,KiCad,Pcbnew,(6.0.4)*
G04 #@! TF.CreationDate,2022-07-17T15:07:22+02:00*
G04 #@! TF.ProjectId,EDU_V2_Hat,4544555f-5632-45f4-9861-742e6b696361,rev?*
G04 #@! TF.SameCoordinates,Original*
G04 #@! TF.FileFunction,Legend,Top*
G04 #@! TF.FilePolarity,Positive*
%FSLAX46Y46*%
G04 Gerber Fmt 4.6, Leading zero omitted, Abs format (unit mm)*
G04 Created by KiCad (PCBNEW (6.0.4)) date 2022-07-17 15:07:22*
%MOMM*%
%LPD*%
G01*
G04 APERTURE LIST*
%ADD10C,0.300000*%
%ADD11C,0.150000*%
%ADD12C,0.200000*%
G04 #@! TA.AperFunction,Profile*
%ADD13C,0.100000*%
G04 #@! TD*
%ADD14C,0.010000*%
%ADD15C,0.120000*%
%ADD16C,0.100000*%
G04 APERTURE END LIST*
D10*
X134747142Y-69100000D02*
X134604285Y-69028571D01*
X134390000Y-69028571D01*
X134175714Y-69100000D01*
X134032857Y-69242857D01*
X133961428Y-69385714D01*
X133890000Y-69671428D01*
X133890000Y-69885714D01*
X133961428Y-70171428D01*
X134032857Y-70314285D01*
X134175714Y-70457142D01*
X134390000Y-70528571D01*
X134532857Y-70528571D01*
X134747142Y-70457142D01*
X134818571Y-70385714D01*
X134818571Y-69885714D01*
X134532857Y-69885714D01*
X135461428Y-70528571D02*
X135461428Y-69028571D01*
X136318571Y-70528571D01*
X136318571Y-69028571D01*
X137032857Y-70528571D02*
X137032857Y-69028571D01*
X137390000Y-69028571D01*
X137604285Y-69100000D01*
X137747142Y-69242857D01*
X137818571Y-69385714D01*
X137890000Y-69671428D01*
X137890000Y-69885714D01*
X137818571Y-70171428D01*
X137747142Y-70314285D01*
X137604285Y-70457142D01*
X137390000Y-70528571D01*
X137032857Y-70528571D01*
X134068571Y-72997142D02*
X134282857Y-73068571D01*
X134640000Y-73068571D01*
X134782857Y-72997142D01*
X134854285Y-72925714D01*
X134925714Y-72782857D01*
X134925714Y-72640000D01*
X134854285Y-72497142D01*
X134782857Y-72425714D01*
X134640000Y-72354285D01*
X134354285Y-72282857D01*
X134211428Y-72211428D01*
X134140000Y-72140000D01*
X134068571Y-71997142D01*
X134068571Y-71854285D01*
X134140000Y-71711428D01*
X134211428Y-71640000D01*
X134354285Y-71568571D01*
X134711428Y-71568571D01*
X134925714Y-71640000D01*
X135568571Y-73068571D02*
X135568571Y-71568571D01*
X135925714Y-71568571D01*
X136140000Y-71640000D01*
X136282857Y-71782857D01*
X136354285Y-71925714D01*
X136425714Y-72211428D01*
X136425714Y-72425714D01*
X136354285Y-72711428D01*
X136282857Y-72854285D01*
X136140000Y-72997142D01*
X135925714Y-73068571D01*
X135568571Y-73068571D01*
X136997142Y-72640000D02*
X137711428Y-72640000D01*
X136854285Y-73068571D02*
X137354285Y-71568571D01*
X137854285Y-73068571D01*
X134104285Y-75537142D02*
X134318571Y-75608571D01*
X134675714Y-75608571D01*
X134818571Y-75537142D01*
X134890000Y-75465714D01*
X134961428Y-75322857D01*
X134961428Y-75180000D01*
X134890000Y-75037142D01*
X134818571Y-74965714D01*
X134675714Y-74894285D01*
X134390000Y-74822857D01*
X134247142Y-74751428D01*
X134175714Y-74680000D01*
X134104285Y-74537142D01*
X134104285Y-74394285D01*
X134175714Y-74251428D01*
X134247142Y-74180000D01*
X134390000Y-74108571D01*
X134747142Y-74108571D01*
X134961428Y-74180000D01*
X136461428Y-75465714D02*
X136390000Y-75537142D01*
X136175714Y-75608571D01*
X136032857Y-75608571D01*
X135818571Y-75537142D01*
X135675714Y-75394285D01*
X135604285Y-75251428D01*
X135532857Y-74965714D01*
X135532857Y-74751428D01*
X135604285Y-74465714D01*
X135675714Y-74322857D01*
X135818571Y-74180000D01*
X136032857Y-74108571D01*
X136175714Y-74108571D01*
X136390000Y-74180000D01*
X136461428Y-74251428D01*
X137818571Y-75608571D02*
X137104285Y-75608571D01*
X137104285Y-74108571D01*
X134032857Y-76648571D02*
X134961428Y-76648571D01*
X134461428Y-77220000D01*
X134675714Y-77220000D01*
X134818571Y-77291428D01*
X134890000Y-77362857D01*
X134961428Y-77505714D01*
X134961428Y-77862857D01*
X134890000Y-78005714D01*
X134818571Y-78077142D01*
X134675714Y-78148571D01*
X134247142Y-78148571D01*
X134104285Y-78077142D01*
X134032857Y-78005714D01*
X135390000Y-76648571D02*
X135890000Y-78148571D01*
X136390000Y-76648571D01*
X136747142Y-76648571D02*
X137675714Y-76648571D01*
X137175714Y-77220000D01*
X137390000Y-77220000D01*
X137532857Y-77291428D01*
X137604285Y-77362857D01*
X137675714Y-77505714D01*
X137675714Y-77862857D01*
X137604285Y-78005714D01*
X137532857Y-78077142D01*
X137390000Y-78148571D01*
X136961428Y-78148571D01*
X136818571Y-78077142D01*
X136747142Y-78005714D01*
X105168000Y-81136857D02*
X105096571Y-81279714D01*
X105096571Y-81494000D01*
X105168000Y-81708285D01*
X105310857Y-81851142D01*
X105453714Y-81922571D01*
X105739428Y-81994000D01*
X105953714Y-81994000D01*
X106239428Y-81922571D01*
X106382285Y-81851142D01*
X106525142Y-81708285D01*
X106596571Y-81494000D01*
X106596571Y-81351142D01*
X106525142Y-81136857D01*
X106453714Y-81065428D01*
X105953714Y-81065428D01*
X105953714Y-81351142D01*
X106596571Y-80422571D02*
X105096571Y-80422571D01*
X105096571Y-79851142D01*
X105168000Y-79708285D01*
X105239428Y-79636857D01*
X105382285Y-79565428D01*
X105596571Y-79565428D01*
X105739428Y-79636857D01*
X105810857Y-79708285D01*
X105882285Y-79851142D01*
X105882285Y-80422571D01*
X106596571Y-78922571D02*
X105096571Y-78922571D01*
X105239428Y-78279714D02*
X105168000Y-78208285D01*
X105096571Y-78065428D01*
X105096571Y-77708285D01*
X105168000Y-77565428D01*
X105239428Y-77494000D01*
X105382285Y-77422571D01*
X105525142Y-77422571D01*
X105739428Y-77494000D01*
X106596571Y-78351142D01*
X106596571Y-77422571D01*
X105239428Y-76851142D02*
X105168000Y-76779714D01*
X105096571Y-76636857D01*
X105096571Y-76279714D01*
X105168000Y-76136857D01*
X105239428Y-76065428D01*
X105382285Y-75994000D01*
X105525142Y-75994000D01*
X105739428Y-76065428D01*
X106596571Y-76922571D01*
X106596571Y-75994000D01*
X102374000Y-81136857D02*
X102302571Y-81279714D01*
X102302571Y-81494000D01*
X102374000Y-81708285D01*
X102516857Y-81851142D01*
X102659714Y-81922571D01*
X102945428Y-81994000D01*
X103159714Y-81994000D01*
X103445428Y-81922571D01*
X103588285Y-81851142D01*
X103731142Y-81708285D01*
X103802571Y-81494000D01*
X103802571Y-81351142D01*
X103731142Y-81136857D01*
X103659714Y-81065428D01*
X103159714Y-81065428D01*
X103159714Y-81351142D01*
X103802571Y-80422571D02*
X102302571Y-80422571D01*
X102302571Y-79851142D01*
X102374000Y-79708285D01*
X102445428Y-79636857D01*
X102588285Y-79565428D01*
X102802571Y-79565428D01*
X102945428Y-79636857D01*
X103016857Y-79708285D01*
X103088285Y-79851142D01*
X103088285Y-80422571D01*
X103802571Y-78922571D02*
X102302571Y-78922571D01*
X102445428Y-78279714D02*
X102374000Y-78208285D01*
X102302571Y-78065428D01*
X102302571Y-77708285D01*
X102374000Y-77565428D01*
X102445428Y-77494000D01*
X102588285Y-77422571D01*
X102731142Y-77422571D01*
X102945428Y-77494000D01*
X103802571Y-78351142D01*
X103802571Y-77422571D01*
X102302571Y-76922571D02*
X102302571Y-75922571D01*
X103802571Y-76565428D01*
X99072000Y-81136857D02*
X99000571Y-81279714D01*
X99000571Y-81494000D01*
X99072000Y-81708285D01*
X99214857Y-81851142D01*
X99357714Y-81922571D01*
X99643428Y-81994000D01*
X99857714Y-81994000D01*
X100143428Y-81922571D01*
X100286285Y-81851142D01*
X100429142Y-81708285D01*
X100500571Y-81494000D01*
X100500571Y-81351142D01*
X100429142Y-81136857D01*
X100357714Y-81065428D01*
X99857714Y-81065428D01*
X99857714Y-81351142D01*
X100500571Y-80422571D02*
X99000571Y-80422571D01*
X99000571Y-79851142D01*
X99072000Y-79708285D01*
X99143428Y-79636857D01*
X99286285Y-79565428D01*
X99500571Y-79565428D01*
X99643428Y-79636857D01*
X99714857Y-79708285D01*
X99786285Y-79851142D01*
X99786285Y-80422571D01*
X100500571Y-78922571D02*
X99000571Y-78922571D01*
X100500571Y-77422571D02*
X100500571Y-78279714D01*
X100500571Y-77851142D02*
X99000571Y-77851142D01*
X99214857Y-77994000D01*
X99357714Y-78136857D01*
X99429142Y-78279714D01*
X99000571Y-76922571D02*
X99000571Y-75922571D01*
X100500571Y-76565428D01*
X95698571Y-79581142D02*
X95698571Y-78652571D01*
X96270000Y-79152571D01*
X96270000Y-78938285D01*
X96341428Y-78795428D01*
X96412857Y-78724000D01*
X96555714Y-78652571D01*
X96912857Y-78652571D01*
X97055714Y-78724000D01*
X97127142Y-78795428D01*
X97198571Y-78938285D01*
X97198571Y-79366857D01*
X97127142Y-79509714D01*
X97055714Y-79581142D01*
X95698571Y-78224000D02*
X97198571Y-77724000D01*
X95698571Y-77224000D01*
X95698571Y-76866857D02*
X95698571Y-75938285D01*
X96270000Y-76438285D01*
X96270000Y-76224000D01*
X96341428Y-76081142D01*
X96412857Y-76009714D01*
X96555714Y-75938285D01*
X96912857Y-75938285D01*
X97055714Y-76009714D01*
X97127142Y-76081142D01*
X97198571Y-76224000D01*
X97198571Y-76652571D01*
X97127142Y-76795428D01*
X97055714Y-76866857D01*
X81530000Y-81787428D02*
X81530000Y-81073142D01*
X81958571Y-81930285D02*
X80458571Y-81430285D01*
X81958571Y-80930285D01*
X81958571Y-80430285D02*
X80458571Y-80430285D01*
X80458571Y-80073142D01*
X80530000Y-79858857D01*
X80672857Y-79716000D01*
X80815714Y-79644571D01*
X81101428Y-79573142D01*
X81315714Y-79573142D01*
X81601428Y-79644571D01*
X81744285Y-79716000D01*
X81887142Y-79858857D01*
X81958571Y-80073142D01*
X81958571Y-80430285D01*
X80458571Y-79073142D02*
X81958571Y-78073142D01*
X80458571Y-78073142D02*
X81958571Y-79073142D01*
X81958571Y-76787428D02*
X81958571Y-77501714D01*
X80458571Y-77501714D01*
X80458571Y-76430285D02*
X80458571Y-75501714D01*
X81030000Y-76001714D01*
X81030000Y-75787428D01*
X81101428Y-75644571D01*
X81172857Y-75573142D01*
X81315714Y-75501714D01*
X81672857Y-75501714D01*
X81815714Y-75573142D01*
X81887142Y-75644571D01*
X81958571Y-75787428D01*
X81958571Y-76216000D01*
X81887142Y-76358857D01*
X81815714Y-76430285D01*
X80958571Y-74216000D02*
X81958571Y-74216000D01*
X80387142Y-74573142D02*
X81458571Y-74930285D01*
X81458571Y-74001714D01*
X80458571Y-72716000D02*
X80458571Y-73430285D01*
X81172857Y-73501714D01*
X81101428Y-73430285D01*
X81030000Y-73287428D01*
X81030000Y-72930285D01*
X81101428Y-72787428D01*
X81172857Y-72716000D01*
X81315714Y-72644571D01*
X81672857Y-72644571D01*
X81815714Y-72716000D01*
X81887142Y-72787428D01*
X81958571Y-72930285D01*
X81958571Y-73287428D01*
X81887142Y-73430285D01*
X81815714Y-73501714D01*
X102000857Y-94174000D02*
X102072285Y-93959714D01*
X102143714Y-93888285D01*
X102286571Y-93816857D01*
X102500857Y-93816857D01*
X102643714Y-93888285D01*
X102715142Y-93959714D01*
X102786571Y-94102571D01*
X102786571Y-94674000D01*
X101286571Y-94674000D01*
X101286571Y-94174000D01*
X101358000Y-94031142D01*
X101429428Y-93959714D01*
X101572285Y-93888285D01*
X101715142Y-93888285D01*
X101858000Y-93959714D01*
X101929428Y-94031142D01*
X102000857Y-94174000D01*
X102000857Y-94674000D01*
X102786571Y-93174000D02*
X101286571Y-93174000D01*
X102358000Y-92674000D01*
X101286571Y-92174000D01*
X102786571Y-92174000D01*
X102786571Y-91459714D02*
X101286571Y-91459714D01*
X102358000Y-90959714D01*
X101286571Y-90459714D01*
X102786571Y-90459714D01*
X102786571Y-88959714D02*
X102786571Y-89816857D01*
X102786571Y-89388285D02*
X101286571Y-89388285D01*
X101500857Y-89531142D01*
X101643714Y-89674000D01*
X101715142Y-89816857D01*
X101286571Y-87602571D02*
X101286571Y-88316857D01*
X102000857Y-88388285D01*
X101929428Y-88316857D01*
X101858000Y-88174000D01*
X101858000Y-87816857D01*
X101929428Y-87674000D01*
X102000857Y-87602571D01*
X102143714Y-87531142D01*
X102500857Y-87531142D01*
X102643714Y-87602571D01*
X102715142Y-87674000D01*
X102786571Y-87816857D01*
X102786571Y-88174000D01*
X102715142Y-88316857D01*
X102643714Y-88388285D01*
X101286571Y-86602571D02*
X101286571Y-86459714D01*
X101358000Y-86316857D01*
X101429428Y-86245428D01*
X101572285Y-86174000D01*
X101858000Y-86102571D01*
X102215142Y-86102571D01*
X102500857Y-86174000D01*
X102643714Y-86245428D01*
X102715142Y-86316857D01*
X102786571Y-86459714D01*
X102786571Y-86602571D01*
X102715142Y-86745428D01*
X102643714Y-86816857D01*
X102500857Y-86888285D01*
X102215142Y-86959714D01*
X101858000Y-86959714D01*
X101572285Y-86888285D01*
X101429428Y-86816857D01*
X101358000Y-86745428D01*
X101286571Y-86602571D01*
X101286571Y-107556571D02*
X101286571Y-106699428D01*
X102786571Y-107128000D02*
X101286571Y-107128000D01*
X102786571Y-106199428D02*
X101286571Y-106199428D01*
X102358000Y-105699428D01*
X101286571Y-105199428D01*
X102786571Y-105199428D01*
X102786571Y-104485142D02*
X101286571Y-104485142D01*
X101286571Y-103913714D01*
X101358000Y-103770857D01*
X101429428Y-103699428D01*
X101572285Y-103628000D01*
X101786571Y-103628000D01*
X101929428Y-103699428D01*
X102000857Y-103770857D01*
X102072285Y-103913714D01*
X102072285Y-104485142D01*
X102786571Y-102199428D02*
X102786571Y-103056571D01*
X102786571Y-102628000D02*
X101286571Y-102628000D01*
X101500857Y-102770857D01*
X101643714Y-102913714D01*
X101715142Y-103056571D01*
X102786571Y-100770857D02*
X102786571Y-101628000D01*
X102786571Y-101199428D02*
X101286571Y-101199428D01*
X101500857Y-101342285D01*
X101643714Y-101485142D01*
X101715142Y-101628000D01*
X101429428Y-100199428D02*
X101358000Y-100128000D01*
X101286571Y-99985142D01*
X101286571Y-99628000D01*
X101358000Y-99485142D01*
X101429428Y-99413714D01*
X101572285Y-99342285D01*
X101715142Y-99342285D01*
X101929428Y-99413714D01*
X102786571Y-100270857D01*
X102786571Y-99342285D01*
X81426857Y-92979428D02*
X81498285Y-92765142D01*
X81569714Y-92693714D01*
X81712571Y-92622285D01*
X81926857Y-92622285D01*
X82069714Y-92693714D01*
X82141142Y-92765142D01*
X82212571Y-92908000D01*
X82212571Y-93479428D01*
X80712571Y-93479428D01*
X80712571Y-92979428D01*
X80784000Y-92836571D01*
X80855428Y-92765142D01*
X80998285Y-92693714D01*
X81141142Y-92693714D01*
X81284000Y-92765142D01*
X81355428Y-92836571D01*
X81426857Y-92979428D01*
X81426857Y-93479428D01*
X82212571Y-91979428D02*
X80712571Y-91979428D01*
X81784000Y-91479428D01*
X80712571Y-90979428D01*
X82212571Y-90979428D01*
X81426857Y-90265142D02*
X81426857Y-89765142D01*
X82212571Y-89550857D02*
X82212571Y-90265142D01*
X80712571Y-90265142D01*
X80712571Y-89550857D01*
X80712571Y-88265142D02*
X80712571Y-88550857D01*
X80784000Y-88693714D01*
X80855428Y-88765142D01*
X81069714Y-88908000D01*
X81355428Y-88979428D01*
X81926857Y-88979428D01*
X82069714Y-88908000D01*
X82141142Y-88836571D01*
X82212571Y-88693714D01*
X82212571Y-88408000D01*
X82141142Y-88265142D01*
X82069714Y-88193714D01*
X81926857Y-88122285D01*
X81569714Y-88122285D01*
X81426857Y-88193714D01*
X81355428Y-88265142D01*
X81284000Y-88408000D01*
X81284000Y-88693714D01*
X81355428Y-88836571D01*
X81426857Y-88908000D01*
X81569714Y-88979428D01*
X81355428Y-87265142D02*
X81284000Y-87408000D01*
X81212571Y-87479428D01*
X81069714Y-87550857D01*
X80998285Y-87550857D01*
X80855428Y-87479428D01*
X80784000Y-87408000D01*
X80712571Y-87265142D01*
X80712571Y-86979428D01*
X80784000Y-86836571D01*
X80855428Y-86765142D01*
X80998285Y-86693714D01*
X81069714Y-86693714D01*
X81212571Y-86765142D01*
X81284000Y-86836571D01*
X81355428Y-86979428D01*
X81355428Y-87265142D01*
X81426857Y-87408000D01*
X81498285Y-87479428D01*
X81641142Y-87550857D01*
X81926857Y-87550857D01*
X82069714Y-87479428D01*
X82141142Y-87408000D01*
X82212571Y-87265142D01*
X82212571Y-86979428D01*
X82141142Y-86836571D01*
X82069714Y-86765142D01*
X81926857Y-86693714D01*
X81641142Y-86693714D01*
X81498285Y-86765142D01*
X81426857Y-86836571D01*
X81355428Y-86979428D01*
X81355428Y-85836571D02*
X81284000Y-85979428D01*
X81212571Y-86050857D01*
X81069714Y-86122285D01*
X80998285Y-86122285D01*
X80855428Y-86050857D01*
X80784000Y-85979428D01*
X80712571Y-85836571D01*
X80712571Y-85550857D01*
X80784000Y-85408000D01*
X80855428Y-85336571D01*
X80998285Y-85265142D01*
X81069714Y-85265142D01*
X81212571Y-85336571D01*
X81284000Y-85408000D01*
X81355428Y-85550857D01*
X81355428Y-85836571D01*
X81426857Y-85979428D01*
X81498285Y-86050857D01*
X81641142Y-86122285D01*
X81926857Y-86122285D01*
X82069714Y-86050857D01*
X82141142Y-85979428D01*
X82212571Y-85836571D01*
X82212571Y-85550857D01*
X82141142Y-85408000D01*
X82069714Y-85336571D01*
X81926857Y-85265142D01*
X81641142Y-85265142D01*
X81498285Y-85336571D01*
X81426857Y-85408000D01*
X81355428Y-85550857D01*
X80712571Y-109568571D02*
X81926857Y-109568571D01*
X82069714Y-109497142D01*
X82141142Y-109425714D01*
X82212571Y-109282857D01*
X82212571Y-108997142D01*
X82141142Y-108854285D01*
X82069714Y-108782857D01*
X81926857Y-108711428D01*
X80712571Y-108711428D01*
X80712571Y-108211428D02*
X82212571Y-107711428D01*
X80712571Y-107211428D01*
X82141142Y-105640000D02*
X82212571Y-105425714D01*
X82212571Y-105068571D01*
X82141142Y-104925714D01*
X82069714Y-104854285D01*
X81926857Y-104782857D01*
X81784000Y-104782857D01*
X81641142Y-104854285D01*
X81569714Y-104925714D01*
X81498285Y-105068571D01*
X81426857Y-105354285D01*
X81355428Y-105497142D01*
X81284000Y-105568571D01*
X81141142Y-105640000D01*
X80998285Y-105640000D01*
X80855428Y-105568571D01*
X80784000Y-105497142D01*
X80712571Y-105354285D01*
X80712571Y-104997142D01*
X80784000Y-104782857D01*
X82141142Y-103568571D02*
X82212571Y-103711428D01*
X82212571Y-103997142D01*
X82141142Y-104140000D01*
X81998285Y-104211428D01*
X81426857Y-104211428D01*
X81284000Y-104140000D01*
X81212571Y-103997142D01*
X81212571Y-103711428D01*
X81284000Y-103568571D01*
X81426857Y-103497142D01*
X81569714Y-103497142D01*
X81712571Y-104211428D01*
X81212571Y-102854285D02*
X82212571Y-102854285D01*
X81355428Y-102854285D02*
X81284000Y-102782857D01*
X81212571Y-102640000D01*
X81212571Y-102425714D01*
X81284000Y-102282857D01*
X81426857Y-102211428D01*
X82212571Y-102211428D01*
X82141142Y-101568571D02*
X82212571Y-101425714D01*
X82212571Y-101140000D01*
X82141142Y-100997142D01*
X81998285Y-100925714D01*
X81926857Y-100925714D01*
X81784000Y-100997142D01*
X81712571Y-101140000D01*
X81712571Y-101354285D01*
X81641142Y-101497142D01*
X81498285Y-101568571D01*
X81426857Y-101568571D01*
X81284000Y-101497142D01*
X81212571Y-101354285D01*
X81212571Y-101140000D01*
X81284000Y-100997142D01*
X82212571Y-100068571D02*
X82141142Y-100211428D01*
X82069714Y-100282857D01*
X81926857Y-100354285D01*
X81498285Y-100354285D01*
X81355428Y-100282857D01*
X81284000Y-100211428D01*
X81212571Y-100068571D01*
X81212571Y-99854285D01*
X81284000Y-99711428D01*
X81355428Y-99640000D01*
X81498285Y-99568571D01*
X81926857Y-99568571D01*
X82069714Y-99640000D01*
X82141142Y-99711428D01*
X82212571Y-99854285D01*
X82212571Y-100068571D01*
X82212571Y-98925714D02*
X81212571Y-98925714D01*
X81498285Y-98925714D02*
X81355428Y-98854285D01*
X81284000Y-98782857D01*
X81212571Y-98640000D01*
X81212571Y-98497142D01*
D11*
X119380000Y-108458000D02*
X134620000Y-108458000D01*
X119380000Y-116078000D02*
X119380000Y-108458000D01*
X134620000Y-108458000D02*
X134620000Y-116078000D01*
X134630000Y-116088000D02*
X119390000Y-116088000D01*
D12*
X91378000Y-109932857D02*
X92063714Y-109932857D01*
X91720857Y-111132857D02*
X91720857Y-109932857D01*
X92463714Y-109932857D02*
X92463714Y-110904285D01*
X92520857Y-111018571D01*
X92578000Y-111075714D01*
X92692285Y-111132857D01*
X92920857Y-111132857D01*
X93035142Y-111075714D01*
X93092285Y-111018571D01*
X93149428Y-110904285D01*
X93149428Y-109932857D01*
X94520857Y-109932857D02*
X94806571Y-111132857D01*
X95035142Y-110275714D01*
X95263714Y-111132857D01*
X95549428Y-109932857D01*
X96006571Y-111132857D02*
X96006571Y-110332857D01*
X96006571Y-109932857D02*
X95949428Y-109990000D01*
X96006571Y-110047142D01*
X96063714Y-109990000D01*
X96006571Y-109932857D01*
X96006571Y-110047142D01*
X97035142Y-111075714D02*
X96920857Y-111132857D01*
X96692285Y-111132857D01*
X96578000Y-111075714D01*
X96520857Y-110961428D01*
X96520857Y-110504285D01*
X96578000Y-110390000D01*
X96692285Y-110332857D01*
X96920857Y-110332857D01*
X97035142Y-110390000D01*
X97092285Y-110504285D01*
X97092285Y-110618571D01*
X96520857Y-110732857D01*
X97606571Y-110332857D02*
X97606571Y-111132857D01*
X97606571Y-110447142D02*
X97663714Y-110390000D01*
X97778000Y-110332857D01*
X97949428Y-110332857D01*
X98063714Y-110390000D01*
X98120857Y-110504285D01*
X98120857Y-111132857D01*
X99549428Y-111075714D02*
X99720857Y-111132857D01*
X100006571Y-111132857D01*
X100120857Y-111075714D01*
X100178000Y-111018571D01*
X100235142Y-110904285D01*
X100235142Y-110790000D01*
X100178000Y-110675714D01*
X100120857Y-110618571D01*
X100006571Y-110561428D01*
X99778000Y-110504285D01*
X99663714Y-110447142D01*
X99606571Y-110390000D01*
X99549428Y-110275714D01*
X99549428Y-110161428D01*
X99606571Y-110047142D01*
X99663714Y-109990000D01*
X99778000Y-109932857D01*
X100063714Y-109932857D01*
X100235142Y-109990000D01*
X100749428Y-110332857D02*
X100749428Y-111532857D01*
X100749428Y-110390000D02*
X100863714Y-110332857D01*
X101092285Y-110332857D01*
X101206571Y-110390000D01*
X101263714Y-110447142D01*
X101320857Y-110561428D01*
X101320857Y-110904285D01*
X101263714Y-111018571D01*
X101206571Y-111075714D01*
X101092285Y-111132857D01*
X100863714Y-111132857D01*
X100749428Y-111075714D01*
X102349428Y-111132857D02*
X102349428Y-110504285D01*
X102292285Y-110390000D01*
X102178000Y-110332857D01*
X101949428Y-110332857D01*
X101835142Y-110390000D01*
X102349428Y-111075714D02*
X102235142Y-111132857D01*
X101949428Y-111132857D01*
X101835142Y-111075714D01*
X101778000Y-110961428D01*
X101778000Y-110847142D01*
X101835142Y-110732857D01*
X101949428Y-110675714D01*
X102235142Y-110675714D01*
X102349428Y-110618571D01*
X103435142Y-111075714D02*
X103320857Y-111132857D01*
X103092285Y-111132857D01*
X102978000Y-111075714D01*
X102920857Y-111018571D01*
X102863714Y-110904285D01*
X102863714Y-110561428D01*
X102920857Y-110447142D01*
X102978000Y-110390000D01*
X103092285Y-110332857D01*
X103320857Y-110332857D01*
X103435142Y-110390000D01*
X104406571Y-111075714D02*
X104292285Y-111132857D01*
X104063714Y-111132857D01*
X103949428Y-111075714D01*
X103892285Y-110961428D01*
X103892285Y-110504285D01*
X103949428Y-110390000D01*
X104063714Y-110332857D01*
X104292285Y-110332857D01*
X104406571Y-110390000D01*
X104463714Y-110504285D01*
X104463714Y-110618571D01*
X103892285Y-110732857D01*
X105720857Y-109932857D02*
X106406571Y-109932857D01*
X106063714Y-111132857D02*
X106063714Y-109932857D01*
X107263714Y-111075714D02*
X107149428Y-111132857D01*
X106920857Y-111132857D01*
X106806571Y-111075714D01*
X106749428Y-110961428D01*
X106749428Y-110504285D01*
X106806571Y-110390000D01*
X106920857Y-110332857D01*
X107149428Y-110332857D01*
X107263714Y-110390000D01*
X107320857Y-110504285D01*
X107320857Y-110618571D01*
X106749428Y-110732857D01*
X108349428Y-111132857D02*
X108349428Y-110504285D01*
X108292285Y-110390000D01*
X108178000Y-110332857D01*
X107949428Y-110332857D01*
X107835142Y-110390000D01*
X108349428Y-111075714D02*
X108235142Y-111132857D01*
X107949428Y-111132857D01*
X107835142Y-111075714D01*
X107778000Y-110961428D01*
X107778000Y-110847142D01*
X107835142Y-110732857D01*
X107949428Y-110675714D01*
X108235142Y-110675714D01*
X108349428Y-110618571D01*
X108920857Y-111132857D02*
X108920857Y-110332857D01*
X108920857Y-110447142D02*
X108978000Y-110390000D01*
X109092285Y-110332857D01*
X109263714Y-110332857D01*
X109378000Y-110390000D01*
X109435142Y-110504285D01*
X109435142Y-111132857D01*
X109435142Y-110504285D02*
X109492285Y-110390000D01*
X109606571Y-110332857D01*
X109778000Y-110332857D01*
X109892285Y-110390000D01*
X109949428Y-110504285D01*
X109949428Y-111132857D01*
X111378000Y-111075714D02*
X111549428Y-111132857D01*
X111835142Y-111132857D01*
X111949428Y-111075714D01*
X112006571Y-111018571D01*
X112063714Y-110904285D01*
X112063714Y-110790000D01*
X112006571Y-110675714D01*
X111949428Y-110618571D01*
X111835142Y-110561428D01*
X111606571Y-110504285D01*
X111492285Y-110447142D01*
X111435142Y-110390000D01*
X111378000Y-110275714D01*
X111378000Y-110161428D01*
X111435142Y-110047142D01*
X111492285Y-109990000D01*
X111606571Y-109932857D01*
X111892285Y-109932857D01*
X112063714Y-109990000D01*
X112406571Y-109932857D02*
X113092285Y-109932857D01*
X112749428Y-111132857D02*
X112749428Y-109932857D01*
X113435142Y-111075714D02*
X113606571Y-111132857D01*
X113892285Y-111132857D01*
X114006571Y-111075714D01*
X114063714Y-111018571D01*
X114120857Y-110904285D01*
X114120857Y-110790000D01*
X114063714Y-110675714D01*
X114006571Y-110618571D01*
X113892285Y-110561428D01*
X113663714Y-110504285D01*
X113549428Y-110447142D01*
X113492285Y-110390000D01*
X113435142Y-110275714D01*
X113435142Y-110161428D01*
X113492285Y-110047142D01*
X113549428Y-109990000D01*
X113663714Y-109932857D01*
X113949428Y-109932857D01*
X114120857Y-109990000D01*
X115263714Y-111132857D02*
X114578000Y-111132857D01*
X114920857Y-111132857D02*
X114920857Y-109932857D01*
X114806571Y-110104285D01*
X114692285Y-110218571D01*
X114578000Y-110275714D01*
X97006571Y-112436285D02*
X97406571Y-112436285D01*
X97578000Y-113064857D02*
X97006571Y-113064857D01*
X97006571Y-111864857D01*
X97578000Y-111864857D01*
X98092285Y-113064857D02*
X98092285Y-111864857D01*
X98378000Y-111864857D01*
X98549428Y-111922000D01*
X98663714Y-112036285D01*
X98720857Y-112150571D01*
X98778000Y-112379142D01*
X98778000Y-112550571D01*
X98720857Y-112779142D01*
X98663714Y-112893428D01*
X98549428Y-113007714D01*
X98378000Y-113064857D01*
X98092285Y-113064857D01*
X99292285Y-111864857D02*
X99292285Y-112836285D01*
X99349428Y-112950571D01*
X99406571Y-113007714D01*
X99520857Y-113064857D01*
X99749428Y-113064857D01*
X99863714Y-113007714D01*
X99920857Y-112950571D01*
X99978000Y-112836285D01*
X99978000Y-111864857D01*
X102149428Y-113064857D02*
X101749428Y-112493428D01*
X101463714Y-113064857D02*
X101463714Y-111864857D01*
X101920857Y-111864857D01*
X102035142Y-111922000D01*
X102092285Y-111979142D01*
X102149428Y-112093428D01*
X102149428Y-112264857D01*
X102092285Y-112379142D01*
X102035142Y-112436285D01*
X101920857Y-112493428D01*
X101463714Y-112493428D01*
X103178000Y-113064857D02*
X103178000Y-112436285D01*
X103120857Y-112322000D01*
X103006571Y-112264857D01*
X102778000Y-112264857D01*
X102663714Y-112322000D01*
X103178000Y-113007714D02*
X103063714Y-113064857D01*
X102778000Y-113064857D01*
X102663714Y-113007714D01*
X102606571Y-112893428D01*
X102606571Y-112779142D01*
X102663714Y-112664857D01*
X102778000Y-112607714D01*
X103063714Y-112607714D01*
X103178000Y-112550571D01*
X103692285Y-113007714D02*
X103806571Y-113064857D01*
X104035142Y-113064857D01*
X104149428Y-113007714D01*
X104206571Y-112893428D01*
X104206571Y-112836285D01*
X104149428Y-112722000D01*
X104035142Y-112664857D01*
X103863714Y-112664857D01*
X103749428Y-112607714D01*
X103692285Y-112493428D01*
X103692285Y-112436285D01*
X103749428Y-112322000D01*
X103863714Y-112264857D01*
X104035142Y-112264857D01*
X104149428Y-112322000D01*
X104720857Y-112264857D02*
X104720857Y-113464857D01*
X104720857Y-112322000D02*
X104835142Y-112264857D01*
X105063714Y-112264857D01*
X105178000Y-112322000D01*
X105235142Y-112379142D01*
X105292285Y-112493428D01*
X105292285Y-112836285D01*
X105235142Y-112950571D01*
X105178000Y-113007714D01*
X105063714Y-113064857D01*
X104835142Y-113064857D01*
X104720857Y-113007714D01*
X105806571Y-113064857D02*
X105806571Y-112264857D01*
X105806571Y-111864857D02*
X105749428Y-111922000D01*
X105806571Y-111979142D01*
X105863714Y-111922000D01*
X105806571Y-111864857D01*
X105806571Y-111979142D01*
X107292285Y-113064857D02*
X107292285Y-111864857D01*
X107292285Y-112436285D02*
X107978000Y-112436285D01*
X107978000Y-113064857D02*
X107978000Y-111864857D01*
X109063714Y-113064857D02*
X109063714Y-112436285D01*
X109006571Y-112322000D01*
X108892285Y-112264857D01*
X108663714Y-112264857D01*
X108549428Y-112322000D01*
X109063714Y-113007714D02*
X108949428Y-113064857D01*
X108663714Y-113064857D01*
X108549428Y-113007714D01*
X108492285Y-112893428D01*
X108492285Y-112779142D01*
X108549428Y-112664857D01*
X108663714Y-112607714D01*
X108949428Y-112607714D01*
X109063714Y-112550571D01*
X109463714Y-112264857D02*
X109920857Y-112264857D01*
X109635142Y-111864857D02*
X109635142Y-112893428D01*
X109692285Y-113007714D01*
X109806571Y-113064857D01*
X109920857Y-113064857D01*
X101549428Y-113796857D02*
X101949428Y-114996857D01*
X102349428Y-113796857D01*
X103378000Y-114996857D02*
X102692285Y-114996857D01*
X103035142Y-114996857D02*
X103035142Y-113796857D01*
X102920857Y-113968285D01*
X102806571Y-114082571D01*
X102692285Y-114139714D01*
X103892285Y-114882571D02*
X103949428Y-114939714D01*
X103892285Y-114996857D01*
X103835142Y-114939714D01*
X103892285Y-114882571D01*
X103892285Y-114996857D01*
X104692285Y-113796857D02*
X104806571Y-113796857D01*
X104920857Y-113854000D01*
X104978000Y-113911142D01*
X105035142Y-114025428D01*
X105092285Y-114254000D01*
X105092285Y-114539714D01*
X105035142Y-114768285D01*
X104978000Y-114882571D01*
X104920857Y-114939714D01*
X104806571Y-114996857D01*
X104692285Y-114996857D01*
X104578000Y-114939714D01*
X104520857Y-114882571D01*
X104463714Y-114768285D01*
X104406571Y-114539714D01*
X104406571Y-114254000D01*
X104463714Y-114025428D01*
X104520857Y-113911142D01*
X104578000Y-113854000D01*
X104692285Y-113796857D01*
X115964285Y-112820857D02*
X115964285Y-111620857D01*
X116535714Y-112820857D02*
X116535714Y-111620857D01*
X116821428Y-111620857D01*
X116992857Y-111678000D01*
X117107142Y-111792285D01*
X117164285Y-111906571D01*
X117221428Y-112135142D01*
X117221428Y-112306571D01*
X117164285Y-112535142D01*
X117107142Y-112649428D01*
X116992857Y-112763714D01*
X116821428Y-112820857D01*
X116535714Y-112820857D01*
X117735714Y-112706571D02*
X117792857Y-112763714D01*
X117735714Y-112820857D01*
X117678571Y-112763714D01*
X117735714Y-112706571D01*
X117735714Y-112820857D01*
X117735714Y-112078000D02*
X117792857Y-112135142D01*
X117735714Y-112192285D01*
X117678571Y-112135142D01*
X117735714Y-112078000D01*
X117735714Y-112192285D01*
D13*
X143546356Y-113817611D02*
X143546356Y-63817611D01*
X78546356Y-63817611D02*
X78546356Y-113817611D01*
X140546356Y-116817556D02*
G75*
G03*
X143546351Y-113822847I44J2999956D01*
G01*
X140546356Y-60817611D02*
X81546356Y-60817611D01*
X81546356Y-116817611D02*
X140546356Y-116817611D01*
X143546389Y-63817611D02*
G75*
G03*
X140546356Y-60817611I-2999989J11D01*
G01*
X81546356Y-60817556D02*
G75*
G03*
X78546356Y-63817611I44J-3000044D01*
G01*
X78546389Y-113817611D02*
G75*
G03*
X81546356Y-116817611I3000011J11D01*
G01*
D11*
X81338095Y-64852380D02*
X81338095Y-63852380D01*
X81338095Y-64328571D02*
X81909523Y-64328571D01*
X81909523Y-64852380D02*
X81909523Y-63852380D01*
X82909523Y-64852380D02*
X82338095Y-64852380D01*
X82623809Y-64852380D02*
X82623809Y-63852380D01*
X82528571Y-63995238D01*
X82433333Y-64090476D01*
X82338095Y-64138095D01*
X139338095Y-64872380D02*
X139338095Y-63872380D01*
X139338095Y-64348571D02*
X139909523Y-64348571D01*
X139909523Y-64872380D02*
X139909523Y-63872380D01*
X140338095Y-63967619D02*
X140385714Y-63920000D01*
X140480952Y-63872380D01*
X140719047Y-63872380D01*
X140814285Y-63920000D01*
X140861904Y-63967619D01*
X140909523Y-64062857D01*
X140909523Y-64158095D01*
X140861904Y-64300952D01*
X140290476Y-64872380D01*
X140909523Y-64872380D01*
X81338095Y-113862380D02*
X81338095Y-112862380D01*
X81338095Y-113338571D02*
X81909523Y-113338571D01*
X81909523Y-113862380D02*
X81909523Y-112862380D01*
X82290476Y-112862380D02*
X82909523Y-112862380D01*
X82576190Y-113243333D01*
X82719047Y-113243333D01*
X82814285Y-113290952D01*
X82861904Y-113338571D01*
X82909523Y-113433809D01*
X82909523Y-113671904D01*
X82861904Y-113767142D01*
X82814285Y-113814761D01*
X82719047Y-113862380D01*
X82433333Y-113862380D01*
X82338095Y-113814761D01*
X82290476Y-113767142D01*
X139328095Y-113852380D02*
X139328095Y-112852380D01*
X139328095Y-113328571D02*
X139899523Y-113328571D01*
X139899523Y-113852380D02*
X139899523Y-112852380D01*
X140804285Y-113185714D02*
X140804285Y-113852380D01*
X140566190Y-112804761D02*
X140328095Y-113519047D01*
X140947142Y-113519047D01*
X106878380Y-93638666D02*
X106402190Y-93972000D01*
X106878380Y-94210095D02*
X105878380Y-94210095D01*
X105878380Y-93829142D01*
X105926000Y-93733904D01*
X105973619Y-93686285D01*
X106068857Y-93638666D01*
X106211714Y-93638666D01*
X106306952Y-93686285D01*
X106354571Y-93733904D01*
X106402190Y-93829142D01*
X106402190Y-94210095D01*
X106878380Y-92686285D02*
X106878380Y-93257714D01*
X106878380Y-92972000D02*
X105878380Y-92972000D01*
X106021238Y-93067238D01*
X106116476Y-93162476D01*
X106164095Y-93257714D01*
X98402380Y-70746857D02*
X97926190Y-71080190D01*
X98402380Y-71318285D02*
X97402380Y-71318285D01*
X97402380Y-70937333D01*
X97450000Y-70842095D01*
X97497619Y-70794476D01*
X97592857Y-70746857D01*
X97735714Y-70746857D01*
X97830952Y-70794476D01*
X97878571Y-70842095D01*
X97926190Y-70937333D01*
X97926190Y-71318285D01*
X98402380Y-69794476D02*
X98402380Y-70365904D01*
X98402380Y-70080190D02*
X97402380Y-70080190D01*
X97545238Y-70175428D01*
X97640476Y-70270666D01*
X97688095Y-70365904D01*
X97497619Y-69413523D02*
X97450000Y-69365904D01*
X97402380Y-69270666D01*
X97402380Y-69032571D01*
X97450000Y-68937333D01*
X97497619Y-68889714D01*
X97592857Y-68842095D01*
X97688095Y-68842095D01*
X97830952Y-68889714D01*
X98402380Y-69461142D01*
X98402380Y-68842095D01*
X113879333Y-102814380D02*
X113546000Y-102338190D01*
X113307904Y-102814380D02*
X113307904Y-101814380D01*
X113688857Y-101814380D01*
X113784095Y-101862000D01*
X113831714Y-101909619D01*
X113879333Y-102004857D01*
X113879333Y-102147714D01*
X113831714Y-102242952D01*
X113784095Y-102290571D01*
X113688857Y-102338190D01*
X113307904Y-102338190D01*
X114784095Y-101814380D02*
X114307904Y-101814380D01*
X114260285Y-102290571D01*
X114307904Y-102242952D01*
X114403142Y-102195333D01*
X114641238Y-102195333D01*
X114736476Y-102242952D01*
X114784095Y-102290571D01*
X114831714Y-102385809D01*
X114831714Y-102623904D01*
X114784095Y-102719142D01*
X114736476Y-102766761D01*
X114641238Y-102814380D01*
X114403142Y-102814380D01*
X114307904Y-102766761D01*
X114260285Y-102719142D01*
X104592380Y-74398095D02*
X103592380Y-74398095D01*
X103592380Y-74160000D01*
X103640000Y-74017142D01*
X103735238Y-73921904D01*
X103830476Y-73874285D01*
X104020952Y-73826666D01*
X104163809Y-73826666D01*
X104354285Y-73874285D01*
X104449523Y-73921904D01*
X104544761Y-74017142D01*
X104592380Y-74160000D01*
X104592380Y-74398095D01*
X103592380Y-73493333D02*
X103592380Y-72874285D01*
X103973333Y-73207619D01*
X103973333Y-73064761D01*
X104020952Y-72969523D01*
X104068571Y-72921904D01*
X104163809Y-72874285D01*
X104401904Y-72874285D01*
X104497142Y-72921904D01*
X104544761Y-72969523D01*
X104592380Y-73064761D01*
X104592380Y-73350476D01*
X104544761Y-73445714D01*
X104497142Y-73493333D01*
X91564380Y-90169904D02*
X92373904Y-90169904D01*
X92469142Y-90122285D01*
X92516761Y-90074666D01*
X92564380Y-89979428D01*
X92564380Y-89788952D01*
X92516761Y-89693714D01*
X92469142Y-89646095D01*
X92373904Y-89598476D01*
X91564380Y-89598476D01*
X92564380Y-88598476D02*
X92564380Y-89169904D01*
X92564380Y-88884190D02*
X91564380Y-88884190D01*
X91707238Y-88979428D01*
X91802476Y-89074666D01*
X91850095Y-89169904D01*
X84779142Y-79922666D02*
X84826761Y-79970285D01*
X84874380Y-80113142D01*
X84874380Y-80208380D01*
X84826761Y-80351238D01*
X84731523Y-80446476D01*
X84636285Y-80494095D01*
X84445809Y-80541714D01*
X84302952Y-80541714D01*
X84112476Y-80494095D01*
X84017238Y-80446476D01*
X83922000Y-80351238D01*
X83874380Y-80208380D01*
X83874380Y-80113142D01*
X83922000Y-79970285D01*
X83969619Y-79922666D01*
X83874380Y-79065523D02*
X83874380Y-79256000D01*
X83922000Y-79351238D01*
X83969619Y-79398857D01*
X84112476Y-79494095D01*
X84302952Y-79541714D01*
X84683904Y-79541714D01*
X84779142Y-79494095D01*
X84826761Y-79446476D01*
X84874380Y-79351238D01*
X84874380Y-79160761D01*
X84826761Y-79065523D01*
X84779142Y-79017904D01*
X84683904Y-78970285D01*
X84445809Y-78970285D01*
X84350571Y-79017904D01*
X84302952Y-79065523D01*
X84255333Y-79160761D01*
X84255333Y-79351238D01*
X84302952Y-79446476D01*
X84350571Y-79494095D01*
X84445809Y-79541714D01*
X107640380Y-74398095D02*
X106640380Y-74398095D01*
X106640380Y-74160000D01*
X106688000Y-74017142D01*
X106783238Y-73921904D01*
X106878476Y-73874285D01*
X107068952Y-73826666D01*
X107211809Y-73826666D01*
X107402285Y-73874285D01*
X107497523Y-73921904D01*
X107592761Y-74017142D01*
X107640380Y-74160000D01*
X107640380Y-74398095D01*
X106735619Y-73445714D02*
X106688000Y-73398095D01*
X106640380Y-73302857D01*
X106640380Y-73064761D01*
X106688000Y-72969523D01*
X106735619Y-72921904D01*
X106830857Y-72874285D01*
X106926095Y-72874285D01*
X107068952Y-72921904D01*
X107640380Y-73493333D01*
X107640380Y-72874285D01*
X104498380Y-70746857D02*
X104022190Y-71080190D01*
X104498380Y-71318285D02*
X103498380Y-71318285D01*
X103498380Y-70937333D01*
X103546000Y-70842095D01*
X103593619Y-70794476D01*
X103688857Y-70746857D01*
X103831714Y-70746857D01*
X103926952Y-70794476D01*
X103974571Y-70842095D01*
X104022190Y-70937333D01*
X104022190Y-71318285D01*
X104498380Y-69794476D02*
X104498380Y-70365904D01*
X104498380Y-70080190D02*
X103498380Y-70080190D01*
X103641238Y-70175428D01*
X103736476Y-70270666D01*
X103784095Y-70365904D01*
X103831714Y-68937333D02*
X104498380Y-68937333D01*
X103450761Y-69175428D02*
X104165047Y-69413523D01*
X104165047Y-68794476D01*
X117024666Y-79008380D02*
X117024666Y-79722666D01*
X116977047Y-79865523D01*
X116881809Y-79960761D01*
X116738952Y-80008380D01*
X116643714Y-80008380D01*
X118024666Y-80008380D02*
X117453238Y-80008380D01*
X117738952Y-80008380D02*
X117738952Y-79008380D01*
X117643714Y-79151238D01*
X117548476Y-79246476D01*
X117453238Y-79294095D01*
X88511142Y-110434380D02*
X88177809Y-109958190D01*
X87939714Y-110434380D02*
X87939714Y-109434380D01*
X88320666Y-109434380D01*
X88415904Y-109482000D01*
X88463523Y-109529619D01*
X88511142Y-109624857D01*
X88511142Y-109767714D01*
X88463523Y-109862952D01*
X88415904Y-109910571D01*
X88320666Y-109958190D01*
X87939714Y-109958190D01*
X89463523Y-110434380D02*
X88892095Y-110434380D01*
X89177809Y-110434380D02*
X89177809Y-109434380D01*
X89082571Y-109577238D01*
X88987333Y-109672476D01*
X88892095Y-109720095D01*
X90082571Y-109434380D02*
X90177809Y-109434380D01*
X90273047Y-109482000D01*
X90320666Y-109529619D01*
X90368285Y-109624857D01*
X90415904Y-109815333D01*
X90415904Y-110053428D01*
X90368285Y-110243904D01*
X90320666Y-110339142D01*
X90273047Y-110386761D01*
X90177809Y-110434380D01*
X90082571Y-110434380D01*
X89987333Y-110386761D01*
X89939714Y-110339142D01*
X89892095Y-110243904D01*
X89844476Y-110053428D01*
X89844476Y-109815333D01*
X89892095Y-109624857D01*
X89939714Y-109529619D01*
X89987333Y-109482000D01*
X90082571Y-109434380D01*
X96607333Y-91892380D02*
X96274000Y-91416190D01*
X96035904Y-91892380D02*
X96035904Y-90892380D01*
X96416857Y-90892380D01*
X96512095Y-90940000D01*
X96559714Y-90987619D01*
X96607333Y-91082857D01*
X96607333Y-91225714D01*
X96559714Y-91320952D01*
X96512095Y-91368571D01*
X96416857Y-91416190D01*
X96035904Y-91416190D01*
X97464476Y-91225714D02*
X97464476Y-91892380D01*
X97226380Y-90844761D02*
X96988285Y-91559047D01*
X97607333Y-91559047D01*
X88987333Y-100019142D02*
X88939714Y-100066761D01*
X88796857Y-100114380D01*
X88701619Y-100114380D01*
X88558761Y-100066761D01*
X88463523Y-99971523D01*
X88415904Y-99876285D01*
X88368285Y-99685809D01*
X88368285Y-99542952D01*
X88415904Y-99352476D01*
X88463523Y-99257238D01*
X88558761Y-99162000D01*
X88701619Y-99114380D01*
X88796857Y-99114380D01*
X88939714Y-99162000D01*
X88987333Y-99209619D01*
X89558761Y-99542952D02*
X89463523Y-99495333D01*
X89415904Y-99447714D01*
X89368285Y-99352476D01*
X89368285Y-99304857D01*
X89415904Y-99209619D01*
X89463523Y-99162000D01*
X89558761Y-99114380D01*
X89749238Y-99114380D01*
X89844476Y-99162000D01*
X89892095Y-99209619D01*
X89939714Y-99304857D01*
X89939714Y-99352476D01*
X89892095Y-99447714D01*
X89844476Y-99495333D01*
X89749238Y-99542952D01*
X89558761Y-99542952D01*
X89463523Y-99590571D01*
X89415904Y-99638190D01*
X89368285Y-99733428D01*
X89368285Y-99923904D01*
X89415904Y-100019142D01*
X89463523Y-100066761D01*
X89558761Y-100114380D01*
X89749238Y-100114380D01*
X89844476Y-100066761D01*
X89892095Y-100019142D01*
X89939714Y-99923904D01*
X89939714Y-99733428D01*
X89892095Y-99638190D01*
X89844476Y-99590571D01*
X89749238Y-99542952D01*
X101450380Y-70746857D02*
X100974190Y-71080190D01*
X101450380Y-71318285D02*
X100450380Y-71318285D01*
X100450380Y-70937333D01*
X100498000Y-70842095D01*
X100545619Y-70794476D01*
X100640857Y-70746857D01*
X100783714Y-70746857D01*
X100878952Y-70794476D01*
X100926571Y-70842095D01*
X100974190Y-70937333D01*
X100974190Y-71318285D01*
X101450380Y-69794476D02*
X101450380Y-70365904D01*
X101450380Y-70080190D02*
X100450380Y-70080190D01*
X100593238Y-70175428D01*
X100688476Y-70270666D01*
X100736095Y-70365904D01*
X100450380Y-68889714D02*
X100450380Y-69365904D01*
X100926571Y-69413523D01*
X100878952Y-69365904D01*
X100831333Y-69270666D01*
X100831333Y-69032571D01*
X100878952Y-68937333D01*
X100926571Y-68889714D01*
X101021809Y-68842095D01*
X101259904Y-68842095D01*
X101355142Y-68889714D01*
X101402761Y-68937333D01*
X101450380Y-69032571D01*
X101450380Y-69270666D01*
X101402761Y-69365904D01*
X101355142Y-69413523D01*
X88392095Y-73472380D02*
X88392095Y-74281904D01*
X88439714Y-74377142D01*
X88487333Y-74424761D01*
X88582571Y-74472380D01*
X88773047Y-74472380D01*
X88868285Y-74424761D01*
X88915904Y-74377142D01*
X88963523Y-74281904D01*
X88963523Y-73472380D01*
X89868285Y-73805714D02*
X89868285Y-74472380D01*
X89630190Y-73424761D02*
X89392095Y-74139047D01*
X90011142Y-74139047D01*
X84939142Y-76112666D02*
X84986761Y-76160285D01*
X85034380Y-76303142D01*
X85034380Y-76398380D01*
X84986761Y-76541238D01*
X84891523Y-76636476D01*
X84796285Y-76684095D01*
X84605809Y-76731714D01*
X84462952Y-76731714D01*
X84272476Y-76684095D01*
X84177238Y-76636476D01*
X84082000Y-76541238D01*
X84034380Y-76398380D01*
X84034380Y-76303142D01*
X84082000Y-76160285D01*
X84129619Y-76112666D01*
X84034380Y-75779333D02*
X84034380Y-75112666D01*
X85034380Y-75541238D01*
X88225333Y-83764380D02*
X87892000Y-83288190D01*
X87653904Y-83764380D02*
X87653904Y-82764380D01*
X88034857Y-82764380D01*
X88130095Y-82812000D01*
X88177714Y-82859619D01*
X88225333Y-82954857D01*
X88225333Y-83097714D01*
X88177714Y-83192952D01*
X88130095Y-83240571D01*
X88034857Y-83288190D01*
X87653904Y-83288190D01*
X88558666Y-82764380D02*
X89225333Y-82764380D01*
X88796761Y-83764380D01*
X106972380Y-90336666D02*
X106496190Y-90670000D01*
X106972380Y-90908095D02*
X105972380Y-90908095D01*
X105972380Y-90527142D01*
X106020000Y-90431904D01*
X106067619Y-90384285D01*
X106162857Y-90336666D01*
X106305714Y-90336666D01*
X106400952Y-90384285D01*
X106448571Y-90431904D01*
X106496190Y-90527142D01*
X106496190Y-90908095D01*
X106067619Y-89955714D02*
X106020000Y-89908095D01*
X105972380Y-89812857D01*
X105972380Y-89574761D01*
X106020000Y-89479523D01*
X106067619Y-89431904D01*
X106162857Y-89384285D01*
X106258095Y-89384285D01*
X106400952Y-89431904D01*
X106972380Y-90003333D01*
X106972380Y-89384285D01*
X108712095Y-103670380D02*
X108712095Y-104479904D01*
X108759714Y-104575142D01*
X108807333Y-104622761D01*
X108902571Y-104670380D01*
X109093047Y-104670380D01*
X109188285Y-104622761D01*
X109235904Y-104575142D01*
X109283523Y-104479904D01*
X109283523Y-103670380D01*
X109664476Y-103670380D02*
X110283523Y-103670380D01*
X109950190Y-104051333D01*
X110093047Y-104051333D01*
X110188285Y-104098952D01*
X110235904Y-104146571D01*
X110283523Y-104241809D01*
X110283523Y-104479904D01*
X110235904Y-104575142D01*
X110188285Y-104622761D01*
X110093047Y-104670380D01*
X109807333Y-104670380D01*
X109712095Y-104622761D01*
X109664476Y-104575142D01*
X91384380Y-69254666D02*
X90908190Y-69588000D01*
X91384380Y-69826095D02*
X90384380Y-69826095D01*
X90384380Y-69445142D01*
X90432000Y-69349904D01*
X90479619Y-69302285D01*
X90574857Y-69254666D01*
X90717714Y-69254666D01*
X90812952Y-69302285D01*
X90860571Y-69349904D01*
X90908190Y-69445142D01*
X90908190Y-69826095D01*
X91384380Y-68778476D02*
X91384380Y-68588000D01*
X91336761Y-68492761D01*
X91289142Y-68445142D01*
X91146285Y-68349904D01*
X90955809Y-68302285D01*
X90574857Y-68302285D01*
X90479619Y-68349904D01*
X90432000Y-68397523D01*
X90384380Y-68492761D01*
X90384380Y-68683238D01*
X90432000Y-68778476D01*
X90479619Y-68826095D01*
X90574857Y-68873714D01*
X90812952Y-68873714D01*
X90908190Y-68826095D01*
X90955809Y-68778476D01*
X91003428Y-68683238D01*
X91003428Y-68492761D01*
X90955809Y-68397523D01*
X90908190Y-68349904D01*
X90812952Y-68302285D01*
X85033142Y-90590666D02*
X85080761Y-90638285D01*
X85128380Y-90781142D01*
X85128380Y-90876380D01*
X85080761Y-91019238D01*
X84985523Y-91114476D01*
X84890285Y-91162095D01*
X84699809Y-91209714D01*
X84556952Y-91209714D01*
X84366476Y-91162095D01*
X84271238Y-91114476D01*
X84176000Y-91019238D01*
X84128380Y-90876380D01*
X84128380Y-90781142D01*
X84176000Y-90638285D01*
X84223619Y-90590666D01*
X84223619Y-90209714D02*
X84176000Y-90162095D01*
X84128380Y-90066857D01*
X84128380Y-89828761D01*
X84176000Y-89733523D01*
X84223619Y-89685904D01*
X84318857Y-89638285D01*
X84414095Y-89638285D01*
X84556952Y-89685904D01*
X85128380Y-90257333D01*
X85128380Y-89638285D01*
X109474095Y-93686380D02*
X109474095Y-94495904D01*
X109521714Y-94591142D01*
X109569333Y-94638761D01*
X109664571Y-94686380D01*
X109855047Y-94686380D01*
X109950285Y-94638761D01*
X109997904Y-94591142D01*
X110045523Y-94495904D01*
X110045523Y-93686380D01*
X110474095Y-93781619D02*
X110521714Y-93734000D01*
X110616952Y-93686380D01*
X110855047Y-93686380D01*
X110950285Y-93734000D01*
X110997904Y-93781619D01*
X111045523Y-93876857D01*
X111045523Y-93972095D01*
X110997904Y-94114952D01*
X110426476Y-94686380D01*
X111045523Y-94686380D01*
X98496380Y-74398095D02*
X97496380Y-74398095D01*
X97496380Y-74160000D01*
X97544000Y-74017142D01*
X97639238Y-73921904D01*
X97734476Y-73874285D01*
X97924952Y-73826666D01*
X98067809Y-73826666D01*
X98258285Y-73874285D01*
X98353523Y-73921904D01*
X98448761Y-74017142D01*
X98496380Y-74160000D01*
X98496380Y-74398095D01*
X98496380Y-72874285D02*
X98496380Y-73445714D01*
X98496380Y-73160000D02*
X97496380Y-73160000D01*
X97639238Y-73255238D01*
X97734476Y-73350476D01*
X97782095Y-73445714D01*
X113879333Y-101290380D02*
X113546000Y-100814190D01*
X113307904Y-101290380D02*
X113307904Y-100290380D01*
X113688857Y-100290380D01*
X113784095Y-100338000D01*
X113831714Y-100385619D01*
X113879333Y-100480857D01*
X113879333Y-100623714D01*
X113831714Y-100718952D01*
X113784095Y-100766571D01*
X113688857Y-100814190D01*
X113307904Y-100814190D01*
X114736476Y-100290380D02*
X114546000Y-100290380D01*
X114450761Y-100338000D01*
X114403142Y-100385619D01*
X114307904Y-100528476D01*
X114260285Y-100718952D01*
X114260285Y-101099904D01*
X114307904Y-101195142D01*
X114355523Y-101242761D01*
X114450761Y-101290380D01*
X114641238Y-101290380D01*
X114736476Y-101242761D01*
X114784095Y-101195142D01*
X114831714Y-101099904D01*
X114831714Y-100861809D01*
X114784095Y-100766571D01*
X114736476Y-100718952D01*
X114641238Y-100671333D01*
X114450761Y-100671333D01*
X114355523Y-100718952D01*
X114307904Y-100766571D01*
X114260285Y-100861809D01*
X107546380Y-70746857D02*
X107070190Y-71080190D01*
X107546380Y-71318285D02*
X106546380Y-71318285D01*
X106546380Y-70937333D01*
X106594000Y-70842095D01*
X106641619Y-70794476D01*
X106736857Y-70746857D01*
X106879714Y-70746857D01*
X106974952Y-70794476D01*
X107022571Y-70842095D01*
X107070190Y-70937333D01*
X107070190Y-71318285D01*
X107546380Y-69794476D02*
X107546380Y-70365904D01*
X107546380Y-70080190D02*
X106546380Y-70080190D01*
X106689238Y-70175428D01*
X106784476Y-70270666D01*
X106832095Y-70365904D01*
X106546380Y-69461142D02*
X106546380Y-68842095D01*
X106927333Y-69175428D01*
X106927333Y-69032571D01*
X106974952Y-68937333D01*
X107022571Y-68889714D01*
X107117809Y-68842095D01*
X107355904Y-68842095D01*
X107451142Y-68889714D01*
X107498761Y-68937333D01*
X107546380Y-69032571D01*
X107546380Y-69318285D01*
X107498761Y-69413523D01*
X107451142Y-69461142D01*
X110577333Y-88335142D02*
X110529714Y-88382761D01*
X110386857Y-88430380D01*
X110291619Y-88430380D01*
X110148761Y-88382761D01*
X110053523Y-88287523D01*
X110005904Y-88192285D01*
X109958285Y-88001809D01*
X109958285Y-87858952D01*
X110005904Y-87668476D01*
X110053523Y-87573238D01*
X110148761Y-87478000D01*
X110291619Y-87430380D01*
X110386857Y-87430380D01*
X110529714Y-87478000D01*
X110577333Y-87525619D01*
X110910666Y-87430380D02*
X111529714Y-87430380D01*
X111196380Y-87811333D01*
X111339238Y-87811333D01*
X111434476Y-87858952D01*
X111482095Y-87906571D01*
X111529714Y-88001809D01*
X111529714Y-88239904D01*
X111482095Y-88335142D01*
X111434476Y-88382761D01*
X111339238Y-88430380D01*
X111053523Y-88430380D01*
X110958285Y-88382761D01*
X110910666Y-88335142D01*
X95448380Y-105290857D02*
X94972190Y-105624190D01*
X95448380Y-105862285D02*
X94448380Y-105862285D01*
X94448380Y-105481333D01*
X94496000Y-105386095D01*
X94543619Y-105338476D01*
X94638857Y-105290857D01*
X94781714Y-105290857D01*
X94876952Y-105338476D01*
X94924571Y-105386095D01*
X94972190Y-105481333D01*
X94972190Y-105862285D01*
X95448380Y-104338476D02*
X95448380Y-104909904D01*
X95448380Y-104624190D02*
X94448380Y-104624190D01*
X94591238Y-104719428D01*
X94686476Y-104814666D01*
X94734095Y-104909904D01*
X95448380Y-103386095D02*
X95448380Y-103957523D01*
X95448380Y-103671809D02*
X94448380Y-103671809D01*
X94591238Y-103767047D01*
X94686476Y-103862285D01*
X94734095Y-103957523D01*
X130994666Y-79018380D02*
X130994666Y-79732666D01*
X130947047Y-79875523D01*
X130851809Y-79970761D01*
X130708952Y-80018380D01*
X130613714Y-80018380D01*
X131899428Y-79351714D02*
X131899428Y-80018380D01*
X131661333Y-78970761D02*
X131423238Y-79685047D01*
X132042285Y-79685047D01*
X101544380Y-74398095D02*
X100544380Y-74398095D01*
X100544380Y-74160000D01*
X100592000Y-74017142D01*
X100687238Y-73921904D01*
X100782476Y-73874285D01*
X100972952Y-73826666D01*
X101115809Y-73826666D01*
X101306285Y-73874285D01*
X101401523Y-73921904D01*
X101496761Y-74017142D01*
X101544380Y-74160000D01*
X101544380Y-74398095D01*
X100877714Y-72969523D02*
X101544380Y-72969523D01*
X100496761Y-73207619D02*
X101211047Y-73445714D01*
X101211047Y-72826666D01*
X85090095Y-104100380D02*
X85090095Y-104909904D01*
X85137714Y-105005142D01*
X85185333Y-105052761D01*
X85280571Y-105100380D01*
X85471047Y-105100380D01*
X85566285Y-105052761D01*
X85613904Y-105005142D01*
X85661523Y-104909904D01*
X85661523Y-104100380D01*
X86613904Y-104100380D02*
X86137714Y-104100380D01*
X86090095Y-104576571D01*
X86137714Y-104528952D01*
X86232952Y-104481333D01*
X86471047Y-104481333D01*
X86566285Y-104528952D01*
X86613904Y-104576571D01*
X86661523Y-104671809D01*
X86661523Y-104909904D01*
X86613904Y-105005142D01*
X86566285Y-105052761D01*
X86471047Y-105100380D01*
X86232952Y-105100380D01*
X86137714Y-105052761D01*
X86090095Y-105005142D01*
X114309142Y-106846666D02*
X114356761Y-106894285D01*
X114404380Y-107037142D01*
X114404380Y-107132380D01*
X114356761Y-107275238D01*
X114261523Y-107370476D01*
X114166285Y-107418095D01*
X113975809Y-107465714D01*
X113832952Y-107465714D01*
X113642476Y-107418095D01*
X113547238Y-107370476D01*
X113452000Y-107275238D01*
X113404380Y-107132380D01*
X113404380Y-107037142D01*
X113452000Y-106894285D01*
X113499619Y-106846666D01*
X113404380Y-105941904D02*
X113404380Y-106418095D01*
X113880571Y-106465714D01*
X113832952Y-106418095D01*
X113785333Y-106322857D01*
X113785333Y-106084761D01*
X113832952Y-105989523D01*
X113880571Y-105941904D01*
X113975809Y-105894285D01*
X114213904Y-105894285D01*
X114309142Y-105941904D01*
X114356761Y-105989523D01*
X114404380Y-106084761D01*
X114404380Y-106322857D01*
X114356761Y-106418095D01*
X114309142Y-106465714D01*
X123882666Y-79008380D02*
X123882666Y-79722666D01*
X123835047Y-79865523D01*
X123739809Y-79960761D01*
X123596952Y-80008380D01*
X123501714Y-80008380D01*
X124311238Y-79103619D02*
X124358857Y-79056000D01*
X124454095Y-79008380D01*
X124692190Y-79008380D01*
X124787428Y-79056000D01*
X124835047Y-79103619D01*
X124882666Y-79198857D01*
X124882666Y-79294095D01*
X124835047Y-79436952D01*
X124263619Y-80008380D01*
X124882666Y-80008380D01*
X89606380Y-69254666D02*
X89130190Y-69588000D01*
X89606380Y-69826095D02*
X88606380Y-69826095D01*
X88606380Y-69445142D01*
X88654000Y-69349904D01*
X88701619Y-69302285D01*
X88796857Y-69254666D01*
X88939714Y-69254666D01*
X89034952Y-69302285D01*
X89082571Y-69349904D01*
X89130190Y-69445142D01*
X89130190Y-69826095D01*
X89034952Y-68683238D02*
X88987333Y-68778476D01*
X88939714Y-68826095D01*
X88844476Y-68873714D01*
X88796857Y-68873714D01*
X88701619Y-68826095D01*
X88654000Y-68778476D01*
X88606380Y-68683238D01*
X88606380Y-68492761D01*
X88654000Y-68397523D01*
X88701619Y-68349904D01*
X88796857Y-68302285D01*
X88844476Y-68302285D01*
X88939714Y-68349904D01*
X88987333Y-68397523D01*
X89034952Y-68492761D01*
X89034952Y-68683238D01*
X89082571Y-68778476D01*
X89130190Y-68826095D01*
X89225428Y-68873714D01*
X89415904Y-68873714D01*
X89511142Y-68826095D01*
X89558761Y-68778476D01*
X89606380Y-68683238D01*
X89606380Y-68492761D01*
X89558761Y-68397523D01*
X89511142Y-68349904D01*
X89415904Y-68302285D01*
X89225428Y-68302285D01*
X89130190Y-68349904D01*
X89082571Y-68397523D01*
X89034952Y-68492761D01*
X114563142Y-91860666D02*
X114610761Y-91908285D01*
X114658380Y-92051142D01*
X114658380Y-92146380D01*
X114610761Y-92289238D01*
X114515523Y-92384476D01*
X114420285Y-92432095D01*
X114229809Y-92479714D01*
X114086952Y-92479714D01*
X113896476Y-92432095D01*
X113801238Y-92384476D01*
X113706000Y-92289238D01*
X113658380Y-92146380D01*
X113658380Y-92051142D01*
X113706000Y-91908285D01*
X113753619Y-91860666D01*
X113991714Y-91003523D02*
X114658380Y-91003523D01*
X113610761Y-91241619D02*
X114325047Y-91479714D01*
X114325047Y-90860666D01*
X95259142Y-88304666D02*
X95306761Y-88352285D01*
X95354380Y-88495142D01*
X95354380Y-88590380D01*
X95306761Y-88733238D01*
X95211523Y-88828476D01*
X95116285Y-88876095D01*
X94925809Y-88923714D01*
X94782952Y-88923714D01*
X94592476Y-88876095D01*
X94497238Y-88828476D01*
X94402000Y-88733238D01*
X94354380Y-88590380D01*
X94354380Y-88495142D01*
X94402000Y-88352285D01*
X94449619Y-88304666D01*
X95354380Y-87352285D02*
X95354380Y-87923714D01*
X95354380Y-87638000D02*
X94354380Y-87638000D01*
X94497238Y-87733238D01*
X94592476Y-87828476D01*
X94640095Y-87923714D01*
X96607333Y-93416380D02*
X96274000Y-92940190D01*
X96035904Y-93416380D02*
X96035904Y-92416380D01*
X96416857Y-92416380D01*
X96512095Y-92464000D01*
X96559714Y-92511619D01*
X96607333Y-92606857D01*
X96607333Y-92749714D01*
X96559714Y-92844952D01*
X96512095Y-92892571D01*
X96416857Y-92940190D01*
X96035904Y-92940190D01*
X96940666Y-92416380D02*
X97559714Y-92416380D01*
X97226380Y-92797333D01*
X97369238Y-92797333D01*
X97464476Y-92844952D01*
X97512095Y-92892571D01*
X97559714Y-92987809D01*
X97559714Y-93225904D01*
X97512095Y-93321142D01*
X97464476Y-93368761D01*
X97369238Y-93416380D01*
X97083523Y-93416380D01*
X96988285Y-93368761D01*
X96940666Y-93321142D01*
G36*
X130516698Y-84654348D02*
G01*
X130516698Y-83422478D01*
X131142410Y-83422478D01*
X131142410Y-84634795D01*
X132335174Y-84634795D01*
X132960886Y-84634795D01*
X133547491Y-84634795D01*
X133547491Y-84048190D01*
X132960886Y-84048190D01*
X132960886Y-84634795D01*
X132335174Y-84634795D01*
X132335174Y-83422478D01*
X133567044Y-83422478D01*
X133567044Y-84028636D01*
X134153649Y-84028636D01*
X134153649Y-83422478D01*
X134779361Y-83422478D01*
X134779361Y-84048190D01*
X134173203Y-84048190D01*
X134173203Y-84634795D01*
X134779361Y-84634795D01*
X134779361Y-85260507D01*
X134173203Y-85260507D01*
X134173203Y-86472824D01*
X133567044Y-86472824D01*
X133567044Y-87665588D01*
X134153649Y-87665588D01*
X134153649Y-87059429D01*
X134779361Y-87059429D01*
X134779361Y-87685141D01*
X134173203Y-87685141D01*
X134173203Y-88291300D01*
X133567044Y-88291300D01*
X133567044Y-88897458D01*
X132960886Y-88897458D01*
X132960886Y-89503617D01*
X132335174Y-89503617D01*
X132335174Y-88877905D01*
X132941332Y-88877905D01*
X132941332Y-88271746D01*
X133547491Y-88271746D01*
X133547491Y-87685141D01*
X132941332Y-87685141D01*
X132941332Y-85866666D01*
X132354727Y-85866666D01*
X132354727Y-88291300D01*
X131748569Y-88291300D01*
X131748569Y-89503617D01*
X130516698Y-89503617D01*
X130516698Y-88897458D01*
X129910539Y-88897458D01*
X129910539Y-88877905D01*
X130536251Y-88877905D01*
X131122856Y-88877905D01*
X131122856Y-88291300D01*
X130536251Y-88291300D01*
X130536251Y-88877905D01*
X129910539Y-88877905D01*
X129910539Y-88291300D01*
X128717776Y-88291300D01*
X128717776Y-88877905D01*
X129323934Y-88877905D01*
X129323934Y-89503617D01*
X127505458Y-89503617D01*
X127505458Y-90090222D01*
X128111617Y-90090222D01*
X128111617Y-90715934D01*
X127505458Y-90715934D01*
X127505458Y-91322093D01*
X126899300Y-91322093D01*
X126899300Y-91908698D01*
X128111617Y-91908698D01*
X128111617Y-93140569D01*
X126899300Y-93140569D01*
X126899300Y-93727174D01*
X127505458Y-93727174D01*
X127505458Y-94333332D01*
X128111617Y-94333332D01*
X128111617Y-94939491D01*
X131748569Y-94939491D01*
X131748569Y-95545649D01*
X132354727Y-95545649D01*
X132354727Y-96151808D01*
X134153649Y-96151808D01*
X137203996Y-96151808D01*
X137790601Y-96151808D01*
X137790601Y-95545649D01*
X138396759Y-95545649D01*
X138396759Y-94959044D01*
X137790601Y-94959044D01*
X137790601Y-94333332D01*
X138396759Y-94333332D01*
X138396759Y-93746727D01*
X137203996Y-93746727D01*
X137203996Y-96151808D01*
X134153649Y-96151808D01*
X134153649Y-95545649D01*
X135365967Y-95545649D01*
X135365967Y-94352886D01*
X134153649Y-94352886D01*
X134153649Y-93727174D01*
X134779361Y-93727174D01*
X135385520Y-93727174D01*
X135385520Y-94333332D01*
X136578284Y-94333332D01*
X136578284Y-93746727D01*
X135972125Y-93746727D01*
X135972125Y-93727174D01*
X136597837Y-93727174D01*
X137184442Y-93727174D01*
X137184442Y-93140569D01*
X136597837Y-93140569D01*
X136597837Y-93727174D01*
X135972125Y-93727174D01*
X135972125Y-93121015D01*
X136578284Y-93121015D01*
X136578284Y-92534410D01*
X135385520Y-92534410D01*
X135385520Y-93140569D01*
X134779361Y-93140569D01*
X134779361Y-93727174D01*
X134153649Y-93727174D01*
X134153649Y-93121015D01*
X134759808Y-93121015D01*
X134759808Y-92534410D01*
X134153649Y-92534410D01*
X134153649Y-92514856D01*
X134779361Y-92514856D01*
X135365967Y-92514856D01*
X136597837Y-92514856D01*
X137810154Y-92514856D01*
X137810154Y-93121015D01*
X138416313Y-93121015D01*
X138416313Y-93727174D01*
X139002918Y-93727174D01*
X139002918Y-92534410D01*
X138396759Y-92534410D01*
X138396759Y-91322093D01*
X137810154Y-91322093D01*
X137810154Y-91928251D01*
X136597837Y-91928251D01*
X136597837Y-92514856D01*
X135365967Y-92514856D01*
X135365967Y-91928251D01*
X134779361Y-91928251D01*
X134779361Y-92514856D01*
X134153649Y-92514856D01*
X134153649Y-91928251D01*
X133547491Y-91928251D01*
X133547491Y-91908698D01*
X135991679Y-91908698D01*
X136578284Y-91908698D01*
X136578284Y-91322093D01*
X135991679Y-91322093D01*
X135991679Y-91908698D01*
X133547491Y-91908698D01*
X133547491Y-91302539D01*
X134153649Y-91302539D01*
X135385520Y-91302539D01*
X137184442Y-91302539D01*
X137184442Y-90715934D01*
X136597837Y-90715934D01*
X136597837Y-91302539D01*
X135972125Y-91302539D01*
X135972125Y-90715934D01*
X135385520Y-90715934D01*
X135385520Y-91302539D01*
X134153649Y-91302539D01*
X134153649Y-90715934D01*
X133547491Y-90715934D01*
X133547491Y-90696381D01*
X134173203Y-90696381D01*
X134759808Y-90696381D01*
X135991679Y-90696381D01*
X138396759Y-90696381D01*
X138396759Y-90109776D01*
X137810154Y-90109776D01*
X137810154Y-90696381D01*
X136578284Y-90696381D01*
X136578284Y-90090222D01*
X137184442Y-90090222D01*
X137184442Y-89503617D01*
X135991679Y-89503617D01*
X135991679Y-90696381D01*
X134759808Y-90696381D01*
X134759808Y-90109776D01*
X134173203Y-90109776D01*
X134173203Y-90696381D01*
X133547491Y-90696381D01*
X133547491Y-90090222D01*
X134153649Y-90090222D01*
X134153649Y-89484064D01*
X134759808Y-89484064D01*
X135385520Y-89484064D01*
X135972125Y-89484064D01*
X135972125Y-88897458D01*
X135385520Y-88897458D01*
X135385520Y-89484064D01*
X134759808Y-89484064D01*
X134759808Y-88271746D01*
X136597837Y-88271746D01*
X136597837Y-88877905D01*
X137790601Y-88877905D01*
X137790601Y-88271746D01*
X139628630Y-88271746D01*
X139628630Y-89503617D01*
X139002918Y-89503617D01*
X139002918Y-88897458D01*
X138416313Y-88897458D01*
X138416313Y-90090222D01*
X139022472Y-90090222D01*
X139022472Y-90696381D01*
X139628630Y-90696381D01*
X139628630Y-91928251D01*
X139022472Y-91928251D01*
X139022472Y-92514856D01*
X139628630Y-92514856D01*
X139628630Y-94352886D01*
X138416313Y-94352886D01*
X138416313Y-94939491D01*
X139628630Y-94939491D01*
X139628630Y-95565203D01*
X138416313Y-95565203D01*
X138416313Y-96151808D01*
X139628630Y-96151808D01*
X139628630Y-96777520D01*
X138396759Y-96777520D01*
X138396759Y-96171361D01*
X137810154Y-96171361D01*
X137810154Y-96777520D01*
X137203996Y-96777520D01*
X137203996Y-97364125D01*
X137810154Y-97364125D01*
X137810154Y-97970284D01*
X139628630Y-97970284D01*
X139628630Y-98595996D01*
X138416313Y-98595996D01*
X138416313Y-99182601D01*
X139022472Y-99182601D01*
X139022472Y-100414472D01*
X138416313Y-100414472D01*
X138416313Y-101020630D01*
X137790601Y-101020630D01*
X137790601Y-100414472D01*
X137203996Y-100414472D01*
X137203996Y-101020630D01*
X136578284Y-101020630D01*
X136578284Y-100394918D01*
X137810154Y-100394918D01*
X138396759Y-100394918D01*
X138396759Y-99808313D01*
X137810154Y-99808313D01*
X137810154Y-100394918D01*
X136578284Y-100394918D01*
X136578284Y-99808313D01*
X134779361Y-99808313D01*
X134779361Y-100394918D01*
X135991679Y-100394918D01*
X135991679Y-101020630D01*
X134759808Y-101020630D01*
X134759808Y-100414472D01*
X134173203Y-100414472D01*
X134173203Y-101020630D01*
X133547491Y-101020630D01*
X133547491Y-99808313D01*
X132941332Y-99808313D01*
X132941332Y-99182601D01*
X135385520Y-99182601D01*
X137184442Y-99182601D01*
X137184442Y-98595996D01*
X136597837Y-98595996D01*
X136597837Y-99182601D01*
X135972125Y-99182601D01*
X135972125Y-98595996D01*
X135385520Y-98595996D01*
X135385520Y-99182601D01*
X132941332Y-99182601D01*
X132941332Y-98576442D01*
X133567044Y-98576442D01*
X134153649Y-98576442D01*
X134153649Y-97989837D01*
X133567044Y-97989837D01*
X133567044Y-98576442D01*
X132941332Y-98576442D01*
X132941332Y-97970284D01*
X133547491Y-97970284D01*
X134779361Y-97970284D01*
X136578284Y-97970284D01*
X136578284Y-96171361D01*
X134779361Y-96171361D01*
X134779361Y-97970284D01*
X133547491Y-97970284D01*
X133547491Y-96777520D01*
X132960886Y-96777520D01*
X132960886Y-97383679D01*
X132335174Y-97383679D01*
X132335174Y-96171361D01*
X131748569Y-96171361D01*
X131748569Y-97970284D01*
X132354727Y-97970284D01*
X132354727Y-98595996D01*
X131142410Y-98595996D01*
X131142410Y-100414472D01*
X129910539Y-100414472D01*
X129910539Y-99808313D01*
X128717776Y-99808313D01*
X128717776Y-100394918D01*
X129323934Y-100394918D01*
X129323934Y-101020630D01*
X128092064Y-101020630D01*
X128092064Y-99808313D01*
X126879746Y-99808313D01*
X126879746Y-99788759D01*
X128111617Y-99788759D01*
X130516698Y-99788759D01*
X130516698Y-98595996D01*
X129930093Y-98595996D01*
X129930093Y-99788759D01*
X128698222Y-99788759D01*
X128698222Y-99202154D01*
X128111617Y-99202154D01*
X128111617Y-99788759D01*
X126879746Y-99788759D01*
X126879746Y-97970284D01*
X128717776Y-97970284D01*
X128717776Y-98576442D01*
X129304381Y-98576442D01*
X129304381Y-97970284D01*
X130516698Y-97970284D01*
X130516698Y-97364125D01*
X131122856Y-97364125D01*
X131122856Y-96777520D01*
X129323934Y-96777520D01*
X129323934Y-97383679D01*
X127485905Y-97383679D01*
X127485905Y-96777520D01*
X126879746Y-96777520D01*
X126879746Y-96757967D01*
X127505458Y-96757967D01*
X128092064Y-96757967D01*
X128092064Y-96151808D01*
X128698222Y-96151808D01*
X129930093Y-96151808D01*
X130516698Y-96151808D01*
X130516698Y-95565203D01*
X129930093Y-95565203D01*
X129930093Y-96151808D01*
X128698222Y-96151808D01*
X128698222Y-95565203D01*
X128092064Y-95565203D01*
X128092064Y-94959044D01*
X127505458Y-94959044D01*
X127505458Y-96757967D01*
X126879746Y-96757967D01*
X126879746Y-94959044D01*
X125080824Y-94959044D01*
X125080824Y-95545649D01*
X126293141Y-95545649D01*
X126293141Y-96171361D01*
X125061271Y-96171361D01*
X125061271Y-95565203D01*
X124474666Y-95565203D01*
X124474666Y-96171361D01*
X123242795Y-96171361D01*
X123242795Y-95545649D01*
X124455112Y-95545649D01*
X124455112Y-94352886D01*
X122656190Y-94352886D01*
X122656190Y-96171361D01*
X122030478Y-96171361D01*
X122030478Y-94333332D01*
X125686983Y-94333332D01*
X126273588Y-94333332D01*
X126273588Y-93746727D01*
X125686983Y-93746727D01*
X125686983Y-94333332D01*
X122030478Y-94333332D01*
X122030478Y-93121015D01*
X122636636Y-93121015D01*
X122636636Y-92534410D01*
X122030478Y-92534410D01*
X122030478Y-91908698D01*
X122656190Y-91908698D01*
X122656190Y-92514856D01*
X123868507Y-92514856D01*
X123868507Y-93727174D01*
X124455112Y-93727174D01*
X124455112Y-93121015D01*
X125080824Y-93121015D01*
X126273588Y-93121015D01*
X126273588Y-92534410D01*
X125667429Y-92534410D01*
X125667429Y-92514856D01*
X126293141Y-92514856D01*
X126879746Y-92514856D01*
X126879746Y-91928251D01*
X126293141Y-91928251D01*
X126293141Y-92514856D01*
X125667429Y-92514856D01*
X125667429Y-91928251D01*
X125080824Y-91928251D01*
X125080824Y-93121015D01*
X124455112Y-93121015D01*
X124455112Y-91928251D01*
X123242795Y-91928251D01*
X123242795Y-91908698D01*
X125686983Y-91908698D01*
X126273588Y-91908698D01*
X126273588Y-91322093D01*
X125686983Y-91322093D01*
X125686983Y-91908698D01*
X123242795Y-91908698D01*
X123242795Y-91322093D01*
X122636636Y-91322093D01*
X122636636Y-91302539D01*
X126293141Y-91302539D01*
X126879746Y-91302539D01*
X126879746Y-90715934D01*
X126293141Y-90715934D01*
X126293141Y-91302539D01*
X122636636Y-91302539D01*
X122636636Y-90696381D01*
X123848953Y-90696381D01*
X124474666Y-90696381D01*
X126273588Y-90696381D01*
X126273588Y-90109776D01*
X124474666Y-90109776D01*
X124474666Y-90696381D01*
X123848953Y-90696381D01*
X123848953Y-90090222D01*
X124455112Y-90090222D01*
X124455112Y-89484064D01*
X125061271Y-89484064D01*
X125061271Y-88897458D01*
X123868507Y-88897458D01*
X123868507Y-89503617D01*
X123262348Y-89503617D01*
X123262348Y-90109776D01*
X122636636Y-90109776D01*
X122636636Y-89484064D01*
X123242795Y-89484064D01*
X123242795Y-88271746D01*
X125080824Y-88271746D01*
X125080824Y-88877905D01*
X125667429Y-88877905D01*
X125667429Y-88271746D01*
X126293141Y-88271746D01*
X126293141Y-88897458D01*
X125686983Y-88897458D01*
X125686983Y-89484064D01*
X126879746Y-89484064D01*
X126879746Y-88271746D01*
X128111617Y-88271746D01*
X128698222Y-88271746D01*
X129930093Y-88271746D01*
X130516698Y-88271746D01*
X130516698Y-87665588D01*
X131142410Y-87665588D01*
X131729015Y-87665588D01*
X131729015Y-87078983D01*
X131142410Y-87078983D01*
X131142410Y-87665588D01*
X130516698Y-87665588D01*
X130516698Y-87059429D01*
X131122856Y-87059429D01*
X131122856Y-86453271D01*
X131729015Y-86453271D01*
X131729015Y-85866666D01*
X129930093Y-85866666D01*
X129930093Y-88271746D01*
X128698222Y-88271746D01*
X128698222Y-87685141D01*
X128111617Y-87685141D01*
X128111617Y-88271746D01*
X126879746Y-88271746D01*
X126879746Y-87665588D01*
X127505458Y-87665588D01*
X128092064Y-87665588D01*
X128717776Y-87665588D01*
X129304381Y-87665588D01*
X129304381Y-86472824D01*
X128717776Y-86472824D01*
X128717776Y-87665588D01*
X128092064Y-87665588D01*
X128092064Y-87078983D01*
X127505458Y-87078983D01*
X127505458Y-87665588D01*
X126879746Y-87665588D01*
X126879746Y-86453271D01*
X128092064Y-86453271D01*
X128092064Y-85240953D01*
X128698222Y-85240953D01*
X128698222Y-84654348D01*
X127505458Y-84654348D01*
X127505458Y-85260507D01*
X126879746Y-85260507D01*
X126879746Y-84634795D01*
X128717776Y-84634795D01*
X129304381Y-84634795D01*
X129304381Y-84048190D01*
X128717776Y-84048190D01*
X128717776Y-84634795D01*
X126879746Y-84634795D01*
X126879746Y-83422478D01*
X127505458Y-83422478D01*
X127505458Y-84028636D01*
X128698222Y-84028636D01*
X128698222Y-83422478D01*
X129930093Y-83422478D01*
X129930093Y-84654348D01*
X129323934Y-84654348D01*
X129323934Y-85260507D01*
X128717776Y-85260507D01*
X128717776Y-85847112D01*
X129910539Y-85847112D01*
X132960886Y-85847112D01*
X133547491Y-85847112D01*
X133547491Y-85260507D01*
X132960886Y-85260507D01*
X132960886Y-85847112D01*
X129910539Y-85847112D01*
X129910539Y-85240953D01*
X131122856Y-85240953D01*
X132354727Y-85240953D01*
X132941332Y-85240953D01*
X132941332Y-84654348D01*
X132354727Y-84654348D01*
X132354727Y-85240953D01*
X131122856Y-85240953D01*
X131122856Y-84654348D01*
X130516698Y-84654348D01*
G37*
G36*
X132960886Y-101020630D02*
G01*
X131729015Y-101020630D01*
X131729015Y-100394918D01*
X132960886Y-100394918D01*
X132960886Y-101020630D01*
G37*
G36*
X126273588Y-96757967D02*
G01*
X126273588Y-101001077D01*
X122030478Y-101001077D01*
X122030478Y-100394918D01*
X122636636Y-100394918D01*
X125667429Y-100394918D01*
X125667429Y-97364125D01*
X122636636Y-97364125D01*
X122636636Y-100394918D01*
X122030478Y-100394918D01*
X122030478Y-96757967D01*
X126273588Y-96757967D01*
G37*
G36*
X131202070Y-91530359D02*
G01*
X131200987Y-91551923D01*
X131191984Y-91607692D01*
X131175900Y-91693760D01*
X131153577Y-91806218D01*
X131125856Y-91941161D01*
X131093579Y-92094679D01*
X131057586Y-92262868D01*
X131018719Y-92441818D01*
X130977819Y-92627623D01*
X130935727Y-92816376D01*
X130893284Y-93004169D01*
X130851331Y-93187096D01*
X130810710Y-93361249D01*
X130780692Y-93487643D01*
X130766148Y-93526051D01*
X130753183Y-93530619D01*
X130746794Y-93506465D01*
X130751975Y-93458707D01*
X130752062Y-93458313D01*
X130759340Y-93424466D01*
X130773811Y-93356536D01*
X130794588Y-93258701D01*
X130820785Y-93135143D01*
X130851516Y-92990041D01*
X130885896Y-92827576D01*
X130923038Y-92651926D01*
X130956136Y-92495303D01*
X130994888Y-92312843D01*
X131031784Y-92140973D01*
X131065931Y-91983722D01*
X131096437Y-91845117D01*
X131122409Y-91729187D01*
X131142954Y-91639958D01*
X131157180Y-91581459D01*
X131163741Y-91558649D01*
X131184736Y-91527780D01*
X131202070Y-91530359D01*
G37*
G36*
X131506865Y-92499550D02*
G01*
X131497193Y-92544615D01*
X131494640Y-92567504D01*
X131476769Y-92583648D01*
X131431056Y-92594916D01*
X131412409Y-92596835D01*
X131378917Y-92599001D01*
X131354907Y-92603692D01*
X131337290Y-92616832D01*
X131322976Y-92644350D01*
X131308876Y-92692171D01*
X131291901Y-92766222D01*
X131269117Y-92871708D01*
X131236252Y-93023247D01*
X131169777Y-93023247D01*
X131122531Y-93017968D01*
X131104701Y-92999148D01*
X131103805Y-92989029D01*
X131108249Y-92955044D01*
X131119658Y-92894168D01*
X131135885Y-92817539D01*
X131142410Y-92788605D01*
X131159633Y-92712133D01*
X131172929Y-92650540D01*
X131180233Y-92613501D01*
X131181015Y-92607736D01*
X131164145Y-92598115D01*
X131121924Y-92593225D01*
X131111841Y-92593070D01*
X131065739Y-92590481D01*
X131047912Y-92575511D01*
X131047559Y-92537361D01*
X131048292Y-92529522D01*
X131054419Y-92465973D01*
X131286621Y-92460443D01*
X131518823Y-92454912D01*
X131506865Y-92499550D01*
G37*
G36*
X131876506Y-92457383D02*
G01*
X131940841Y-92462660D01*
X131975710Y-92474597D01*
X131985920Y-92495769D01*
X131976275Y-92528746D01*
X131962969Y-92555249D01*
X131944727Y-92576613D01*
X131912318Y-92588209D01*
X131855663Y-92592680D01*
X131818598Y-92593070D01*
X131749622Y-92594655D01*
X131710227Y-92601243D01*
X131690951Y-92615590D01*
X131684242Y-92632177D01*
X131681927Y-92653324D01*
X131694305Y-92665077D01*
X131729380Y-92670157D01*
X131795153Y-92671283D01*
X131799283Y-92671284D01*
X131867122Y-92672327D01*
X131904685Y-92677523D01*
X131920791Y-92689977D01*
X131924256Y-92712793D01*
X131924251Y-92715280D01*
X131918161Y-92760833D01*
X131895705Y-92789048D01*
X131849464Y-92804506D01*
X131772021Y-92811789D01*
X131767615Y-92812001D01*
X131698696Y-92816557D01*
X131659680Y-92824381D01*
X131641361Y-92838932D01*
X131634776Y-92861931D01*
X131633945Y-92885323D01*
X131645318Y-92898504D01*
X131677143Y-92904390D01*
X131737665Y-92905894D01*
X131759266Y-92905926D01*
X131828507Y-92906666D01*
X131866528Y-92910831D01*
X131881215Y-92921335D01*
X131880452Y-92941097D01*
X131878214Y-92949922D01*
X131868771Y-92990508D01*
X131866157Y-93008582D01*
X131848189Y-93013415D01*
X131801023Y-93017584D01*
X131734490Y-93020879D01*
X131658418Y-93023095D01*
X131582636Y-93024021D01*
X131516975Y-93023451D01*
X131471263Y-93021176D01*
X131455266Y-93017280D01*
X131459211Y-92997087D01*
X131470043Y-92945721D01*
X131486262Y-92870207D01*
X131506366Y-92777571D01*
X131513926Y-92742928D01*
X131535046Y-92645683D01*
X131552789Y-92562809D01*
X131565647Y-92501438D01*
X131572113Y-92468705D01*
X131572587Y-92465370D01*
X131590793Y-92461604D01*
X131640026Y-92458587D01*
X131712208Y-92456680D01*
X131777899Y-92456196D01*
X131876506Y-92457383D01*
G37*
G36*
X132085803Y-92671284D02*
G01*
X132210012Y-92465973D01*
X132300150Y-92460085D01*
X132336171Y-92457237D01*
X132362171Y-92457816D01*
X132380797Y-92467297D01*
X132394693Y-92491153D01*
X132406505Y-92534858D01*
X132418879Y-92603886D01*
X132434461Y-92703712D01*
X132442291Y-92754176D01*
X132458672Y-92860740D01*
X132468247Y-92934638D01*
X132470206Y-92981849D01*
X132463741Y-93008352D01*
X132448043Y-93020126D01*
X132422303Y-93023149D01*
X132405891Y-93023247D01*
X132355697Y-93016445D01*
X132332189Y-92992419D01*
X132329508Y-92984140D01*
X132318449Y-92962112D01*
X132293508Y-92950241D01*
X132245003Y-92945586D01*
X132200818Y-92945033D01*
X132131585Y-92947244D01*
X132090780Y-92955843D01*
X132067878Y-92973785D01*
X132061425Y-92984140D01*
X132033456Y-93012120D01*
X131982783Y-93022760D01*
X131962572Y-93023247D01*
X131884648Y-93023247D01*
X131923121Y-92949922D01*
X131948605Y-92903941D01*
X131988791Y-92834381D01*
X132004261Y-92808159D01*
X132159203Y-92808159D01*
X132239504Y-92808159D01*
X132290189Y-92805410D01*
X132309797Y-92794815D01*
X132307935Y-92777229D01*
X132299667Y-92736682D01*
X132296071Y-92681402D01*
X132296067Y-92679462D01*
X132292302Y-92634939D01*
X132283071Y-92613307D01*
X132281401Y-92612906D01*
X132264759Y-92628793D01*
X132237009Y-92669554D01*
X132212970Y-92710673D01*
X132159203Y-92808159D01*
X132004261Y-92808159D01*
X132037971Y-92751019D01*
X132085803Y-92671284D01*
G37*
G36*
X133228455Y-92457852D02*
G01*
X133265714Y-92461747D01*
X133273742Y-92465215D01*
X133269651Y-92487112D01*
X133258745Y-92537697D01*
X133243068Y-92607570D01*
X133236496Y-92636309D01*
X133215463Y-92729517D01*
X133194556Y-92824931D01*
X133177935Y-92903533D01*
X133176450Y-92910815D01*
X133153648Y-93023247D01*
X133004971Y-93023247D01*
X133042048Y-92864019D01*
X133058115Y-92790387D01*
X133068664Y-92732755D01*
X133072057Y-92700487D01*
X133071265Y-92696931D01*
X133058740Y-92709138D01*
X133031527Y-92748379D01*
X132994275Y-92807698D01*
X132970176Y-92848095D01*
X132912188Y-92941535D01*
X132867383Y-92999131D01*
X132833572Y-93020996D01*
X132808568Y-93007244D01*
X132790181Y-92957991D01*
X132776222Y-92873350D01*
X132774456Y-92858316D01*
X132762856Y-92773647D01*
X132751034Y-92727978D01*
X132738015Y-92721274D01*
X132722821Y-92753503D01*
X132704475Y-92824630D01*
X132697764Y-92855672D01*
X132662598Y-93023247D01*
X132516155Y-93023247D01*
X132563446Y-92803271D01*
X132589280Y-92682178D01*
X132608683Y-92593960D01*
X132624316Y-92533454D01*
X132638837Y-92495501D01*
X132654907Y-92474937D01*
X132675185Y-92466601D01*
X132702331Y-92465333D01*
X132737263Y-92465973D01*
X132833788Y-92465973D01*
X132855524Y-92598512D01*
X132867807Y-92666351D01*
X132879239Y-92717544D01*
X132887374Y-92741161D01*
X132887462Y-92741253D01*
X132901029Y-92730237D01*
X132928643Y-92692123D01*
X132965364Y-92634001D01*
X132983047Y-92604065D01*
X133068430Y-92456676D01*
X133171086Y-92456436D01*
X133228455Y-92457852D01*
G37*
G36*
X128742152Y-92136103D02*
G01*
X128827537Y-92166777D01*
X128865031Y-92190248D01*
X128889174Y-92210720D01*
X128889580Y-92229310D01*
X128864740Y-92259667D01*
X128856359Y-92268618D01*
X128817523Y-92301297D01*
X128789667Y-92302037D01*
X128784929Y-92298702D01*
X128735420Y-92272001D01*
X128675667Y-92257741D01*
X128624352Y-92259675D01*
X128613064Y-92264158D01*
X128591054Y-92285867D01*
X128602000Y-92310196D01*
X128647868Y-92339465D01*
X128695488Y-92361444D01*
X128756072Y-92390615D01*
X128805623Y-92419968D01*
X128820431Y-92431294D01*
X128850509Y-92482418D01*
X128848919Y-92546127D01*
X128816582Y-92613388D01*
X128799717Y-92634381D01*
X128729708Y-92684941D01*
X128641060Y-92706820D01*
X128542852Y-92698925D01*
X128470881Y-92673985D01*
X128406227Y-92639019D01*
X128376650Y-92608388D01*
X128379311Y-92576852D01*
X128402465Y-92547727D01*
X128433041Y-92521027D01*
X128458678Y-92518344D01*
X128497833Y-92538212D01*
X128500734Y-92539923D01*
X128561424Y-92563615D01*
X128627698Y-92573517D01*
X128627913Y-92573517D01*
X128680622Y-92566189D01*
X128698465Y-92546726D01*
X128682298Y-92518913D01*
X128632975Y-92486532D01*
X128605343Y-92473657D01*
X128523621Y-92433760D01*
X128473788Y-92395180D01*
X128449449Y-92351254D01*
X128444027Y-92305625D01*
X128461039Y-92235641D01*
X128506990Y-92181605D01*
X128574247Y-92145609D01*
X128655178Y-92129745D01*
X128742152Y-92136103D01*
G37*
G36*
X130358712Y-92154775D02*
G01*
X130413226Y-92184965D01*
X130457987Y-92224210D01*
X130485498Y-92263812D01*
X130488260Y-92295073D01*
X130484300Y-92300475D01*
X130433278Y-92327527D01*
X130375854Y-92326734D01*
X130331942Y-92300875D01*
X130277208Y-92266796D01*
X130210177Y-92261871D01*
X130144078Y-92285626D01*
X130114962Y-92308656D01*
X130079135Y-92365988D01*
X130065827Y-92434566D01*
X130075808Y-92499753D01*
X130102726Y-92541156D01*
X130157835Y-92567839D01*
X130225880Y-92570624D01*
X130288490Y-92549051D01*
X130293194Y-92545925D01*
X130325875Y-92529402D01*
X130356119Y-92537517D01*
X130379683Y-92553858D01*
X130410690Y-92581692D01*
X130412210Y-92604015D01*
X130398413Y-92623586D01*
X130347280Y-92663588D01*
X130275620Y-92694834D01*
X130202000Y-92709638D01*
X130189805Y-92709962D01*
X130137837Y-92701517D01*
X130073812Y-92680921D01*
X130053599Y-92672392D01*
X129978617Y-92619773D01*
X129931486Y-92547846D01*
X129911606Y-92464132D01*
X129918378Y-92376153D01*
X129951202Y-92291431D01*
X130009479Y-92217489D01*
X130092608Y-92161847D01*
X130094363Y-92161044D01*
X130187483Y-92130014D01*
X130273580Y-92129535D01*
X130358712Y-92154775D01*
G37*
G36*
X128971455Y-92252237D02*
G01*
X128984179Y-92192176D01*
X128990921Y-92158425D01*
X128991525Y-92154281D01*
X129009622Y-92149463D01*
X129058098Y-92145727D01*
X129128227Y-92143616D01*
X129167506Y-92143340D01*
X129255315Y-92144604D01*
X129313302Y-92149504D01*
X129350703Y-92159701D01*
X129376754Y-92176858D01*
X129382097Y-92181950D01*
X129425982Y-92249068D01*
X129431710Y-92324621D01*
X129412118Y-92384590D01*
X129358477Y-92453810D01*
X129276383Y-92497489D01*
X129167829Y-92514630D01*
X129152106Y-92514856D01*
X129054625Y-92514856D01*
X129041430Y-92602847D01*
X129031667Y-92656723D01*
X129016622Y-92682367D01*
X128985503Y-92690260D01*
X128950847Y-92690838D01*
X128901638Y-92688579D01*
X128882041Y-92677681D01*
X128882639Y-92651966D01*
X128883795Y-92646843D01*
X128898276Y-92583952D01*
X128916159Y-92504465D01*
X128935568Y-92416963D01*
X128946477Y-92367197D01*
X129096520Y-92367197D01*
X129120979Y-92376261D01*
X129163020Y-92377982D01*
X129222544Y-92370627D01*
X129262366Y-92351766D01*
X129265067Y-92348901D01*
X129283084Y-92308496D01*
X129265864Y-92278363D01*
X129216735Y-92262299D01*
X129187673Y-92260661D01*
X129131755Y-92265967D01*
X129109591Y-92282829D01*
X129108846Y-92288392D01*
X129101986Y-92331391D01*
X129096977Y-92347052D01*
X129096520Y-92367197D01*
X128946477Y-92367197D01*
X128954625Y-92330027D01*
X128971455Y-92252237D01*
G37*
G36*
X129456916Y-92407312D02*
G01*
X129609368Y-92153117D01*
X129805308Y-92141555D01*
X129839511Y-92372201D01*
X129853905Y-92466932D01*
X129867290Y-92550854D01*
X129878107Y-92614428D01*
X129884469Y-92646843D01*
X129887517Y-92674748D01*
X129872144Y-92687435D01*
X129829063Y-92690774D01*
X129814891Y-92690838D01*
X129762879Y-92687740D01*
X129739515Y-92675137D01*
X129734558Y-92651731D01*
X129730271Y-92629877D01*
X129711445Y-92618075D01*
X129669131Y-92613337D01*
X129617402Y-92612624D01*
X129547646Y-92615078D01*
X129505926Y-92624444D01*
X129481370Y-92643726D01*
X129475824Y-92651731D01*
X129440454Y-92681527D01*
X129379518Y-92690834D01*
X129377891Y-92690838D01*
X129330678Y-92687390D01*
X129305639Y-92678837D01*
X129304422Y-92676173D01*
X129314005Y-92655118D01*
X129340383Y-92606826D01*
X129380048Y-92537484D01*
X129414851Y-92478212D01*
X129578130Y-92478212D01*
X129595326Y-92489511D01*
X129637609Y-92495156D01*
X129646567Y-92495303D01*
X129692418Y-92492063D01*
X129710638Y-92476203D01*
X129712691Y-92441531D01*
X129706537Y-92380474D01*
X129697705Y-92329098D01*
X129685033Y-92270438D01*
X129631581Y-92365780D01*
X129602117Y-92421186D01*
X129582703Y-92463157D01*
X129578130Y-92478212D01*
X129414851Y-92478212D01*
X129429491Y-92453278D01*
X129456916Y-92407312D01*
G37*
G36*
X130874813Y-92143622D02*
G01*
X130934098Y-92145447D01*
X130967337Y-92150281D01*
X130981059Y-92159593D01*
X130981794Y-92174849D01*
X130978753Y-92187335D01*
X130969310Y-92227922D01*
X130966695Y-92245996D01*
X130948657Y-92253225D01*
X130901438Y-92258463D01*
X130834956Y-92260650D01*
X130829554Y-92260661D01*
X130758044Y-92261380D01*
X130717118Y-92265565D01*
X130698253Y-92276261D01*
X130692929Y-92296510D01*
X130692679Y-92309545D01*
X130695163Y-92336637D01*
X130708738Y-92351264D01*
X130742585Y-92357252D01*
X130805888Y-92358427D01*
X130810000Y-92358428D01*
X130880606Y-92361257D01*
X130918085Y-92372892D01*
X130928202Y-92398058D01*
X130916723Y-92441477D01*
X130915453Y-92444820D01*
X130898317Y-92462890D01*
X130859138Y-92472581D01*
X130789932Y-92475725D01*
X130780670Y-92475749D01*
X130707875Y-92478317D01*
X130665940Y-92487240D01*
X130646880Y-92504351D01*
X130645888Y-92506679D01*
X130636530Y-92541136D01*
X130645662Y-92561259D01*
X130679738Y-92570790D01*
X130745210Y-92573472D01*
X130761117Y-92573517D01*
X130834992Y-92575934D01*
X130875727Y-92586094D01*
X130889142Y-92608361D01*
X130881059Y-92647099D01*
X130876346Y-92659908D01*
X130864363Y-92674184D01*
X130836995Y-92683411D01*
X130787397Y-92688571D01*
X130708722Y-92690648D01*
X130660885Y-92690838D01*
X130570075Y-92690535D01*
X130511740Y-92688619D01*
X130479246Y-92683579D01*
X130465961Y-92673905D01*
X130465251Y-92658087D01*
X130467671Y-92646843D01*
X130477730Y-92602746D01*
X130492548Y-92536039D01*
X130510231Y-92455457D01*
X130528886Y-92369732D01*
X130546619Y-92287598D01*
X130561537Y-92217789D01*
X130571746Y-92169039D01*
X130575358Y-92150155D01*
X130593572Y-92147371D01*
X130642858Y-92145137D01*
X130715182Y-92143715D01*
X130782951Y-92143340D01*
X130874813Y-92143622D01*
G37*
G36*
X130006511Y-91696119D02*
G01*
X130049248Y-91703295D01*
X130057191Y-91713163D01*
X130030193Y-91728389D01*
X129998130Y-91732716D01*
X129971010Y-91738707D01*
X129949787Y-91760748D01*
X129931733Y-91804942D01*
X129914119Y-91877392D01*
X129899780Y-91952693D01*
X129884192Y-92002791D01*
X129862821Y-92025588D01*
X129859479Y-92026019D01*
X129835289Y-92017554D01*
X129833022Y-92011354D01*
X129837674Y-91985874D01*
X129849066Y-91934426D01*
X129862047Y-91879368D01*
X129879595Y-91805501D01*
X129887288Y-91761823D01*
X129884047Y-91740412D01*
X129868796Y-91733350D01*
X129842102Y-91732716D01*
X129805355Y-91726023D01*
X129793218Y-91713163D01*
X129811318Y-91703154D01*
X129859888Y-91696230D01*
X129930340Y-91693610D01*
X129931247Y-91693609D01*
X130006511Y-91696119D01*
G37*
G36*
X130413379Y-91707821D02*
G01*
X130412179Y-91727828D01*
X130402624Y-91765915D01*
X130388500Y-91825730D01*
X130379506Y-91865012D01*
X130349250Y-91951293D01*
X130303570Y-92003600D01*
X130239320Y-92025090D01*
X130219045Y-92026019D01*
X130164862Y-92012270D01*
X130123591Y-91984875D01*
X130094673Y-91942624D01*
X130093697Y-91891534D01*
X130095522Y-91882219D01*
X130108933Y-91815305D01*
X130119670Y-91757158D01*
X130135868Y-91710788D01*
X130159636Y-91693609D01*
X130179887Y-91706495D01*
X130177966Y-91737605D01*
X130156817Y-91843017D01*
X130152680Y-91916682D01*
X130166263Y-91962399D01*
X130198273Y-91983966D01*
X130224393Y-91986912D01*
X130271318Y-91971844D01*
X130307676Y-91924736D01*
X130335375Y-91842735D01*
X130342377Y-91810417D01*
X130362029Y-91734418D01*
X130383395Y-91697484D01*
X130393462Y-91693609D01*
X130413379Y-91707821D01*
G37*
G36*
X131065638Y-91702783D02*
G01*
X131058482Y-91733093D01*
X131032877Y-91788723D01*
X130997738Y-91854926D01*
X130956838Y-91925022D01*
X130920108Y-91979733D01*
X130892933Y-92011409D01*
X130884156Y-92016242D01*
X130866266Y-91996918D01*
X130853394Y-91939248D01*
X130849107Y-91898921D01*
X130839331Y-91781600D01*
X130780670Y-91898160D01*
X130738547Y-91974125D01*
X130706158Y-92014051D01*
X130681880Y-92019316D01*
X130665758Y-91995916D01*
X130658529Y-91958696D01*
X130654618Y-91901213D01*
X130653840Y-91834772D01*
X130656011Y-91770679D01*
X130660947Y-91720238D01*
X130668465Y-91694756D01*
X130670682Y-91693609D01*
X130686198Y-91711398D01*
X130700146Y-91757729D01*
X130710066Y-91822044D01*
X130713407Y-91876923D01*
X130715417Y-91905739D01*
X130722375Y-91910981D01*
X130737937Y-91889090D01*
X130765764Y-91836509D01*
X130776243Y-91815819D01*
X130810092Y-91755116D01*
X130840629Y-91711371D01*
X130861481Y-91693650D01*
X130862127Y-91693609D01*
X130878381Y-91712877D01*
X130888939Y-91770331D01*
X130892170Y-91815819D01*
X130897991Y-91938028D01*
X130961821Y-91815819D01*
X130998888Y-91752669D01*
X131032487Y-91709221D01*
X131055850Y-91693609D01*
X131065638Y-91702783D01*
G37*
G36*
X131430041Y-91697517D02*
G01*
X131466805Y-91707084D01*
X131469529Y-91719072D01*
X131436622Y-91730247D01*
X131381940Y-91736533D01*
X131324276Y-91742943D01*
X131295060Y-91756065D01*
X131283656Y-91781259D01*
X131282813Y-91786488D01*
X131283129Y-91814589D01*
X131301397Y-91827270D01*
X131347495Y-91830458D01*
X131356138Y-91830484D01*
X131405616Y-91834751D01*
X131433469Y-91845432D01*
X131435712Y-91850037D01*
X131418236Y-91861699D01*
X131374018Y-91868694D01*
X131347722Y-91869591D01*
X131295242Y-91873158D01*
X131263765Y-91882182D01*
X131259731Y-91887545D01*
X131253281Y-91920512D01*
X131248324Y-91935225D01*
X131249472Y-91954877D01*
X131276915Y-91966005D01*
X131321650Y-91971043D01*
X131371798Y-91978699D01*
X131399572Y-91990915D01*
X131401719Y-91996689D01*
X131382316Y-92007751D01*
X131338532Y-92016563D01*
X131283509Y-92022164D01*
X131230389Y-92023596D01*
X131192315Y-92019897D01*
X131181517Y-92012776D01*
X131185378Y-91987662D01*
X131195620Y-91934663D01*
X131210227Y-91864092D01*
X131214177Y-91845596D01*
X131246837Y-91693609D01*
X131360828Y-91693609D01*
X131430041Y-91697517D01*
G37*
G36*
X131833099Y-91694310D02*
G01*
X131841626Y-91701258D01*
X131842333Y-91721724D01*
X131834967Y-91762976D01*
X131819275Y-91832286D01*
X131810939Y-91868087D01*
X131791747Y-91938593D01*
X131771831Y-91992601D01*
X131755011Y-92020065D01*
X131752656Y-92021397D01*
X131731929Y-92008792D01*
X131701950Y-91964621D01*
X131667079Y-91895803D01*
X131635207Y-91828565D01*
X131613559Y-91796011D01*
X131597612Y-91799042D01*
X131582840Y-91838561D01*
X131564720Y-91915469D01*
X131564548Y-91916246D01*
X131547226Y-91973563D01*
X131526792Y-92012784D01*
X131515952Y-92022085D01*
X131497631Y-92018965D01*
X131499588Y-91986606D01*
X131500070Y-91984573D01*
X131509917Y-91940702D01*
X131523985Y-91874514D01*
X131536072Y-91815819D01*
X131553570Y-91744261D01*
X131571460Y-91705578D01*
X131592628Y-91693620D01*
X131593382Y-91693609D01*
X131621578Y-91712179D01*
X131656821Y-91766064D01*
X131681263Y-91815819D01*
X131736619Y-91938028D01*
X131760645Y-91859814D01*
X131776538Y-91798740D01*
X131785565Y-91746249D01*
X131786173Y-91737605D01*
X131798556Y-91702344D01*
X131817006Y-91693609D01*
X131833099Y-91694310D01*
G37*
G36*
X131332568Y-90929631D02*
G01*
X131334634Y-90978741D01*
X131334590Y-91050738D01*
X131332749Y-91137559D01*
X131329424Y-91231141D01*
X131324930Y-91323422D01*
X131319580Y-91406340D01*
X131313687Y-91471832D01*
X131307567Y-91511837D01*
X131304399Y-91519888D01*
X131281967Y-91518373D01*
X131250421Y-91488237D01*
X131248125Y-91485220D01*
X131219742Y-91450996D01*
X131196816Y-91445104D01*
X131161827Y-91464233D01*
X131156277Y-91467862D01*
X131119942Y-91490005D01*
X131105763Y-91488163D01*
X131103306Y-91459966D01*
X131103303Y-91455830D01*
X131111826Y-91414370D01*
X131134040Y-91352760D01*
X131161350Y-91292265D01*
X131191294Y-91228034D01*
X131212541Y-91174915D01*
X131220201Y-91146111D01*
X131228145Y-91113997D01*
X131247357Y-91063677D01*
X131272489Y-91006790D01*
X131298188Y-90954974D01*
X131319105Y-90919868D01*
X131328076Y-90911469D01*
X131332568Y-90929631D01*
G37*
G36*
X126273588Y-83422478D02*
G01*
X126273588Y-87665588D01*
X122030478Y-87665588D01*
X122030478Y-87059429D01*
X122636636Y-87059429D01*
X125667429Y-87059429D01*
X125667429Y-84028636D01*
X122636636Y-84028636D01*
X122636636Y-87059429D01*
X122030478Y-87059429D01*
X122030478Y-83422478D01*
X126273588Y-83422478D01*
G37*
G36*
X139609077Y-83422478D02*
G01*
X139609077Y-87665588D01*
X135365967Y-87665588D01*
X135365967Y-87059429D01*
X135972125Y-87059429D01*
X139002918Y-87059429D01*
X139002918Y-84028636D01*
X135972125Y-84028636D01*
X135972125Y-87059429D01*
X135365967Y-87059429D01*
X135365967Y-83422478D01*
X139609077Y-83422478D01*
G37*
G36*
X135991679Y-97383679D02*
G01*
X135365967Y-97383679D01*
X135365967Y-96757967D01*
X135991679Y-96757967D01*
X135991679Y-97383679D01*
G37*
G36*
X125061271Y-99788759D02*
G01*
X123242795Y-99788759D01*
X123242795Y-97970284D01*
X125061271Y-97970284D01*
X125061271Y-99788759D01*
G37*
G36*
X125061271Y-86453271D02*
G01*
X123242795Y-86453271D01*
X123242795Y-84634795D01*
X125061271Y-84634795D01*
X125061271Y-86453271D01*
G37*
G36*
X138396759Y-86453271D02*
G01*
X136578284Y-86453271D01*
X136578284Y-84634795D01*
X138396759Y-84634795D01*
X138396759Y-86453271D01*
G37*
G36*
X119733221Y-105848573D02*
G01*
X119749676Y-105865543D01*
X119756213Y-105887687D01*
X119750489Y-105909985D01*
X119744500Y-105917567D01*
X119720231Y-105932773D01*
X119694072Y-105931197D01*
X119682684Y-105925789D01*
X119669961Y-105910093D01*
X119667976Y-105888388D01*
X119675004Y-105866132D01*
X119689324Y-105848784D01*
X119709187Y-105841800D01*
X119733221Y-105848573D01*
G37*
D14*
X119733221Y-105848573D02*
X119749676Y-105865543D01*
X119756213Y-105887687D01*
X119750489Y-105909985D01*
X119744500Y-105917567D01*
X119720231Y-105932773D01*
X119694072Y-105931197D01*
X119682684Y-105925789D01*
X119669961Y-105910093D01*
X119667976Y-105888388D01*
X119675004Y-105866132D01*
X119689324Y-105848784D01*
X119709187Y-105841800D01*
X119733221Y-105848573D01*
G36*
X125073590Y-106184700D02*
G01*
X125096649Y-106213937D01*
X125115635Y-106237460D01*
X125128312Y-106252532D01*
X125132418Y-106256667D01*
X125138265Y-106250349D01*
X125152032Y-106233259D01*
X125171503Y-106208191D01*
X125189108Y-106185059D01*
X125243167Y-106113451D01*
X125288172Y-106113092D01*
X125333177Y-106112734D01*
X125266138Y-106199517D01*
X125233328Y-106241457D01*
X125209632Y-106272509D01*
X125194837Y-106295918D01*
X125188726Y-106314927D01*
X125191087Y-106332780D01*
X125201705Y-106352721D01*
X125220365Y-106377995D01*
X125246853Y-106411846D01*
X125251692Y-106418128D01*
X125278875Y-106453561D01*
X125302801Y-106484709D01*
X125321373Y-106508843D01*
X125332490Y-106523234D01*
X125334248Y-106525484D01*
X125335463Y-106531708D01*
X125324919Y-106534924D01*
X125300178Y-106535811D01*
X125297120Y-106535800D01*
X125251634Y-106535532D01*
X125192656Y-106455270D01*
X125169178Y-106424123D01*
X125149110Y-106399001D01*
X125134612Y-106382506D01*
X125127896Y-106377220D01*
X125120734Y-106384430D01*
X125105591Y-106402375D01*
X125084724Y-106428307D01*
X125061723Y-106457750D01*
X125001333Y-106536067D01*
X124916047Y-106536067D01*
X124932784Y-106512784D01*
X124944271Y-106497262D01*
X124963509Y-106471753D01*
X124987905Y-106439677D01*
X125014865Y-106404456D01*
X125017387Y-106401173D01*
X125085253Y-106312847D01*
X125016683Y-106223373D01*
X124990562Y-106189282D01*
X124967750Y-106159494D01*
X124950444Y-106136880D01*
X124940840Y-106124308D01*
X124940086Y-106123317D01*
X124939095Y-106116909D01*
X124950195Y-106113628D01*
X124974727Y-106112734D01*
X125017395Y-106112734D01*
X125073590Y-106184700D01*
G37*
X125073590Y-106184700D02*
X125096649Y-106213937D01*
X125115635Y-106237460D01*
X125128312Y-106252532D01*
X125132418Y-106256667D01*
X125138265Y-106250349D01*
X125152032Y-106233259D01*
X125171503Y-106208191D01*
X125189108Y-106185059D01*
X125243167Y-106113451D01*
X125288172Y-106113092D01*
X125333177Y-106112734D01*
X125266138Y-106199517D01*
X125233328Y-106241457D01*
X125209632Y-106272509D01*
X125194837Y-106295918D01*
X125188726Y-106314927D01*
X125191087Y-106332780D01*
X125201705Y-106352721D01*
X125220365Y-106377995D01*
X125246853Y-106411846D01*
X125251692Y-106418128D01*
X125278875Y-106453561D01*
X125302801Y-106484709D01*
X125321373Y-106508843D01*
X125332490Y-106523234D01*
X125334248Y-106525484D01*
X125335463Y-106531708D01*
X125324919Y-106534924D01*
X125300178Y-106535811D01*
X125297120Y-106535800D01*
X125251634Y-106535532D01*
X125192656Y-106455270D01*
X125169178Y-106424123D01*
X125149110Y-106399001D01*
X125134612Y-106382506D01*
X125127896Y-106377220D01*
X125120734Y-106384430D01*
X125105591Y-106402375D01*
X125084724Y-106428307D01*
X125061723Y-106457750D01*
X125001333Y-106536067D01*
X124916047Y-106536067D01*
X124932784Y-106512784D01*
X124944271Y-106497262D01*
X124963509Y-106471753D01*
X124987905Y-106439677D01*
X125014865Y-106404456D01*
X125017387Y-106401173D01*
X125085253Y-106312847D01*
X125016683Y-106223373D01*
X124990562Y-106189282D01*
X124967750Y-106159494D01*
X124950444Y-106136880D01*
X124940840Y-106124308D01*
X124940086Y-106123317D01*
X124939095Y-106116909D01*
X124950195Y-106113628D01*
X124974727Y-106112734D01*
X125017395Y-106112734D01*
X125073590Y-106184700D01*
G36*
X119439267Y-106196178D02*
G01*
X119438786Y-106206614D01*
X119436396Y-106216552D01*
X119430676Y-106227612D01*
X119420204Y-106241410D01*
X119403558Y-106259565D01*
X119379317Y-106283693D01*
X119346060Y-106315412D01*
X119302365Y-106356341D01*
X119281172Y-106376095D01*
X119123077Y-106523367D01*
X119281172Y-106525670D01*
X119439267Y-106527974D01*
X119439267Y-106586867D01*
X119015934Y-106586867D01*
X119015934Y-106554222D01*
X119016414Y-106543787D01*
X119018804Y-106533849D01*
X119024524Y-106522790D01*
X119034995Y-106508993D01*
X119051640Y-106490841D01*
X119075880Y-106466715D01*
X119109137Y-106434998D01*
X119152831Y-106394073D01*
X119174040Y-106374306D01*
X119332147Y-106227034D01*
X119180390Y-106222800D01*
X119028634Y-106218567D01*
X119025980Y-106191050D01*
X119023327Y-106163534D01*
X119439267Y-106163534D01*
X119439267Y-106196178D01*
G37*
X119439267Y-106196178D02*
X119438786Y-106206614D01*
X119436396Y-106216552D01*
X119430676Y-106227612D01*
X119420204Y-106241410D01*
X119403558Y-106259565D01*
X119379317Y-106283693D01*
X119346060Y-106315412D01*
X119302365Y-106356341D01*
X119281172Y-106376095D01*
X119123077Y-106523367D01*
X119281172Y-106525670D01*
X119439267Y-106527974D01*
X119439267Y-106586867D01*
X119015934Y-106586867D01*
X119015934Y-106554222D01*
X119016414Y-106543787D01*
X119018804Y-106533849D01*
X119024524Y-106522790D01*
X119034995Y-106508993D01*
X119051640Y-106490841D01*
X119075880Y-106466715D01*
X119109137Y-106434998D01*
X119152831Y-106394073D01*
X119174040Y-106374306D01*
X119332147Y-106227034D01*
X119180390Y-106222800D01*
X119028634Y-106218567D01*
X119025980Y-106191050D01*
X119023327Y-106163534D01*
X119439267Y-106163534D01*
X119439267Y-106196178D01*
G36*
X119475122Y-100678419D02*
G01*
X119488186Y-100681663D01*
X119489631Y-100683484D01*
X119485440Y-100692258D01*
X119473874Y-100713637D01*
X119456073Y-100745586D01*
X119433179Y-100786074D01*
X119406331Y-100833068D01*
X119381681Y-100875871D01*
X119344756Y-100939359D01*
X119314601Y-100989614D01*
X119289714Y-101028179D01*
X119268592Y-101056597D01*
X119249731Y-101076410D01*
X119231630Y-101089160D01*
X119212784Y-101096390D01*
X119191692Y-101099642D01*
X119166850Y-101100459D01*
X119162848Y-101100467D01*
X119133682Y-101100075D01*
X119117578Y-101097884D01*
X119110669Y-101092372D01*
X119109085Y-101082016D01*
X119109067Y-101079300D01*
X119110875Y-101065744D01*
X119119454Y-101059662D01*
X119139534Y-101058147D01*
X119143490Y-101058134D01*
X119177875Y-101054814D01*
X119202204Y-101042613D01*
X119222431Y-101018169D01*
X119226739Y-101011124D01*
X119244743Y-100980611D01*
X119196849Y-100898722D01*
X119171662Y-100855678D01*
X119144147Y-100808680D01*
X119118650Y-100765157D01*
X119107997Y-100746984D01*
X119067040Y-100677134D01*
X119107104Y-100677171D01*
X119147167Y-100677208D01*
X119213754Y-100796145D01*
X119236282Y-100836002D01*
X119255830Y-100869860D01*
X119270975Y-100895313D01*
X119280294Y-100909956D01*
X119282568Y-100912524D01*
X119287261Y-100904647D01*
X119298770Y-100884561D01*
X119315637Y-100854829D01*
X119336406Y-100818017D01*
X119350161Y-100793550D01*
X119415527Y-100677134D01*
X119452797Y-100677134D01*
X119475122Y-100678419D01*
G37*
X119475122Y-100678419D02*
X119488186Y-100681663D01*
X119489631Y-100683484D01*
X119485440Y-100692258D01*
X119473874Y-100713637D01*
X119456073Y-100745586D01*
X119433179Y-100786074D01*
X119406331Y-100833068D01*
X119381681Y-100875871D01*
X119344756Y-100939359D01*
X119314601Y-100989614D01*
X119289714Y-101028179D01*
X119268592Y-101056597D01*
X119249731Y-101076410D01*
X119231630Y-101089160D01*
X119212784Y-101096390D01*
X119191692Y-101099642D01*
X119166850Y-101100459D01*
X119162848Y-101100467D01*
X119133682Y-101100075D01*
X119117578Y-101097884D01*
X119110669Y-101092372D01*
X119109085Y-101082016D01*
X119109067Y-101079300D01*
X119110875Y-101065744D01*
X119119454Y-101059662D01*
X119139534Y-101058147D01*
X119143490Y-101058134D01*
X119177875Y-101054814D01*
X119202204Y-101042613D01*
X119222431Y-101018169D01*
X119226739Y-101011124D01*
X119244743Y-100980611D01*
X119196849Y-100898722D01*
X119171662Y-100855678D01*
X119144147Y-100808680D01*
X119118650Y-100765157D01*
X119107997Y-100746984D01*
X119067040Y-100677134D01*
X119107104Y-100677171D01*
X119147167Y-100677208D01*
X119213754Y-100796145D01*
X119236282Y-100836002D01*
X119255830Y-100869860D01*
X119270975Y-100895313D01*
X119280294Y-100909956D01*
X119282568Y-100912524D01*
X119287261Y-100904647D01*
X119298770Y-100884561D01*
X119315637Y-100854829D01*
X119336406Y-100818017D01*
X119350161Y-100793550D01*
X119415527Y-100677134D01*
X119452797Y-100677134D01*
X119475122Y-100678419D01*
G36*
X119443702Y-105892600D02*
G01*
X119444941Y-105849687D01*
X119449374Y-105817507D01*
X119457995Y-105790002D01*
X119462099Y-105780548D01*
X119489571Y-105735833D01*
X119527624Y-105694089D01*
X119571258Y-105660069D01*
X119609130Y-105640728D01*
X119655167Y-105623554D01*
X119657300Y-103544340D01*
X119659434Y-101465126D01*
X119492588Y-101460300D01*
X119579727Y-101125867D01*
X119604796Y-101029663D01*
X119625943Y-100948570D01*
X119643517Y-100881312D01*
X119657868Y-100826612D01*
X119669343Y-100783197D01*
X119678291Y-100749789D01*
X119685063Y-100725114D01*
X119690006Y-100707895D01*
X119693469Y-100696858D01*
X119695802Y-100690726D01*
X119697352Y-100688225D01*
X119698470Y-100688077D01*
X119699269Y-100688780D01*
X119702227Y-100697498D01*
X119709164Y-100720931D01*
X119719621Y-100757452D01*
X119733144Y-100805434D01*
X119749274Y-100863249D01*
X119767558Y-100929270D01*
X119787537Y-101001870D01*
X119806803Y-101072267D01*
X119910417Y-101451834D01*
X119823008Y-101454237D01*
X119735600Y-101456640D01*
X119735600Y-105619782D01*
X119766956Y-105625665D01*
X119823600Y-105644457D01*
X119875785Y-105677116D01*
X119920509Y-105720642D01*
X119954770Y-105772030D01*
X119975568Y-105828279D01*
X119977149Y-105835918D01*
X119983018Y-105867200D01*
X124129800Y-105867200D01*
X124129800Y-105782534D01*
X124130391Y-105746956D01*
X124131983Y-105718688D01*
X124134308Y-105701330D01*
X124136150Y-105697594D01*
X124147317Y-105699533D01*
X124172400Y-105705311D01*
X124209461Y-105714413D01*
X124256562Y-105726322D01*
X124311766Y-105740523D01*
X124373136Y-105756498D01*
X124438734Y-105773732D01*
X124506621Y-105791709D01*
X124574862Y-105809912D01*
X124641517Y-105827826D01*
X124704650Y-105844933D01*
X124762323Y-105860719D01*
X124812598Y-105874666D01*
X124853538Y-105886259D01*
X124883206Y-105894981D01*
X124899662Y-105900316D01*
X124902364Y-105901718D01*
X124893123Y-105905041D01*
X124869196Y-105912283D01*
X124832252Y-105922975D01*
X124783960Y-105936647D01*
X124725989Y-105952830D01*
X124660008Y-105971054D01*
X124587686Y-105990849D01*
X124527734Y-106007136D01*
X124451455Y-106027810D01*
X124380065Y-106047199D01*
X124315254Y-106064840D01*
X124258713Y-106080271D01*
X124212134Y-106093030D01*
X124177208Y-106102655D01*
X124155626Y-106108683D01*
X124149155Y-106110587D01*
X124144083Y-106107368D01*
X124140422Y-106092280D01*
X124137905Y-106063556D01*
X124136455Y-106026739D01*
X124134034Y-105939167D01*
X122058724Y-105937033D01*
X119983415Y-105934900D01*
X119964394Y-105987067D01*
X119936479Y-106040769D01*
X119895486Y-106088802D01*
X119845199Y-106127061D01*
X119825707Y-106137574D01*
X119787022Y-106150817D01*
X119740088Y-106159021D01*
X119692382Y-106161412D01*
X119651376Y-106157218D01*
X119646700Y-106156089D01*
X119585756Y-106131466D01*
X119531577Y-106092535D01*
X119486715Y-106041384D01*
X119466902Y-106008734D01*
X119454947Y-105983462D01*
X119447920Y-105960075D01*
X119444584Y-105932385D01*
X119444031Y-105908381D01*
X119509540Y-105908381D01*
X119520045Y-105958722D01*
X119543522Y-106004963D01*
X119579244Y-106044610D01*
X119626482Y-106075169D01*
X119659345Y-106087889D01*
X119701478Y-106094631D01*
X119749485Y-106089955D01*
X119767363Y-106085914D01*
X119804889Y-106069633D01*
X119842296Y-106041943D01*
X119874960Y-106007343D01*
X119898256Y-105970332D01*
X119905053Y-105951933D01*
X119912779Y-105893749D01*
X119905611Y-105838777D01*
X119885086Y-105789261D01*
X119852741Y-105747444D01*
X119810115Y-105715569D01*
X119758744Y-105695879D01*
X119726186Y-105690971D01*
X119671299Y-105692880D01*
X119624399Y-105708235D01*
X119582027Y-105738450D01*
X119563122Y-105757711D01*
X119530351Y-105805381D01*
X119512732Y-105856436D01*
X119509540Y-105908381D01*
X119444031Y-105908381D01*
X119443703Y-105894207D01*
X119443702Y-105892600D01*
G37*
X119443702Y-105892600D02*
X119444941Y-105849687D01*
X119449374Y-105817507D01*
X119457995Y-105790002D01*
X119462099Y-105780548D01*
X119489571Y-105735833D01*
X119527624Y-105694089D01*
X119571258Y-105660069D01*
X119609130Y-105640728D01*
X119655167Y-105623554D01*
X119657300Y-103544340D01*
X119659434Y-101465126D01*
X119492588Y-101460300D01*
X119579727Y-101125867D01*
X119604796Y-101029663D01*
X119625943Y-100948570D01*
X119643517Y-100881312D01*
X119657868Y-100826612D01*
X119669343Y-100783197D01*
X119678291Y-100749789D01*
X119685063Y-100725114D01*
X119690006Y-100707895D01*
X119693469Y-100696858D01*
X119695802Y-100690726D01*
X119697352Y-100688225D01*
X119698470Y-100688077D01*
X119699269Y-100688780D01*
X119702227Y-100697498D01*
X119709164Y-100720931D01*
X119719621Y-100757452D01*
X119733144Y-100805434D01*
X119749274Y-100863249D01*
X119767558Y-100929270D01*
X119787537Y-101001870D01*
X119806803Y-101072267D01*
X119910417Y-101451834D01*
X119823008Y-101454237D01*
X119735600Y-101456640D01*
X119735600Y-105619782D01*
X119766956Y-105625665D01*
X119823600Y-105644457D01*
X119875785Y-105677116D01*
X119920509Y-105720642D01*
X119954770Y-105772030D01*
X119975568Y-105828279D01*
X119977149Y-105835918D01*
X119983018Y-105867200D01*
X124129800Y-105867200D01*
X124129800Y-105782534D01*
X124130391Y-105746956D01*
X124131983Y-105718688D01*
X124134308Y-105701330D01*
X124136150Y-105697594D01*
X124147317Y-105699533D01*
X124172400Y-105705311D01*
X124209461Y-105714413D01*
X124256562Y-105726322D01*
X124311766Y-105740523D01*
X124373136Y-105756498D01*
X124438734Y-105773732D01*
X124506621Y-105791709D01*
X124574862Y-105809912D01*
X124641517Y-105827826D01*
X124704650Y-105844933D01*
X124762323Y-105860719D01*
X124812598Y-105874666D01*
X124853538Y-105886259D01*
X124883206Y-105894981D01*
X124899662Y-105900316D01*
X124902364Y-105901718D01*
X124893123Y-105905041D01*
X124869196Y-105912283D01*
X124832252Y-105922975D01*
X124783960Y-105936647D01*
X124725989Y-105952830D01*
X124660008Y-105971054D01*
X124587686Y-105990849D01*
X124527734Y-106007136D01*
X124451455Y-106027810D01*
X124380065Y-106047199D01*
X124315254Y-106064840D01*
X124258713Y-106080271D01*
X124212134Y-106093030D01*
X124177208Y-106102655D01*
X124155626Y-106108683D01*
X124149155Y-106110587D01*
X124144083Y-106107368D01*
X124140422Y-106092280D01*
X124137905Y-106063556D01*
X124136455Y-106026739D01*
X124134034Y-105939167D01*
X122058724Y-105937033D01*
X119983415Y-105934900D01*
X119964394Y-105987067D01*
X119936479Y-106040769D01*
X119895486Y-106088802D01*
X119845199Y-106127061D01*
X119825707Y-106137574D01*
X119787022Y-106150817D01*
X119740088Y-106159021D01*
X119692382Y-106161412D01*
X119651376Y-106157218D01*
X119646700Y-106156089D01*
X119585756Y-106131466D01*
X119531577Y-106092535D01*
X119486715Y-106041384D01*
X119466902Y-106008734D01*
X119454947Y-105983462D01*
X119447920Y-105960075D01*
X119444584Y-105932385D01*
X119444031Y-105908381D01*
X119509540Y-105908381D01*
X119520045Y-105958722D01*
X119543522Y-106004963D01*
X119579244Y-106044610D01*
X119626482Y-106075169D01*
X119659345Y-106087889D01*
X119701478Y-106094631D01*
X119749485Y-106089955D01*
X119767363Y-106085914D01*
X119804889Y-106069633D01*
X119842296Y-106041943D01*
X119874960Y-106007343D01*
X119898256Y-105970332D01*
X119905053Y-105951933D01*
X119912779Y-105893749D01*
X119905611Y-105838777D01*
X119885086Y-105789261D01*
X119852741Y-105747444D01*
X119810115Y-105715569D01*
X119758744Y-105695879D01*
X119726186Y-105690971D01*
X119671299Y-105692880D01*
X119624399Y-105708235D01*
X119582027Y-105738450D01*
X119563122Y-105757711D01*
X119530351Y-105805381D01*
X119512732Y-105856436D01*
X119509540Y-105908381D01*
X119444031Y-105908381D01*
X119443703Y-105894207D01*
X119443702Y-105892600D01*
D15*
X107427500Y-93217276D02*
X107427500Y-93726724D01*
X108472500Y-93217276D02*
X108472500Y-93726724D01*
X97042500Y-69849276D02*
X97042500Y-70358724D01*
X95997500Y-69849276D02*
X95997500Y-70358724D01*
X111251276Y-101839500D02*
X111760724Y-101839500D01*
X111251276Y-102884500D02*
X111760724Y-102884500D01*
X101881000Y-72860000D02*
X101881000Y-75320000D01*
X101881000Y-75320000D02*
X103351000Y-75320000D01*
X103351000Y-75320000D02*
X103351000Y-72860000D01*
X91162000Y-91018000D02*
X88162000Y-91018000D01*
X89662000Y-87798000D02*
X88162000Y-87798000D01*
X86362000Y-79902267D02*
X86362000Y-79609733D01*
X85342000Y-79902267D02*
X85342000Y-79609733D01*
X104929000Y-75320000D02*
X106399000Y-75320000D01*
X104929000Y-72860000D02*
X104929000Y-75320000D01*
X106399000Y-75320000D02*
X106399000Y-72860000D01*
X102093500Y-69849276D02*
X102093500Y-70358724D01*
X103138500Y-69849276D02*
X103138500Y-70358724D01*
X118688000Y-77226000D02*
X118688000Y-78556000D01*
X118688000Y-68276000D02*
X116028000Y-68276000D01*
X118688000Y-78556000D02*
X117358000Y-78556000D01*
X118688000Y-75956000D02*
X118688000Y-68276000D01*
X116028000Y-75956000D02*
X116028000Y-68276000D01*
X118688000Y-75956000D02*
X116028000Y-75956000D01*
X88899276Y-108726500D02*
X89408724Y-108726500D01*
X88899276Y-107681500D02*
X89408724Y-107681500D01*
X93725276Y-90917500D02*
X94234724Y-90917500D01*
X93725276Y-91962500D02*
X94234724Y-91962500D01*
X89007733Y-101602000D02*
X89300267Y-101602000D01*
X89007733Y-100582000D02*
X89300267Y-100582000D01*
X100090500Y-69849276D02*
X100090500Y-70358724D01*
X99045500Y-69849276D02*
X99045500Y-70358724D01*
X89714000Y-74860000D02*
X90764000Y-74860000D01*
X89714000Y-80080000D02*
X90764000Y-80080000D01*
X88594000Y-80080000D02*
X87544000Y-80080000D01*
X86362000Y-75799733D02*
X86362000Y-76092267D01*
X85342000Y-75799733D02*
X85342000Y-76092267D01*
X88137276Y-82310500D02*
X88646724Y-82310500D01*
X88137276Y-81265500D02*
X88646724Y-81265500D01*
X108472500Y-90424724D02*
X108472500Y-89915276D01*
X107427500Y-90424724D02*
X107427500Y-89915276D01*
X110124000Y-106818000D02*
X108824000Y-106818000D01*
X108574000Y-105018000D02*
X110124000Y-105018000D01*
X91454500Y-71373276D02*
X91454500Y-71882724D01*
X90409500Y-71373276D02*
X90409500Y-71882724D01*
X86616000Y-90570267D02*
X86616000Y-90277733D01*
X85596000Y-90570267D02*
X85596000Y-90277733D01*
D16*
X109356000Y-91576000D02*
X109516000Y-91576000D01*
X111116000Y-93336000D02*
X111116000Y-93176000D01*
X111116000Y-91576000D02*
X110956000Y-91576000D01*
X109356000Y-91576000D02*
X109356000Y-91736000D01*
X111116000Y-93336000D02*
X110956000Y-93336000D01*
X111116000Y-91576000D02*
X111116000Y-91736000D01*
X109406000Y-93336000D02*
G75*
G03*
X109406000Y-93336000I-50000J0D01*
G01*
D15*
X97255000Y-75320000D02*
X97255000Y-72860000D01*
X95785000Y-72860000D02*
X95785000Y-75320000D01*
X95785000Y-75320000D02*
X97255000Y-75320000D01*
X111251276Y-101360500D02*
X111760724Y-101360500D01*
X111251276Y-100315500D02*
X111760724Y-100315500D01*
X106186500Y-69849276D02*
X106186500Y-70358724D01*
X105141500Y-69849276D02*
X105141500Y-70358724D01*
X110597733Y-89918000D02*
X110890267Y-89918000D01*
X110597733Y-88898000D02*
X110890267Y-88898000D01*
X93994500Y-104902724D02*
X93994500Y-104393276D01*
X92949500Y-104902724D02*
X92949500Y-104393276D01*
X132658000Y-77236000D02*
X132658000Y-78566000D01*
X132658000Y-78566000D02*
X131328000Y-78566000D01*
X129998000Y-75966000D02*
X129998000Y-68286000D01*
X132658000Y-75966000D02*
X132658000Y-68286000D01*
X132658000Y-68286000D02*
X129998000Y-68286000D01*
X132658000Y-75966000D02*
X129998000Y-75966000D01*
X98833000Y-75320000D02*
X100303000Y-75320000D01*
X98833000Y-72860000D02*
X98833000Y-75320000D01*
X100303000Y-75320000D02*
X100303000Y-72860000D01*
X87804000Y-104948000D02*
X87804000Y-104348000D01*
X90504000Y-104948000D02*
X90504000Y-104348000D01*
X88854000Y-103448000D02*
X89454000Y-103448000D01*
X88854000Y-105848000D02*
X89454000Y-105848000D01*
X87754000Y-103548000D02*
G75*
G03*
X87754000Y-103548000I-100000J0D01*
G01*
X113032000Y-106533733D02*
X113032000Y-106826267D01*
X112012000Y-106533733D02*
X112012000Y-106826267D01*
X125546000Y-77226000D02*
X125546000Y-78556000D01*
X125546000Y-68276000D02*
X122886000Y-68276000D01*
X125546000Y-75956000D02*
X125546000Y-68276000D01*
X125546000Y-78556000D02*
X124216000Y-78556000D01*
X125546000Y-75956000D02*
X122886000Y-75956000D01*
X122886000Y-75956000D02*
X122886000Y-68276000D01*
X88631500Y-71373276D02*
X88631500Y-71882724D01*
X89676500Y-71373276D02*
X89676500Y-71882724D01*
X112266000Y-91547733D02*
X112266000Y-91840267D01*
X113286000Y-91547733D02*
X113286000Y-91840267D01*
X92962000Y-87991733D02*
X92962000Y-88284267D01*
X93982000Y-87991733D02*
X93982000Y-88284267D01*
X93725276Y-93486500D02*
X94234724Y-93486500D01*
X93725276Y-92441500D02*
X94234724Y-92441500D01*
M02*
