M48
; DRILL file {KiCad (6.0.4)} date Sun Jul 17 15:07:20 2022
; FORMAT={-:-/ absolute / metric / decimal}
; #@! TF.CreationDate,2022-07-17T15:07:20+02:00
; #@! TF.GenerationSoftware,Kicad,Pcbnew,(6.0.4)
; #@! TF.FileFunction,Plated,1,4,PTH
FMAT,2
METRIC
; #@! TA.AperFunction,Plated,PTH,ViaDrill
T1C0.200
; #@! TA.AperFunction,Plated,PTH,ComponentDrill
T2C1.000
%
G90
G05
T1
X86.868Y-104.902
X87.376Y-71.628
X89.154Y-91.694
X91.186Y-78.486
X91.186Y-92.964
X91.694Y-104.648
X91.948Y-90.678
X92.456Y-72.39
X92.71Y-67.818
X92.71Y-78.994
X104.394Y-93.726
X105.918Y-90.932
X106.426Y-92.71
X108.712Y-100.33
X109.22Y-102.362
T2
X86.92Y-63.05
X86.92Y-65.59
X89.46Y-63.05
X89.46Y-65.59
X92.0Y-63.05
X92.0Y-65.59
X94.54Y-63.05
X94.54Y-65.59
X97.08Y-63.05
X97.08Y-65.59
X99.62Y-63.05
X99.62Y-65.59
X102.16Y-63.05
X102.16Y-65.59
X104.7Y-63.05
X104.7Y-65.59
X107.24Y-63.05
X107.24Y-65.59
X109.78Y-63.05
X109.78Y-65.59
X112.32Y-63.05
X112.32Y-65.59
X114.86Y-63.05
X114.86Y-65.59
X117.358Y-69.606
X117.358Y-72.146
X117.358Y-74.686
X117.358Y-77.226
X117.4Y-63.05
X117.4Y-65.59
X119.94Y-63.05
X119.94Y-65.59
X122.48Y-63.05
X122.48Y-65.59
X124.216Y-69.606
X124.216Y-72.146
X124.216Y-74.686
X124.216Y-77.226
X125.02Y-63.05
X125.02Y-65.59
X127.56Y-63.05
X127.56Y-65.59
X130.1Y-63.05
X130.1Y-65.59
X131.328Y-69.616
X131.328Y-72.156
X131.328Y-74.696
X131.328Y-77.236
X132.64Y-63.05
X132.64Y-65.59
X135.18Y-63.05
X135.18Y-65.59
T0
M30
