G04 #@! TF.GenerationSoftware,KiCad,Pcbnew,(6.0.4)*
G04 #@! TF.CreationDate,2022-07-17T15:07:22+02:00*
G04 #@! TF.ProjectId,EDU_V2_Hat,4544555f-5632-45f4-9861-742e6b696361,rev?*
G04 #@! TF.SameCoordinates,Original*
G04 #@! TF.FileFunction,Paste,Top*
G04 #@! TF.FilePolarity,Positive*
%FSLAX46Y46*%
G04 Gerber Fmt 4.6, Leading zero omitted, Abs format (unit mm)*
G04 Created by KiCad (PCBNEW (6.0.4)) date 2022-07-17 15:07:22*
%MOMM*%
%LPD*%
G01*
G04 APERTURE LIST*
G04 Aperture macros list*
%AMRoundRect*
0 Rectangle with rounded corners*
0 $1 Rounding radius*
0 $2 $3 $4 $5 $6 $7 $8 $9 X,Y pos of 4 corners*
0 Add a 4 corners polygon primitive as box body*
4,1,4,$2,$3,$4,$5,$6,$7,$8,$9,$2,$3,0*
0 Add four circle primitives for the rounded corners*
1,1,$1+$1,$2,$3*
1,1,$1+$1,$4,$5*
1,1,$1+$1,$6,$7*
1,1,$1+$1,$8,$9*
0 Add four rect primitives between the rounded corners*
20,1,$1+$1,$2,$3,$4,$5,0*
20,1,$1+$1,$4,$5,$6,$7,0*
20,1,$1+$1,$6,$7,$8,$9,0*
20,1,$1+$1,$8,$9,$2,$3,0*%
G04 Aperture macros list end*
G04 #@! TA.AperFunction,Profile*
%ADD10C,0.100000*%
G04 #@! TD*
%ADD11RoundRect,0.237500X-0.237500X0.250000X-0.237500X-0.250000X0.237500X-0.250000X0.237500X0.250000X0*%
%ADD12RoundRect,0.237500X-0.250000X-0.237500X0.250000X-0.237500X0.250000X0.237500X-0.250000X0.237500X0*%
%ADD13RoundRect,0.237500X0.237500X-0.287500X0.237500X0.287500X-0.237500X0.287500X-0.237500X-0.287500X0*%
%ADD14RoundRect,0.125000X-0.137500X0.125000X-0.137500X-0.125000X0.137500X-0.125000X0.137500X0.125000X0*%
%ADD15RoundRect,0.237500X0.237500X-0.300000X0.237500X0.300000X-0.237500X0.300000X-0.237500X-0.300000X0*%
%ADD16RoundRect,0.237500X-0.300000X-0.237500X0.300000X-0.237500X0.300000X0.237500X-0.300000X0.237500X0*%
%ADD17RoundRect,0.150000X-0.325000X-0.150000X0.325000X-0.150000X0.325000X0.150000X-0.325000X0.150000X0*%
%ADD18RoundRect,0.150000X-0.150000X-0.325000X0.150000X-0.325000X0.150000X0.325000X-0.150000X0.325000X0*%
%ADD19RoundRect,0.237500X-0.237500X0.300000X-0.237500X-0.300000X0.237500X-0.300000X0.237500X0.300000X0*%
%ADD20RoundRect,0.237500X0.237500X-0.250000X0.237500X0.250000X-0.237500X0.250000X-0.237500X-0.250000X0*%
%ADD21R,0.700000X0.340000*%
%ADD22C,0.200000*%
%ADD23RoundRect,0.100000X0.300000X0.300000X-0.300000X0.300000X-0.300000X-0.300000X0.300000X-0.300000X0*%
G04 APERTURE END LIST*
D10*
X143546356Y-113817611D02*
X143546356Y-63817611D01*
X78546356Y-63817611D02*
X78546356Y-113817611D01*
X140546356Y-116817556D02*
G75*
G03*
X143546351Y-113822847I44J2999956D01*
G01*
X140546356Y-60817611D02*
X81546356Y-60817611D01*
X81546356Y-116817611D02*
X140546356Y-116817611D01*
X143546389Y-63817611D02*
G75*
G03*
X140546356Y-60817611I-2999989J11D01*
G01*
X81546356Y-60817556D02*
G75*
G03*
X78546356Y-63817611I44J-3000044D01*
G01*
X78546389Y-113817611D02*
G75*
G03*
X81546356Y-116817611I3000011J11D01*
G01*
D11*
X107950000Y-92559500D03*
X107950000Y-94384500D03*
X96520000Y-69191500D03*
X96520000Y-71016500D03*
D12*
X110593500Y-102362000D03*
X112418500Y-102362000D03*
D13*
X102616000Y-74535000D03*
X102616000Y-72785000D03*
D14*
X90849500Y-88208000D03*
X90849500Y-89008000D03*
X90849500Y-89808000D03*
X90849500Y-90608000D03*
X88474500Y-90608000D03*
X88474500Y-89808000D03*
X88474500Y-89008000D03*
X88474500Y-88208000D03*
D15*
X85852000Y-78893500D03*
X85852000Y-80618500D03*
D13*
X105664000Y-74535000D03*
X105664000Y-72785000D03*
D11*
X102616000Y-69191500D03*
X102616000Y-71016500D03*
D12*
X88241500Y-108204000D03*
X90066500Y-108204000D03*
X93067500Y-91440000D03*
X94892500Y-91440000D03*
D16*
X88291500Y-101092000D03*
X90016500Y-101092000D03*
D11*
X99568000Y-69191500D03*
X99568000Y-71016500D03*
D17*
X88154000Y-75470000D03*
X88154000Y-76270000D03*
X88154000Y-77070000D03*
X88154000Y-77870000D03*
X88154000Y-78670000D03*
X88154000Y-79470000D03*
D18*
X89154000Y-79470000D03*
D17*
X90154000Y-79470000D03*
X90154000Y-78670000D03*
X90154000Y-77870000D03*
X90154000Y-77070000D03*
X90154000Y-76270000D03*
X90154000Y-75470000D03*
D18*
X89154000Y-75470000D03*
D19*
X85852000Y-76808500D03*
X85852000Y-75083500D03*
D12*
X87479500Y-81788000D03*
X89304500Y-81788000D03*
D20*
X107950000Y-91082500D03*
X107950000Y-89257500D03*
D21*
X108724000Y-105418000D03*
X108724000Y-105918000D03*
X108724000Y-106418000D03*
X110224000Y-106418000D03*
X110224000Y-105918000D03*
X110224000Y-105418000D03*
D11*
X90932000Y-70715500D03*
X90932000Y-72540500D03*
D15*
X86106000Y-89561500D03*
X86106000Y-91286500D03*
D22*
X109670000Y-93022000D03*
X109670000Y-92456000D03*
X109670000Y-91890000D03*
X109953000Y-92739000D03*
X109953000Y-92173000D03*
X110236000Y-93022000D03*
X110236000Y-91890000D03*
X110519000Y-92739000D03*
X110519000Y-92173000D03*
X110802000Y-93022000D03*
X110802000Y-92456000D03*
X110802000Y-91890000D03*
D13*
X96520000Y-74535000D03*
X96520000Y-72785000D03*
D12*
X110593500Y-100838000D03*
X112418500Y-100838000D03*
D11*
X105664000Y-69191500D03*
X105664000Y-71016500D03*
D16*
X109881500Y-89408000D03*
X111606500Y-89408000D03*
D20*
X93472000Y-105560500D03*
X93472000Y-103735500D03*
D13*
X99568000Y-74535000D03*
X99568000Y-72785000D03*
D23*
X88204000Y-103848000D03*
X88204000Y-105448000D03*
X90104000Y-105448000D03*
X90104000Y-103848000D03*
D19*
X112522000Y-105817500D03*
X112522000Y-107542500D03*
D11*
X89154000Y-70715500D03*
X89154000Y-72540500D03*
D19*
X112776000Y-90831500D03*
X112776000Y-92556500D03*
X93472000Y-87275500D03*
X93472000Y-89000500D03*
D12*
X93067500Y-92964000D03*
X94892500Y-92964000D03*
M02*
