M48
; DRILL file {KiCad 7.0.8} date Wed Jan 24 18:36:18 2024
; FORMAT={-:-/ absolute / inch / decimal}
; #@! TF.CreationDate,2024-01-24T18:36:18+01:00
; #@! TF.GenerationSoftware,Kicad,Pcbnew,7.0.8
; #@! TF.FileFunction,Plated,1,4,PTH
FMAT,2
INCH
; #@! TA.AperFunction,Plated,PTH,ViaDrill
T1C0.0079
; #@! TA.AperFunction,Plated,PTH,ComponentDrill
T2C0.0394
%
G90
G05
T1
X3.2677Y-3.3465
X3.2677Y-3.3858
X3.3071Y-3.3465
X3.3071Y-3.3858
X3.4252Y-3.3465
X3.4252Y-3.3858
X3.44Y-2.82
X3.4646Y-3.3465
X3.4646Y-3.3858
X3.48Y-4.135
X3.495Y-4.165
X3.51Y-3.61
X3.52Y-4.09
X3.525Y-4.005
X3.59Y-3.09
X3.59Y-3.66
X3.62Y-3.57
X3.64Y-2.85
X3.65Y-2.67
X3.65Y-3.11
X4.11Y-3.69
X4.17Y-3.58
X4.19Y-3.65
X4.28Y-3.95
X4.3Y-4.03
T2
X3.422Y-2.4823
X3.422Y-2.5823
X3.522Y-2.4823
X3.522Y-2.5823
X3.622Y-2.4823
X3.622Y-2.5823
X3.722Y-2.4823
X3.722Y-2.5823
X3.822Y-2.4823
X3.822Y-2.5823
X3.922Y-2.4823
X3.922Y-2.5823
X4.022Y-2.4823
X4.022Y-2.5823
X4.122Y-2.4823
X4.122Y-2.5823
X4.222Y-2.4823
X4.222Y-2.5823
X4.322Y-2.4823
X4.322Y-2.5823
X4.422Y-2.4823
X4.422Y-2.5823
X4.522Y-2.4823
X4.522Y-2.5823
X4.6204Y-2.7404
X4.6204Y-2.8404
X4.6204Y-2.9404
X4.6204Y-3.0404
X4.622Y-2.4823
X4.622Y-2.5823
X4.722Y-2.4823
X4.722Y-2.5823
X4.822Y-2.4823
X4.822Y-2.5823
X4.8904Y-2.7404
X4.8904Y-2.8404
X4.8904Y-2.9404
X4.8904Y-3.0404
X4.922Y-2.4823
X4.922Y-2.5823
X5.022Y-2.4823
X5.022Y-2.5823
X5.122Y-2.4823
X5.122Y-2.5823
X5.1704Y-2.7408
X5.1704Y-2.8408
X5.1704Y-2.9408
X5.1704Y-3.0408
X5.222Y-2.4823
X5.222Y-2.5823
X5.322Y-2.4823
X5.322Y-2.5823
T0
M30
