G04 #@! TF.GenerationSoftware,KiCad,Pcbnew,7.0.8*
G04 #@! TF.CreationDate,2024-01-24T18:36:24+01:00*
G04 #@! TF.ProjectId,EDU_V3_0_Raspi_Hat,4544555f-5633-45f3-905f-52617370695f,rev?*
G04 #@! TF.SameCoordinates,Original*
G04 #@! TF.FileFunction,Copper,L1,Top*
G04 #@! TF.FilePolarity,Positive*
%FSLAX46Y46*%
G04 Gerber Fmt 4.6, Leading zero omitted, Abs format (unit mm)*
G04 Created by KiCad (PCBNEW 7.0.8) date 2024-01-24 18:36:24*
%MOMM*%
%LPD*%
G01*
G04 APERTURE LIST*
G04 Aperture macros list*
%AMRoundRect*
0 Rectangle with rounded corners*
0 $1 Rounding radius*
0 $2 $3 $4 $5 $6 $7 $8 $9 X,Y pos of 4 corners*
0 Add a 4 corners polygon primitive as box body*
4,1,4,$2,$3,$4,$5,$6,$7,$8,$9,$2,$3,0*
0 Add four circle primitives for the rounded corners*
1,1,$1+$1,$2,$3*
1,1,$1+$1,$4,$5*
1,1,$1+$1,$6,$7*
1,1,$1+$1,$8,$9*
0 Add four rect primitives between the rounded corners*
20,1,$1+$1,$2,$3,$4,$5,0*
20,1,$1+$1,$4,$5,$6,$7,0*
20,1,$1+$1,$6,$7,$8,$9,0*
20,1,$1+$1,$8,$9,$2,$3,0*%
G04 Aperture macros list end*
G04 #@! TA.AperFunction,SMDPad,CuDef*
%ADD10RoundRect,0.087500X-0.187500X-0.087500X0.187500X-0.087500X0.187500X0.087500X-0.187500X0.087500X0*%
G04 #@! TD*
G04 #@! TA.AperFunction,SMDPad,CuDef*
%ADD11RoundRect,0.087500X-0.087500X-0.187500X0.087500X-0.187500X0.087500X0.187500X-0.087500X0.187500X0*%
G04 #@! TD*
G04 #@! TA.AperFunction,WasherPad*
%ADD12C,3.000000*%
G04 #@! TD*
G04 #@! TA.AperFunction,SMDPad,CuDef*
%ADD13RoundRect,0.237500X-0.237500X0.250000X-0.237500X-0.250000X0.237500X-0.250000X0.237500X0.250000X0*%
G04 #@! TD*
G04 #@! TA.AperFunction,SMDPad,CuDef*
%ADD14RoundRect,0.237500X-0.300000X-0.237500X0.300000X-0.237500X0.300000X0.237500X-0.300000X0.237500X0*%
G04 #@! TD*
G04 #@! TA.AperFunction,SMDPad,CuDef*
%ADD15RoundRect,0.237500X0.237500X-0.287500X0.237500X0.287500X-0.237500X0.287500X-0.237500X-0.287500X0*%
G04 #@! TD*
G04 #@! TA.AperFunction,SMDPad,CuDef*
%ADD16RoundRect,0.125000X-0.137500X0.125000X-0.137500X-0.125000X0.137500X-0.125000X0.137500X0.125000X0*%
G04 #@! TD*
G04 #@! TA.AperFunction,SMDPad,CuDef*
%ADD17RoundRect,0.237500X0.237500X-0.300000X0.237500X0.300000X-0.237500X0.300000X-0.237500X-0.300000X0*%
G04 #@! TD*
G04 #@! TA.AperFunction,ComponentPad*
%ADD18O,1.700000X1.700000*%
G04 #@! TD*
G04 #@! TA.AperFunction,ComponentPad*
%ADD19R,1.700000X1.700000*%
G04 #@! TD*
G04 #@! TA.AperFunction,SMDPad,CuDef*
%ADD20RoundRect,0.150000X-0.150000X-0.325000X0.150000X-0.325000X0.150000X0.325000X-0.150000X0.325000X0*%
G04 #@! TD*
G04 #@! TA.AperFunction,SMDPad,CuDef*
%ADD21RoundRect,0.150000X-0.325000X-0.150000X0.325000X-0.150000X0.325000X0.150000X-0.325000X0.150000X0*%
G04 #@! TD*
G04 #@! TA.AperFunction,SMDPad,CuDef*
%ADD22RoundRect,0.237500X-0.237500X0.300000X-0.237500X-0.300000X0.237500X-0.300000X0.237500X0.300000X0*%
G04 #@! TD*
G04 #@! TA.AperFunction,SMDPad,CuDef*
%ADD23RoundRect,0.237500X-0.250000X-0.237500X0.250000X-0.237500X0.250000X0.237500X-0.250000X0.237500X0*%
G04 #@! TD*
G04 #@! TA.AperFunction,SMDPad,CuDef*
%ADD24RoundRect,0.237500X0.237500X-0.250000X0.237500X0.250000X-0.237500X0.250000X-0.237500X-0.250000X0*%
G04 #@! TD*
G04 #@! TA.AperFunction,SMDPad,CuDef*
%ADD25R,0.700000X0.340000*%
G04 #@! TD*
G04 #@! TA.AperFunction,SMDPad,CuDef*
%ADD26C,0.200000*%
G04 #@! TD*
G04 #@! TA.AperFunction,SMDPad,CuDef*
%ADD27RoundRect,0.237500X0.300000X0.237500X-0.300000X0.237500X-0.300000X-0.237500X0.300000X-0.237500X0*%
G04 #@! TD*
G04 #@! TA.AperFunction,ViaPad*
%ADD28C,0.400000*%
G04 #@! TD*
G04 #@! TA.AperFunction,Conductor*
%ADD29C,0.150000*%
G04 #@! TD*
G04 #@! TA.AperFunction,Conductor*
%ADD30C,0.250000*%
G04 #@! TD*
G04 #@! TA.AperFunction,Conductor*
%ADD31C,0.500000*%
G04 #@! TD*
G04 #@! TA.AperFunction,Profile*
%ADD32C,0.100000*%
G04 #@! TD*
G04 APERTURE END LIST*
D10*
X90088000Y-103775000D03*
X90088000Y-104275000D03*
X90088000Y-104775000D03*
X90088000Y-105275000D03*
X90088000Y-105775000D03*
D11*
X90813000Y-106000000D03*
X91313000Y-106000000D03*
X91813000Y-106000000D03*
D10*
X92538000Y-105775000D03*
X92538000Y-105275000D03*
X92538000Y-104775000D03*
X92538000Y-104275000D03*
X92538000Y-103775000D03*
D11*
X91813000Y-103550000D03*
X91313000Y-103550000D03*
X90813000Y-103550000D03*
D12*
X82040000Y-64310000D03*
X140040000Y-64330000D03*
X82040000Y-113320000D03*
X140030000Y-113310000D03*
D13*
X107950000Y-92559500D03*
X107950000Y-94384500D03*
D14*
X93599000Y-100711000D03*
X91874000Y-100711000D03*
D13*
X96520000Y-71016500D03*
X96520000Y-69191500D03*
D15*
X102616000Y-72785000D03*
X102616000Y-74535000D03*
D16*
X90849500Y-88208000D03*
X90849500Y-89008000D03*
X90849500Y-89808000D03*
X90849500Y-90608000D03*
X88474500Y-90608000D03*
X88474500Y-89808000D03*
X88474500Y-89008000D03*
X88474500Y-88208000D03*
D17*
X85852000Y-78893500D03*
X85852000Y-80618500D03*
D15*
X105664000Y-72785000D03*
X105664000Y-74535000D03*
D13*
X102616000Y-71016500D03*
X102616000Y-69191500D03*
D18*
X117358000Y-69606000D03*
X117358000Y-72146000D03*
X117358000Y-74686000D03*
D19*
X117358000Y-77226000D03*
D13*
X99568000Y-71016500D03*
X99568000Y-69191500D03*
D20*
X89154000Y-75470000D03*
D21*
X90154000Y-75470000D03*
X90154000Y-76270000D03*
X90154000Y-77070000D03*
X90154000Y-77870000D03*
X90154000Y-78670000D03*
X90154000Y-79470000D03*
D20*
X89154000Y-79470000D03*
D21*
X88154000Y-79470000D03*
X88154000Y-78670000D03*
X88154000Y-77870000D03*
X88154000Y-77070000D03*
X88154000Y-76270000D03*
X88154000Y-75470000D03*
D22*
X85852000Y-76808500D03*
X85852000Y-75083500D03*
D23*
X89304500Y-81788000D03*
X87479500Y-81788000D03*
D24*
X107950000Y-91082500D03*
X107950000Y-89257500D03*
D25*
X110224000Y-105418000D03*
X110224000Y-105918000D03*
X110224000Y-106418000D03*
X108724000Y-106418000D03*
X108724000Y-105918000D03*
X108724000Y-105418000D03*
D17*
X86106000Y-89561500D03*
X86106000Y-91286500D03*
D26*
X110802000Y-91890000D03*
X110802000Y-92456000D03*
X110802000Y-93022000D03*
X110519000Y-92173000D03*
X110519000Y-92739000D03*
X110236000Y-91890000D03*
X110236000Y-93022000D03*
X109953000Y-92173000D03*
X109953000Y-92739000D03*
X109670000Y-91890000D03*
X109670000Y-92456000D03*
X109670000Y-93022000D03*
D14*
X93599000Y-99314000D03*
X91874000Y-99314000D03*
D15*
X96520000Y-72785000D03*
X96520000Y-74535000D03*
D13*
X105664000Y-71016500D03*
X105664000Y-69191500D03*
D14*
X111606500Y-89408000D03*
X109881500Y-89408000D03*
D18*
X131328000Y-69616000D03*
X131328000Y-72156000D03*
X131328000Y-74696000D03*
D19*
X131328000Y-77236000D03*
D15*
X99568000Y-72785000D03*
X99568000Y-74535000D03*
D22*
X112522000Y-107542500D03*
X112522000Y-105817500D03*
D23*
X90066500Y-107442000D03*
X88241500Y-107442000D03*
D18*
X124216000Y-69606000D03*
X124216000Y-72146000D03*
X124216000Y-74686000D03*
D19*
X124216000Y-77226000D03*
D22*
X112776000Y-92556500D03*
X112776000Y-90831500D03*
D27*
X91847500Y-102108000D03*
X93572500Y-102108000D03*
D22*
X93472000Y-89000500D03*
X93472000Y-87275500D03*
D18*
X135180000Y-63050000D03*
X135180000Y-65590000D03*
X132640000Y-63050000D03*
X132640000Y-65590000D03*
X130100000Y-63050000D03*
X130100000Y-65590000D03*
X127560000Y-63050000D03*
X127560000Y-65590000D03*
X125020000Y-63050000D03*
X125020000Y-65590000D03*
X122480000Y-63050000D03*
X122480000Y-65590000D03*
X119940000Y-63050000D03*
X119940000Y-65590000D03*
X117400000Y-63050000D03*
X117400000Y-65590000D03*
X114860000Y-63050000D03*
X114860000Y-65590000D03*
X112320000Y-63050000D03*
X112320000Y-65590000D03*
X109780000Y-63050000D03*
X109780000Y-65590000D03*
X107240000Y-63050000D03*
X107240000Y-65590000D03*
X104700000Y-63050000D03*
X104700000Y-65590000D03*
X102160000Y-63050000D03*
X102160000Y-65590000D03*
X99620000Y-63050000D03*
X99620000Y-65590000D03*
X97080000Y-63050000D03*
X97080000Y-65590000D03*
X94540000Y-63050000D03*
X94540000Y-65590000D03*
X92000000Y-63050000D03*
X92000000Y-65590000D03*
X89460000Y-63050000D03*
X89460000Y-65590000D03*
X86920000Y-63050000D03*
D19*
X86920000Y-65590000D03*
D28*
X83000000Y-86000000D03*
X84000000Y-86000000D03*
X84000000Y-85000000D03*
X83000000Y-85000000D03*
X87000000Y-86000000D03*
X88000000Y-86000000D03*
X88000000Y-85000000D03*
X87000000Y-85000000D03*
X88773000Y-105791000D03*
X89408000Y-103886000D03*
X105918000Y-90932000D03*
X88392000Y-105029000D03*
X104394000Y-93726000D03*
X89535000Y-101727000D03*
X109220000Y-102362000D03*
X92456000Y-72390000D03*
X91948000Y-90678000D03*
X92710000Y-67818000D03*
X87376000Y-71628000D03*
X91186000Y-92964000D03*
X92710000Y-78994000D03*
X106426000Y-92710000D03*
X89154000Y-91694000D03*
X91186000Y-78486000D03*
X108712000Y-100330000D03*
D29*
X90066500Y-105796500D02*
X90088000Y-105775000D01*
X90066500Y-107442000D02*
X90066500Y-105796500D01*
D30*
X91847500Y-103515500D02*
X91813000Y-103550000D01*
X91847500Y-102108000D02*
X91847500Y-103515500D01*
X90563000Y-101334000D02*
X90813000Y-101584000D01*
X90813000Y-101584000D02*
X90813000Y-103550000D01*
X90813000Y-103550000D02*
X91313000Y-103550000D01*
X90088000Y-103775000D02*
X90588000Y-103775000D01*
X90588000Y-103775000D02*
X90813000Y-103550000D01*
X89519000Y-103775000D02*
X90088000Y-103775000D01*
X89408000Y-103886000D02*
X89519000Y-103775000D01*
D29*
X89604752Y-104361000D02*
X88941000Y-104361000D01*
X90088000Y-104275000D02*
X89690752Y-104275000D01*
X89690752Y-104275000D02*
X89604752Y-104361000D01*
X88941000Y-104361000D02*
X88777000Y-104525000D01*
X88838686Y-105029000D02*
X88392000Y-105029000D01*
X89092686Y-104775000D02*
X88838686Y-105029000D01*
X90088000Y-104775000D02*
X89092686Y-104775000D01*
D30*
X88474500Y-89008000D02*
X89046000Y-89008000D01*
D31*
X88154000Y-77870000D02*
X85998000Y-77870000D01*
D30*
X89846000Y-88208000D02*
X90849500Y-88208000D01*
D29*
X109474000Y-105918000D02*
X109474000Y-106426000D01*
D30*
X89046000Y-89008000D02*
X89846000Y-88208000D01*
D29*
X110802000Y-92456000D02*
X110519000Y-92739000D01*
D31*
X85998000Y-77870000D02*
X85852000Y-77724000D01*
X88154000Y-76270000D02*
X87306000Y-76270000D01*
D29*
X110519000Y-92739000D02*
X110802000Y-93022000D01*
X109728000Y-91694000D02*
X109728000Y-89561500D01*
X110802000Y-92456000D02*
X112675500Y-92456000D01*
X110216000Y-106426000D02*
X110224000Y-106418000D01*
D31*
X96520000Y-74535000D02*
X99568000Y-74535000D01*
D29*
X110236000Y-91694000D02*
X109728000Y-91694000D01*
X112675500Y-92456000D02*
X112776000Y-92556500D01*
X109670000Y-91752000D02*
X109670000Y-91890000D01*
X110236000Y-93022000D02*
X110802000Y-93022000D01*
X109474000Y-106426000D02*
X110216000Y-106426000D01*
X108724000Y-105918000D02*
X109474000Y-105918000D01*
X111397500Y-106418000D02*
X112522000Y-107542500D01*
D31*
X102616000Y-74535000D02*
X99568000Y-74535000D01*
D29*
X110224000Y-106418000D02*
X111397500Y-106418000D01*
D31*
X88154000Y-78670000D02*
X88154000Y-77870000D01*
X85852000Y-77724000D02*
X85852000Y-78893500D01*
D29*
X110519000Y-92173000D02*
X110802000Y-92456000D01*
D31*
X124216000Y-69606000D02*
X131318000Y-69606000D01*
X86767500Y-76808500D02*
X85852000Y-76808500D01*
X105664000Y-74535000D02*
X102616000Y-74535000D01*
X131318000Y-69606000D02*
X131328000Y-69616000D01*
X117358000Y-69606000D02*
X124216000Y-69606000D01*
D29*
X110519000Y-92173000D02*
X110236000Y-91890000D01*
D31*
X87306000Y-76270000D02*
X86767500Y-76808500D01*
D29*
X109728000Y-91694000D02*
X109670000Y-91752000D01*
X109728000Y-89561500D02*
X109881500Y-89408000D01*
D31*
X85852000Y-76808500D02*
X85852000Y-77724000D01*
D29*
X110236000Y-91890000D02*
X110236000Y-91694000D01*
D30*
X88474500Y-89808000D02*
X89262000Y-89808000D01*
X88241500Y-106322500D02*
X88773000Y-105791000D01*
D31*
X124216000Y-77226000D02*
X131318000Y-77226000D01*
X87479500Y-81788000D02*
X87479500Y-83161500D01*
X93829500Y-69191500D02*
X87630000Y-69191500D01*
X112776000Y-89916000D02*
X112776000Y-90831500D01*
X94892500Y-90066500D02*
X97329000Y-87630000D01*
X94892500Y-92964000D02*
X94892500Y-94337500D01*
X86310000Y-80618500D02*
X87479500Y-81788000D01*
D29*
X111860500Y-90831500D02*
X112776000Y-90831500D01*
D31*
X108966000Y-87630000D02*
X110744000Y-87630000D01*
X93829500Y-69191500D02*
X93829500Y-84130500D01*
D29*
X108307500Y-94384500D02*
X107950000Y-94384500D01*
D30*
X89262000Y-89808000D02*
X90062000Y-89008000D01*
D31*
X94939500Y-94384500D02*
X94892500Y-94337500D01*
X131318000Y-77226000D02*
X131328000Y-77236000D01*
X117358000Y-77226000D02*
X124216000Y-77226000D01*
X91874000Y-99314000D02*
X91874000Y-100711000D01*
X111606500Y-88492500D02*
X111606500Y-89408000D01*
X110744000Y-87630000D02*
X111606500Y-88492500D01*
X88154000Y-79470000D02*
X88154000Y-81113500D01*
X86106000Y-83161500D02*
X86106000Y-87376000D01*
X93829500Y-84130500D02*
X97329000Y-87630000D01*
X94939500Y-94384500D02*
X91874000Y-97450000D01*
X86920000Y-68481500D02*
X85852000Y-69549500D01*
X86106000Y-87376000D02*
X86106000Y-89561500D01*
D30*
X88474500Y-89808000D02*
X86352500Y-89808000D01*
D31*
X87479500Y-83161500D02*
X88448500Y-84130500D01*
X112268000Y-89408000D02*
X112776000Y-89916000D01*
D29*
X112421500Y-105918000D02*
X112522000Y-105817500D01*
D30*
X91874000Y-100711000D02*
X91186000Y-100711000D01*
X86352500Y-89808000D02*
X86106000Y-89561500D01*
D31*
X88154000Y-81113500D02*
X87479500Y-81788000D01*
X94892500Y-92964000D02*
X94892500Y-91440000D01*
X112418500Y-99464500D02*
X107950000Y-94996000D01*
X96520000Y-69191500D02*
X93829500Y-69191500D01*
D29*
X110802000Y-91890000D02*
X111860500Y-90831500D01*
D31*
X112418500Y-100838000D02*
X112418500Y-99464500D01*
X107950000Y-88646000D02*
X108966000Y-87630000D01*
D29*
X110224000Y-105918000D02*
X112421500Y-105918000D01*
D31*
X85852000Y-80618500D02*
X86310000Y-80618500D01*
X107950000Y-94384500D02*
X94939500Y-94384500D01*
X88448500Y-84130500D02*
X93829500Y-84130500D01*
X87630000Y-69191500D02*
X86920000Y-68481500D01*
X86920000Y-65590000D02*
X86920000Y-68481500D01*
X112418500Y-100838000D02*
X112418500Y-102362000D01*
X91874000Y-97450000D02*
X91874000Y-99314000D01*
D29*
X109670000Y-93022000D02*
X108307500Y-94384500D01*
D31*
X85852000Y-69549500D02*
X85852000Y-75083500D01*
X85852000Y-75083500D02*
X87767500Y-75083500D01*
X94892500Y-90066500D02*
X94892500Y-91440000D01*
D30*
X88474500Y-88208000D02*
X86938000Y-88208000D01*
D31*
X87767500Y-75083500D02*
X88154000Y-75470000D01*
X111606500Y-89408000D02*
X112268000Y-89408000D01*
D30*
X90062000Y-89008000D02*
X90849500Y-89008000D01*
D31*
X110744000Y-87630000D02*
X117358000Y-81016000D01*
X97329000Y-87630000D02*
X108966000Y-87630000D01*
D29*
X109670000Y-93022000D02*
X109953000Y-92739000D01*
D30*
X86938000Y-88208000D02*
X86106000Y-87376000D01*
D31*
X112418500Y-102362000D02*
X112418500Y-105714000D01*
X107950000Y-89257500D02*
X107950000Y-88646000D01*
X112418500Y-105714000D02*
X112522000Y-105817500D01*
X93826500Y-89000500D02*
X94892500Y-90066500D01*
D30*
X88241500Y-107442000D02*
X88241500Y-106322500D01*
X91186000Y-100711000D02*
X90563000Y-101334000D01*
D31*
X87479500Y-81788000D02*
X86106000Y-83161500D01*
X93472000Y-89000500D02*
X93826500Y-89000500D01*
X107950000Y-94996000D02*
X107950000Y-94384500D01*
X117358000Y-81016000D02*
X117358000Y-77226000D01*
X96520000Y-71016500D02*
X96520000Y-72785000D01*
X105664000Y-71016500D02*
X105664000Y-72785000D01*
X102616000Y-71016500D02*
X102616000Y-72785000D01*
D30*
X91999750Y-90372250D02*
X91948000Y-90424000D01*
X89662000Y-95631000D02*
X89535000Y-95758000D01*
X92583000Y-92075000D02*
X92583000Y-92710000D01*
D29*
X109953000Y-92173000D02*
X109924000Y-92202000D01*
D30*
X110224000Y-105418000D02*
X110593500Y-105048500D01*
X91948000Y-90424000D02*
X91948000Y-90678000D01*
X110593500Y-105048500D02*
X110593500Y-102362000D01*
D29*
X109069500Y-92202000D02*
X107950000Y-91082500D01*
D31*
X131328000Y-72156000D02*
X124226000Y-72156000D01*
D30*
X106426000Y-90932000D02*
X104394000Y-92964000D01*
X89535000Y-95758000D02*
X89535000Y-101727000D01*
D31*
X117358000Y-72146000D02*
X124216000Y-72146000D01*
D30*
X91435500Y-89808000D02*
X91999750Y-90372250D01*
X109220000Y-102362000D02*
X110593500Y-102362000D01*
X105918000Y-90932000D02*
X106426000Y-90932000D01*
X104394000Y-92964000D02*
X104394000Y-93726000D01*
D31*
X89460000Y-66854000D02*
X90424000Y-67818000D01*
D30*
X92583000Y-92710000D02*
X89662000Y-95631000D01*
D31*
X92305500Y-72540500D02*
X90932000Y-72540500D01*
X92456000Y-72390000D02*
X92305500Y-72540500D01*
D29*
X109924000Y-92202000D02*
X109069500Y-92202000D01*
D31*
X90424000Y-67818000D02*
X92710000Y-67818000D01*
D30*
X92583000Y-91313000D02*
X92583000Y-92075000D01*
D31*
X89460000Y-65590000D02*
X89460000Y-66854000D01*
D30*
X91948000Y-90678000D02*
X92583000Y-91313000D01*
X107799500Y-90932000D02*
X107950000Y-91082500D01*
D31*
X90932000Y-72540500D02*
X90932000Y-74692000D01*
D30*
X106426000Y-90932000D02*
X107799500Y-90932000D01*
X90849500Y-89808000D02*
X91435500Y-89808000D01*
D31*
X90932000Y-74692000D02*
X90154000Y-75470000D01*
D30*
X88773000Y-104521000D02*
X88777000Y-104525000D01*
X109220000Y-101092000D02*
X109220000Y-100838000D01*
D31*
X87780500Y-72540500D02*
X89154000Y-72540500D01*
D30*
X107799500Y-92710000D02*
X107950000Y-92559500D01*
D31*
X89154000Y-72540500D02*
X89154000Y-75470000D01*
X124216000Y-74686000D02*
X117358000Y-74686000D01*
D30*
X91186000Y-92964000D02*
X91186000Y-92710000D01*
D29*
X109670000Y-92456000D02*
X108053500Y-92456000D01*
D31*
X92710000Y-78994000D02*
X91694000Y-78994000D01*
X87376000Y-72136000D02*
X87780500Y-72540500D01*
D30*
X90849500Y-90746000D02*
X91999750Y-91896250D01*
D31*
X87376000Y-71628000D02*
X87376000Y-72136000D01*
D30*
X91186000Y-92710000D02*
X91999750Y-91896250D01*
D31*
X131328000Y-74696000D02*
X124226000Y-74696000D01*
D29*
X108053500Y-92456000D02*
X107950000Y-92559500D01*
D30*
X90849500Y-90608000D02*
X90849500Y-90746000D01*
X89916000Y-91694000D02*
X89154000Y-91694000D01*
X106426000Y-92710000D02*
X107799500Y-92710000D01*
X91186000Y-92964000D02*
X88773000Y-95377000D01*
X91186000Y-92964000D02*
X89916000Y-91694000D01*
D31*
X91694000Y-78994000D02*
X91186000Y-78486000D01*
D30*
X88773000Y-95377000D02*
X88773000Y-104521000D01*
X108712000Y-100330000D02*
X109220000Y-100838000D01*
X108724000Y-101588000D02*
X109220000Y-101092000D01*
X108724000Y-105418000D02*
X108724000Y-101588000D01*
D31*
X89154000Y-81637500D02*
X89304500Y-81788000D01*
X89154000Y-79470000D02*
X89154000Y-81637500D01*
X99568000Y-71016500D02*
X99568000Y-72785000D01*
X104700000Y-68227500D02*
X105664000Y-69191500D01*
X104700000Y-65590000D02*
X104700000Y-68227500D01*
X102160000Y-65590000D02*
X102160000Y-68735500D01*
X102160000Y-68735500D02*
X102616000Y-69191500D01*
X99620000Y-65590000D02*
X99620000Y-69139500D01*
X99620000Y-69139500D02*
X99568000Y-69191500D01*
D30*
X91563000Y-102392500D02*
X91847500Y-102108000D01*
G04 #@! TA.AperFunction,Conductor*
G36*
X89277392Y-105084078D02*
G01*
X89300470Y-105100000D01*
X89698795Y-105100000D01*
X89749689Y-105110736D01*
X89762433Y-105116363D01*
X89833420Y-105147707D01*
X89851807Y-105149840D01*
X89917167Y-105177558D01*
X89957168Y-105236213D01*
X89959106Y-105307183D01*
X89922368Y-105367936D01*
X89858617Y-105399181D01*
X89851803Y-105400161D01*
X89833419Y-105402293D01*
X89805443Y-105414646D01*
X89754376Y-105437195D01*
X89749690Y-105439264D01*
X89698795Y-105450000D01*
X89311381Y-105450000D01*
X89308734Y-105453017D01*
X89299445Y-105512584D01*
X89252316Y-105565682D01*
X89183962Y-105584871D01*
X89116084Y-105564059D01*
X89096368Y-105547975D01*
X89011344Y-105462951D01*
X89003317Y-105457119D01*
X89005278Y-105454419D01*
X88966169Y-105417461D01*
X88949123Y-105348541D01*
X88972044Y-105281346D01*
X89005008Y-105249207D01*
X89014308Y-105242994D01*
X89014308Y-105242993D01*
X89027950Y-105233879D01*
X89027955Y-105233874D01*
X89037310Y-105227624D01*
X89045783Y-105214941D01*
X89061449Y-105195851D01*
X89144265Y-105113036D01*
X89206577Y-105079012D01*
X89277392Y-105084078D01*
G37*
G04 #@! TD.AperFunction*
G04 #@! TA.AperFunction,Conductor*
G36*
X86942394Y-83066374D02*
G01*
X86999230Y-83108921D01*
X87021782Y-83169386D01*
X87022474Y-83169256D01*
X87023235Y-83173282D01*
X87024041Y-83175441D01*
X87024201Y-83178386D01*
X87035288Y-83236978D01*
X87044153Y-83295791D01*
X87046660Y-83303921D01*
X87049478Y-83311974D01*
X87077276Y-83364572D01*
X87103075Y-83418143D01*
X87107886Y-83425199D01*
X87112935Y-83432040D01*
X87154995Y-83474099D01*
X87195445Y-83517694D01*
X87195446Y-83517695D01*
X87202829Y-83523582D01*
X87202287Y-83524261D01*
X87214614Y-83533718D01*
X88109551Y-84428654D01*
X88114261Y-84433925D01*
X88131886Y-84456024D01*
X88138621Y-84464470D01*
X88187771Y-84497980D01*
X88235618Y-84533293D01*
X88235621Y-84533294D01*
X88243160Y-84537279D01*
X88250824Y-84540970D01*
X88250827Y-84540972D01*
X88307677Y-84558507D01*
X88363801Y-84578146D01*
X88363807Y-84578146D01*
X88372215Y-84579737D01*
X88380594Y-84581000D01*
X88440074Y-84581000D01*
X88499510Y-84583224D01*
X88499516Y-84583222D01*
X88508890Y-84582167D01*
X88508987Y-84583028D01*
X88524397Y-84581000D01*
X93590706Y-84581000D01*
X93658827Y-84601002D01*
X93679801Y-84617905D01*
X96602801Y-87540905D01*
X96636827Y-87603217D01*
X96631762Y-87674032D01*
X96602801Y-87719095D01*
X94981594Y-89340301D01*
X94919282Y-89374327D01*
X94848466Y-89369262D01*
X94803404Y-89340301D01*
X94183407Y-88720304D01*
X94149381Y-88657992D01*
X94147052Y-88642971D01*
X94144725Y-88618151D01*
X94101116Y-88493525D01*
X94038562Y-88408766D01*
X94014205Y-88342081D01*
X94029767Y-88272812D01*
X94073796Y-88226706D01*
X94175030Y-88164264D01*
X94175039Y-88164257D01*
X94298257Y-88041039D01*
X94298262Y-88041033D01*
X94389751Y-87892707D01*
X94444568Y-87727276D01*
X94444569Y-87727273D01*
X94454999Y-87625184D01*
X94455000Y-87625184D01*
X94455000Y-87529500D01*
X92489000Y-87529500D01*
X92489000Y-87625184D01*
X92499430Y-87727273D01*
X92499431Y-87727276D01*
X92554248Y-87892707D01*
X92645737Y-88041033D01*
X92645742Y-88041039D01*
X92768960Y-88164257D01*
X92768966Y-88164262D01*
X92870204Y-88226706D01*
X92917682Y-88279492D01*
X92929085Y-88349567D01*
X92905437Y-88408768D01*
X92842883Y-88493525D01*
X92799276Y-88618145D01*
X92799275Y-88618150D01*
X92796500Y-88647741D01*
X92796500Y-89353258D01*
X92799275Y-89382849D01*
X92799276Y-89382854D01*
X92842883Y-89507474D01*
X92846777Y-89512750D01*
X92921289Y-89613711D01*
X93027525Y-89692116D01*
X93027524Y-89692116D01*
X93129643Y-89727849D01*
X93152151Y-89735725D01*
X93181744Y-89738500D01*
X93181747Y-89738500D01*
X93762253Y-89738500D01*
X93762256Y-89738500D01*
X93791849Y-89735725D01*
X93815477Y-89727456D01*
X93886378Y-89723837D01*
X93946186Y-89757290D01*
X94405095Y-90216198D01*
X94439120Y-90278511D01*
X94442000Y-90305294D01*
X94442000Y-94192706D01*
X94421998Y-94260827D01*
X94405095Y-94281801D01*
X91575843Y-97111053D01*
X91570572Y-97115764D01*
X91540030Y-97140120D01*
X91506519Y-97189271D01*
X91471204Y-97237120D01*
X91467215Y-97244669D01*
X91463527Y-97252328D01*
X91445992Y-97309177D01*
X91426354Y-97365301D01*
X91424766Y-97373688D01*
X91423500Y-97382096D01*
X91423500Y-97441574D01*
X91421276Y-97501011D01*
X91422333Y-97510390D01*
X91421470Y-97510487D01*
X91423500Y-97525896D01*
X91423500Y-98579596D01*
X91403498Y-98647717D01*
X91372321Y-98680975D01*
X91260790Y-98763287D01*
X91182383Y-98869525D01*
X91138776Y-98994145D01*
X91138775Y-98994150D01*
X91136000Y-99023741D01*
X91136000Y-99604258D01*
X91138775Y-99633849D01*
X91138776Y-99633854D01*
X91182383Y-99758474D01*
X91182384Y-99758475D01*
X91260789Y-99864711D01*
X91323673Y-99911121D01*
X91366605Y-99967666D01*
X91372151Y-100038446D01*
X91338550Y-100100988D01*
X91323673Y-100113879D01*
X91260788Y-100160290D01*
X91182386Y-100266521D01*
X91182383Y-100266527D01*
X91164021Y-100318999D01*
X91122641Y-100376690D01*
X91082544Y-100394538D01*
X91083310Y-100396643D01*
X91067235Y-100402493D01*
X91051832Y-100408873D01*
X91046316Y-100411445D01*
X91013191Y-100434638D01*
X91008558Y-100437589D01*
X90973547Y-100457804D01*
X90973545Y-100457805D01*
X90947547Y-100488787D01*
X90943834Y-100492839D01*
X90373421Y-101063252D01*
X90373420Y-101063253D01*
X90349167Y-101087506D01*
X90292252Y-101144420D01*
X90284685Y-101160647D01*
X90273709Y-101179657D01*
X90263447Y-101194312D01*
X90263445Y-101194318D01*
X90258814Y-101211599D01*
X90251306Y-101232228D01*
X90243741Y-101248451D01*
X90243741Y-101248453D01*
X90242180Y-101266285D01*
X90238368Y-101287901D01*
X90233736Y-101305187D01*
X90233736Y-101305193D01*
X90235295Y-101323023D01*
X90235295Y-101344974D01*
X90233735Y-101362804D01*
X90233736Y-101362807D01*
X90238368Y-101380094D01*
X90242181Y-101401720D01*
X90243741Y-101419546D01*
X90251304Y-101435767D01*
X90258812Y-101456395D01*
X90263444Y-101473680D01*
X90263445Y-101473682D01*
X90263446Y-101473684D01*
X90273711Y-101488344D01*
X90284686Y-101507354D01*
X90292253Y-101523581D01*
X90391139Y-101622467D01*
X90391145Y-101622471D01*
X90450595Y-101681921D01*
X90484621Y-101744233D01*
X90487500Y-101771016D01*
X90487500Y-103161927D01*
X90476764Y-103212821D01*
X90440293Y-103295417D01*
X90437806Y-103304562D01*
X90434518Y-103303667D01*
X90413423Y-103353393D01*
X90354763Y-103393386D01*
X90315991Y-103399500D01*
X89857500Y-103399500D01*
X89857493Y-103399501D01*
X89833418Y-103402293D01*
X89750821Y-103438764D01*
X89699927Y-103449500D01*
X89535960Y-103449500D01*
X89530475Y-103449260D01*
X89501872Y-103446757D01*
X89490195Y-103445736D01*
X89490192Y-103445736D01*
X89451126Y-103456203D01*
X89445761Y-103457392D01*
X89405952Y-103464412D01*
X89400235Y-103466493D01*
X89384841Y-103472869D01*
X89369327Y-103480104D01*
X89368375Y-103478062D01*
X89332862Y-103492407D01*
X89282693Y-103500354D01*
X89281697Y-103500862D01*
X89280354Y-103501113D01*
X89273260Y-103503419D01*
X89272962Y-103502501D01*
X89211920Y-103513962D01*
X89146136Y-103487259D01*
X89105233Y-103429229D01*
X89098500Y-103388592D01*
X89098500Y-102158369D01*
X89118502Y-102090248D01*
X89172158Y-102043755D01*
X89242432Y-102033651D01*
X89287177Y-102051813D01*
X89287822Y-102050548D01*
X89296658Y-102055050D01*
X89409696Y-102112646D01*
X89535000Y-102132492D01*
X89660304Y-102112646D01*
X89773342Y-102055050D01*
X89863050Y-101965342D01*
X89920646Y-101852304D01*
X89940492Y-101727000D01*
X89920646Y-101601696D01*
X89898989Y-101559192D01*
X89874233Y-101510604D01*
X89860500Y-101453402D01*
X89860500Y-95945016D01*
X89880502Y-95876895D01*
X89897405Y-95855921D01*
X89912298Y-95841028D01*
X90623039Y-95130287D01*
X92801174Y-92952150D01*
X92805204Y-92948456D01*
X92836194Y-92922455D01*
X92856415Y-92887428D01*
X92859352Y-92882817D01*
X92882554Y-92849684D01*
X92882555Y-92849681D01*
X92885157Y-92844101D01*
X92891479Y-92828838D01*
X92893587Y-92823046D01*
X92893588Y-92823045D01*
X92900607Y-92783231D01*
X92901798Y-92777863D01*
X92912264Y-92738808D01*
X92908740Y-92698518D01*
X92908500Y-92693026D01*
X92908500Y-91329959D01*
X92908740Y-91324465D01*
X92912264Y-91284193D01*
X92901792Y-91245114D01*
X92900610Y-91239782D01*
X92893588Y-91199955D01*
X92893585Y-91199949D01*
X92891485Y-91194181D01*
X92885144Y-91178870D01*
X92882554Y-91173316D01*
X92859363Y-91140196D01*
X92856409Y-91135558D01*
X92841280Y-91109355D01*
X92836194Y-91100545D01*
X92827156Y-91092961D01*
X92805212Y-91074547D01*
X92801169Y-91070843D01*
X92372122Y-90641796D01*
X92338096Y-90579484D01*
X92336768Y-90572409D01*
X92334062Y-90555322D01*
X92333646Y-90552696D01*
X92329348Y-90544262D01*
X92316241Y-90474488D01*
X92318746Y-90460792D01*
X92319007Y-90457798D01*
X92319009Y-90457796D01*
X92320568Y-90439969D01*
X92324384Y-90418336D01*
X92329013Y-90401060D01*
X92329014Y-90401056D01*
X92327454Y-90383232D01*
X92327454Y-90361262D01*
X92329014Y-90343443D01*
X92324382Y-90326160D01*
X92320569Y-90304532D01*
X92319227Y-90289188D01*
X92319010Y-90286705D01*
X92319009Y-90286702D01*
X92311446Y-90270483D01*
X92303934Y-90249844D01*
X92299757Y-90234257D01*
X92299304Y-90232566D01*
X92289039Y-90217907D01*
X92278058Y-90198886D01*
X92270496Y-90182668D01*
X92182155Y-90094327D01*
X92182140Y-90094314D01*
X91677665Y-89589839D01*
X91673950Y-89585786D01*
X91647954Y-89554805D01*
X91647951Y-89554803D01*
X91612935Y-89534586D01*
X91608300Y-89531633D01*
X91575183Y-89508445D01*
X91569652Y-89505866D01*
X91554296Y-89499505D01*
X91548547Y-89497412D01*
X91524674Y-89493202D01*
X91508734Y-89490391D01*
X91503372Y-89489203D01*
X91464308Y-89478736D01*
X91464305Y-89478736D01*
X91452627Y-89479757D01*
X91424024Y-89482260D01*
X91418540Y-89482500D01*
X91380955Y-89482500D01*
X91312834Y-89462498D01*
X91266341Y-89408842D01*
X91256237Y-89338568D01*
X91266760Y-89303250D01*
X91306259Y-89218545D01*
X91312500Y-89171139D01*
X91312499Y-88947779D01*
X91332501Y-88879660D01*
X91374365Y-88839323D01*
X91378059Y-88837138D01*
X91491140Y-88724057D01*
X91491143Y-88724053D01*
X91572555Y-88586394D01*
X91609858Y-88458000D01*
X90089142Y-88458000D01*
X90108702Y-88525326D01*
X90108499Y-88596322D01*
X90069945Y-88655939D01*
X90020313Y-88682186D01*
X89994126Y-88689203D01*
X89988761Y-88690392D01*
X89948952Y-88697412D01*
X89943235Y-88699493D01*
X89927832Y-88705873D01*
X89922316Y-88708445D01*
X89889191Y-88731638D01*
X89884558Y-88734589D01*
X89849547Y-88754804D01*
X89849545Y-88754805D01*
X89823547Y-88785787D01*
X89819834Y-88789839D01*
X89387626Y-89222046D01*
X89325314Y-89256072D01*
X89297817Y-89254105D01*
X89297817Y-89258000D01*
X87714142Y-89258000D01*
X87732546Y-89321347D01*
X87732343Y-89392343D01*
X87693789Y-89451960D01*
X87629124Y-89481268D01*
X87611549Y-89482500D01*
X86907500Y-89482500D01*
X86839379Y-89462498D01*
X86792886Y-89408842D01*
X86781500Y-89356500D01*
X86781500Y-89208747D01*
X86781500Y-89208744D01*
X86778725Y-89179151D01*
X86775923Y-89171144D01*
X86735116Y-89054524D01*
X86735114Y-89054521D01*
X86656713Y-88948290D01*
X86607678Y-88912101D01*
X86564746Y-88855556D01*
X86556500Y-88810722D01*
X86556500Y-88581834D01*
X86576502Y-88513713D01*
X86630158Y-88467220D01*
X86700432Y-88457116D01*
X86745499Y-88472714D01*
X86760572Y-88481417D01*
X86765193Y-88484361D01*
X86794921Y-88505177D01*
X86798316Y-88507554D01*
X86803870Y-88510144D01*
X86819181Y-88516485D01*
X86824949Y-88518585D01*
X86824955Y-88518588D01*
X86864782Y-88525610D01*
X86870114Y-88526792D01*
X86909193Y-88537264D01*
X86939986Y-88534570D01*
X86949482Y-88533740D01*
X86954974Y-88533500D01*
X87611549Y-88533500D01*
X87679670Y-88553502D01*
X87726163Y-88607158D01*
X87736267Y-88677432D01*
X87732546Y-88694653D01*
X87714142Y-88758000D01*
X89234858Y-88758000D01*
X89197555Y-88629605D01*
X89116143Y-88491946D01*
X89116140Y-88491942D01*
X89003059Y-88378861D01*
X89003052Y-88378856D01*
X88999358Y-88376671D01*
X88997054Y-88374203D01*
X88996793Y-88374001D01*
X88996825Y-88373958D01*
X88950906Y-88324778D01*
X88937499Y-88268221D01*
X88937499Y-88044862D01*
X88937498Y-88044859D01*
X88937498Y-88044850D01*
X88934228Y-88020018D01*
X88931259Y-87997455D01*
X88912861Y-87958000D01*
X90089142Y-87958000D01*
X90599500Y-87958000D01*
X90599500Y-87456510D01*
X91099500Y-87456510D01*
X91099500Y-87958000D01*
X91609858Y-87958000D01*
X91572555Y-87829605D01*
X91491143Y-87691946D01*
X91491140Y-87691942D01*
X91378057Y-87578859D01*
X91378053Y-87578856D01*
X91240395Y-87497445D01*
X91099500Y-87456510D01*
X90599500Y-87456510D01*
X90458604Y-87497445D01*
X90320946Y-87578856D01*
X90320942Y-87578859D01*
X90207859Y-87691942D01*
X90207856Y-87691946D01*
X90126444Y-87829605D01*
X90089142Y-87958000D01*
X88912861Y-87958000D01*
X88882747Y-87893421D01*
X88882746Y-87893420D01*
X88882746Y-87893419D01*
X88801580Y-87812253D01*
X88697543Y-87763740D01*
X88657325Y-87758446D01*
X88650139Y-87757500D01*
X88650138Y-87757500D01*
X88298864Y-87757500D01*
X88298850Y-87757501D01*
X88251459Y-87763740D01*
X88251455Y-87763740D01*
X88251455Y-87763741D01*
X88251454Y-87763741D01*
X88251452Y-87763742D01*
X88147421Y-87812253D01*
X88114078Y-87845595D01*
X88051769Y-87879620D01*
X88024984Y-87882500D01*
X87125016Y-87882500D01*
X87056895Y-87862498D01*
X87035921Y-87845595D01*
X86593405Y-87403079D01*
X86559379Y-87340767D01*
X86556500Y-87313984D01*
X86556500Y-87021500D01*
X92489000Y-87021500D01*
X93218000Y-87021500D01*
X93218000Y-86230000D01*
X93726000Y-86230000D01*
X93726000Y-87021500D01*
X94455000Y-87021500D01*
X94455000Y-86925815D01*
X94444569Y-86823726D01*
X94444568Y-86823723D01*
X94389751Y-86658292D01*
X94298262Y-86509966D01*
X94298257Y-86509960D01*
X94175039Y-86386742D01*
X94175033Y-86386737D01*
X94026707Y-86295248D01*
X93861276Y-86240431D01*
X93861273Y-86240430D01*
X93759184Y-86230000D01*
X93726000Y-86230000D01*
X93218000Y-86230000D01*
X93184815Y-86230000D01*
X93082726Y-86240430D01*
X93082723Y-86240431D01*
X92917292Y-86295248D01*
X92768966Y-86386737D01*
X92768960Y-86386742D01*
X92645742Y-86509960D01*
X92645737Y-86509966D01*
X92554248Y-86658292D01*
X92499431Y-86823723D01*
X92499430Y-86823726D01*
X92489000Y-86925815D01*
X92489000Y-87021500D01*
X86556500Y-87021500D01*
X86556500Y-83400293D01*
X86576502Y-83332172D01*
X86593399Y-83311203D01*
X86809270Y-83095332D01*
X86871578Y-83061310D01*
X86942394Y-83066374D01*
G37*
G04 #@! TD.AperFunction*
G04 #@! TA.AperFunction,Conductor*
G36*
X107642326Y-88100502D02*
G01*
X107688819Y-88154158D01*
X107698923Y-88224432D01*
X107669429Y-88289012D01*
X107663295Y-88295600D01*
X107651835Y-88307059D01*
X107646567Y-88311768D01*
X107616031Y-88336118D01*
X107582519Y-88385271D01*
X107547204Y-88433120D01*
X107543215Y-88440669D01*
X107539527Y-88448328D01*
X107521992Y-88505177D01*
X107502354Y-88561301D01*
X107500765Y-88569695D01*
X107500116Y-88574004D01*
X107498588Y-88577290D01*
X107497167Y-88585660D01*
X107496738Y-88587054D01*
X107494385Y-88586330D01*
X107470187Y-88638384D01*
X107450344Y-88656608D01*
X107399288Y-88694289D01*
X107320885Y-88800521D01*
X107320883Y-88800524D01*
X107277276Y-88925145D01*
X107277275Y-88925150D01*
X107274500Y-88954741D01*
X107274500Y-89560258D01*
X107277275Y-89589849D01*
X107277276Y-89589854D01*
X107320883Y-89714474D01*
X107320884Y-89714475D01*
X107399289Y-89820711D01*
X107505525Y-89899116D01*
X107505524Y-89899116D01*
X107630145Y-89942723D01*
X107630151Y-89942725D01*
X107659744Y-89945500D01*
X107659747Y-89945500D01*
X108240253Y-89945500D01*
X108240256Y-89945500D01*
X108269849Y-89942725D01*
X108394475Y-89899116D01*
X108500711Y-89820711D01*
X108579116Y-89714475D01*
X108592677Y-89675717D01*
X108634055Y-89618027D01*
X108700055Y-89591864D01*
X108769723Y-89605536D01*
X108820939Y-89654703D01*
X108836954Y-89704526D01*
X108846430Y-89797273D01*
X108846431Y-89797276D01*
X108901248Y-89962707D01*
X108992737Y-90111033D01*
X108992742Y-90111039D01*
X109115960Y-90234257D01*
X109115966Y-90234262D01*
X109264292Y-90325751D01*
X109429723Y-90380568D01*
X109429726Y-90380569D01*
X109531815Y-90390999D01*
X109531815Y-90391000D01*
X109627500Y-90391000D01*
X109627500Y-88425000D01*
X109531815Y-88425000D01*
X109429726Y-88435430D01*
X109429723Y-88435431D01*
X109264292Y-88490248D01*
X109115966Y-88581737D01*
X109115960Y-88581742D01*
X108992742Y-88704960D01*
X108992737Y-88704966D01*
X108901246Y-88853296D01*
X108867872Y-88954014D01*
X108827458Y-89012385D01*
X108761902Y-89039641D01*
X108692017Y-89027128D01*
X108639991Y-88978818D01*
X108624896Y-88932520D01*
X108624360Y-88932638D01*
X108623193Y-88927296D01*
X108622818Y-88926145D01*
X108622725Y-88925151D01*
X108601955Y-88865794D01*
X108579116Y-88800524D01*
X108574704Y-88792176D01*
X108576763Y-88791087D01*
X108556921Y-88736778D01*
X108572479Y-88667507D01*
X108593556Y-88639546D01*
X109115700Y-88117402D01*
X109178010Y-88083379D01*
X109204793Y-88080500D01*
X110505205Y-88080500D01*
X110573326Y-88100502D01*
X110594300Y-88117404D01*
X110855757Y-88378861D01*
X111085897Y-88609000D01*
X111119922Y-88671313D01*
X111114858Y-88742128D01*
X111072311Y-88798964D01*
X111071623Y-88799475D01*
X111014768Y-88841436D01*
X110948081Y-88865794D01*
X110878811Y-88850231D01*
X110832706Y-88806204D01*
X110770262Y-88704966D01*
X110770257Y-88704960D01*
X110647039Y-88581742D01*
X110647033Y-88581737D01*
X110498707Y-88490248D01*
X110333276Y-88435431D01*
X110333273Y-88435430D01*
X110231184Y-88425000D01*
X110135500Y-88425000D01*
X110135500Y-90391000D01*
X110231185Y-90391000D01*
X110231184Y-90390999D01*
X110333273Y-90380569D01*
X110333276Y-90380568D01*
X110498707Y-90325751D01*
X110647033Y-90234262D01*
X110647039Y-90234257D01*
X110770257Y-90111039D01*
X110770264Y-90111030D01*
X110832706Y-90009796D01*
X110885491Y-89962317D01*
X110955566Y-89950914D01*
X111014766Y-89974562D01*
X111099525Y-90037116D01*
X111099524Y-90037116D01*
X111224142Y-90080722D01*
X111224151Y-90080725D01*
X111253744Y-90083500D01*
X111253747Y-90083500D01*
X111959253Y-90083500D01*
X111959256Y-90083500D01*
X111988849Y-90080725D01*
X112058922Y-90056204D01*
X112129826Y-90052585D01*
X112191431Y-90087873D01*
X112224179Y-90150866D01*
X112217671Y-90221564D01*
X112201918Y-90249955D01*
X112146883Y-90324525D01*
X112103276Y-90449145D01*
X112101640Y-90456638D01*
X112098324Y-90455913D01*
X112077714Y-90507692D01*
X112019964Y-90548988D01*
X111978518Y-90556000D01*
X111900043Y-90556000D01*
X111875462Y-90553579D01*
X111860500Y-90550603D01*
X111860497Y-90550603D01*
X111840962Y-90554488D01*
X111840941Y-90554493D01*
X111753004Y-90571985D01*
X111711034Y-90600028D01*
X111688111Y-90615345D01*
X111688106Y-90615349D01*
X111661875Y-90632876D01*
X111653400Y-90645560D01*
X111637733Y-90664648D01*
X110846916Y-91455465D01*
X110784604Y-91489491D01*
X110713789Y-91484426D01*
X110676767Y-91460633D01*
X110676182Y-91461397D01*
X110542629Y-91358917D01*
X110542621Y-91358912D01*
X110394718Y-91297650D01*
X110236000Y-91276754D01*
X110077277Y-91297650D01*
X110001216Y-91329155D01*
X109930627Y-91336744D01*
X109904784Y-91329155D01*
X109828721Y-91297650D01*
X109828722Y-91297650D01*
X109670000Y-91276754D01*
X109511281Y-91297650D01*
X109363378Y-91358912D01*
X109363370Y-91358917D01*
X109236369Y-91456369D01*
X109138917Y-91583370D01*
X109138911Y-91583380D01*
X109123670Y-91620176D01*
X109079121Y-91675456D01*
X109011757Y-91697876D01*
X108942966Y-91680317D01*
X108918167Y-91661051D01*
X108662405Y-91405289D01*
X108628379Y-91342977D01*
X108625500Y-91316194D01*
X108625500Y-90779747D01*
X108625500Y-90779744D01*
X108622725Y-90750151D01*
X108579116Y-90625525D01*
X108500711Y-90519289D01*
X108414839Y-90455913D01*
X108394474Y-90440883D01*
X108394475Y-90440883D01*
X108269854Y-90397276D01*
X108269849Y-90397275D01*
X108240258Y-90394500D01*
X108240256Y-90394500D01*
X107659744Y-90394500D01*
X107659741Y-90394500D01*
X107630150Y-90397275D01*
X107630145Y-90397276D01*
X107505525Y-90440883D01*
X107399289Y-90519289D01*
X107373312Y-90554488D01*
X107372696Y-90555322D01*
X107316151Y-90598254D01*
X107271317Y-90606500D01*
X106442960Y-90606500D01*
X106437474Y-90606260D01*
X106405418Y-90603455D01*
X106397194Y-90602736D01*
X106397193Y-90602736D01*
X106397192Y-90602736D01*
X106391078Y-90603270D01*
X106366557Y-90606500D01*
X106191597Y-90606500D01*
X106134394Y-90592767D01*
X106108325Y-90579484D01*
X106043304Y-90546354D01*
X105918000Y-90526508D01*
X105792696Y-90546354D01*
X105792694Y-90546354D01*
X105792694Y-90546355D01*
X105679657Y-90603949D01*
X105589949Y-90693657D01*
X105546085Y-90779747D01*
X105532354Y-90806696D01*
X105512508Y-90932000D01*
X105532354Y-91057304D01*
X105566367Y-91124057D01*
X105594452Y-91179178D01*
X105590962Y-91180956D01*
X105608364Y-91229687D01*
X105592301Y-91298843D01*
X105571666Y-91326007D01*
X104175843Y-92721830D01*
X104171792Y-92725542D01*
X104140806Y-92751544D01*
X104140804Y-92751547D01*
X104120589Y-92786558D01*
X104117638Y-92791191D01*
X104094445Y-92824316D01*
X104091873Y-92829832D01*
X104085493Y-92845235D01*
X104083412Y-92850952D01*
X104076392Y-92890761D01*
X104075203Y-92896126D01*
X104064736Y-92935192D01*
X104064736Y-92935193D01*
X104067256Y-92964000D01*
X104068260Y-92975465D01*
X104068500Y-92980959D01*
X104068500Y-93452402D01*
X104054767Y-93509604D01*
X104008355Y-93600692D01*
X104008354Y-93600694D01*
X104008354Y-93600696D01*
X103988508Y-93726000D01*
X103995526Y-93770312D01*
X103998374Y-93788289D01*
X103989274Y-93858700D01*
X103943552Y-93913014D01*
X103875724Y-93933987D01*
X103873925Y-93934000D01*
X95469000Y-93934000D01*
X95400879Y-93913998D01*
X95354386Y-93860342D01*
X95343000Y-93808000D01*
X95343000Y-90305294D01*
X95363002Y-90237173D01*
X95379905Y-90216199D01*
X97478699Y-88117405D01*
X97541011Y-88083379D01*
X97567794Y-88080500D01*
X107574205Y-88080500D01*
X107642326Y-88100502D01*
G37*
G04 #@! TD.AperFunction*
G04 #@! TA.AperFunction,Conductor*
G36*
X140548120Y-60868210D02*
G01*
X140873075Y-60886454D01*
X140880086Y-60887244D01*
X141199208Y-60941461D01*
X141206076Y-60943029D01*
X141517133Y-61032638D01*
X141523781Y-61034965D01*
X141822835Y-61158833D01*
X141829197Y-61161896D01*
X142112513Y-61318476D01*
X142118482Y-61322227D01*
X142382475Y-61509536D01*
X142388002Y-61513944D01*
X142629359Y-61729632D01*
X142634343Y-61734616D01*
X142694666Y-61802116D01*
X142850030Y-61975967D01*
X142854439Y-61981495D01*
X143041751Y-62245485D01*
X143045513Y-62251472D01*
X143202082Y-62534761D01*
X143205150Y-62541132D01*
X143329017Y-62840172D01*
X143331352Y-62846846D01*
X143420959Y-63157878D01*
X143422533Y-63164771D01*
X143476750Y-63483878D01*
X143477542Y-63490904D01*
X143495757Y-63815262D01*
X143495856Y-63818795D01*
X143495856Y-113819929D01*
X143495854Y-113820890D01*
X143495751Y-113824472D01*
X143476973Y-114149065D01*
X143476171Y-114156082D01*
X143421513Y-114474753D01*
X143419931Y-114481636D01*
X143329981Y-114792179D01*
X143327639Y-114798842D01*
X143255585Y-114972153D01*
X143204898Y-115094069D01*
X143203519Y-115097385D01*
X143200446Y-115103744D01*
X143115963Y-115256176D01*
X143043713Y-115386534D01*
X143039953Y-115392504D01*
X142852575Y-115655990D01*
X142848166Y-115661507D01*
X142632501Y-115902380D01*
X142627503Y-115907370D01*
X142386239Y-116122620D01*
X142380714Y-116127019D01*
X142116911Y-116313921D01*
X142110928Y-116317674D01*
X141827856Y-116473913D01*
X141821491Y-116476974D01*
X141522740Y-116600564D01*
X141516072Y-116602894D01*
X141205359Y-116692299D01*
X141198473Y-116693869D01*
X140879711Y-116747963D01*
X140872693Y-116748753D01*
X140547122Y-116767012D01*
X140543594Y-116767111D01*
X81548131Y-116767111D01*
X81544597Y-116767012D01*
X81219647Y-116748758D01*
X81212630Y-116747968D01*
X80893525Y-116693745D01*
X80886642Y-116692175D01*
X80731122Y-116647368D01*
X80575607Y-116602563D01*
X80568934Y-116600228D01*
X80269909Y-116476364D01*
X80263539Y-116473297D01*
X79980237Y-116316719D01*
X79974256Y-116312960D01*
X79710268Y-116125647D01*
X79704763Y-116121256D01*
X79463411Y-115905569D01*
X79458414Y-115900572D01*
X79242729Y-115659216D01*
X79238321Y-115653688D01*
X79051023Y-115389715D01*
X79047261Y-115383729D01*
X78890693Y-115100439D01*
X78887625Y-115094069D01*
X78837128Y-114972160D01*
X78763756Y-114795022D01*
X78761425Y-114788360D01*
X78671820Y-114477332D01*
X78670248Y-114470450D01*
X78616029Y-114151337D01*
X78615237Y-114144311D01*
X78607750Y-114011004D01*
X78597453Y-113827656D01*
X78596955Y-113818782D01*
X78596856Y-113815248D01*
X78596856Y-113320000D01*
X78934615Y-113320000D01*
X78954140Y-113667690D01*
X79012471Y-114011004D01*
X79012473Y-114011013D01*
X79052900Y-114151337D01*
X79108880Y-114345648D01*
X79242140Y-114667365D01*
X79242145Y-114667376D01*
X79242152Y-114667388D01*
X79410588Y-114972153D01*
X79410592Y-114972160D01*
X79612109Y-115256172D01*
X79612114Y-115256179D01*
X79712465Y-115368471D01*
X79844161Y-115515839D01*
X79998414Y-115653688D01*
X80103820Y-115747885D01*
X80103823Y-115747887D01*
X80103824Y-115747888D01*
X80322728Y-115903208D01*
X80387839Y-115949407D01*
X80387846Y-115949411D01*
X80438824Y-115977585D01*
X80692624Y-116117855D01*
X81014356Y-116251121D01*
X81348987Y-116347527D01*
X81692307Y-116405859D01*
X81692306Y-116405859D01*
X81710793Y-116406897D01*
X82040000Y-116425385D01*
X82387693Y-116405859D01*
X82731013Y-116347527D01*
X83065644Y-116251121D01*
X83387376Y-116117855D01*
X83692164Y-115949405D01*
X83976176Y-115747888D01*
X84235839Y-115515839D01*
X84467888Y-115256176D01*
X84669405Y-114972164D01*
X84837855Y-114667376D01*
X84971121Y-114345644D01*
X85067527Y-114011013D01*
X85125859Y-113667693D01*
X85145385Y-113320000D01*
X85144823Y-113310000D01*
X136924615Y-113310000D01*
X136944140Y-113657690D01*
X137002471Y-114001004D01*
X137002473Y-114001013D01*
X137045781Y-114151337D01*
X137098880Y-114335648D01*
X137211782Y-114608216D01*
X137232145Y-114657376D01*
X137280242Y-114744402D01*
X137400588Y-114962153D01*
X137400592Y-114962160D01*
X137602109Y-115246172D01*
X137602114Y-115246179D01*
X137611051Y-115256179D01*
X137834161Y-115505839D01*
X137999063Y-115653205D01*
X138093820Y-115737885D01*
X138093823Y-115737887D01*
X138093824Y-115737888D01*
X138107914Y-115747885D01*
X138377839Y-115939407D01*
X138377846Y-115939411D01*
X138450312Y-115979461D01*
X138682624Y-116107855D01*
X139004356Y-116241121D01*
X139338987Y-116337527D01*
X139682307Y-116395859D01*
X139682306Y-116395859D01*
X139700793Y-116396897D01*
X140030000Y-116415385D01*
X140377693Y-116395859D01*
X140721013Y-116337527D01*
X141055644Y-116241121D01*
X141377376Y-116107855D01*
X141682164Y-115939405D01*
X141966176Y-115737888D01*
X142225839Y-115505839D01*
X142457888Y-115246176D01*
X142659405Y-114962164D01*
X142827855Y-114657376D01*
X142961121Y-114335644D01*
X143057527Y-114001013D01*
X143115859Y-113657693D01*
X143135385Y-113310000D01*
X143115859Y-112962307D01*
X143057527Y-112618987D01*
X142961121Y-112284356D01*
X142827855Y-111962624D01*
X142721275Y-111769783D01*
X142659411Y-111657846D01*
X142659407Y-111657839D01*
X142464981Y-111383820D01*
X142457888Y-111373824D01*
X142457887Y-111373823D01*
X142457885Y-111373820D01*
X142373205Y-111279063D01*
X142225839Y-111114161D01*
X142078471Y-110982465D01*
X141966179Y-110882114D01*
X141966172Y-110882109D01*
X141682160Y-110680592D01*
X141682153Y-110680588D01*
X141395482Y-110522152D01*
X141377376Y-110512145D01*
X141377369Y-110512142D01*
X141377365Y-110512140D01*
X141055648Y-110378880D01*
X140987221Y-110359166D01*
X140721013Y-110282473D01*
X140721007Y-110282472D01*
X140721004Y-110282471D01*
X140377687Y-110224140D01*
X140377693Y-110224140D01*
X140030000Y-110204615D01*
X139682309Y-110224140D01*
X139338995Y-110282471D01*
X139338989Y-110282472D01*
X139338987Y-110282473D01*
X139202142Y-110321897D01*
X139004351Y-110378880D01*
X138682634Y-110512140D01*
X138682611Y-110512152D01*
X138377846Y-110680588D01*
X138377839Y-110680592D01*
X138093827Y-110882109D01*
X138093820Y-110882114D01*
X137834161Y-111114161D01*
X137602114Y-111373820D01*
X137602109Y-111373827D01*
X137400592Y-111657839D01*
X137400588Y-111657846D01*
X137232152Y-111962611D01*
X137232140Y-111962634D01*
X137098880Y-112284351D01*
X137002471Y-112618995D01*
X136944140Y-112962309D01*
X136924615Y-113310000D01*
X85144823Y-113310000D01*
X85125859Y-112972307D01*
X85067527Y-112628987D01*
X84971121Y-112294356D01*
X84837855Y-111972624D01*
X84669405Y-111667836D01*
X84467888Y-111383824D01*
X84467887Y-111383823D01*
X84467885Y-111383820D01*
X84383205Y-111289063D01*
X84235839Y-111124161D01*
X84088471Y-110992465D01*
X83976179Y-110892114D01*
X83976172Y-110892109D01*
X83692160Y-110690592D01*
X83692153Y-110690588D01*
X83474402Y-110570242D01*
X83387376Y-110522145D01*
X83387369Y-110522142D01*
X83387365Y-110522140D01*
X83065648Y-110388880D01*
X82997221Y-110369166D01*
X82731013Y-110292473D01*
X82731007Y-110292472D01*
X82731004Y-110292471D01*
X82387687Y-110234140D01*
X82387693Y-110234140D01*
X82040000Y-110214615D01*
X81692309Y-110234140D01*
X81348995Y-110292471D01*
X81348989Y-110292472D01*
X81348987Y-110292473D01*
X81212142Y-110331897D01*
X81014351Y-110388880D01*
X80692634Y-110522140D01*
X80692611Y-110522152D01*
X80387846Y-110690588D01*
X80387839Y-110690592D01*
X80103827Y-110892109D01*
X80103820Y-110892114D01*
X79844161Y-111124161D01*
X79612114Y-111383820D01*
X79612109Y-111383827D01*
X79410592Y-111667839D01*
X79410588Y-111667846D01*
X79242152Y-111972611D01*
X79242140Y-111972634D01*
X79108880Y-112294351D01*
X79012471Y-112628995D01*
X78954140Y-112972309D01*
X78934615Y-113320000D01*
X78596856Y-113320000D01*
X78596856Y-91540500D01*
X85123000Y-91540500D01*
X85123000Y-91636184D01*
X85133430Y-91738273D01*
X85133431Y-91738276D01*
X85188248Y-91903707D01*
X85279737Y-92052033D01*
X85279742Y-92052039D01*
X85402960Y-92175257D01*
X85402966Y-92175262D01*
X85551292Y-92266751D01*
X85716723Y-92321568D01*
X85716726Y-92321569D01*
X85818815Y-92331999D01*
X85818815Y-92332000D01*
X85852000Y-92332000D01*
X85852000Y-91540500D01*
X86360000Y-91540500D01*
X86360000Y-92332000D01*
X86393185Y-92332000D01*
X86393184Y-92331999D01*
X86495273Y-92321569D01*
X86495276Y-92321568D01*
X86660707Y-92266751D01*
X86809033Y-92175262D01*
X86809039Y-92175257D01*
X86932257Y-92052039D01*
X86932262Y-92052033D01*
X87023751Y-91903707D01*
X87078568Y-91738276D01*
X87078569Y-91738273D01*
X87088999Y-91636184D01*
X87089000Y-91636184D01*
X87089000Y-91540500D01*
X86360000Y-91540500D01*
X85852000Y-91540500D01*
X85123000Y-91540500D01*
X78596856Y-91540500D01*
X78596856Y-79243184D01*
X84869000Y-79243184D01*
X84879430Y-79345273D01*
X84879431Y-79345276D01*
X84934248Y-79510707D01*
X85025737Y-79659033D01*
X85025742Y-79659039D01*
X85148960Y-79782257D01*
X85148966Y-79782262D01*
X85250204Y-79844706D01*
X85297682Y-79897492D01*
X85309085Y-79967567D01*
X85285437Y-80026768D01*
X85222883Y-80111525D01*
X85179276Y-80236145D01*
X85179275Y-80236150D01*
X85176500Y-80265741D01*
X85176500Y-80971258D01*
X85179275Y-81000849D01*
X85179276Y-81000854D01*
X85222883Y-81125474D01*
X85222884Y-81125475D01*
X85301289Y-81231711D01*
X85407525Y-81310116D01*
X85407524Y-81310116D01*
X85503001Y-81343525D01*
X85532151Y-81353725D01*
X85561744Y-81356500D01*
X85561747Y-81356500D01*
X86142253Y-81356500D01*
X86142256Y-81356500D01*
X86171849Y-81353725D01*
X86272149Y-81318627D01*
X86343052Y-81315008D01*
X86402859Y-81348462D01*
X86753301Y-81698904D01*
X86787327Y-81761216D01*
X86782262Y-81832031D01*
X86753301Y-81877094D01*
X85807843Y-82822553D01*
X85802572Y-82827264D01*
X85772030Y-82851620D01*
X85738519Y-82900771D01*
X85703204Y-82948620D01*
X85699215Y-82956169D01*
X85695527Y-82963828D01*
X85677992Y-83020677D01*
X85658354Y-83076801D01*
X85656766Y-83085188D01*
X85655500Y-83093596D01*
X85655500Y-83093598D01*
X85655500Y-83153073D01*
X85654895Y-83169256D01*
X85653276Y-83212511D01*
X85654333Y-83221890D01*
X85653470Y-83221987D01*
X85655500Y-83237396D01*
X85655500Y-88810722D01*
X85635498Y-88878843D01*
X85604322Y-88912101D01*
X85555286Y-88948290D01*
X85476885Y-89054521D01*
X85476883Y-89054524D01*
X85433276Y-89179145D01*
X85433275Y-89179150D01*
X85430500Y-89208741D01*
X85430500Y-89914258D01*
X85433275Y-89943849D01*
X85433276Y-89943854D01*
X85476883Y-90068474D01*
X85485923Y-90080723D01*
X85539436Y-90153231D01*
X85563794Y-90219918D01*
X85548232Y-90289188D01*
X85504204Y-90335292D01*
X85402972Y-90397733D01*
X85402960Y-90397742D01*
X85279742Y-90520960D01*
X85279737Y-90520966D01*
X85188248Y-90669292D01*
X85133431Y-90834723D01*
X85133430Y-90834726D01*
X85123000Y-90936815D01*
X85123000Y-91032500D01*
X87089000Y-91032500D01*
X87089000Y-90936815D01*
X87080947Y-90858000D01*
X87714142Y-90858000D01*
X87751444Y-90986394D01*
X87832856Y-91124053D01*
X87832859Y-91124057D01*
X87945942Y-91237140D01*
X87945946Y-91237143D01*
X88083604Y-91318554D01*
X88224500Y-91359488D01*
X88224500Y-90858000D01*
X87714142Y-90858000D01*
X87080947Y-90858000D01*
X87078569Y-90834726D01*
X87078568Y-90834723D01*
X87023751Y-90669292D01*
X86932262Y-90520966D01*
X86932257Y-90520960D01*
X86809039Y-90397742D01*
X86809033Y-90397737D01*
X86758780Y-90366741D01*
X86711302Y-90313955D01*
X86699899Y-90243880D01*
X86728191Y-90178764D01*
X86787197Y-90139282D01*
X86824927Y-90133500D01*
X87611549Y-90133500D01*
X87679670Y-90153502D01*
X87726163Y-90207158D01*
X87736267Y-90277432D01*
X87732546Y-90294653D01*
X87714142Y-90358000D01*
X89234857Y-90358000D01*
X89215297Y-90290674D01*
X89215500Y-90219677D01*
X89254053Y-90160061D01*
X89303676Y-90133815D01*
X89329886Y-90126791D01*
X89335231Y-90125607D01*
X89375045Y-90118588D01*
X89375047Y-90118586D01*
X89380838Y-90116479D01*
X89396101Y-90110157D01*
X89401681Y-90107555D01*
X89401681Y-90107554D01*
X89401684Y-90107554D01*
X89434817Y-90084352D01*
X89439428Y-90081415D01*
X89474455Y-90061194D01*
X89500448Y-90030215D01*
X89504151Y-90026173D01*
X90159922Y-89370404D01*
X90222234Y-89336379D01*
X90249017Y-89333500D01*
X90318045Y-89333500D01*
X90386166Y-89353502D01*
X90432659Y-89407158D01*
X90442763Y-89477432D01*
X90432240Y-89512748D01*
X90422698Y-89533212D01*
X90392740Y-89597456D01*
X90386500Y-89644855D01*
X90386500Y-89971135D01*
X90386501Y-89971149D01*
X90392740Y-90018540D01*
X90392742Y-90018547D01*
X90441253Y-90122580D01*
X90447575Y-90131608D01*
X90445361Y-90133158D01*
X90471604Y-90181217D01*
X90466539Y-90252032D01*
X90446310Y-90283506D01*
X90447575Y-90284392D01*
X90441253Y-90293419D01*
X90392740Y-90397456D01*
X90386500Y-90444855D01*
X90386500Y-90771135D01*
X90386501Y-90771149D01*
X90392740Y-90818540D01*
X90392742Y-90818547D01*
X90441253Y-90922580D01*
X90522419Y-91003746D01*
X90522420Y-91003746D01*
X90522421Y-91003747D01*
X90626455Y-91052259D01*
X90663366Y-91057118D01*
X90663485Y-91057134D01*
X90728412Y-91085855D01*
X90736135Y-91092961D01*
X91450327Y-91807153D01*
X91484353Y-91869465D01*
X91479288Y-91940280D01*
X91450327Y-91985343D01*
X91148094Y-92287576D01*
X91085782Y-92321602D01*
X91014967Y-92316537D01*
X90969904Y-92287577D01*
X90158159Y-91475832D01*
X90154444Y-91471779D01*
X90145091Y-91460633D01*
X90128455Y-91440806D01*
X90128454Y-91440805D01*
X90128451Y-91440803D01*
X90093435Y-91420586D01*
X90088800Y-91417633D01*
X90055683Y-91394445D01*
X90050152Y-91391866D01*
X90034796Y-91385505D01*
X90029047Y-91383412D01*
X90005174Y-91379202D01*
X89989234Y-91376391D01*
X89983872Y-91375203D01*
X89944808Y-91364736D01*
X89944805Y-91364736D01*
X89933127Y-91365757D01*
X89904524Y-91368260D01*
X89899040Y-91368500D01*
X89427597Y-91368500D01*
X89370394Y-91354767D01*
X89347255Y-91342977D01*
X89279304Y-91308354D01*
X89213575Y-91297943D01*
X89149423Y-91267531D01*
X89111897Y-91207262D01*
X89112911Y-91136273D01*
X89124835Y-91109355D01*
X89197555Y-90986394D01*
X89234858Y-90858000D01*
X88724500Y-90858000D01*
X88724500Y-91359489D01*
X88748621Y-91377600D01*
X88791086Y-91434496D01*
X88796050Y-91505319D01*
X88785236Y-91535560D01*
X88768355Y-91568692D01*
X88768354Y-91568694D01*
X88768354Y-91568696D01*
X88748508Y-91694000D01*
X88768354Y-91819304D01*
X88768355Y-91819305D01*
X88825949Y-91932342D01*
X88915657Y-92022050D01*
X88949909Y-92039502D01*
X89028696Y-92079646D01*
X89154000Y-92099492D01*
X89279304Y-92079646D01*
X89370394Y-92033232D01*
X89427597Y-92019500D01*
X89728984Y-92019500D01*
X89797105Y-92039502D01*
X89818079Y-92056405D01*
X90636578Y-92874904D01*
X90670604Y-92937216D01*
X90665539Y-93008031D01*
X90636578Y-93053094D01*
X88554843Y-95134829D01*
X88550792Y-95138542D01*
X88519806Y-95164544D01*
X88519804Y-95164547D01*
X88499589Y-95199558D01*
X88496638Y-95204191D01*
X88473445Y-95237316D01*
X88470873Y-95242832D01*
X88464493Y-95258235D01*
X88462412Y-95263952D01*
X88455392Y-95303761D01*
X88454203Y-95309126D01*
X88443736Y-95348193D01*
X88446580Y-95380702D01*
X88447260Y-95388465D01*
X88447500Y-95393959D01*
X88447500Y-104504039D01*
X88447260Y-104509534D01*
X88446504Y-104518170D01*
X88420639Y-104584288D01*
X88363135Y-104625926D01*
X88340696Y-104631633D01*
X88321203Y-104634721D01*
X88266694Y-104643354D01*
X88153657Y-104700949D01*
X88063949Y-104790657D01*
X88027862Y-104861484D01*
X88006354Y-104903696D01*
X87986508Y-105029000D01*
X88006354Y-105154304D01*
X88018203Y-105177558D01*
X88063949Y-105267342D01*
X88153657Y-105357050D01*
X88183860Y-105372439D01*
X88266696Y-105414646D01*
X88325421Y-105423947D01*
X88389572Y-105454358D01*
X88427099Y-105514627D01*
X88426085Y-105585616D01*
X88417975Y-105605597D01*
X88387354Y-105665694D01*
X88384230Y-105685416D01*
X88353815Y-105749568D01*
X88348877Y-105754795D01*
X88023343Y-106080329D01*
X88019292Y-106084042D01*
X87988306Y-106110044D01*
X87988304Y-106110047D01*
X87968089Y-106145058D01*
X87965138Y-106149691D01*
X87941945Y-106182816D01*
X87939373Y-106188332D01*
X87932993Y-106203735D01*
X87930912Y-106209452D01*
X87923892Y-106249261D01*
X87922703Y-106254626D01*
X87913627Y-106288500D01*
X87912236Y-106293693D01*
X87915759Y-106333964D01*
X87915760Y-106333965D01*
X87916000Y-106339459D01*
X87916000Y-106677476D01*
X87895998Y-106745597D01*
X87842342Y-106792090D01*
X87831616Y-106796405D01*
X87784525Y-106812883D01*
X87678289Y-106891289D01*
X87599883Y-106997525D01*
X87556276Y-107122145D01*
X87556275Y-107122150D01*
X87553500Y-107151741D01*
X87553500Y-107732258D01*
X87556275Y-107761849D01*
X87556276Y-107761854D01*
X87599883Y-107886474D01*
X87599884Y-107886475D01*
X87678289Y-107992711D01*
X87784525Y-108071116D01*
X87784524Y-108071116D01*
X87909145Y-108114723D01*
X87909151Y-108114725D01*
X87938744Y-108117500D01*
X87938747Y-108117500D01*
X88544253Y-108117500D01*
X88544256Y-108117500D01*
X88573849Y-108114725D01*
X88698475Y-108071116D01*
X88804711Y-107992711D01*
X88883116Y-107886475D01*
X88926725Y-107761849D01*
X88929500Y-107732256D01*
X88929500Y-107151744D01*
X88926725Y-107122151D01*
X88883116Y-106997525D01*
X88804711Y-106891289D01*
X88698475Y-106812884D01*
X88698474Y-106812883D01*
X88651384Y-106796405D01*
X88593692Y-106755026D01*
X88567530Y-106689025D01*
X88567000Y-106677476D01*
X88567000Y-106509516D01*
X88587002Y-106441395D01*
X88603900Y-106420425D01*
X88809204Y-106215120D01*
X88871514Y-106181097D01*
X88878591Y-106179768D01*
X88882933Y-106179080D01*
X88898304Y-106176646D01*
X89011342Y-106119050D01*
X89101050Y-106029342D01*
X89158646Y-105916304D01*
X89178492Y-105791000D01*
X89178023Y-105788042D01*
X89178492Y-105784416D01*
X89178492Y-105781084D01*
X89178923Y-105781084D01*
X89187119Y-105717636D01*
X89232837Y-105663319D01*
X89300664Y-105642342D01*
X89369065Y-105661365D01*
X89402433Y-105691624D01*
X89475785Y-105787217D01*
X89569431Y-105859075D01*
X89611298Y-105916413D01*
X89614308Y-105925961D01*
X89615291Y-105929576D01*
X89658785Y-106028079D01*
X89734920Y-106104214D01*
X89736207Y-106105095D01*
X89738006Y-106107300D01*
X89743177Y-106112470D01*
X89742654Y-106112992D01*
X89781103Y-106160094D01*
X89791000Y-106209045D01*
X89791000Y-106659980D01*
X89770998Y-106728101D01*
X89717342Y-106774594D01*
X89706616Y-106778909D01*
X89609525Y-106812883D01*
X89503289Y-106891289D01*
X89424883Y-106997525D01*
X89381276Y-107122145D01*
X89381275Y-107122150D01*
X89378500Y-107151741D01*
X89378500Y-107732258D01*
X89381275Y-107761849D01*
X89381276Y-107761854D01*
X89424883Y-107886474D01*
X89424884Y-107886475D01*
X89503289Y-107992711D01*
X89609525Y-108071116D01*
X89609524Y-108071116D01*
X89734145Y-108114723D01*
X89734151Y-108114725D01*
X89763744Y-108117500D01*
X89763747Y-108117500D01*
X90369253Y-108117500D01*
X90369256Y-108117500D01*
X90398849Y-108114725D01*
X90523475Y-108071116D01*
X90629711Y-107992711D01*
X90708116Y-107886475D01*
X90739600Y-107796500D01*
X111539000Y-107796500D01*
X111539000Y-107892184D01*
X111549430Y-107994273D01*
X111549431Y-107994276D01*
X111604248Y-108159707D01*
X111695737Y-108308033D01*
X111695742Y-108308039D01*
X111818960Y-108431257D01*
X111818966Y-108431262D01*
X111967292Y-108522751D01*
X112132723Y-108577568D01*
X112132726Y-108577569D01*
X112234815Y-108587999D01*
X112234815Y-108588000D01*
X112268000Y-108588000D01*
X112268000Y-107796500D01*
X112776000Y-107796500D01*
X112776000Y-108588000D01*
X112809185Y-108588000D01*
X112809184Y-108587999D01*
X112911273Y-108577569D01*
X112911276Y-108577568D01*
X113076707Y-108522751D01*
X113225033Y-108431262D01*
X113225039Y-108431257D01*
X113348257Y-108308039D01*
X113348262Y-108308033D01*
X113439751Y-108159707D01*
X113494568Y-107994276D01*
X113494569Y-107994273D01*
X113504999Y-107892184D01*
X113505000Y-107892184D01*
X113505000Y-107796500D01*
X112776000Y-107796500D01*
X112268000Y-107796500D01*
X111539000Y-107796500D01*
X90739600Y-107796500D01*
X90751725Y-107761849D01*
X90754500Y-107732256D01*
X90754500Y-107151744D01*
X90751725Y-107122151D01*
X90708116Y-106997525D01*
X90629711Y-106891289D01*
X90523475Y-106812884D01*
X90523474Y-106812883D01*
X90523475Y-106812883D01*
X90426384Y-106778909D01*
X90368692Y-106737530D01*
X90342530Y-106671530D01*
X90342000Y-106659980D01*
X90342000Y-106515485D01*
X90362002Y-106447364D01*
X90415658Y-106400871D01*
X90485932Y-106390767D01*
X90550512Y-106420261D01*
X90557095Y-106426390D01*
X90559918Y-106429213D01*
X90559919Y-106429213D01*
X90559921Y-106429215D01*
X90658420Y-106472707D01*
X90682495Y-106475500D01*
X90943504Y-106475499D01*
X90967580Y-106472707D01*
X91012105Y-106453046D01*
X91082498Y-106443828D01*
X91113894Y-106453047D01*
X91148738Y-106468432D01*
X91158420Y-106472707D01*
X91158424Y-106472707D01*
X91162034Y-106473690D01*
X91165576Y-106475867D01*
X91167090Y-106476536D01*
X91166999Y-106476742D01*
X91222517Y-106510870D01*
X91228926Y-106518568D01*
X91300786Y-106612218D01*
X91425173Y-106707664D01*
X91425181Y-106707669D01*
X91570043Y-106767672D01*
X91570044Y-106767673D01*
X91638000Y-106776618D01*
X91638000Y-106389204D01*
X91648735Y-106338311D01*
X91685707Y-106254580D01*
X91688500Y-106230505D01*
X91688499Y-105769496D01*
X91685707Y-105745420D01*
X91648735Y-105661689D01*
X91638000Y-105610795D01*
X91638000Y-105450000D01*
X91988000Y-105450000D01*
X91988000Y-106776617D01*
X91988001Y-106776618D01*
X92055953Y-106767674D01*
X92055955Y-106767673D01*
X92200818Y-106707669D01*
X92200826Y-106707664D01*
X92325216Y-106612216D01*
X92412858Y-106498000D01*
X92379371Y-106430095D01*
X92374386Y-106424342D01*
X92363000Y-106372000D01*
X92363000Y-105950000D01*
X92713000Y-105950000D01*
X92713000Y-106457999D01*
X92764534Y-106457999D01*
X92764542Y-106457998D01*
X92880955Y-106442672D01*
X92880956Y-106442672D01*
X93025818Y-106382669D01*
X93025826Y-106382664D01*
X93150216Y-106287216D01*
X93245664Y-106162826D01*
X93245669Y-106162818D01*
X93305673Y-106017955D01*
X93314620Y-105950000D01*
X92713000Y-105950000D01*
X92363000Y-105950000D01*
X92363000Y-105450000D01*
X92713000Y-105450000D01*
X92713000Y-105600000D01*
X93314619Y-105600000D01*
X93314619Y-105599999D01*
X93306911Y-105541445D01*
X93306911Y-105508553D01*
X93314620Y-105450000D01*
X92713000Y-105450000D01*
X92363000Y-105450000D01*
X91988000Y-105450000D01*
X91638000Y-105450000D01*
X91638000Y-105226000D01*
X91638800Y-105223275D01*
X91570044Y-105232327D01*
X91570043Y-105232327D01*
X91425181Y-105292330D01*
X91425173Y-105292335D01*
X91300785Y-105387782D01*
X91228924Y-105481432D01*
X91171585Y-105523299D01*
X91162041Y-105526307D01*
X91158422Y-105527291D01*
X91113893Y-105546953D01*
X91043497Y-105556171D01*
X91012107Y-105546953D01*
X90993623Y-105538792D01*
X90967581Y-105527293D01*
X90958437Y-105524806D01*
X90959445Y-105521099D01*
X90911034Y-105500431D01*
X90896419Y-105486260D01*
X90864620Y-105450000D01*
X90477205Y-105450000D01*
X90426311Y-105439264D01*
X90342582Y-105402293D01*
X90342578Y-105402292D01*
X90324190Y-105400159D01*
X90258829Y-105372439D01*
X90218830Y-105313782D01*
X90216894Y-105242812D01*
X90253634Y-105182061D01*
X90317386Y-105150817D01*
X90324188Y-105149839D01*
X90342580Y-105147707D01*
X90426310Y-105110735D01*
X90474427Y-105100586D01*
X91761302Y-105100586D01*
X91764000Y-105100000D01*
X92363000Y-105100000D01*
X92363000Y-104950000D01*
X92713000Y-104950000D01*
X92713000Y-105100000D01*
X93314619Y-105100000D01*
X93314619Y-105099999D01*
X93306911Y-105041445D01*
X93306911Y-105008553D01*
X93314620Y-104950000D01*
X92713000Y-104950000D01*
X92363000Y-104950000D01*
X91761381Y-104950000D01*
X91769089Y-105008553D01*
X91769089Y-105041446D01*
X91761302Y-105100586D01*
X90474427Y-105100586D01*
X90477205Y-105100000D01*
X90864618Y-105100000D01*
X90855673Y-105032044D01*
X90855672Y-105032043D01*
X90795669Y-104887181D01*
X90795664Y-104887173D01*
X90700216Y-104762783D01*
X90606568Y-104690924D01*
X90564700Y-104633586D01*
X90561691Y-104624038D01*
X90560707Y-104620425D01*
X90560707Y-104620420D01*
X90551691Y-104600000D01*
X91761380Y-104600000D01*
X92363000Y-104600000D01*
X92363000Y-104450000D01*
X92713000Y-104450000D01*
X92713000Y-104600000D01*
X93314619Y-104600000D01*
X93314619Y-104599999D01*
X93306911Y-104541445D01*
X93306911Y-104508553D01*
X93314620Y-104450000D01*
X92713000Y-104450000D01*
X92363000Y-104450000D01*
X91761381Y-104450000D01*
X91769089Y-104508553D01*
X91769089Y-104541445D01*
X91761380Y-104599999D01*
X91761380Y-104600000D01*
X90551691Y-104600000D01*
X90541047Y-104575895D01*
X90531828Y-104505500D01*
X90541047Y-104474104D01*
X90560706Y-104429582D01*
X90560705Y-104429582D01*
X90560707Y-104429580D01*
X90563500Y-104405505D01*
X90563499Y-104215567D01*
X90583501Y-104147447D01*
X90637156Y-104100954D01*
X90667617Y-104091481D01*
X90701045Y-104085588D01*
X90701047Y-104085587D01*
X90706838Y-104083479D01*
X90722101Y-104077157D01*
X90727682Y-104074555D01*
X90727683Y-104074554D01*
X90727684Y-104074554D01*
X90760807Y-104051359D01*
X90765427Y-104048416D01*
X90775890Y-104042375D01*
X90838884Y-104025499D01*
X90943500Y-104025499D01*
X90943504Y-104025499D01*
X90967580Y-104022707D01*
X91012105Y-104003046D01*
X91082498Y-103993828D01*
X91113894Y-104003047D01*
X91158414Y-104022705D01*
X91158417Y-104022705D01*
X91158420Y-104022707D01*
X91182495Y-104025500D01*
X91443504Y-104025499D01*
X91467580Y-104022707D01*
X91512105Y-104003046D01*
X91582498Y-103993828D01*
X91613894Y-104003047D01*
X91658414Y-104022705D01*
X91658417Y-104022706D01*
X91658420Y-104022707D01*
X91658422Y-104022707D01*
X91667562Y-104025194D01*
X91666541Y-104028944D01*
X91714700Y-104049351D01*
X91729580Y-104063739D01*
X91761380Y-104100000D01*
X92363000Y-104100000D01*
X92363000Y-103950000D01*
X92713000Y-103950000D01*
X92713000Y-104100000D01*
X93314619Y-104100000D01*
X93314619Y-104099999D01*
X93306911Y-104041445D01*
X93306911Y-104008553D01*
X93314620Y-103950000D01*
X92713000Y-103950000D01*
X92363000Y-103950000D01*
X92363000Y-103092000D01*
X92362999Y-103091999D01*
X92311476Y-103092000D01*
X92307360Y-103092271D01*
X92307231Y-103090315D01*
X92244807Y-103080305D01*
X92191912Y-103032949D01*
X92173000Y-102966555D01*
X92173000Y-102890019D01*
X92193002Y-102821898D01*
X92246658Y-102775405D01*
X92257385Y-102771090D01*
X92354473Y-102737117D01*
X92354473Y-102737116D01*
X92354475Y-102737116D01*
X92439234Y-102674561D01*
X92505917Y-102650205D01*
X92575187Y-102665767D01*
X92621293Y-102709795D01*
X92683737Y-102811033D01*
X92683742Y-102811039D01*
X92749756Y-102877053D01*
X92783782Y-102939365D01*
X92778717Y-103010180D01*
X92749756Y-103055243D01*
X92713000Y-103091999D01*
X92713000Y-103600000D01*
X93314618Y-103600000D01*
X93305673Y-103532044D01*
X93305672Y-103532043D01*
X93245669Y-103387181D01*
X93245664Y-103387173D01*
X93173942Y-103293704D01*
X93148341Y-103227484D01*
X93162605Y-103157935D01*
X93212206Y-103107139D01*
X93273904Y-103091000D01*
X93318500Y-103091000D01*
X93318500Y-102362000D01*
X93826500Y-102362000D01*
X93826500Y-103091000D01*
X93922185Y-103091000D01*
X93922184Y-103090999D01*
X94024273Y-103080569D01*
X94024276Y-103080568D01*
X94189707Y-103025751D01*
X94338033Y-102934262D01*
X94338039Y-102934257D01*
X94461257Y-102811039D01*
X94461262Y-102811033D01*
X94552751Y-102662707D01*
X94607568Y-102497276D01*
X94607569Y-102497273D01*
X94617999Y-102395184D01*
X94618000Y-102395184D01*
X94618000Y-102362000D01*
X93826500Y-102362000D01*
X93318500Y-102362000D01*
X93318500Y-101854000D01*
X93826500Y-101854000D01*
X94618000Y-101854000D01*
X94618000Y-101820815D01*
X94607569Y-101718726D01*
X94607568Y-101718723D01*
X94552750Y-101553289D01*
X94518109Y-101497128D01*
X94499371Y-101428649D01*
X94518109Y-101364833D01*
X94579250Y-101265708D01*
X94634068Y-101100276D01*
X94634069Y-101100273D01*
X94644499Y-100998184D01*
X94644500Y-100998184D01*
X94644500Y-100965000D01*
X93853000Y-100965000D01*
X93853000Y-101655309D01*
X93832998Y-101723430D01*
X93826500Y-101731493D01*
X93826500Y-101854000D01*
X93318500Y-101854000D01*
X93318500Y-101163691D01*
X93338502Y-101095570D01*
X93345000Y-101087506D01*
X93345000Y-99568000D01*
X93853000Y-99568000D01*
X93853000Y-100457000D01*
X94644500Y-100457000D01*
X94644500Y-100423815D01*
X94634069Y-100321726D01*
X94634068Y-100321723D01*
X94579250Y-100156291D01*
X94531359Y-100078648D01*
X94512621Y-100010168D01*
X94531359Y-99946352D01*
X94579250Y-99868708D01*
X94634068Y-99703276D01*
X94634069Y-99703273D01*
X94644499Y-99601184D01*
X94644500Y-99601184D01*
X94644500Y-99568000D01*
X93853000Y-99568000D01*
X93345000Y-99568000D01*
X93345000Y-98331000D01*
X93853000Y-98331000D01*
X93853000Y-99060000D01*
X94644500Y-99060000D01*
X94644500Y-99026815D01*
X94634069Y-98924726D01*
X94634068Y-98924723D01*
X94579251Y-98759292D01*
X94487762Y-98610966D01*
X94487757Y-98610960D01*
X94364539Y-98487742D01*
X94364533Y-98487737D01*
X94216207Y-98396248D01*
X94050776Y-98341431D01*
X94050773Y-98341430D01*
X93948684Y-98331000D01*
X93853000Y-98331000D01*
X93345000Y-98331000D01*
X93249315Y-98331000D01*
X93147226Y-98341430D01*
X93147223Y-98341431D01*
X92981792Y-98396248D01*
X92833466Y-98487737D01*
X92833460Y-98487742D01*
X92710242Y-98610960D01*
X92710233Y-98610972D01*
X92647792Y-98712204D01*
X92595006Y-98759682D01*
X92524932Y-98771085D01*
X92465733Y-98747437D01*
X92380975Y-98684884D01*
X92380973Y-98684883D01*
X92375679Y-98680976D01*
X92332747Y-98624431D01*
X92324500Y-98579596D01*
X92324500Y-97688793D01*
X92344502Y-97620672D01*
X92361405Y-97599698D01*
X95089198Y-94871905D01*
X95151510Y-94837879D01*
X95178293Y-94835000D01*
X107252497Y-94835000D01*
X107320618Y-94855002D01*
X107353876Y-94886178D01*
X107393707Y-94940148D01*
X107399290Y-94947712D01*
X107399291Y-94947713D01*
X107429233Y-94969810D01*
X107456065Y-94989614D01*
X107498998Y-95046158D01*
X107505048Y-95067567D01*
X107505788Y-95071479D01*
X107514653Y-95130291D01*
X107517160Y-95138421D01*
X107519978Y-95146474D01*
X107547776Y-95199072D01*
X107573575Y-95252643D01*
X107578386Y-95259699D01*
X107583435Y-95266540D01*
X107625496Y-95308600D01*
X107662233Y-95348194D01*
X107665945Y-95352194D01*
X107665946Y-95352195D01*
X107673329Y-95358082D01*
X107672788Y-95358760D01*
X107685117Y-95368221D01*
X109817907Y-97501011D01*
X111931095Y-99614198D01*
X111965121Y-99676510D01*
X111968000Y-99703293D01*
X111968000Y-105167283D01*
X111947998Y-105235404D01*
X111943380Y-105242104D01*
X111892883Y-105310525D01*
X111849276Y-105435145D01*
X111849275Y-105435150D01*
X111846500Y-105464741D01*
X111846500Y-105516500D01*
X111826498Y-105584621D01*
X111772842Y-105631114D01*
X111720500Y-105642500D01*
X110900500Y-105642500D01*
X110832379Y-105622498D01*
X110785886Y-105568842D01*
X110774500Y-105516500D01*
X110774500Y-105380286D01*
X110794502Y-105312165D01*
X110819506Y-105283766D01*
X110846694Y-105260955D01*
X110866915Y-105225928D01*
X110869852Y-105221317D01*
X110893054Y-105188184D01*
X110893055Y-105188181D01*
X110895657Y-105182601D01*
X110901979Y-105167338D01*
X110904087Y-105161546D01*
X110904088Y-105161545D01*
X110911107Y-105121731D01*
X110912298Y-105116363D01*
X110913190Y-105113037D01*
X110922764Y-105077307D01*
X110919239Y-105037025D01*
X110919000Y-105031540D01*
X110919000Y-102304605D01*
X110912878Y-102287785D01*
X110907195Y-102266574D01*
X110904088Y-102248957D01*
X110904088Y-102248955D01*
X110895142Y-102233460D01*
X110885858Y-102213550D01*
X110879740Y-102196740D01*
X110868238Y-102183033D01*
X110855637Y-102165036D01*
X110846694Y-102149545D01*
X110846691Y-102149542D01*
X110832987Y-102138043D01*
X110817459Y-102122516D01*
X110805955Y-102108806D01*
X110805954Y-102108805D01*
X110790459Y-102099859D01*
X110772469Y-102087262D01*
X110758762Y-102075760D01*
X110758759Y-102075759D01*
X110741941Y-102069637D01*
X110722044Y-102060359D01*
X110706545Y-102051411D01*
X110706541Y-102051410D01*
X110688920Y-102048303D01*
X110667711Y-102042620D01*
X110650896Y-102036500D01*
X110650894Y-102036500D01*
X110621975Y-102036500D01*
X109493597Y-102036500D01*
X109436394Y-102022767D01*
X109345304Y-101976354D01*
X109220000Y-101956508D01*
X109219998Y-101956508D01*
X109195209Y-101960434D01*
X109124798Y-101951334D01*
X109070484Y-101905611D01*
X109049513Y-101837782D01*
X109049500Y-101835985D01*
X109049500Y-101775016D01*
X109069502Y-101706895D01*
X109086400Y-101685925D01*
X109438169Y-101334155D01*
X109442211Y-101330451D01*
X109473194Y-101304455D01*
X109493415Y-101269428D01*
X109496352Y-101264817D01*
X109519554Y-101231684D01*
X109519555Y-101231681D01*
X109522157Y-101226101D01*
X109528479Y-101210838D01*
X109530587Y-101205046D01*
X109530588Y-101205045D01*
X109537607Y-101165231D01*
X109538798Y-101159863D01*
X109542937Y-101144420D01*
X109549264Y-101120807D01*
X109545739Y-101080525D01*
X109545500Y-101075040D01*
X109545500Y-100854948D01*
X109545740Y-100849455D01*
X109549263Y-100809193D01*
X109538794Y-100770126D01*
X109537610Y-100764779D01*
X109530588Y-100724955D01*
X109528492Y-100719196D01*
X109522146Y-100703876D01*
X109519553Y-100698316D01*
X109496364Y-100665198D01*
X109493410Y-100660561D01*
X109473195Y-100625546D01*
X109473194Y-100625545D01*
X109442224Y-100599558D01*
X109438170Y-100595843D01*
X109297631Y-100455304D01*
X109136121Y-100293795D01*
X109102097Y-100231483D01*
X109100768Y-100224408D01*
X109097646Y-100204697D01*
X109097646Y-100204696D01*
X109068848Y-100148177D01*
X109040050Y-100091657D01*
X108950342Y-100001949D01*
X108873657Y-99962877D01*
X108837304Y-99944354D01*
X108712000Y-99924508D01*
X108586696Y-99944354D01*
X108586694Y-99944354D01*
X108586694Y-99944355D01*
X108473657Y-100001949D01*
X108383949Y-100091657D01*
X108326355Y-100204694D01*
X108326354Y-100204696D01*
X108306508Y-100330000D01*
X108326354Y-100455304D01*
X108327629Y-100457806D01*
X108383949Y-100568342D01*
X108473657Y-100658050D01*
X108530177Y-100686848D01*
X108586696Y-100715646D01*
X108595506Y-100717041D01*
X108606408Y-100718768D01*
X108670561Y-100749179D01*
X108675794Y-100754122D01*
X108797577Y-100875905D01*
X108831603Y-100938217D01*
X108826538Y-101009032D01*
X108797577Y-101054095D01*
X108505843Y-101345829D01*
X108501792Y-101349542D01*
X108470806Y-101375544D01*
X108470804Y-101375547D01*
X108450589Y-101410558D01*
X108447638Y-101415191D01*
X108424445Y-101448316D01*
X108421873Y-101453832D01*
X108415493Y-101469235D01*
X108413412Y-101474952D01*
X108406392Y-101514761D01*
X108405203Y-101520126D01*
X108394736Y-101559192D01*
X108394736Y-101559194D01*
X108398260Y-101599465D01*
X108398500Y-101604959D01*
X108398500Y-104935292D01*
X108378498Y-105003413D01*
X108324842Y-105049906D01*
X108297089Y-105058869D01*
X108295777Y-105059129D01*
X108295768Y-105059133D01*
X108229448Y-105103448D01*
X108185133Y-105169768D01*
X108185132Y-105169771D01*
X108174675Y-105222341D01*
X108141766Y-105285250D01*
X108126605Y-105298626D01*
X108011095Y-105385095D01*
X107923555Y-105502034D01*
X107923555Y-105502035D01*
X107872505Y-105638906D01*
X107866000Y-105699402D01*
X107866000Y-105748000D01*
X108214344Y-105748000D01*
X108282465Y-105768002D01*
X108284346Y-105769235D01*
X108295767Y-105776866D01*
X108295769Y-105776867D01*
X108354252Y-105788500D01*
X108354253Y-105788500D01*
X108768000Y-105788500D01*
X108836121Y-105808502D01*
X108882614Y-105862158D01*
X108894000Y-105914500D01*
X108894000Y-105921500D01*
X108873998Y-105989621D01*
X108820342Y-106036114D01*
X108768000Y-106047500D01*
X108354249Y-106047500D01*
X108295767Y-106059133D01*
X108284346Y-106066765D01*
X108216593Y-106087980D01*
X108214344Y-106088000D01*
X107866000Y-106088000D01*
X107866000Y-106136597D01*
X107872505Y-106197093D01*
X107923555Y-106333964D01*
X107923555Y-106333965D01*
X108011095Y-106450904D01*
X108126605Y-106537374D01*
X108169152Y-106594210D01*
X108174675Y-106613659D01*
X108185132Y-106666228D01*
X108185133Y-106666231D01*
X108229448Y-106732552D01*
X108295769Y-106776867D01*
X108354252Y-106788500D01*
X108354253Y-106788500D01*
X109093747Y-106788500D01*
X109093748Y-106788500D01*
X109152231Y-106776867D01*
X109218552Y-106732552D01*
X109218552Y-106732551D01*
X109219970Y-106731604D01*
X109287723Y-106710388D01*
X109356190Y-106729170D01*
X109403633Y-106781987D01*
X109408029Y-106792336D01*
X109423555Y-106833965D01*
X109511095Y-106950904D01*
X109628034Y-107038444D01*
X109764906Y-107089494D01*
X109825402Y-107095999D01*
X109825415Y-107096000D01*
X110054000Y-107096000D01*
X110054000Y-106588000D01*
X110394000Y-106588000D01*
X110394000Y-107096000D01*
X110622585Y-107096000D01*
X110622597Y-107095999D01*
X110683093Y-107089494D01*
X110819964Y-107038444D01*
X110819965Y-107038444D01*
X110936904Y-106950904D01*
X111024444Y-106833965D01*
X111024444Y-106833964D01*
X111075494Y-106697093D01*
X111081999Y-106636597D01*
X111082000Y-106636585D01*
X111082000Y-106588000D01*
X110394000Y-106588000D01*
X110054000Y-106588000D01*
X110054000Y-106414500D01*
X110074002Y-106346379D01*
X110127658Y-106299886D01*
X110180000Y-106288500D01*
X110593747Y-106288500D01*
X110593748Y-106288500D01*
X110652231Y-106276867D01*
X110655803Y-106274479D01*
X110663654Y-106269235D01*
X110731407Y-106248020D01*
X110733656Y-106248000D01*
X111082001Y-106248000D01*
X111099596Y-106230405D01*
X111161908Y-106196379D01*
X111188691Y-106193500D01*
X111757652Y-106193500D01*
X111825773Y-106213502D01*
X111872266Y-106267158D01*
X111876576Y-106277871D01*
X111884280Y-106299886D01*
X111892884Y-106324476D01*
X111927959Y-106372000D01*
X111955436Y-106409231D01*
X111979794Y-106475918D01*
X111964232Y-106545188D01*
X111920204Y-106591292D01*
X111818972Y-106653733D01*
X111818960Y-106653742D01*
X111695742Y-106776960D01*
X111695737Y-106776966D01*
X111604248Y-106925292D01*
X111549431Y-107090723D01*
X111549430Y-107090726D01*
X111539000Y-107192815D01*
X111539000Y-107288500D01*
X113505000Y-107288500D01*
X113505000Y-107192815D01*
X113494569Y-107090726D01*
X113494568Y-107090723D01*
X113439751Y-106925292D01*
X113348262Y-106776966D01*
X113348257Y-106776960D01*
X113225039Y-106653742D01*
X113225033Y-106653737D01*
X113123795Y-106591293D01*
X113076317Y-106538507D01*
X113064914Y-106468432D01*
X113088561Y-106409234D01*
X113151116Y-106324475D01*
X113194725Y-106199849D01*
X113197500Y-106170256D01*
X113197500Y-105464744D01*
X113194725Y-105435151D01*
X113194494Y-105434492D01*
X113151116Y-105310525D01*
X113150653Y-105309897D01*
X113072711Y-105204289D01*
X112966475Y-105125884D01*
X112966474Y-105125883D01*
X112966473Y-105125883D01*
X112953381Y-105121302D01*
X112895690Y-105079922D01*
X112869530Y-105013920D01*
X112869000Y-105002374D01*
X112869000Y-99493342D01*
X112869396Y-99486283D01*
X112873770Y-99447463D01*
X112873769Y-99447462D01*
X112862712Y-99389021D01*
X112858947Y-99364049D01*
X112853848Y-99330213D01*
X112853844Y-99330205D01*
X112851320Y-99322020D01*
X112848524Y-99314030D01*
X112848523Y-99314028D01*
X112820726Y-99261436D01*
X112794925Y-99207858D01*
X112794923Y-99207856D01*
X112794922Y-99207853D01*
X112790133Y-99200829D01*
X112785063Y-99193959D01*
X112743016Y-99151913D01*
X112702554Y-99108304D01*
X112695174Y-99102419D01*
X112695713Y-99101742D01*
X112683380Y-99092277D01*
X108593563Y-95002460D01*
X108559537Y-94940148D01*
X108564602Y-94869333D01*
X108575065Y-94850019D01*
X108574702Y-94849827D01*
X108579110Y-94841482D01*
X108579116Y-94841475D01*
X108622725Y-94716849D01*
X108625500Y-94687256D01*
X108625500Y-94508306D01*
X108645502Y-94440185D01*
X108662399Y-94419215D01*
X109625083Y-93456531D01*
X109687394Y-93422508D01*
X109758209Y-93427572D01*
X109795232Y-93451366D01*
X109795818Y-93450603D01*
X109929370Y-93553082D01*
X109929378Y-93553087D01*
X110077281Y-93614349D01*
X110236000Y-93635246D01*
X110394720Y-93614349D01*
X110394723Y-93614348D01*
X110470781Y-93582844D01*
X110541370Y-93575254D01*
X110567219Y-93582844D01*
X110643276Y-93614348D01*
X110643279Y-93614349D01*
X110802000Y-93635246D01*
X110960718Y-93614349D01*
X111108621Y-93553087D01*
X111108629Y-93553082D01*
X111235630Y-93455630D01*
X111333082Y-93328629D01*
X111333087Y-93328621D01*
X111394349Y-93180718D01*
X111415246Y-93022000D01*
X111415246Y-93021999D01*
X111394349Y-92863279D01*
X111394348Y-92863276D01*
X111372487Y-92810500D01*
X111793000Y-92810500D01*
X111793000Y-92906184D01*
X111803430Y-93008273D01*
X111803431Y-93008276D01*
X111858248Y-93173707D01*
X111949737Y-93322033D01*
X111949742Y-93322039D01*
X112072960Y-93445257D01*
X112072966Y-93445262D01*
X112221292Y-93536751D01*
X112386723Y-93591568D01*
X112386726Y-93591569D01*
X112488815Y-93601999D01*
X112488815Y-93602000D01*
X112522000Y-93602000D01*
X112522000Y-92810500D01*
X113030000Y-92810500D01*
X113030000Y-93602000D01*
X113063185Y-93602000D01*
X113063184Y-93601999D01*
X113165273Y-93591569D01*
X113165276Y-93591568D01*
X113330707Y-93536751D01*
X113479033Y-93445262D01*
X113479039Y-93445257D01*
X113602257Y-93322039D01*
X113602262Y-93322033D01*
X113693751Y-93173707D01*
X113748568Y-93008276D01*
X113748569Y-93008273D01*
X113758999Y-92906184D01*
X113759000Y-92906184D01*
X113759000Y-92810500D01*
X113030000Y-92810500D01*
X112522000Y-92810500D01*
X111793000Y-92810500D01*
X111372487Y-92810500D01*
X111362844Y-92787219D01*
X111355254Y-92716630D01*
X111362844Y-92690781D01*
X111394348Y-92614723D01*
X111394349Y-92614720D01*
X111415246Y-92456000D01*
X111415246Y-92455999D01*
X111394349Y-92297281D01*
X111333087Y-92149378D01*
X111333082Y-92149370D01*
X111230603Y-92015818D01*
X111231913Y-92014812D01*
X111202507Y-91960960D01*
X111207572Y-91890145D01*
X111236530Y-91845084D01*
X111900435Y-91181180D01*
X111962745Y-91147157D01*
X112033561Y-91152222D01*
X112090396Y-91194769D01*
X112108457Y-91228662D01*
X112146883Y-91338474D01*
X112158908Y-91354767D01*
X112209436Y-91423231D01*
X112233794Y-91489918D01*
X112218232Y-91559188D01*
X112174204Y-91605292D01*
X112072972Y-91667733D01*
X112072960Y-91667742D01*
X111949742Y-91790960D01*
X111949737Y-91790966D01*
X111858248Y-91939292D01*
X111803431Y-92104723D01*
X111803430Y-92104726D01*
X111793000Y-92206815D01*
X111793000Y-92302500D01*
X113759000Y-92302500D01*
X113759000Y-92206815D01*
X113748569Y-92104726D01*
X113748568Y-92104723D01*
X113693751Y-91939292D01*
X113602262Y-91790966D01*
X113602257Y-91790960D01*
X113479039Y-91667742D01*
X113479033Y-91667737D01*
X113377795Y-91605293D01*
X113330317Y-91552507D01*
X113318914Y-91482432D01*
X113342561Y-91423234D01*
X113405116Y-91338475D01*
X113448725Y-91213849D01*
X113451500Y-91184256D01*
X113451500Y-90478744D01*
X113448725Y-90449151D01*
X113411736Y-90343443D01*
X113405116Y-90324524D01*
X113405114Y-90324521D01*
X113326713Y-90218290D01*
X113277678Y-90182101D01*
X113234746Y-90125556D01*
X113226500Y-90080722D01*
X113226500Y-89944842D01*
X113226896Y-89937783D01*
X113231270Y-89898963D01*
X113231269Y-89898962D01*
X113220212Y-89840521D01*
X113216447Y-89815549D01*
X113211348Y-89781713D01*
X113211344Y-89781705D01*
X113208820Y-89773520D01*
X113206024Y-89765530D01*
X113201669Y-89757290D01*
X113178226Y-89712936D01*
X113152425Y-89659358D01*
X113152423Y-89659356D01*
X113152422Y-89659353D01*
X113147633Y-89652329D01*
X113142563Y-89645459D01*
X113100516Y-89603413D01*
X113060054Y-89559804D01*
X113052674Y-89553919D01*
X113053213Y-89553242D01*
X113040880Y-89543777D01*
X112830603Y-89333500D01*
X112606942Y-89109839D01*
X112602239Y-89104576D01*
X112577880Y-89074031D01*
X112577881Y-89074031D01*
X112528728Y-89040519D01*
X112480879Y-89005204D01*
X112473330Y-89001214D01*
X112465674Y-88997528D01*
X112408822Y-88979992D01*
X112352696Y-88960353D01*
X112344316Y-88958767D01*
X112339984Y-88958114D01*
X112336684Y-88956579D01*
X112328295Y-88955154D01*
X112326906Y-88954726D01*
X112327631Y-88952370D01*
X112275607Y-88928179D01*
X112257392Y-88908344D01*
X112219713Y-88857291D01*
X112219711Y-88857290D01*
X112219711Y-88857289D01*
X112113475Y-88778884D01*
X112113473Y-88778883D01*
X112108179Y-88774976D01*
X112065247Y-88718431D01*
X112057000Y-88673596D01*
X112057000Y-88521342D01*
X112057396Y-88514283D01*
X112057863Y-88510144D01*
X112061770Y-88475465D01*
X112054195Y-88435430D01*
X112050712Y-88417021D01*
X112045926Y-88385271D01*
X112041848Y-88358213D01*
X112041844Y-88358205D01*
X112039320Y-88350020D01*
X112036524Y-88342030D01*
X112033399Y-88336118D01*
X112008726Y-88289436D01*
X111982925Y-88235858D01*
X111982923Y-88235856D01*
X111982922Y-88235853D01*
X111978133Y-88228829D01*
X111973063Y-88221959D01*
X111931016Y-88179913D01*
X111890554Y-88136304D01*
X111883174Y-88130419D01*
X111883713Y-88129742D01*
X111871380Y-88120277D01*
X111470197Y-87719094D01*
X111436171Y-87656782D01*
X111441236Y-87585967D01*
X111470193Y-87540909D01*
X117656170Y-81354931D01*
X117661414Y-81350245D01*
X117691970Y-81325879D01*
X117725480Y-81276728D01*
X117760793Y-81228882D01*
X117760793Y-81228879D01*
X117760795Y-81228878D01*
X117764781Y-81221336D01*
X117768471Y-81213674D01*
X117768470Y-81213674D01*
X117768472Y-81213673D01*
X117786007Y-81156822D01*
X117805646Y-81100699D01*
X117805646Y-81100696D01*
X117807229Y-81092330D01*
X117808500Y-81083901D01*
X117808500Y-81024441D01*
X117808870Y-81014553D01*
X117810725Y-80964990D01*
X117810723Y-80964985D01*
X117809668Y-80955605D01*
X117810527Y-80955508D01*
X117808500Y-80940096D01*
X117808500Y-78402500D01*
X117828502Y-78334379D01*
X117882158Y-78287886D01*
X117934500Y-78276500D01*
X118227747Y-78276500D01*
X118227748Y-78276500D01*
X118286231Y-78264867D01*
X118352552Y-78220552D01*
X118396867Y-78154231D01*
X118408500Y-78095748D01*
X118408500Y-77802500D01*
X118428502Y-77734379D01*
X118482158Y-77687886D01*
X118534500Y-77676500D01*
X123039500Y-77676500D01*
X123107621Y-77696502D01*
X123154114Y-77750158D01*
X123165500Y-77802500D01*
X123165500Y-78095750D01*
X123175012Y-78143571D01*
X123177133Y-78154231D01*
X123221448Y-78220552D01*
X123287769Y-78264867D01*
X123346252Y-78276500D01*
X123346253Y-78276500D01*
X125085747Y-78276500D01*
X125085748Y-78276500D01*
X125144231Y-78264867D01*
X125210552Y-78220552D01*
X125254867Y-78154231D01*
X125266500Y-78095748D01*
X125266500Y-77802500D01*
X125286502Y-77734379D01*
X125340158Y-77687886D01*
X125392500Y-77676500D01*
X130151500Y-77676500D01*
X130219621Y-77696502D01*
X130266114Y-77750158D01*
X130277500Y-77802500D01*
X130277500Y-78105750D01*
X130287143Y-78154231D01*
X130289133Y-78164231D01*
X130333448Y-78230552D01*
X130399769Y-78274867D01*
X130458252Y-78286500D01*
X130458253Y-78286500D01*
X132197747Y-78286500D01*
X132197748Y-78286500D01*
X132256231Y-78274867D01*
X132322552Y-78230552D01*
X132366867Y-78164231D01*
X132378500Y-78105748D01*
X132378500Y-76366252D01*
X132366867Y-76307769D01*
X132322552Y-76241448D01*
X132256231Y-76197133D01*
X132256228Y-76197132D01*
X132197750Y-76185500D01*
X132197748Y-76185500D01*
X130458252Y-76185500D01*
X130458249Y-76185500D01*
X130399771Y-76197132D01*
X130399768Y-76197133D01*
X130333448Y-76241448D01*
X130289133Y-76307768D01*
X130289132Y-76307771D01*
X130277500Y-76366249D01*
X130277500Y-76649500D01*
X130257498Y-76717621D01*
X130203842Y-76764114D01*
X130151500Y-76775500D01*
X125392500Y-76775500D01*
X125324379Y-76755498D01*
X125277886Y-76701842D01*
X125266500Y-76649500D01*
X125266500Y-76356253D01*
X125266499Y-76356249D01*
X125256856Y-76307771D01*
X125254867Y-76297769D01*
X125210552Y-76231448D01*
X125144231Y-76187133D01*
X125144228Y-76187132D01*
X125085750Y-76175500D01*
X125085748Y-76175500D01*
X123346252Y-76175500D01*
X123346249Y-76175500D01*
X123287771Y-76187132D01*
X123287768Y-76187133D01*
X123221448Y-76231448D01*
X123177133Y-76297768D01*
X123177132Y-76297771D01*
X123165500Y-76356249D01*
X123165500Y-76649500D01*
X123145498Y-76717621D01*
X123091842Y-76764114D01*
X123039500Y-76775500D01*
X118534500Y-76775500D01*
X118466379Y-76755498D01*
X118419886Y-76701842D01*
X118408500Y-76649500D01*
X118408500Y-76356253D01*
X118408499Y-76356249D01*
X118398856Y-76307771D01*
X118396867Y-76297769D01*
X118352552Y-76231448D01*
X118286231Y-76187133D01*
X118286228Y-76187132D01*
X118227750Y-76175500D01*
X118227748Y-76175500D01*
X116488252Y-76175500D01*
X116488249Y-76175500D01*
X116429771Y-76187132D01*
X116429768Y-76187133D01*
X116363448Y-76231448D01*
X116319133Y-76297768D01*
X116319132Y-76297771D01*
X116307500Y-76356249D01*
X116307500Y-78095750D01*
X116317012Y-78143571D01*
X116319133Y-78154231D01*
X116363448Y-78220552D01*
X116429769Y-78264867D01*
X116488252Y-78276500D01*
X116781500Y-78276500D01*
X116849621Y-78296502D01*
X116896114Y-78350158D01*
X116907500Y-78402500D01*
X116907500Y-80777207D01*
X116887498Y-80845328D01*
X116870595Y-80866302D01*
X110594302Y-87142595D01*
X110531990Y-87176621D01*
X110505207Y-87179500D01*
X108994843Y-87179500D01*
X108987788Y-87179104D01*
X108948965Y-87174730D01*
X108948964Y-87174730D01*
X108935360Y-87177304D01*
X108911937Y-87179500D01*
X97567793Y-87179500D01*
X97499672Y-87159498D01*
X97478698Y-87142595D01*
X94316905Y-83980802D01*
X94282879Y-83918490D01*
X94280000Y-83891707D01*
X94280000Y-74789000D01*
X95537000Y-74789000D01*
X95537000Y-74872184D01*
X95547430Y-74974273D01*
X95547431Y-74974276D01*
X95602248Y-75139707D01*
X95693737Y-75288033D01*
X95693742Y-75288039D01*
X95816960Y-75411257D01*
X95816966Y-75411262D01*
X95965292Y-75502751D01*
X96130723Y-75557568D01*
X96130726Y-75557569D01*
X96232815Y-75567999D01*
X96232815Y-75568000D01*
X96266000Y-75568000D01*
X96266000Y-74789000D01*
X96774000Y-74789000D01*
X96774000Y-75568000D01*
X96807185Y-75568000D01*
X96807184Y-75567999D01*
X96909273Y-75557569D01*
X96909276Y-75557568D01*
X97074707Y-75502751D01*
X97223033Y-75411262D01*
X97223039Y-75411257D01*
X97346257Y-75288039D01*
X97346262Y-75288033D01*
X97437751Y-75139707D01*
X97492568Y-74974276D01*
X97492569Y-74974273D01*
X97502999Y-74872184D01*
X97503000Y-74872184D01*
X97503000Y-74789000D01*
X98585000Y-74789000D01*
X98585000Y-74872184D01*
X98595430Y-74974273D01*
X98595431Y-74974276D01*
X98650248Y-75139707D01*
X98741737Y-75288033D01*
X98741742Y-75288039D01*
X98864960Y-75411257D01*
X98864966Y-75411262D01*
X99013292Y-75502751D01*
X99178723Y-75557568D01*
X99178726Y-75557569D01*
X99280815Y-75567999D01*
X99280815Y-75568000D01*
X99314000Y-75568000D01*
X99314000Y-74789000D01*
X99822000Y-74789000D01*
X99822000Y-75568000D01*
X99855185Y-75568000D01*
X99855184Y-75567999D01*
X99957273Y-75557569D01*
X99957276Y-75557568D01*
X100122707Y-75502751D01*
X100271033Y-75411262D01*
X100271039Y-75411257D01*
X100394257Y-75288039D01*
X100394262Y-75288033D01*
X100485751Y-75139707D01*
X100540568Y-74974276D01*
X100540569Y-74974273D01*
X100550999Y-74872184D01*
X100551000Y-74872184D01*
X100551000Y-74789000D01*
X101633000Y-74789000D01*
X101633000Y-74872184D01*
X101643430Y-74974273D01*
X101643431Y-74974276D01*
X101698248Y-75139707D01*
X101789737Y-75288033D01*
X101789742Y-75288039D01*
X101912960Y-75411257D01*
X101912966Y-75411262D01*
X102061292Y-75502751D01*
X102226723Y-75557568D01*
X102226726Y-75557569D01*
X102328815Y-75567999D01*
X102328815Y-75568000D01*
X102362000Y-75568000D01*
X102362000Y-74789000D01*
X102870000Y-74789000D01*
X102870000Y-75568000D01*
X102903185Y-75568000D01*
X102903184Y-75567999D01*
X103005273Y-75557569D01*
X103005276Y-75557568D01*
X103170707Y-75502751D01*
X103319033Y-75411262D01*
X103319039Y-75411257D01*
X103442257Y-75288039D01*
X103442262Y-75288033D01*
X103533751Y-75139707D01*
X103588568Y-74974276D01*
X103588569Y-74974273D01*
X103598999Y-74872184D01*
X103599000Y-74872184D01*
X103599000Y-74789000D01*
X104681000Y-74789000D01*
X104681000Y-74872184D01*
X104691430Y-74974273D01*
X104691431Y-74974276D01*
X104746248Y-75139707D01*
X104837737Y-75288033D01*
X104837742Y-75288039D01*
X104960960Y-75411257D01*
X104960966Y-75411262D01*
X105109292Y-75502751D01*
X105274723Y-75557568D01*
X105274726Y-75557569D01*
X105376815Y-75567999D01*
X105376815Y-75568000D01*
X105410000Y-75568000D01*
X105410000Y-74789000D01*
X105918000Y-74789000D01*
X105918000Y-75568000D01*
X105951185Y-75568000D01*
X105951184Y-75567999D01*
X106053273Y-75557569D01*
X106053276Y-75557568D01*
X106218707Y-75502751D01*
X106367033Y-75411262D01*
X106367039Y-75411257D01*
X106490257Y-75288039D01*
X106490262Y-75288033D01*
X106581751Y-75139707D01*
X106636568Y-74974276D01*
X106636569Y-74974273D01*
X106646999Y-74872184D01*
X106647000Y-74872184D01*
X106647000Y-74789000D01*
X105918000Y-74789000D01*
X105410000Y-74789000D01*
X104681000Y-74789000D01*
X103599000Y-74789000D01*
X102870000Y-74789000D01*
X102362000Y-74789000D01*
X101633000Y-74789000D01*
X100551000Y-74789000D01*
X99822000Y-74789000D01*
X99314000Y-74789000D01*
X98585000Y-74789000D01*
X97503000Y-74789000D01*
X96774000Y-74789000D01*
X96266000Y-74789000D01*
X95537000Y-74789000D01*
X94280000Y-74789000D01*
X94280000Y-74686003D01*
X116302417Y-74686003D01*
X116322698Y-74891927D01*
X116322699Y-74891933D01*
X116322700Y-74891934D01*
X116356051Y-75001879D01*
X116382768Y-75089954D01*
X116448593Y-75213104D01*
X116480315Y-75272450D01*
X116611590Y-75432410D01*
X116771550Y-75563685D01*
X116954046Y-75661232D01*
X117152066Y-75721300D01*
X117152070Y-75721300D01*
X117152072Y-75721301D01*
X117357997Y-75741583D01*
X117358000Y-75741583D01*
X117358003Y-75741583D01*
X117563927Y-75721301D01*
X117563928Y-75721300D01*
X117563934Y-75721300D01*
X117761954Y-75661232D01*
X117944450Y-75563685D01*
X118104410Y-75432410D01*
X118235685Y-75272450D01*
X118272751Y-75203103D01*
X118322503Y-75152456D01*
X118383873Y-75136500D01*
X123190127Y-75136500D01*
X123258248Y-75156502D01*
X123301248Y-75203103D01*
X123338315Y-75272450D01*
X123469590Y-75432410D01*
X123629550Y-75563685D01*
X123812046Y-75661232D01*
X124010066Y-75721300D01*
X124010070Y-75721300D01*
X124010072Y-75721301D01*
X124215997Y-75741583D01*
X124216000Y-75741583D01*
X124216003Y-75741583D01*
X124421927Y-75721301D01*
X124421928Y-75721300D01*
X124421934Y-75721300D01*
X124619954Y-75661232D01*
X124802450Y-75563685D01*
X124962410Y-75432410D01*
X125093685Y-75272450D01*
X125125406Y-75213103D01*
X125175158Y-75162456D01*
X125236528Y-75146500D01*
X130302127Y-75146500D01*
X130370248Y-75166502D01*
X130413248Y-75213103D01*
X130450315Y-75282450D01*
X130581590Y-75442410D01*
X130741550Y-75573685D01*
X130924046Y-75671232D01*
X131122066Y-75731300D01*
X131122070Y-75731300D01*
X131122072Y-75731301D01*
X131327997Y-75751583D01*
X131328000Y-75751583D01*
X131328003Y-75751583D01*
X131533927Y-75731301D01*
X131533928Y-75731300D01*
X131533934Y-75731300D01*
X131731954Y-75671232D01*
X131914450Y-75573685D01*
X132074410Y-75442410D01*
X132205685Y-75282450D01*
X132303232Y-75099954D01*
X132363300Y-74901934D01*
X132368251Y-74851674D01*
X132383583Y-74696003D01*
X132383583Y-74695996D01*
X132363301Y-74490072D01*
X132363300Y-74490070D01*
X132363300Y-74490066D01*
X132303232Y-74292046D01*
X132205685Y-74109550D01*
X132074410Y-73949590D01*
X131914450Y-73818315D01*
X131914448Y-73818314D01*
X131914447Y-73818313D01*
X131731954Y-73720768D01*
X131533927Y-73660698D01*
X131328003Y-73640417D01*
X131327997Y-73640417D01*
X131122072Y-73660698D01*
X130924045Y-73720768D01*
X130741552Y-73818313D01*
X130581590Y-73949590D01*
X130450313Y-74109552D01*
X130413249Y-74178896D01*
X130363497Y-74229544D01*
X130302127Y-74245500D01*
X125247219Y-74245500D01*
X125179098Y-74225498D01*
X125136097Y-74178897D01*
X125093685Y-74099550D01*
X124962410Y-73939590D01*
X124802450Y-73808315D01*
X124802448Y-73808314D01*
X124802447Y-73808313D01*
X124619954Y-73710768D01*
X124448445Y-73658742D01*
X124421934Y-73650700D01*
X124421933Y-73650699D01*
X124421927Y-73650698D01*
X124216003Y-73630417D01*
X124215997Y-73630417D01*
X124010072Y-73650698D01*
X123812045Y-73710768D01*
X123629552Y-73808313D01*
X123469590Y-73939590D01*
X123338313Y-74099552D01*
X123301249Y-74168896D01*
X123251497Y-74219544D01*
X123190127Y-74235500D01*
X118383873Y-74235500D01*
X118315752Y-74215498D01*
X118272751Y-74168896D01*
X118235686Y-74099552D01*
X118235685Y-74099550D01*
X118104410Y-73939590D01*
X117944450Y-73808315D01*
X117944448Y-73808314D01*
X117944447Y-73808313D01*
X117761954Y-73710768D01*
X117590445Y-73658742D01*
X117563934Y-73650700D01*
X117563933Y-73650699D01*
X117563927Y-73650698D01*
X117358003Y-73630417D01*
X117357997Y-73630417D01*
X117152072Y-73650698D01*
X116954045Y-73710768D01*
X116771552Y-73808313D01*
X116611590Y-73939590D01*
X116480313Y-74099552D01*
X116382768Y-74282045D01*
X116322698Y-74480072D01*
X116302417Y-74685996D01*
X116302417Y-74686003D01*
X94280000Y-74686003D01*
X94280000Y-74281000D01*
X95537000Y-74281000D01*
X97503000Y-74281000D01*
X98585000Y-74281000D01*
X100551000Y-74281000D01*
X101633000Y-74281000D01*
X103599000Y-74281000D01*
X104681000Y-74281000D01*
X106647000Y-74281000D01*
X106647000Y-74197815D01*
X106636569Y-74095726D01*
X106636568Y-74095723D01*
X106581751Y-73930292D01*
X106490262Y-73781966D01*
X106490257Y-73781960D01*
X106367039Y-73658742D01*
X106367033Y-73658737D01*
X106239581Y-73580124D01*
X106192103Y-73527338D01*
X106180700Y-73457263D01*
X106208992Y-73392147D01*
X106214018Y-73386647D01*
X106214706Y-73385714D01*
X106214711Y-73385711D01*
X106293116Y-73279475D01*
X106336725Y-73154849D01*
X106339500Y-73125256D01*
X106339500Y-72444744D01*
X106336725Y-72415151D01*
X106333711Y-72406538D01*
X106293116Y-72290524D01*
X106293114Y-72290521D01*
X106214713Y-72184290D01*
X106165678Y-72148101D01*
X106122746Y-72091556D01*
X106114500Y-72046722D01*
X106114500Y-71717277D01*
X106134502Y-71649156D01*
X106165680Y-71615897D01*
X106214711Y-71579711D01*
X106293114Y-71473478D01*
X106293116Y-71473475D01*
X106308214Y-71430327D01*
X106336725Y-71348849D01*
X106339500Y-71319256D01*
X106339500Y-70713744D01*
X106336725Y-70684151D01*
X106293116Y-70559525D01*
X106214711Y-70453289D01*
X106108475Y-70374884D01*
X106108474Y-70374883D01*
X106108475Y-70374883D01*
X105983854Y-70331276D01*
X105983849Y-70331275D01*
X105954258Y-70328500D01*
X105954256Y-70328500D01*
X105373744Y-70328500D01*
X105373741Y-70328500D01*
X105344150Y-70331275D01*
X105344145Y-70331276D01*
X105219525Y-70374883D01*
X105113289Y-70453289D01*
X105034883Y-70559525D01*
X104991276Y-70684145D01*
X104991275Y-70684150D01*
X104988500Y-70713741D01*
X104988500Y-71319258D01*
X104991275Y-71348849D01*
X104991276Y-71348854D01*
X105034883Y-71473475D01*
X105034885Y-71473478D01*
X105113288Y-71579711D01*
X105162320Y-71615897D01*
X105205253Y-71672441D01*
X105213500Y-71717277D01*
X105213500Y-72046722D01*
X105193498Y-72114843D01*
X105162322Y-72148101D01*
X105113286Y-72184290D01*
X105034885Y-72290521D01*
X105034883Y-72290524D01*
X104991276Y-72415145D01*
X104991275Y-72415150D01*
X104988500Y-72444741D01*
X104988500Y-73125258D01*
X104991275Y-73154849D01*
X104991276Y-73154854D01*
X105034883Y-73279474D01*
X105034884Y-73279475D01*
X105113289Y-73385711D01*
X105113290Y-73385712D01*
X105118896Y-73393307D01*
X105117233Y-73394533D01*
X105145392Y-73446100D01*
X105140327Y-73516915D01*
X105097780Y-73573751D01*
X105088418Y-73580124D01*
X104960966Y-73658737D01*
X104960960Y-73658742D01*
X104837742Y-73781960D01*
X104837737Y-73781966D01*
X104746248Y-73930292D01*
X104691431Y-74095723D01*
X104691430Y-74095726D01*
X104681000Y-74197815D01*
X104681000Y-74281000D01*
X103599000Y-74281000D01*
X103599000Y-74197815D01*
X103588569Y-74095726D01*
X103588568Y-74095723D01*
X103533751Y-73930292D01*
X103442262Y-73781966D01*
X103442257Y-73781960D01*
X103319039Y-73658742D01*
X103319033Y-73658737D01*
X103191581Y-73580124D01*
X103144103Y-73527338D01*
X103132700Y-73457263D01*
X103160992Y-73392147D01*
X103166018Y-73386647D01*
X103166706Y-73385714D01*
X103166711Y-73385711D01*
X103245116Y-73279475D01*
X103288725Y-73154849D01*
X103291500Y-73125256D01*
X103291500Y-72444744D01*
X103288725Y-72415151D01*
X103285711Y-72406538D01*
X103245116Y-72290524D01*
X103245114Y-72290521D01*
X103166713Y-72184290D01*
X103117678Y-72148101D01*
X103074746Y-72091556D01*
X103066500Y-72046722D01*
X103066500Y-71717277D01*
X103086502Y-71649156D01*
X103117680Y-71615897D01*
X103166711Y-71579711D01*
X103245114Y-71473478D01*
X103245116Y-71473475D01*
X103260214Y-71430327D01*
X103288725Y-71348849D01*
X103291500Y-71319256D01*
X103291500Y-70713744D01*
X103288725Y-70684151D01*
X103245116Y-70559525D01*
X103166711Y-70453289D01*
X103060475Y-70374884D01*
X103060474Y-70374883D01*
X103060475Y-70374883D01*
X102935854Y-70331276D01*
X102935849Y-70331275D01*
X102906258Y-70328500D01*
X102906256Y-70328500D01*
X102325744Y-70328500D01*
X102325741Y-70328500D01*
X102296150Y-70331275D01*
X102296145Y-70331276D01*
X102171525Y-70374883D01*
X102065289Y-70453289D01*
X101986883Y-70559525D01*
X101943276Y-70684145D01*
X101943275Y-70684150D01*
X101940500Y-70713741D01*
X101940500Y-71319258D01*
X101943275Y-71348849D01*
X101943276Y-71348854D01*
X101986883Y-71473475D01*
X101986885Y-71473478D01*
X102065288Y-71579711D01*
X102114320Y-71615897D01*
X102157253Y-71672441D01*
X102165500Y-71717277D01*
X102165500Y-72046722D01*
X102145498Y-72114843D01*
X102114322Y-72148101D01*
X102065286Y-72184290D01*
X101986885Y-72290521D01*
X101986883Y-72290524D01*
X101943276Y-72415145D01*
X101943275Y-72415150D01*
X101940500Y-72444741D01*
X101940500Y-73125258D01*
X101943275Y-73154849D01*
X101943276Y-73154854D01*
X101986883Y-73279474D01*
X101986884Y-73279475D01*
X102065289Y-73385711D01*
X102065290Y-73385712D01*
X102070896Y-73393307D01*
X102069233Y-73394533D01*
X102097392Y-73446100D01*
X102092327Y-73516915D01*
X102049780Y-73573751D01*
X102040418Y-73580124D01*
X101912966Y-73658737D01*
X101912960Y-73658742D01*
X101789742Y-73781960D01*
X101789737Y-73781966D01*
X101698248Y-73930292D01*
X101643431Y-74095723D01*
X101643430Y-74095726D01*
X101633000Y-74197815D01*
X101633000Y-74281000D01*
X100551000Y-74281000D01*
X100551000Y-74197815D01*
X100540569Y-74095726D01*
X100540568Y-74095723D01*
X100485751Y-73930292D01*
X100394262Y-73781966D01*
X100394257Y-73781960D01*
X100271039Y-73658742D01*
X100271033Y-73658737D01*
X100143581Y-73580124D01*
X100096103Y-73527338D01*
X100084700Y-73457263D01*
X100112992Y-73392147D01*
X100118018Y-73386647D01*
X100118706Y-73385714D01*
X100118711Y-73385711D01*
X100197116Y-73279475D01*
X100240725Y-73154849D01*
X100243500Y-73125256D01*
X100243500Y-72444744D01*
X100240725Y-72415151D01*
X100237711Y-72406538D01*
X100197116Y-72290524D01*
X100197114Y-72290521D01*
X100118713Y-72184290D01*
X100069678Y-72148101D01*
X100026746Y-72091556D01*
X100018500Y-72046722D01*
X100018500Y-71717277D01*
X100038502Y-71649156D01*
X100069680Y-71615897D01*
X100118711Y-71579711D01*
X100197114Y-71473478D01*
X100197116Y-71473475D01*
X100212214Y-71430327D01*
X100240725Y-71348849D01*
X100243500Y-71319256D01*
X100243500Y-70713744D01*
X100240725Y-70684151D01*
X100197116Y-70559525D01*
X100118711Y-70453289D01*
X100012475Y-70374884D01*
X100012474Y-70374883D01*
X100012475Y-70374883D01*
X99887854Y-70331276D01*
X99887849Y-70331275D01*
X99858258Y-70328500D01*
X99858256Y-70328500D01*
X99277744Y-70328500D01*
X99277741Y-70328500D01*
X99248150Y-70331275D01*
X99248145Y-70331276D01*
X99123525Y-70374883D01*
X99017289Y-70453289D01*
X98938883Y-70559525D01*
X98895276Y-70684145D01*
X98895275Y-70684150D01*
X98892500Y-70713741D01*
X98892500Y-71319258D01*
X98895275Y-71348849D01*
X98895276Y-71348854D01*
X98938883Y-71473475D01*
X98938885Y-71473478D01*
X99017288Y-71579711D01*
X99066320Y-71615897D01*
X99109253Y-71672441D01*
X99117500Y-71717277D01*
X99117500Y-72046722D01*
X99097498Y-72114843D01*
X99066322Y-72148101D01*
X99017286Y-72184290D01*
X98938885Y-72290521D01*
X98938883Y-72290524D01*
X98895276Y-72415145D01*
X98895275Y-72415150D01*
X98892500Y-72444741D01*
X98892500Y-73125258D01*
X98895275Y-73154849D01*
X98895276Y-73154854D01*
X98938883Y-73279474D01*
X98938884Y-73279475D01*
X99017289Y-73385711D01*
X99017290Y-73385712D01*
X99022896Y-73393307D01*
X99021233Y-73394533D01*
X99049392Y-73446100D01*
X99044327Y-73516915D01*
X99001780Y-73573751D01*
X98992418Y-73580124D01*
X98864966Y-73658737D01*
X98864960Y-73658742D01*
X98741742Y-73781960D01*
X98741737Y-73781966D01*
X98650248Y-73930292D01*
X98595431Y-74095723D01*
X98595430Y-74095726D01*
X98585000Y-74197815D01*
X98585000Y-74281000D01*
X97503000Y-74281000D01*
X97503000Y-74197815D01*
X97492569Y-74095726D01*
X97492568Y-74095723D01*
X97437751Y-73930292D01*
X97346262Y-73781966D01*
X97346257Y-73781960D01*
X97223039Y-73658742D01*
X97223033Y-73658737D01*
X97095581Y-73580124D01*
X97048103Y-73527338D01*
X97036700Y-73457263D01*
X97064992Y-73392147D01*
X97070018Y-73386647D01*
X97070706Y-73385714D01*
X97070711Y-73385711D01*
X97149116Y-73279475D01*
X97192725Y-73154849D01*
X97195500Y-73125256D01*
X97195500Y-72444744D01*
X97192725Y-72415151D01*
X97189711Y-72406538D01*
X97149116Y-72290524D01*
X97149114Y-72290521D01*
X97070713Y-72184290D01*
X97021678Y-72148101D01*
X96978746Y-72091556D01*
X96970500Y-72046722D01*
X96970500Y-71717277D01*
X96990502Y-71649156D01*
X97021680Y-71615897D01*
X97070711Y-71579711D01*
X97149114Y-71473478D01*
X97149116Y-71473475D01*
X97164214Y-71430327D01*
X97192725Y-71348849D01*
X97195500Y-71319256D01*
X97195500Y-70713744D01*
X97192725Y-70684151D01*
X97149116Y-70559525D01*
X97070711Y-70453289D01*
X96964475Y-70374884D01*
X96964474Y-70374883D01*
X96964475Y-70374883D01*
X96839854Y-70331276D01*
X96839849Y-70331275D01*
X96810258Y-70328500D01*
X96810256Y-70328500D01*
X96229744Y-70328500D01*
X96229741Y-70328500D01*
X96200150Y-70331275D01*
X96200145Y-70331276D01*
X96075525Y-70374883D01*
X95969289Y-70453289D01*
X95890883Y-70559525D01*
X95847276Y-70684145D01*
X95847275Y-70684150D01*
X95844500Y-70713741D01*
X95844500Y-71319258D01*
X95847275Y-71348849D01*
X95847276Y-71348854D01*
X95890883Y-71473475D01*
X95890885Y-71473478D01*
X95969288Y-71579711D01*
X96018320Y-71615897D01*
X96061253Y-71672441D01*
X96069500Y-71717277D01*
X96069500Y-72046722D01*
X96049498Y-72114843D01*
X96018322Y-72148101D01*
X95969286Y-72184290D01*
X95890885Y-72290521D01*
X95890883Y-72290524D01*
X95847276Y-72415145D01*
X95847275Y-72415150D01*
X95844500Y-72444741D01*
X95844500Y-73125258D01*
X95847275Y-73154849D01*
X95847276Y-73154854D01*
X95890883Y-73279474D01*
X95890884Y-73279475D01*
X95969289Y-73385711D01*
X95969290Y-73385712D01*
X95974896Y-73393307D01*
X95973233Y-73394533D01*
X96001392Y-73446100D01*
X95996327Y-73516915D01*
X95953780Y-73573751D01*
X95944418Y-73580124D01*
X95816966Y-73658737D01*
X95816960Y-73658742D01*
X95693742Y-73781960D01*
X95693737Y-73781966D01*
X95602248Y-73930292D01*
X95547431Y-74095723D01*
X95547430Y-74095726D01*
X95537000Y-74197815D01*
X95537000Y-74281000D01*
X94280000Y-74281000D01*
X94280000Y-69768000D01*
X94300002Y-69699879D01*
X94353658Y-69653386D01*
X94406000Y-69642000D01*
X95822497Y-69642000D01*
X95890618Y-69662002D01*
X95923876Y-69693178D01*
X95969289Y-69754711D01*
X96075525Y-69833116D01*
X96075524Y-69833116D01*
X96152354Y-69860000D01*
X96200151Y-69876725D01*
X96229744Y-69879500D01*
X96229747Y-69879500D01*
X96810253Y-69879500D01*
X96810256Y-69879500D01*
X96839849Y-69876725D01*
X96964475Y-69833116D01*
X97070711Y-69754711D01*
X97149116Y-69648475D01*
X97192725Y-69523849D01*
X97195500Y-69494256D01*
X97195500Y-68888744D01*
X97192725Y-68859151D01*
X97149116Y-68734525D01*
X97070711Y-68628289D01*
X96964475Y-68549884D01*
X96964474Y-68549883D01*
X96964475Y-68549883D01*
X96839854Y-68506276D01*
X96839849Y-68506275D01*
X96810258Y-68503500D01*
X96810256Y-68503500D01*
X96229744Y-68503500D01*
X96229741Y-68503500D01*
X96200150Y-68506275D01*
X96200145Y-68506276D01*
X96075525Y-68549883D01*
X95969289Y-68628289D01*
X95923876Y-68689822D01*
X95867331Y-68732754D01*
X95822497Y-68741000D01*
X93894457Y-68741000D01*
X93866421Y-68737841D01*
X93863548Y-68737185D01*
X93863546Y-68737185D01*
X93835649Y-68739275D01*
X93814987Y-68740824D01*
X93810278Y-68741000D01*
X87868793Y-68741000D01*
X87800672Y-68720998D01*
X87779698Y-68704095D01*
X87407405Y-68331802D01*
X87373379Y-68269490D01*
X87370500Y-68242707D01*
X87370500Y-66766500D01*
X87390502Y-66698379D01*
X87444158Y-66651886D01*
X87496500Y-66640500D01*
X87789747Y-66640500D01*
X87789748Y-66640500D01*
X87848231Y-66628867D01*
X87914552Y-66584552D01*
X87958867Y-66518231D01*
X87970500Y-66459748D01*
X87970500Y-65590003D01*
X88404417Y-65590003D01*
X88424698Y-65795927D01*
X88424699Y-65795933D01*
X88424700Y-65795934D01*
X88484768Y-65993954D01*
X88582315Y-66176450D01*
X88713590Y-66336410D01*
X88873550Y-66467685D01*
X88942896Y-66504751D01*
X88993544Y-66554503D01*
X89009500Y-66615873D01*
X89009500Y-66825156D01*
X89009104Y-66832212D01*
X89004730Y-66871035D01*
X89015788Y-66929479D01*
X89017284Y-66939407D01*
X89024653Y-66988291D01*
X89027160Y-66996421D01*
X89029978Y-67004474D01*
X89057776Y-67057072D01*
X89083575Y-67110643D01*
X89088386Y-67117699D01*
X89093435Y-67124540D01*
X89135495Y-67166599D01*
X89175945Y-67210194D01*
X89175946Y-67210195D01*
X89183329Y-67216082D01*
X89182787Y-67216761D01*
X89195114Y-67226218D01*
X90085051Y-68116154D01*
X90089761Y-68121425D01*
X90107386Y-68143524D01*
X90114121Y-68151970D01*
X90163271Y-68185480D01*
X90211118Y-68220793D01*
X90211121Y-68220794D01*
X90218660Y-68224779D01*
X90226324Y-68228470D01*
X90226327Y-68228472D01*
X90283177Y-68246007D01*
X90339301Y-68265646D01*
X90339307Y-68265646D01*
X90347715Y-68267237D01*
X90356094Y-68268500D01*
X90415574Y-68268500D01*
X90475010Y-68270724D01*
X90475016Y-68270722D01*
X90484390Y-68269667D01*
X90484487Y-68270528D01*
X90499897Y-68268500D01*
X92743757Y-68268500D01*
X92743762Y-68268500D01*
X92844287Y-68253348D01*
X92966642Y-68194425D01*
X93066194Y-68102055D01*
X93134096Y-67984445D01*
X93164315Y-67852046D01*
X93154166Y-67716622D01*
X93154165Y-67716619D01*
X93154165Y-67716618D01*
X93104554Y-67590209D01*
X93019879Y-67484030D01*
X92948531Y-67435385D01*
X92907673Y-67407528D01*
X92907672Y-67407527D01*
X92907671Y-67407527D01*
X92777905Y-67367500D01*
X92777902Y-67367500D01*
X90662794Y-67367500D01*
X90594673Y-67347498D01*
X90573699Y-67330595D01*
X89947839Y-66704735D01*
X89913813Y-66642423D01*
X89918878Y-66571608D01*
X89961425Y-66514772D01*
X89977521Y-66504528D01*
X90046450Y-66467685D01*
X90206410Y-66336410D01*
X90337685Y-66176450D01*
X90435232Y-65993954D01*
X90495300Y-65795934D01*
X90508503Y-65661889D01*
X90515583Y-65590003D01*
X90515583Y-65589996D01*
X90495301Y-65384072D01*
X90495300Y-65384070D01*
X90495300Y-65384066D01*
X90435232Y-65186046D01*
X90337685Y-65003550D01*
X90206410Y-64843590D01*
X90046450Y-64712315D01*
X90046448Y-64712314D01*
X90046447Y-64712313D01*
X89863954Y-64614768D01*
X89823106Y-64602377D01*
X89665934Y-64554700D01*
X89665933Y-64554699D01*
X89665927Y-64554698D01*
X89460003Y-64534417D01*
X89459997Y-64534417D01*
X89254072Y-64554698D01*
X89056045Y-64614768D01*
X88873552Y-64712313D01*
X88713590Y-64843590D01*
X88582313Y-65003552D01*
X88484768Y-65186045D01*
X88424698Y-65384072D01*
X88404417Y-65589996D01*
X88404417Y-65590003D01*
X87970500Y-65590003D01*
X87970500Y-64720252D01*
X87958867Y-64661769D01*
X87914552Y-64595448D01*
X87848231Y-64551133D01*
X87848228Y-64551132D01*
X87789750Y-64539500D01*
X87789748Y-64539500D01*
X86050252Y-64539500D01*
X86050249Y-64539500D01*
X85991771Y-64551132D01*
X85991768Y-64551133D01*
X85925448Y-64595448D01*
X85881133Y-64661768D01*
X85881132Y-64661771D01*
X85869500Y-64720249D01*
X85869500Y-66459750D01*
X85878667Y-66505838D01*
X85881133Y-66518231D01*
X85925448Y-66584552D01*
X85991769Y-66628867D01*
X86050252Y-66640500D01*
X86343500Y-66640500D01*
X86411621Y-66660502D01*
X86458114Y-66714158D01*
X86469500Y-66766500D01*
X86469500Y-68242706D01*
X86449498Y-68310827D01*
X86432599Y-68331796D01*
X85985355Y-68779041D01*
X85553843Y-69210553D01*
X85548572Y-69215264D01*
X85518030Y-69239620D01*
X85484519Y-69288771D01*
X85449204Y-69336620D01*
X85445215Y-69344169D01*
X85441527Y-69351828D01*
X85423992Y-69408677D01*
X85404354Y-69464801D01*
X85402766Y-69473188D01*
X85401500Y-69481596D01*
X85401500Y-69481598D01*
X85401500Y-69541073D01*
X85399360Y-69598279D01*
X85399276Y-69600511D01*
X85400333Y-69609890D01*
X85399470Y-69609987D01*
X85401500Y-69625396D01*
X85401500Y-74332722D01*
X85381498Y-74400843D01*
X85350322Y-74434101D01*
X85301286Y-74470290D01*
X85222885Y-74576521D01*
X85222883Y-74576524D01*
X85179276Y-74701145D01*
X85179275Y-74701150D01*
X85176500Y-74730741D01*
X85176500Y-75436258D01*
X85179275Y-75465849D01*
X85179276Y-75465854D01*
X85222883Y-75590474D01*
X85243049Y-75617798D01*
X85285436Y-75675231D01*
X85309794Y-75741918D01*
X85294232Y-75811188D01*
X85250204Y-75857292D01*
X85148972Y-75919733D01*
X85148960Y-75919742D01*
X85025742Y-76042960D01*
X85025737Y-76042966D01*
X84934248Y-76191292D01*
X84879431Y-76356723D01*
X84879430Y-76356726D01*
X84869000Y-76458815D01*
X84869000Y-76554500D01*
X86835000Y-76554500D01*
X86835000Y-76458815D01*
X86824569Y-76356726D01*
X86824568Y-76356723D01*
X86769751Y-76191292D01*
X86678262Y-76042966D01*
X86678257Y-76042960D01*
X86555039Y-75919742D01*
X86555033Y-75919737D01*
X86453795Y-75857293D01*
X86406317Y-75804507D01*
X86394914Y-75734432D01*
X86418561Y-75675234D01*
X86481116Y-75590475D01*
X86481116Y-75590473D01*
X86485025Y-75585178D01*
X86541570Y-75542246D01*
X86586404Y-75534000D01*
X87190201Y-75534000D01*
X87258322Y-75554002D01*
X87304815Y-75607658D01*
X87314919Y-75677932D01*
X87298655Y-75724139D01*
X87220318Y-75856598D01*
X87174007Y-76016000D01*
X88677129Y-76016000D01*
X88745250Y-76036002D01*
X88766220Y-76052901D01*
X88797517Y-76084198D01*
X88797518Y-76084199D01*
X88898218Y-76133427D01*
X88902607Y-76135573D01*
X88970740Y-76145500D01*
X88970745Y-76145500D01*
X89337255Y-76145500D01*
X89337260Y-76145500D01*
X89405393Y-76135573D01*
X89510483Y-76084198D01*
X89541776Y-76052904D01*
X89604086Y-76018880D01*
X89630871Y-76016000D01*
X91133992Y-76016000D01*
X91087681Y-75856598D01*
X91003051Y-75713498D01*
X91003050Y-75713496D01*
X90885503Y-75595949D01*
X90879237Y-75591089D01*
X90881209Y-75588546D01*
X90842897Y-75547497D01*
X90829500Y-75490959D01*
X90829500Y-75483793D01*
X90849502Y-75415672D01*
X90866400Y-75394702D01*
X91230166Y-75030935D01*
X91235418Y-75026241D01*
X91265970Y-75001879D01*
X91299480Y-74952728D01*
X91334793Y-74904882D01*
X91334793Y-74904879D01*
X91334795Y-74904878D01*
X91338781Y-74897336D01*
X91342471Y-74889674D01*
X91342470Y-74889674D01*
X91342472Y-74889673D01*
X91360007Y-74832822D01*
X91379646Y-74776699D01*
X91379646Y-74776692D01*
X91381230Y-74768322D01*
X91382500Y-74759899D01*
X91382500Y-74700426D01*
X91384724Y-74640990D01*
X91384722Y-74640984D01*
X91383667Y-74631608D01*
X91384528Y-74631510D01*
X91382500Y-74616102D01*
X91382500Y-73117000D01*
X91402502Y-73048879D01*
X91456158Y-73002386D01*
X91508500Y-72991000D01*
X92276657Y-72991000D01*
X92283711Y-72991395D01*
X92322535Y-72995770D01*
X92322535Y-72995769D01*
X92322536Y-72995770D01*
X92322536Y-72995769D01*
X92347897Y-72990970D01*
X92380978Y-72984712D01*
X92412136Y-72980015D01*
X92439787Y-72975848D01*
X92439795Y-72975843D01*
X92447972Y-72973321D01*
X92455972Y-72970523D01*
X92508573Y-72942722D01*
X92525984Y-72934336D01*
X92562142Y-72916925D01*
X92562146Y-72916921D01*
X92569185Y-72912122D01*
X92576031Y-72907069D01*
X92576038Y-72907066D01*
X92618097Y-72865006D01*
X92661694Y-72824555D01*
X92661698Y-72824547D01*
X92667584Y-72817168D01*
X92668263Y-72817709D01*
X92677726Y-72805376D01*
X92798425Y-72684678D01*
X92814348Y-72663104D01*
X92858791Y-72602885D01*
X92858794Y-72602880D01*
X92903646Y-72474700D01*
X92903822Y-72469975D01*
X92908724Y-72338990D01*
X92873575Y-72207813D01*
X92867908Y-72198794D01*
X92801325Y-72092827D01*
X92801322Y-72092824D01*
X92749855Y-72048533D01*
X92698388Y-72004242D01*
X92657269Y-71986302D01*
X92573916Y-71949935D01*
X92573913Y-71949934D01*
X92473234Y-71938591D01*
X92438965Y-71934730D01*
X92438964Y-71934730D01*
X92438963Y-71934730D01*
X92438961Y-71934730D01*
X92305530Y-71959976D01*
X92305528Y-71959976D01*
X92185463Y-72023433D01*
X92185459Y-72023436D01*
X92155801Y-72053095D01*
X92093489Y-72087121D01*
X92066706Y-72090000D01*
X90996957Y-72090000D01*
X90968921Y-72086841D01*
X90966048Y-72086185D01*
X90966046Y-72086185D01*
X90938149Y-72088275D01*
X90917487Y-72089824D01*
X90912778Y-72090000D01*
X90898234Y-72090000D01*
X90883854Y-72092166D01*
X90879177Y-72092693D01*
X90830629Y-72096332D01*
X90830617Y-72096335D01*
X90827869Y-72097414D01*
X90800631Y-72104712D01*
X90797715Y-72105151D01*
X90797711Y-72105152D01*
X90753850Y-72126274D01*
X90749533Y-72128157D01*
X90704209Y-72145945D01*
X90704204Y-72145948D01*
X90701894Y-72147791D01*
X90678016Y-72162794D01*
X90675363Y-72164071D01*
X90675358Y-72164074D01*
X90639670Y-72197187D01*
X90636100Y-72200260D01*
X90598027Y-72230623D01*
X90596360Y-72233068D01*
X90577979Y-72254428D01*
X90575806Y-72256443D01*
X90551469Y-72298595D01*
X90548964Y-72302582D01*
X90521527Y-72342828D01*
X90521526Y-72342829D01*
X90520654Y-72345657D01*
X90509385Y-72371488D01*
X90507904Y-72374053D01*
X90507902Y-72374058D01*
X90497069Y-72421519D01*
X90495850Y-72426068D01*
X90481500Y-72472593D01*
X90481500Y-72475543D01*
X90478341Y-72503579D01*
X90477685Y-72506450D01*
X90477685Y-72506453D01*
X90481324Y-72555011D01*
X90481500Y-72559721D01*
X90481500Y-74453207D01*
X90461498Y-74521328D01*
X90444595Y-74542302D01*
X90054302Y-74932595D01*
X89991990Y-74966621D01*
X89965207Y-74969500D01*
X89795733Y-74969500D01*
X89748664Y-74976358D01*
X89678372Y-74966385D01*
X89624629Y-74919992D01*
X89604500Y-74851909D01*
X89604500Y-72605458D01*
X89607659Y-72577420D01*
X89608315Y-72574546D01*
X89604676Y-72525986D01*
X89604500Y-72521277D01*
X89604500Y-72506736D01*
X89602332Y-72492361D01*
X89601805Y-72487697D01*
X89598166Y-72439122D01*
X89597091Y-72436385D01*
X89589786Y-72409126D01*
X89589348Y-72406213D01*
X89568218Y-72362337D01*
X89566341Y-72358034D01*
X89563944Y-72351927D01*
X89548552Y-72312706D01*
X89548551Y-72312703D01*
X89548550Y-72312702D01*
X89546715Y-72310401D01*
X89531702Y-72286510D01*
X89530425Y-72283858D01*
X89530422Y-72283855D01*
X89497309Y-72248167D01*
X89494234Y-72244594D01*
X89463881Y-72206532D01*
X89463880Y-72206531D01*
X89463879Y-72206530D01*
X89461438Y-72204865D01*
X89440065Y-72186471D01*
X89438059Y-72184309D01*
X89438056Y-72184307D01*
X89438055Y-72184306D01*
X89395893Y-72159964D01*
X89391907Y-72157459D01*
X89351674Y-72130028D01*
X89351668Y-72130025D01*
X89348855Y-72129158D01*
X89322994Y-72117876D01*
X89320445Y-72116404D01*
X89320444Y-72116403D01*
X89320443Y-72116403D01*
X89272968Y-72105567D01*
X89268433Y-72104352D01*
X89235909Y-72094320D01*
X89221903Y-72090000D01*
X89221902Y-72090000D01*
X89218957Y-72090000D01*
X89190921Y-72086841D01*
X89188048Y-72086185D01*
X89188046Y-72086185D01*
X89160149Y-72088275D01*
X89139487Y-72089824D01*
X89134778Y-72090000D01*
X88019293Y-72090000D01*
X87951172Y-72069998D01*
X87930198Y-72053095D01*
X87863405Y-71986302D01*
X87829379Y-71923990D01*
X87826500Y-71897207D01*
X87826500Y-71594242D01*
X87826500Y-71594238D01*
X87811348Y-71493713D01*
X87752425Y-71371358D01*
X87660055Y-71271806D01*
X87654008Y-71268315D01*
X87542443Y-71203903D01*
X87542445Y-71203903D01*
X87410048Y-71173685D01*
X87410047Y-71173685D01*
X87410046Y-71173685D01*
X87382961Y-71175714D01*
X87274618Y-71183834D01*
X87148209Y-71233445D01*
X87042030Y-71318120D01*
X86965527Y-71430328D01*
X86925500Y-71560095D01*
X86925500Y-72107156D01*
X86925104Y-72114212D01*
X86921523Y-72145996D01*
X86920730Y-72153036D01*
X86921567Y-72157459D01*
X86931788Y-72211479D01*
X86938565Y-72256443D01*
X86940653Y-72270291D01*
X86943160Y-72278421D01*
X86945978Y-72286474D01*
X86973776Y-72339072D01*
X86999575Y-72392643D01*
X87004386Y-72399699D01*
X87009435Y-72406540D01*
X87051496Y-72448600D01*
X87089930Y-72490023D01*
X87091945Y-72492194D01*
X87091946Y-72492195D01*
X87099329Y-72498082D01*
X87098788Y-72498760D01*
X87111117Y-72508221D01*
X87441560Y-72838664D01*
X87446262Y-72843926D01*
X87470617Y-72874465D01*
X87470621Y-72874470D01*
X87519765Y-72907976D01*
X87567617Y-72943292D01*
X87567618Y-72943292D01*
X87567619Y-72943293D01*
X87575188Y-72947293D01*
X87582824Y-72950970D01*
X87582827Y-72950972D01*
X87639679Y-72968508D01*
X87695800Y-72988146D01*
X87695808Y-72988146D01*
X87704177Y-72989730D01*
X87712596Y-72990999D01*
X87712598Y-72991000D01*
X87712600Y-72991000D01*
X87772073Y-72991000D01*
X87831510Y-72993224D01*
X87831515Y-72993222D01*
X87840890Y-72992167D01*
X87840987Y-72993028D01*
X87856397Y-72991000D01*
X88577500Y-72991000D01*
X88645621Y-73011002D01*
X88692114Y-73064658D01*
X88703500Y-73117000D01*
X88703500Y-74851674D01*
X88683498Y-74919795D01*
X88629842Y-74966288D01*
X88559568Y-74976392D01*
X88559336Y-74976358D01*
X88512266Y-74969500D01*
X88512260Y-74969500D01*
X88342793Y-74969500D01*
X88274672Y-74949498D01*
X88253698Y-74932595D01*
X88193287Y-74872184D01*
X88106442Y-74785339D01*
X88101739Y-74780076D01*
X88077380Y-74749531D01*
X88077381Y-74749531D01*
X88028228Y-74716019D01*
X87980379Y-74680704D01*
X87972830Y-74676714D01*
X87965174Y-74673028D01*
X87908322Y-74655492D01*
X87852196Y-74635853D01*
X87843820Y-74634267D01*
X87835405Y-74633000D01*
X87835402Y-74633000D01*
X87775926Y-74633000D01*
X87716490Y-74630776D01*
X87716489Y-74630776D01*
X87707110Y-74631833D01*
X87707012Y-74630971D01*
X87691603Y-74633000D01*
X86586404Y-74633000D01*
X86518283Y-74612998D01*
X86485024Y-74581821D01*
X86481116Y-74576526D01*
X86481116Y-74576525D01*
X86402711Y-74470289D01*
X86353678Y-74434101D01*
X86310746Y-74377556D01*
X86302500Y-74332722D01*
X86302500Y-69788293D01*
X86322502Y-69720172D01*
X86339400Y-69699202D01*
X86830905Y-69207696D01*
X86893216Y-69173673D01*
X86964031Y-69178737D01*
X87009094Y-69207698D01*
X87291052Y-69489655D01*
X87295762Y-69494926D01*
X87318828Y-69523849D01*
X87320121Y-69525470D01*
X87369271Y-69558980D01*
X87417118Y-69594293D01*
X87417121Y-69594294D01*
X87424660Y-69598279D01*
X87432324Y-69601970D01*
X87432327Y-69601972D01*
X87489177Y-69619507D01*
X87545301Y-69639146D01*
X87545309Y-69639146D01*
X87553682Y-69640731D01*
X87562096Y-69641999D01*
X87562098Y-69642000D01*
X87562100Y-69642000D01*
X87621559Y-69642000D01*
X87681010Y-69644225D01*
X87681014Y-69644223D01*
X87690395Y-69643168D01*
X87690492Y-69644029D01*
X87705903Y-69642000D01*
X93253000Y-69642000D01*
X93321121Y-69662002D01*
X93367614Y-69715658D01*
X93379000Y-69768000D01*
X93379000Y-78799562D01*
X93358998Y-78867683D01*
X93305342Y-78914176D01*
X93235068Y-78924280D01*
X93170488Y-78894786D01*
X93135710Y-78845595D01*
X93104553Y-78766208D01*
X93104552Y-78766207D01*
X93104552Y-78766206D01*
X93019879Y-78660030D01*
X92907673Y-78583528D01*
X92907672Y-78583527D01*
X92907671Y-78583527D01*
X92777905Y-78543500D01*
X92777902Y-78543500D01*
X91932793Y-78543500D01*
X91864672Y-78523498D01*
X91843702Y-78506599D01*
X91480678Y-78143575D01*
X91480677Y-78143574D01*
X91480674Y-78143571D01*
X91480673Y-78143570D01*
X91398885Y-78083208D01*
X91398880Y-78083205D01*
X91270700Y-78038353D01*
X91139713Y-78033452D01*
X91134990Y-78033276D01*
X91134989Y-78033276D01*
X90994692Y-78070868D01*
X90994191Y-78068999D01*
X90935447Y-78076426D01*
X90871378Y-78045837D01*
X90834017Y-77985466D01*
X90829500Y-77952032D01*
X90829500Y-77686744D01*
X90829500Y-77686740D01*
X90819573Y-77618607D01*
X90773976Y-77525337D01*
X90762028Y-77455355D01*
X90773977Y-77414661D01*
X90819573Y-77321393D01*
X90829500Y-77253260D01*
X90829500Y-77049041D01*
X90849502Y-76980920D01*
X90880727Y-76950836D01*
X90879235Y-76948913D01*
X90885501Y-76944052D01*
X91003050Y-76826503D01*
X91003051Y-76826501D01*
X91087681Y-76683401D01*
X91133993Y-76524000D01*
X88407999Y-76524000D01*
X88399404Y-76532595D01*
X88337092Y-76566621D01*
X88310309Y-76569500D01*
X87997691Y-76569500D01*
X87929570Y-76549498D01*
X87908596Y-76532595D01*
X87900001Y-76524000D01*
X87174007Y-76524000D01*
X87220318Y-76683401D01*
X87304948Y-76826501D01*
X87304949Y-76826503D01*
X87422498Y-76944052D01*
X87428765Y-76948913D01*
X87426788Y-76951460D01*
X87465085Y-76992467D01*
X87478500Y-77049041D01*
X87478500Y-77090959D01*
X87458498Y-77159080D01*
X87427275Y-77189170D01*
X87428763Y-77191089D01*
X87422496Y-77195949D01*
X87304949Y-77313496D01*
X87304948Y-77313498D01*
X87220318Y-77456598D01*
X87174007Y-77616000D01*
X87900001Y-77616000D01*
X87908596Y-77607405D01*
X87970908Y-77573379D01*
X87997691Y-77570500D01*
X88310309Y-77570500D01*
X88378430Y-77590502D01*
X88399404Y-77607405D01*
X88407999Y-77616000D01*
X89133992Y-77616000D01*
X89087681Y-77456598D01*
X89003051Y-77313498D01*
X89003050Y-77313496D01*
X88885503Y-77195949D01*
X88879237Y-77191089D01*
X88881209Y-77188546D01*
X88842897Y-77147497D01*
X88829500Y-77090959D01*
X88829500Y-77049041D01*
X88849502Y-76980920D01*
X88880727Y-76950836D01*
X88879235Y-76948913D01*
X88885501Y-76944052D01*
X89003050Y-76826503D01*
X89003051Y-76826501D01*
X89045546Y-76754648D01*
X89097439Y-76706195D01*
X89167290Y-76693490D01*
X89232921Y-76720565D01*
X89262454Y-76754648D01*
X89304948Y-76826501D01*
X89304949Y-76826503D01*
X89422498Y-76944052D01*
X89428765Y-76948913D01*
X89426788Y-76951460D01*
X89465085Y-76992467D01*
X89478500Y-77049041D01*
X89478500Y-77253260D01*
X89488427Y-77321393D01*
X89529528Y-77405468D01*
X89534023Y-77414662D01*
X89545971Y-77484646D01*
X89534022Y-77525338D01*
X89488427Y-77618607D01*
X89478500Y-77686740D01*
X89478500Y-78053260D01*
X89488427Y-78121393D01*
X89529528Y-78205468D01*
X89534023Y-78214662D01*
X89545971Y-78284646D01*
X89534022Y-78325338D01*
X89489702Y-78416000D01*
X89488427Y-78418608D01*
X89478500Y-78486738D01*
X89478500Y-78669389D01*
X89458498Y-78737510D01*
X89404842Y-78784003D01*
X89341939Y-78793047D01*
X89341810Y-78794830D01*
X89337264Y-78794500D01*
X89337260Y-78794500D01*
X88970740Y-78794500D01*
X88970738Y-78794500D01*
X88902605Y-78804427D01*
X88797518Y-78855800D01*
X88785636Y-78867683D01*
X88766223Y-78887095D01*
X88703914Y-78921120D01*
X88677129Y-78924000D01*
X87174007Y-78924000D01*
X87220318Y-79083401D01*
X87304948Y-79226501D01*
X87304949Y-79226503D01*
X87422498Y-79344052D01*
X87428765Y-79348913D01*
X87426788Y-79351460D01*
X87465085Y-79392467D01*
X87478500Y-79449041D01*
X87478500Y-79653261D01*
X87488427Y-79721394D01*
X87539801Y-79826482D01*
X87539803Y-79826485D01*
X87622513Y-79909195D01*
X87622514Y-79909195D01*
X87622517Y-79909198D01*
X87632835Y-79914242D01*
X87685250Y-79962125D01*
X87703500Y-80027440D01*
X87703500Y-80874706D01*
X87683498Y-80942827D01*
X87666599Y-80963796D01*
X87615843Y-81014553D01*
X87568594Y-81061802D01*
X87506282Y-81095827D01*
X87435466Y-81090761D01*
X87390404Y-81061801D01*
X87105810Y-80777207D01*
X86648942Y-80320339D01*
X86644239Y-80315076D01*
X86619880Y-80284531D01*
X86619881Y-80284531D01*
X86570728Y-80251019D01*
X86546992Y-80233501D01*
X86504060Y-80176955D01*
X86502901Y-80173783D01*
X86481116Y-80111525D01*
X86418562Y-80026766D01*
X86394205Y-79960081D01*
X86409767Y-79890812D01*
X86453796Y-79844706D01*
X86555030Y-79782264D01*
X86555039Y-79782257D01*
X86678257Y-79659039D01*
X86678262Y-79659033D01*
X86769751Y-79510707D01*
X86824568Y-79345276D01*
X86824569Y-79345273D01*
X86834999Y-79243184D01*
X86835000Y-79243184D01*
X86835000Y-79147500D01*
X84869000Y-79147500D01*
X84869000Y-79243184D01*
X78596856Y-79243184D01*
X78596856Y-77062500D01*
X84869000Y-77062500D01*
X84869000Y-77158184D01*
X84879430Y-77260273D01*
X84879431Y-77260276D01*
X84934248Y-77425707D01*
X85025737Y-77574033D01*
X85025742Y-77574039D01*
X85148960Y-77697257D01*
X85148966Y-77697262D01*
X85224349Y-77743759D01*
X85271827Y-77796545D01*
X85283230Y-77866620D01*
X85254937Y-77931736D01*
X85224349Y-77958241D01*
X85148966Y-78004737D01*
X85148960Y-78004742D01*
X85025742Y-78127960D01*
X85025737Y-78127966D01*
X84934248Y-78276292D01*
X84879431Y-78441723D01*
X84879430Y-78441726D01*
X84869000Y-78543815D01*
X84869000Y-78639500D01*
X85598000Y-78639500D01*
X85598000Y-77062500D01*
X86106000Y-77062500D01*
X86106000Y-78639500D01*
X86835000Y-78639500D01*
X86835000Y-78543815D01*
X86824569Y-78441726D01*
X86824568Y-78441723D01*
X86769751Y-78276292D01*
X86678262Y-78127966D01*
X86678257Y-78127960D01*
X86674297Y-78124000D01*
X87174007Y-78124000D01*
X87206211Y-78234847D01*
X87206211Y-78305153D01*
X87174007Y-78416000D01*
X87900000Y-78416000D01*
X87900000Y-78124000D01*
X88408000Y-78124000D01*
X88408000Y-78416000D01*
X89133992Y-78416000D01*
X89101788Y-78305154D01*
X89101788Y-78234846D01*
X89133993Y-78124000D01*
X88408000Y-78124000D01*
X87900000Y-78124000D01*
X87174007Y-78124000D01*
X86674297Y-78124000D01*
X86555039Y-78004742D01*
X86555033Y-78004737D01*
X86479650Y-77958241D01*
X86432172Y-77905455D01*
X86420769Y-77835380D01*
X86449061Y-77770265D01*
X86479650Y-77743759D01*
X86555033Y-77697262D01*
X86555039Y-77697257D01*
X86678257Y-77574039D01*
X86678262Y-77574033D01*
X86769751Y-77425707D01*
X86824568Y-77260276D01*
X86824569Y-77260273D01*
X86834999Y-77158184D01*
X86835000Y-77158184D01*
X86835000Y-77062500D01*
X86106000Y-77062500D01*
X85598000Y-77062500D01*
X84869000Y-77062500D01*
X78596856Y-77062500D01*
X78596856Y-64310000D01*
X78934615Y-64310000D01*
X78954140Y-64657690D01*
X79002353Y-64941451D01*
X79012473Y-65001013D01*
X79065782Y-65186051D01*
X79108880Y-65335648D01*
X79214238Y-65590003D01*
X79242145Y-65657376D01*
X79290242Y-65744402D01*
X79410588Y-65962153D01*
X79410592Y-65962160D01*
X79612109Y-66246172D01*
X79612114Y-66246179D01*
X79692749Y-66336409D01*
X79844161Y-66505839D01*
X79994846Y-66640499D01*
X80103820Y-66737885D01*
X80103823Y-66737887D01*
X80103824Y-66737888D01*
X80347740Y-66910955D01*
X80387839Y-66939407D01*
X80387846Y-66939411D01*
X80476289Y-66988291D01*
X80692624Y-67107855D01*
X81014356Y-67241121D01*
X81348987Y-67337527D01*
X81692307Y-67395859D01*
X81692306Y-67395859D01*
X81710793Y-67396897D01*
X82040000Y-67415385D01*
X82387693Y-67395859D01*
X82731013Y-67337527D01*
X83065644Y-67241121D01*
X83387376Y-67107855D01*
X83692164Y-66939405D01*
X83976176Y-66737888D01*
X84235839Y-66505839D01*
X84467888Y-66246176D01*
X84669405Y-65962164D01*
X84837855Y-65657376D01*
X84971121Y-65335644D01*
X85067527Y-65001013D01*
X85125859Y-64657693D01*
X85145385Y-64310000D01*
X85125859Y-63962307D01*
X85067527Y-63618987D01*
X84971121Y-63284356D01*
X84874049Y-63050003D01*
X85864417Y-63050003D01*
X85884698Y-63255927D01*
X85884699Y-63255933D01*
X85884700Y-63255934D01*
X85904409Y-63320906D01*
X85944768Y-63453954D01*
X86032980Y-63618987D01*
X86042315Y-63636450D01*
X86173590Y-63796410D01*
X86333550Y-63927685D01*
X86516046Y-64025232D01*
X86714066Y-64085300D01*
X86714070Y-64085300D01*
X86714072Y-64085301D01*
X86919997Y-64105583D01*
X86920000Y-64105583D01*
X86920003Y-64105583D01*
X87125927Y-64085301D01*
X87125928Y-64085300D01*
X87125934Y-64085300D01*
X87323954Y-64025232D01*
X87506450Y-63927685D01*
X87666410Y-63796410D01*
X87797685Y-63636450D01*
X87895232Y-63453954D01*
X87955300Y-63255934D01*
X87968503Y-63121889D01*
X87975583Y-63050003D01*
X88404417Y-63050003D01*
X88424698Y-63255927D01*
X88424699Y-63255933D01*
X88424700Y-63255934D01*
X88444409Y-63320906D01*
X88484768Y-63453954D01*
X88572980Y-63618987D01*
X88582315Y-63636450D01*
X88713590Y-63796410D01*
X88873550Y-63927685D01*
X89056046Y-64025232D01*
X89254066Y-64085300D01*
X89254070Y-64085300D01*
X89254072Y-64085301D01*
X89459997Y-64105583D01*
X89460000Y-64105583D01*
X89460003Y-64105583D01*
X89665927Y-64085301D01*
X89665928Y-64085300D01*
X89665934Y-64085300D01*
X89863954Y-64025232D01*
X90046450Y-63927685D01*
X90206410Y-63796410D01*
X90337685Y-63636450D01*
X90435232Y-63453954D01*
X90448806Y-63409204D01*
X90487720Y-63349823D01*
X90552561Y-63320906D01*
X90622742Y-63331635D01*
X90675981Y-63378604D01*
X90691525Y-63414847D01*
X90711176Y-63492449D01*
X90711179Y-63492456D01*
X90801580Y-63698548D01*
X90924674Y-63886958D01*
X91077097Y-64052534D01*
X91254698Y-64190767D01*
X91254699Y-64190768D01*
X91452628Y-64297882D01*
X91452630Y-64297883D01*
X91641230Y-64362629D01*
X91699165Y-64403666D01*
X91725717Y-64469511D01*
X91712456Y-64539258D01*
X91663591Y-64590763D01*
X91636894Y-64602376D01*
X91596051Y-64614765D01*
X91596046Y-64614767D01*
X91413552Y-64712313D01*
X91253590Y-64843590D01*
X91122313Y-65003552D01*
X91024768Y-65186045D01*
X90964698Y-65384072D01*
X90944417Y-65589996D01*
X90944417Y-65590003D01*
X90964698Y-65795927D01*
X90964699Y-65795933D01*
X90964700Y-65795934D01*
X91024768Y-65993954D01*
X91122315Y-66176450D01*
X91253590Y-66336410D01*
X91413550Y-66467685D01*
X91596046Y-66565232D01*
X91794066Y-66625300D01*
X91794070Y-66625300D01*
X91794072Y-66625301D01*
X91999997Y-66645583D01*
X92000000Y-66645583D01*
X92000003Y-66645583D01*
X92205927Y-66625301D01*
X92205928Y-66625300D01*
X92205934Y-66625300D01*
X92403954Y-66565232D01*
X92586450Y-66467685D01*
X92746410Y-66336410D01*
X92877685Y-66176450D01*
X92975232Y-65993954D01*
X93035300Y-65795934D01*
X93048503Y-65661889D01*
X93055583Y-65590003D01*
X93484417Y-65590003D01*
X93504698Y-65795927D01*
X93504699Y-65795933D01*
X93504700Y-65795934D01*
X93564768Y-65993954D01*
X93662315Y-66176450D01*
X93793590Y-66336410D01*
X93953550Y-66467685D01*
X94136046Y-66565232D01*
X94334066Y-66625300D01*
X94334070Y-66625300D01*
X94334072Y-66625301D01*
X94539997Y-66645583D01*
X94540000Y-66645583D01*
X94540003Y-66645583D01*
X94745927Y-66625301D01*
X94745928Y-66625300D01*
X94745934Y-66625300D01*
X94943954Y-66565232D01*
X95126450Y-66467685D01*
X95286410Y-66336410D01*
X95417685Y-66176450D01*
X95515232Y-65993954D01*
X95528806Y-65949204D01*
X95567720Y-65889823D01*
X95632561Y-65860906D01*
X95702742Y-65871635D01*
X95755981Y-65918604D01*
X95771525Y-65954847D01*
X95791176Y-66032449D01*
X95791179Y-66032456D01*
X95881580Y-66238548D01*
X96004674Y-66426958D01*
X96157097Y-66592534D01*
X96334698Y-66730767D01*
X96334699Y-66730768D01*
X96532628Y-66837882D01*
X96532630Y-66837883D01*
X96745483Y-66910955D01*
X96745492Y-66910957D01*
X96826000Y-66924391D01*
X96826000Y-66023674D01*
X96937685Y-66074680D01*
X97044237Y-66090000D01*
X97115763Y-66090000D01*
X97222315Y-66074680D01*
X97334000Y-66023674D01*
X97334000Y-66924390D01*
X97414507Y-66910957D01*
X97414516Y-66910955D01*
X97627369Y-66837883D01*
X97627371Y-66837882D01*
X97825300Y-66730768D01*
X97825301Y-66730767D01*
X98002902Y-66592534D01*
X98155325Y-66426958D01*
X98278419Y-66238548D01*
X98368820Y-66032457D01*
X98388473Y-65954848D01*
X98424585Y-65893722D01*
X98488012Y-65861822D01*
X98558616Y-65869278D01*
X98613981Y-65913722D01*
X98631192Y-65949200D01*
X98635121Y-65962153D01*
X98644768Y-65993955D01*
X98665348Y-66032457D01*
X98742315Y-66176450D01*
X98873590Y-66336410D01*
X99033550Y-66467685D01*
X99102896Y-66504751D01*
X99153544Y-66554503D01*
X99169500Y-66615873D01*
X99169500Y-68452345D01*
X99149498Y-68520466D01*
X99118321Y-68553724D01*
X99017290Y-68628287D01*
X98938883Y-68734525D01*
X98895276Y-68859145D01*
X98895275Y-68859150D01*
X98892500Y-68888741D01*
X98892500Y-69494258D01*
X98895275Y-69523849D01*
X98895276Y-69523854D01*
X98938883Y-69648474D01*
X98938884Y-69648475D01*
X99017289Y-69754711D01*
X99123525Y-69833116D01*
X99123524Y-69833116D01*
X99200354Y-69860000D01*
X99248151Y-69876725D01*
X99277744Y-69879500D01*
X99277747Y-69879500D01*
X99858253Y-69879500D01*
X99858256Y-69879500D01*
X99887849Y-69876725D01*
X100012475Y-69833116D01*
X100118711Y-69754711D01*
X100197116Y-69648475D01*
X100240725Y-69523849D01*
X100243500Y-69494256D01*
X100243500Y-68888744D01*
X100240725Y-68859151D01*
X100223869Y-68810979D01*
X100197116Y-68734524D01*
X100197114Y-68734521D01*
X100118711Y-68628288D01*
X100112035Y-68621612D01*
X100113688Y-68619958D01*
X100078741Y-68573918D01*
X100070500Y-68529099D01*
X100070500Y-66615873D01*
X100090502Y-66547752D01*
X100137103Y-66504751D01*
X100206450Y-66467685D01*
X100366410Y-66336410D01*
X100497685Y-66176450D01*
X100595232Y-65993954D01*
X100655300Y-65795934D01*
X100668503Y-65661889D01*
X100675583Y-65590003D01*
X100675583Y-65589996D01*
X100655301Y-65384072D01*
X100655300Y-65384070D01*
X100655300Y-65384066D01*
X100595232Y-65186046D01*
X100497685Y-65003550D01*
X100366410Y-64843590D01*
X100206450Y-64712315D01*
X100206448Y-64712314D01*
X100206447Y-64712313D01*
X100023954Y-64614768D01*
X99983106Y-64602377D01*
X99825934Y-64554700D01*
X99825933Y-64554699D01*
X99825927Y-64554698D01*
X99620003Y-64534417D01*
X99619997Y-64534417D01*
X99414072Y-64554698D01*
X99216045Y-64614768D01*
X99033552Y-64712313D01*
X98873590Y-64843590D01*
X98742313Y-65003552D01*
X98644767Y-65186046D01*
X98644765Y-65186051D01*
X98631192Y-65230797D01*
X98592277Y-65290178D01*
X98527435Y-65319094D01*
X98457254Y-65308363D01*
X98404016Y-65261393D01*
X98388473Y-65225151D01*
X98368820Y-65147542D01*
X98278419Y-64941451D01*
X98155325Y-64753041D01*
X98002902Y-64587465D01*
X97825301Y-64449232D01*
X97825300Y-64449231D01*
X97627371Y-64342117D01*
X97627368Y-64342116D01*
X97438769Y-64277370D01*
X97380834Y-64236333D01*
X97354282Y-64170488D01*
X97367544Y-64100741D01*
X97416408Y-64049236D01*
X97443105Y-64037623D01*
X97483954Y-64025232D01*
X97666450Y-63927685D01*
X97826410Y-63796410D01*
X97957685Y-63636450D01*
X98055232Y-63453954D01*
X98115300Y-63255934D01*
X98128503Y-63121889D01*
X98135583Y-63050003D01*
X98564417Y-63050003D01*
X98584698Y-63255927D01*
X98584699Y-63255933D01*
X98584700Y-63255934D01*
X98604409Y-63320906D01*
X98644768Y-63453954D01*
X98732980Y-63618987D01*
X98742315Y-63636450D01*
X98873590Y-63796410D01*
X99033550Y-63927685D01*
X99216046Y-64025232D01*
X99414066Y-64085300D01*
X99414070Y-64085300D01*
X99414072Y-64085301D01*
X99619997Y-64105583D01*
X99620000Y-64105583D01*
X99620003Y-64105583D01*
X99825927Y-64085301D01*
X99825928Y-64085300D01*
X99825934Y-64085300D01*
X100023954Y-64025232D01*
X100206450Y-63927685D01*
X100366410Y-63796410D01*
X100497685Y-63636450D01*
X100595232Y-63453954D01*
X100608806Y-63409204D01*
X100647720Y-63349823D01*
X100712561Y-63320906D01*
X100782742Y-63331635D01*
X100835981Y-63378604D01*
X100851525Y-63414847D01*
X100871176Y-63492449D01*
X100871179Y-63492456D01*
X100961580Y-63698548D01*
X101084674Y-63886958D01*
X101237097Y-64052534D01*
X101414698Y-64190767D01*
X101414699Y-64190768D01*
X101612628Y-64297882D01*
X101612630Y-64297883D01*
X101801230Y-64362629D01*
X101859165Y-64403666D01*
X101885717Y-64469511D01*
X101872456Y-64539258D01*
X101823591Y-64590763D01*
X101796894Y-64602376D01*
X101756051Y-64614765D01*
X101756046Y-64614767D01*
X101573552Y-64712313D01*
X101413590Y-64843590D01*
X101282313Y-65003552D01*
X101184768Y-65186045D01*
X101124698Y-65384072D01*
X101104417Y-65589996D01*
X101104417Y-65590003D01*
X101124698Y-65795927D01*
X101124699Y-65795933D01*
X101124700Y-65795934D01*
X101184768Y-65993954D01*
X101282315Y-66176450D01*
X101413590Y-66336410D01*
X101573550Y-66467685D01*
X101642896Y-66504751D01*
X101693544Y-66554503D01*
X101709500Y-66615873D01*
X101709500Y-68706656D01*
X101709104Y-68713712D01*
X101706030Y-68741000D01*
X101704730Y-68752536D01*
X101715788Y-68810978D01*
X101724653Y-68869791D01*
X101727160Y-68877921D01*
X101729978Y-68885974D01*
X101757776Y-68938572D01*
X101783575Y-68992143D01*
X101788386Y-68999199D01*
X101793435Y-69006040D01*
X101835496Y-69048100D01*
X101875945Y-69091694D01*
X101875946Y-69091695D01*
X101883329Y-69097582D01*
X101882788Y-69098260D01*
X101895117Y-69107721D01*
X101903595Y-69116199D01*
X101937621Y-69178511D01*
X101940500Y-69205294D01*
X101940500Y-69494258D01*
X101943275Y-69523849D01*
X101943276Y-69523854D01*
X101986883Y-69648474D01*
X101986884Y-69648475D01*
X102065289Y-69754711D01*
X102171525Y-69833116D01*
X102171524Y-69833116D01*
X102248354Y-69860000D01*
X102296151Y-69876725D01*
X102325744Y-69879500D01*
X102325747Y-69879500D01*
X102906253Y-69879500D01*
X102906256Y-69879500D01*
X102935849Y-69876725D01*
X103060475Y-69833116D01*
X103166711Y-69754711D01*
X103245116Y-69648475D01*
X103288725Y-69523849D01*
X103291500Y-69494256D01*
X103291500Y-68888744D01*
X103288725Y-68859151D01*
X103245116Y-68734525D01*
X103166711Y-68628289D01*
X103060475Y-68549884D01*
X103060474Y-68549883D01*
X103060475Y-68549883D01*
X102935854Y-68506276D01*
X102935849Y-68506275D01*
X102906258Y-68503500D01*
X102906256Y-68503500D01*
X102736500Y-68503500D01*
X102668379Y-68483498D01*
X102621886Y-68429842D01*
X102610500Y-68377500D01*
X102610500Y-66615873D01*
X102630502Y-66547752D01*
X102677103Y-66504751D01*
X102746450Y-66467685D01*
X102906410Y-66336410D01*
X103037685Y-66176450D01*
X103135232Y-65993954D01*
X103195300Y-65795934D01*
X103208503Y-65661889D01*
X103215583Y-65590003D01*
X103644417Y-65590003D01*
X103664698Y-65795927D01*
X103664699Y-65795933D01*
X103664700Y-65795934D01*
X103724768Y-65993954D01*
X103822315Y-66176450D01*
X103953590Y-66336410D01*
X104113550Y-66467685D01*
X104182896Y-66504751D01*
X104233544Y-66554503D01*
X104249500Y-66615873D01*
X104249500Y-68198656D01*
X104249104Y-68205712D01*
X104246956Y-68224779D01*
X104244730Y-68244536D01*
X104246397Y-68253346D01*
X104255788Y-68302979D01*
X104260132Y-68331802D01*
X104264653Y-68361791D01*
X104267160Y-68369921D01*
X104269978Y-68377974D01*
X104297776Y-68430572D01*
X104323575Y-68484143D01*
X104328386Y-68491199D01*
X104333435Y-68498040D01*
X104355862Y-68520466D01*
X104375495Y-68540099D01*
X104415945Y-68583694D01*
X104415946Y-68583695D01*
X104423329Y-68589582D01*
X104422787Y-68590261D01*
X104435114Y-68599718D01*
X104705187Y-68869791D01*
X104951595Y-69116198D01*
X104985620Y-69178511D01*
X104988500Y-69205294D01*
X104988500Y-69494258D01*
X104991275Y-69523849D01*
X104991276Y-69523854D01*
X105034883Y-69648474D01*
X105034884Y-69648475D01*
X105113289Y-69754711D01*
X105219525Y-69833116D01*
X105219524Y-69833116D01*
X105296354Y-69860000D01*
X105344151Y-69876725D01*
X105373744Y-69879500D01*
X105373747Y-69879500D01*
X105954253Y-69879500D01*
X105954256Y-69879500D01*
X105983849Y-69876725D01*
X106031646Y-69860000D01*
X116021455Y-69860000D01*
X116069176Y-70048449D01*
X116069179Y-70048456D01*
X116159580Y-70254548D01*
X116282674Y-70442958D01*
X116435097Y-70608534D01*
X116612698Y-70746767D01*
X116612699Y-70746768D01*
X116810628Y-70853882D01*
X116810630Y-70853883D01*
X116999230Y-70918629D01*
X117057165Y-70959666D01*
X117083717Y-71025511D01*
X117070456Y-71095258D01*
X117021591Y-71146763D01*
X116994894Y-71158376D01*
X116954051Y-71170765D01*
X116954046Y-71170767D01*
X116771552Y-71268313D01*
X116611590Y-71399590D01*
X116480313Y-71559552D01*
X116382768Y-71742045D01*
X116322698Y-71940072D01*
X116302417Y-72145996D01*
X116302417Y-72146003D01*
X116322698Y-72351927D01*
X116322699Y-72351933D01*
X116322700Y-72351934D01*
X116364502Y-72489739D01*
X116382768Y-72549954D01*
X116448593Y-72673104D01*
X116480315Y-72732450D01*
X116611590Y-72892410D01*
X116771550Y-73023685D01*
X116954046Y-73121232D01*
X117152066Y-73181300D01*
X117152070Y-73181300D01*
X117152072Y-73181301D01*
X117357997Y-73201583D01*
X117358000Y-73201583D01*
X117358003Y-73201583D01*
X117563927Y-73181301D01*
X117563928Y-73181300D01*
X117563934Y-73181300D01*
X117761954Y-73121232D01*
X117944450Y-73023685D01*
X118104410Y-72892410D01*
X118235685Y-72732450D01*
X118272751Y-72663103D01*
X118322503Y-72612456D01*
X118383873Y-72596500D01*
X123190127Y-72596500D01*
X123258248Y-72616502D01*
X123301248Y-72663103D01*
X123338315Y-72732450D01*
X123469590Y-72892410D01*
X123629550Y-73023685D01*
X123812046Y-73121232D01*
X124010066Y-73181300D01*
X124010070Y-73181300D01*
X124010072Y-73181301D01*
X124215997Y-73201583D01*
X124216000Y-73201583D01*
X124216003Y-73201583D01*
X124421927Y-73181301D01*
X124421928Y-73181300D01*
X124421934Y-73181300D01*
X124619954Y-73121232D01*
X124802450Y-73023685D01*
X124962410Y-72892410D01*
X125093685Y-72732450D01*
X125125406Y-72673103D01*
X125175158Y-72622456D01*
X125236528Y-72606500D01*
X130302127Y-72606500D01*
X130370248Y-72626502D01*
X130413248Y-72673103D01*
X130450315Y-72742450D01*
X130581590Y-72902410D01*
X130741550Y-73033685D01*
X130924046Y-73131232D01*
X131122066Y-73191300D01*
X131122070Y-73191300D01*
X131122072Y-73191301D01*
X131327997Y-73211583D01*
X131328000Y-73211583D01*
X131328003Y-73211583D01*
X131533927Y-73191301D01*
X131533928Y-73191300D01*
X131533934Y-73191300D01*
X131731954Y-73131232D01*
X131914450Y-73033685D01*
X132074410Y-72902410D01*
X132205685Y-72742450D01*
X132303232Y-72559954D01*
X132363300Y-72361934D01*
X132363569Y-72359210D01*
X132383583Y-72156003D01*
X132383583Y-72155996D01*
X132363301Y-71950072D01*
X132363300Y-71950070D01*
X132363300Y-71950066D01*
X132303232Y-71752046D01*
X132205685Y-71569550D01*
X132074410Y-71409590D01*
X131914450Y-71278315D01*
X131914448Y-71278314D01*
X131914447Y-71278313D01*
X131731955Y-71180768D01*
X131698988Y-71170768D01*
X131691104Y-71168376D01*
X131631724Y-71129462D01*
X131602808Y-71064620D01*
X131613539Y-70994439D01*
X131660509Y-70941200D01*
X131686769Y-70928629D01*
X131875369Y-70863883D01*
X131875371Y-70863882D01*
X132073300Y-70756768D01*
X132073301Y-70756767D01*
X132250902Y-70618534D01*
X132403325Y-70452958D01*
X132526419Y-70264548D01*
X132616820Y-70058456D01*
X132616823Y-70058449D01*
X132664544Y-69870000D01*
X131759116Y-69870000D01*
X131787493Y-69825844D01*
X131828000Y-69687889D01*
X131828000Y-69544111D01*
X131787493Y-69406156D01*
X131759116Y-69362000D01*
X132664544Y-69362000D01*
X132664544Y-69361999D01*
X132616823Y-69173550D01*
X132616820Y-69173543D01*
X132526419Y-68967451D01*
X132403325Y-68779041D01*
X132250902Y-68613465D01*
X132073301Y-68475232D01*
X132073300Y-68475231D01*
X131875371Y-68368117D01*
X131875369Y-68368116D01*
X131662512Y-68295043D01*
X131662501Y-68295040D01*
X131582000Y-68281606D01*
X131582000Y-69182325D01*
X131470315Y-69131320D01*
X131363763Y-69116000D01*
X131292237Y-69116000D01*
X131185685Y-69131320D01*
X131074000Y-69182325D01*
X131074000Y-68281607D01*
X131073999Y-68281606D01*
X130993498Y-68295040D01*
X130993487Y-68295043D01*
X130780630Y-68368116D01*
X130780628Y-68368117D01*
X130582699Y-68475231D01*
X130582698Y-68475232D01*
X130405097Y-68613465D01*
X130252674Y-68779041D01*
X130129580Y-68967451D01*
X130039179Y-69173543D01*
X130039176Y-69173550D01*
X129991455Y-69361999D01*
X129991456Y-69362000D01*
X130896884Y-69362000D01*
X130868507Y-69406156D01*
X130828000Y-69544111D01*
X130828000Y-69687889D01*
X130868507Y-69825844D01*
X130896884Y-69870000D01*
X129991455Y-69870000D01*
X130039176Y-70058449D01*
X130039179Y-70058456D01*
X130129580Y-70264548D01*
X130252674Y-70452958D01*
X130405097Y-70618534D01*
X130582698Y-70756767D01*
X130582699Y-70756768D01*
X130780628Y-70863882D01*
X130780630Y-70863883D01*
X130969230Y-70928629D01*
X131027165Y-70969666D01*
X131053717Y-71035511D01*
X131040456Y-71105258D01*
X130991591Y-71156763D01*
X130964894Y-71168376D01*
X130924051Y-71180765D01*
X130924046Y-71180767D01*
X130741552Y-71278313D01*
X130581590Y-71409590D01*
X130450313Y-71569552D01*
X130413249Y-71638896D01*
X130363497Y-71689544D01*
X130302127Y-71705500D01*
X125247219Y-71705500D01*
X125179098Y-71685498D01*
X125136097Y-71638897D01*
X125093685Y-71559550D01*
X124962410Y-71399590D01*
X124802450Y-71268315D01*
X124802448Y-71268314D01*
X124802447Y-71268313D01*
X124619955Y-71170768D01*
X124598042Y-71164121D01*
X124579104Y-71158376D01*
X124519724Y-71119462D01*
X124490808Y-71054620D01*
X124501539Y-70984439D01*
X124548509Y-70931200D01*
X124574769Y-70918629D01*
X124763369Y-70853883D01*
X124763371Y-70853882D01*
X124961300Y-70746768D01*
X124961301Y-70746767D01*
X125138902Y-70608534D01*
X125291325Y-70442958D01*
X125414419Y-70254548D01*
X125504820Y-70048456D01*
X125504823Y-70048449D01*
X125552544Y-69860000D01*
X124647116Y-69860000D01*
X124675493Y-69815844D01*
X124716000Y-69677889D01*
X124716000Y-69534111D01*
X124675493Y-69396156D01*
X124647116Y-69352000D01*
X125552544Y-69352000D01*
X125552544Y-69351999D01*
X125504823Y-69163550D01*
X125504820Y-69163543D01*
X125414419Y-68957451D01*
X125291325Y-68769041D01*
X125138902Y-68603465D01*
X124961301Y-68465232D01*
X124961300Y-68465231D01*
X124763371Y-68358117D01*
X124763369Y-68358116D01*
X124550512Y-68285043D01*
X124550501Y-68285040D01*
X124470000Y-68271606D01*
X124470000Y-69172325D01*
X124358315Y-69121320D01*
X124251763Y-69106000D01*
X124180237Y-69106000D01*
X124073685Y-69121320D01*
X123962000Y-69172325D01*
X123962000Y-68271607D01*
X123961999Y-68271606D01*
X123881498Y-68285040D01*
X123881487Y-68285043D01*
X123668630Y-68358116D01*
X123668628Y-68358117D01*
X123470699Y-68465231D01*
X123470698Y-68465232D01*
X123293097Y-68603465D01*
X123140674Y-68769041D01*
X123017580Y-68957451D01*
X122927179Y-69163543D01*
X122927176Y-69163550D01*
X122879455Y-69351999D01*
X122879456Y-69352000D01*
X123784884Y-69352000D01*
X123756507Y-69396156D01*
X123716000Y-69534111D01*
X123716000Y-69677889D01*
X123756507Y-69815844D01*
X123784884Y-69860000D01*
X122879455Y-69860000D01*
X122927176Y-70048449D01*
X122927179Y-70048456D01*
X123017580Y-70254548D01*
X123140674Y-70442958D01*
X123293097Y-70608534D01*
X123470698Y-70746767D01*
X123470699Y-70746768D01*
X123668628Y-70853882D01*
X123668630Y-70853883D01*
X123857230Y-70918629D01*
X123915165Y-70959666D01*
X123941717Y-71025511D01*
X123928456Y-71095258D01*
X123879591Y-71146763D01*
X123852894Y-71158376D01*
X123812051Y-71170765D01*
X123812046Y-71170767D01*
X123629552Y-71268313D01*
X123469590Y-71399590D01*
X123338313Y-71559552D01*
X123301249Y-71628896D01*
X123251497Y-71679544D01*
X123190127Y-71695500D01*
X118383873Y-71695500D01*
X118315752Y-71675498D01*
X118272751Y-71628896D01*
X118235686Y-71559552D01*
X118235685Y-71559550D01*
X118104410Y-71399590D01*
X117944450Y-71268315D01*
X117944448Y-71268314D01*
X117944447Y-71268313D01*
X117761955Y-71170768D01*
X117740042Y-71164121D01*
X117721104Y-71158376D01*
X117661724Y-71119462D01*
X117632808Y-71054620D01*
X117643539Y-70984439D01*
X117690509Y-70931200D01*
X117716769Y-70918629D01*
X117905369Y-70853883D01*
X117905371Y-70853882D01*
X118103300Y-70746768D01*
X118103301Y-70746767D01*
X118280902Y-70608534D01*
X118433325Y-70442958D01*
X118556419Y-70254548D01*
X118646820Y-70048456D01*
X118646823Y-70048449D01*
X118694544Y-69860000D01*
X117789116Y-69860000D01*
X117817493Y-69815844D01*
X117858000Y-69677889D01*
X117858000Y-69534111D01*
X117817493Y-69396156D01*
X117789116Y-69352000D01*
X118694544Y-69352000D01*
X118694544Y-69351999D01*
X118646823Y-69163550D01*
X118646820Y-69163543D01*
X118556419Y-68957451D01*
X118433325Y-68769041D01*
X118280902Y-68603465D01*
X118103301Y-68465232D01*
X118103300Y-68465231D01*
X117905371Y-68358117D01*
X117905369Y-68358116D01*
X117692512Y-68285043D01*
X117692501Y-68285040D01*
X117612000Y-68271606D01*
X117612000Y-69172325D01*
X117500315Y-69121320D01*
X117393763Y-69106000D01*
X117322237Y-69106000D01*
X117215685Y-69121320D01*
X117104000Y-69172325D01*
X117104000Y-68271607D01*
X117103999Y-68271606D01*
X117023498Y-68285040D01*
X117023487Y-68285043D01*
X116810630Y-68358116D01*
X116810628Y-68358117D01*
X116612699Y-68465231D01*
X116612698Y-68465232D01*
X116435097Y-68603465D01*
X116282674Y-68769041D01*
X116159580Y-68957451D01*
X116069179Y-69163543D01*
X116069176Y-69163550D01*
X116021455Y-69351999D01*
X116021456Y-69352000D01*
X116926884Y-69352000D01*
X116898507Y-69396156D01*
X116858000Y-69534111D01*
X116858000Y-69677889D01*
X116898507Y-69815844D01*
X116926884Y-69860000D01*
X116021455Y-69860000D01*
X106031646Y-69860000D01*
X106108475Y-69833116D01*
X106214711Y-69754711D01*
X106293116Y-69648475D01*
X106336725Y-69523849D01*
X106339500Y-69494256D01*
X106339500Y-68888744D01*
X106336725Y-68859151D01*
X106293116Y-68734525D01*
X106214711Y-68628289D01*
X106108475Y-68549884D01*
X106108474Y-68549883D01*
X106108475Y-68549883D01*
X105983854Y-68506276D01*
X105983849Y-68506275D01*
X105954258Y-68503500D01*
X105954256Y-68503500D01*
X105665294Y-68503500D01*
X105597173Y-68483498D01*
X105576199Y-68466595D01*
X105187405Y-68077801D01*
X105153379Y-68015489D01*
X105150500Y-67988706D01*
X105150500Y-66615873D01*
X105170502Y-66547752D01*
X105217103Y-66504751D01*
X105286450Y-66467685D01*
X105446410Y-66336410D01*
X105577685Y-66176450D01*
X105675232Y-65993954D01*
X105735300Y-65795934D01*
X105748503Y-65661889D01*
X105755583Y-65590003D01*
X106184417Y-65590003D01*
X106204698Y-65795927D01*
X106204699Y-65795933D01*
X106204700Y-65795934D01*
X106264768Y-65993954D01*
X106362315Y-66176450D01*
X106493590Y-66336410D01*
X106653550Y-66467685D01*
X106836046Y-66565232D01*
X107034066Y-66625300D01*
X107034070Y-66625300D01*
X107034072Y-66625301D01*
X107239997Y-66645583D01*
X107240000Y-66645583D01*
X107240003Y-66645583D01*
X107445927Y-66625301D01*
X107445928Y-66625300D01*
X107445934Y-66625300D01*
X107643954Y-66565232D01*
X107826450Y-66467685D01*
X107986410Y-66336410D01*
X108117685Y-66176450D01*
X108215232Y-65993954D01*
X108275300Y-65795934D01*
X108288503Y-65661889D01*
X108295583Y-65590003D01*
X108295583Y-65589996D01*
X108275301Y-65384072D01*
X108275300Y-65384070D01*
X108275300Y-65384066D01*
X108215232Y-65186046D01*
X108117685Y-65003550D01*
X107986410Y-64843590D01*
X107826450Y-64712315D01*
X107826448Y-64712314D01*
X107826447Y-64712313D01*
X107643954Y-64614768D01*
X107603106Y-64602377D01*
X107445934Y-64554700D01*
X107445933Y-64554699D01*
X107445927Y-64554698D01*
X107240003Y-64534417D01*
X107239997Y-64534417D01*
X107034072Y-64554698D01*
X106836045Y-64614768D01*
X106653552Y-64712313D01*
X106493590Y-64843590D01*
X106362313Y-65003552D01*
X106264768Y-65186045D01*
X106204698Y-65384072D01*
X106184417Y-65589996D01*
X106184417Y-65590003D01*
X105755583Y-65590003D01*
X105755583Y-65589996D01*
X105735301Y-65384072D01*
X105735300Y-65384070D01*
X105735300Y-65384066D01*
X105675232Y-65186046D01*
X105577685Y-65003550D01*
X105446410Y-64843590D01*
X105286450Y-64712315D01*
X105286448Y-64712314D01*
X105286447Y-64712313D01*
X105103954Y-64614768D01*
X105063106Y-64602377D01*
X104905934Y-64554700D01*
X104905933Y-64554699D01*
X104905927Y-64554698D01*
X104700003Y-64534417D01*
X104699997Y-64534417D01*
X104494072Y-64554698D01*
X104296045Y-64614768D01*
X104113552Y-64712313D01*
X103953590Y-64843590D01*
X103822313Y-65003552D01*
X103724768Y-65186045D01*
X103664698Y-65384072D01*
X103644417Y-65589996D01*
X103644417Y-65590003D01*
X103215583Y-65590003D01*
X103215583Y-65589996D01*
X103195301Y-65384072D01*
X103195300Y-65384070D01*
X103195300Y-65384066D01*
X103135232Y-65186046D01*
X103037685Y-65003550D01*
X102906410Y-64843590D01*
X102746450Y-64712315D01*
X102746448Y-64712314D01*
X102746447Y-64712313D01*
X102563955Y-64614768D01*
X102542042Y-64608121D01*
X102523104Y-64602376D01*
X102463724Y-64563462D01*
X102434808Y-64498620D01*
X102445539Y-64428439D01*
X102492509Y-64375200D01*
X102518769Y-64362629D01*
X102707369Y-64297883D01*
X102707371Y-64297882D01*
X102905300Y-64190768D01*
X102905301Y-64190767D01*
X103082902Y-64052534D01*
X103235325Y-63886958D01*
X103358419Y-63698548D01*
X103448820Y-63492457D01*
X103468473Y-63414848D01*
X103504585Y-63353722D01*
X103568012Y-63321822D01*
X103638616Y-63329278D01*
X103693981Y-63373722D01*
X103711192Y-63409200D01*
X103716750Y-63427523D01*
X103724768Y-63453955D01*
X103812985Y-63618995D01*
X103822315Y-63636450D01*
X103953590Y-63796410D01*
X104113550Y-63927685D01*
X104296046Y-64025232D01*
X104494066Y-64085300D01*
X104494070Y-64085300D01*
X104494072Y-64085301D01*
X104699997Y-64105583D01*
X104700000Y-64105583D01*
X104700003Y-64105583D01*
X104905927Y-64085301D01*
X104905928Y-64085300D01*
X104905934Y-64085300D01*
X105103954Y-64025232D01*
X105286450Y-63927685D01*
X105446410Y-63796410D01*
X105577685Y-63636450D01*
X105675232Y-63453954D01*
X105735300Y-63255934D01*
X105748503Y-63121889D01*
X105755583Y-63050003D01*
X106184417Y-63050003D01*
X106204698Y-63255927D01*
X106204699Y-63255933D01*
X106204700Y-63255934D01*
X106224409Y-63320906D01*
X106264768Y-63453954D01*
X106352980Y-63618987D01*
X106362315Y-63636450D01*
X106493590Y-63796410D01*
X106653550Y-63927685D01*
X106836046Y-64025232D01*
X107034066Y-64085300D01*
X107034070Y-64085300D01*
X107034072Y-64085301D01*
X107239997Y-64105583D01*
X107240000Y-64105583D01*
X107240003Y-64105583D01*
X107445927Y-64085301D01*
X107445928Y-64085300D01*
X107445934Y-64085300D01*
X107643954Y-64025232D01*
X107826450Y-63927685D01*
X107986410Y-63796410D01*
X108117685Y-63636450D01*
X108215232Y-63453954D01*
X108228806Y-63409204D01*
X108267720Y-63349823D01*
X108332561Y-63320906D01*
X108402742Y-63331635D01*
X108455981Y-63378604D01*
X108471525Y-63414847D01*
X108491176Y-63492449D01*
X108491179Y-63492456D01*
X108581580Y-63698548D01*
X108704674Y-63886958D01*
X108857097Y-64052534D01*
X109034698Y-64190767D01*
X109034699Y-64190768D01*
X109232628Y-64297882D01*
X109232630Y-64297883D01*
X109421230Y-64362629D01*
X109479165Y-64403666D01*
X109505717Y-64469511D01*
X109492456Y-64539258D01*
X109443591Y-64590763D01*
X109416894Y-64602376D01*
X109376051Y-64614765D01*
X109376046Y-64614767D01*
X109193552Y-64712313D01*
X109033590Y-64843590D01*
X108902313Y-65003552D01*
X108804768Y-65186045D01*
X108744698Y-65384072D01*
X108724417Y-65589996D01*
X108724417Y-65590003D01*
X108744698Y-65795927D01*
X108744699Y-65795933D01*
X108744700Y-65795934D01*
X108804768Y-65993954D01*
X108902315Y-66176450D01*
X109033590Y-66336410D01*
X109193550Y-66467685D01*
X109376046Y-66565232D01*
X109574066Y-66625300D01*
X109574070Y-66625300D01*
X109574072Y-66625301D01*
X109779997Y-66645583D01*
X109780000Y-66645583D01*
X109780003Y-66645583D01*
X109985927Y-66625301D01*
X109985928Y-66625300D01*
X109985934Y-66625300D01*
X110183954Y-66565232D01*
X110366450Y-66467685D01*
X110526410Y-66336410D01*
X110657685Y-66176450D01*
X110755232Y-65993954D01*
X110815300Y-65795934D01*
X110828503Y-65661889D01*
X110835583Y-65590003D01*
X111264417Y-65590003D01*
X111284698Y-65795927D01*
X111284699Y-65795933D01*
X111284700Y-65795934D01*
X111344768Y-65993954D01*
X111442315Y-66176450D01*
X111573590Y-66336410D01*
X111733550Y-66467685D01*
X111916046Y-66565232D01*
X112114066Y-66625300D01*
X112114070Y-66625300D01*
X112114072Y-66625301D01*
X112319997Y-66645583D01*
X112320000Y-66645583D01*
X112320003Y-66645583D01*
X112525927Y-66625301D01*
X112525928Y-66625300D01*
X112525934Y-66625300D01*
X112723954Y-66565232D01*
X112906450Y-66467685D01*
X113066410Y-66336410D01*
X113197685Y-66176450D01*
X113295232Y-65993954D01*
X113355300Y-65795934D01*
X113368503Y-65661889D01*
X113375583Y-65590003D01*
X113804417Y-65590003D01*
X113824698Y-65795927D01*
X113824699Y-65795933D01*
X113824700Y-65795934D01*
X113884768Y-65993954D01*
X113982315Y-66176450D01*
X114113590Y-66336410D01*
X114273550Y-66467685D01*
X114456046Y-66565232D01*
X114654066Y-66625300D01*
X114654070Y-66625300D01*
X114654072Y-66625301D01*
X114859997Y-66645583D01*
X114860000Y-66645583D01*
X114860003Y-66645583D01*
X115065927Y-66625301D01*
X115065928Y-66625300D01*
X115065934Y-66625300D01*
X115263954Y-66565232D01*
X115446450Y-66467685D01*
X115606410Y-66336410D01*
X115737685Y-66176450D01*
X115835232Y-65993954D01*
X115848806Y-65949204D01*
X115887720Y-65889823D01*
X115952561Y-65860906D01*
X116022742Y-65871635D01*
X116075981Y-65918604D01*
X116091525Y-65954847D01*
X116111176Y-66032449D01*
X116111179Y-66032456D01*
X116201580Y-66238548D01*
X116324674Y-66426958D01*
X116477097Y-66592534D01*
X116654698Y-66730767D01*
X116654699Y-66730768D01*
X116852628Y-66837882D01*
X116852630Y-66837883D01*
X117065483Y-66910955D01*
X117065492Y-66910957D01*
X117146000Y-66924391D01*
X117146000Y-66023674D01*
X117257685Y-66074680D01*
X117364237Y-66090000D01*
X117435763Y-66090000D01*
X117542315Y-66074680D01*
X117654000Y-66023674D01*
X117654000Y-66924390D01*
X117734507Y-66910957D01*
X117734516Y-66910955D01*
X117947369Y-66837883D01*
X117947371Y-66837882D01*
X118145300Y-66730768D01*
X118145301Y-66730767D01*
X118322902Y-66592534D01*
X118475325Y-66426958D01*
X118598419Y-66238548D01*
X118688820Y-66032457D01*
X118708473Y-65954848D01*
X118744585Y-65893722D01*
X118808012Y-65861822D01*
X118878616Y-65869278D01*
X118933981Y-65913722D01*
X118951192Y-65949200D01*
X118955121Y-65962153D01*
X118964768Y-65993955D01*
X118985348Y-66032457D01*
X119062315Y-66176450D01*
X119193590Y-66336410D01*
X119353550Y-66467685D01*
X119536046Y-66565232D01*
X119734066Y-66625300D01*
X119734070Y-66625300D01*
X119734072Y-66625301D01*
X119939997Y-66645583D01*
X119940000Y-66645583D01*
X119940003Y-66645583D01*
X120145927Y-66625301D01*
X120145928Y-66625300D01*
X120145934Y-66625300D01*
X120343954Y-66565232D01*
X120526450Y-66467685D01*
X120686410Y-66336410D01*
X120817685Y-66176450D01*
X120915232Y-65993954D01*
X120975300Y-65795934D01*
X120988503Y-65661889D01*
X120995583Y-65590003D01*
X120995583Y-65589996D01*
X120975301Y-65384072D01*
X120975300Y-65384070D01*
X120975300Y-65384066D01*
X120915232Y-65186046D01*
X120817685Y-65003550D01*
X120686410Y-64843590D01*
X120526450Y-64712315D01*
X120526448Y-64712314D01*
X120526447Y-64712313D01*
X120343954Y-64614768D01*
X120303106Y-64602377D01*
X120145934Y-64554700D01*
X120145933Y-64554699D01*
X120145927Y-64554698D01*
X119940003Y-64534417D01*
X119939997Y-64534417D01*
X119734072Y-64554698D01*
X119536045Y-64614768D01*
X119353552Y-64712313D01*
X119193590Y-64843590D01*
X119062313Y-65003552D01*
X118964767Y-65186046D01*
X118964765Y-65186051D01*
X118951192Y-65230797D01*
X118912277Y-65290178D01*
X118847435Y-65319094D01*
X118777254Y-65308363D01*
X118724016Y-65261393D01*
X118708473Y-65225151D01*
X118688820Y-65147542D01*
X118598419Y-64941451D01*
X118475325Y-64753041D01*
X118322902Y-64587465D01*
X118145301Y-64449232D01*
X118145300Y-64449231D01*
X117947371Y-64342117D01*
X117947368Y-64342116D01*
X117758769Y-64277370D01*
X117700834Y-64236333D01*
X117674282Y-64170488D01*
X117687544Y-64100741D01*
X117736408Y-64049236D01*
X117763105Y-64037623D01*
X117803954Y-64025232D01*
X117986450Y-63927685D01*
X118146410Y-63796410D01*
X118277685Y-63636450D01*
X118375232Y-63453954D01*
X118435300Y-63255934D01*
X118448503Y-63121889D01*
X118455583Y-63050003D01*
X118884417Y-63050003D01*
X118904698Y-63255927D01*
X118904699Y-63255933D01*
X118904700Y-63255934D01*
X118924409Y-63320906D01*
X118964768Y-63453954D01*
X119052980Y-63618987D01*
X119062315Y-63636450D01*
X119193590Y-63796410D01*
X119353550Y-63927685D01*
X119536046Y-64025232D01*
X119734066Y-64085300D01*
X119734070Y-64085300D01*
X119734072Y-64085301D01*
X119939997Y-64105583D01*
X119940000Y-64105583D01*
X119940003Y-64105583D01*
X120145927Y-64085301D01*
X120145928Y-64085300D01*
X120145934Y-64085300D01*
X120343954Y-64025232D01*
X120526450Y-63927685D01*
X120686410Y-63796410D01*
X120817685Y-63636450D01*
X120915232Y-63453954D01*
X120928806Y-63409204D01*
X120967720Y-63349823D01*
X121032561Y-63320906D01*
X121102742Y-63331635D01*
X121155981Y-63378604D01*
X121171525Y-63414847D01*
X121191176Y-63492449D01*
X121191179Y-63492456D01*
X121281580Y-63698548D01*
X121404674Y-63886958D01*
X121557097Y-64052534D01*
X121734698Y-64190767D01*
X121734699Y-64190768D01*
X121932628Y-64297882D01*
X121932630Y-64297883D01*
X122121230Y-64362629D01*
X122179165Y-64403666D01*
X122205717Y-64469511D01*
X122192456Y-64539258D01*
X122143591Y-64590763D01*
X122116894Y-64602376D01*
X122076051Y-64614765D01*
X122076046Y-64614767D01*
X121893552Y-64712313D01*
X121733590Y-64843590D01*
X121602313Y-65003552D01*
X121504768Y-65186045D01*
X121444698Y-65384072D01*
X121424417Y-65589996D01*
X121424417Y-65590003D01*
X121444698Y-65795927D01*
X121444699Y-65795933D01*
X121444700Y-65795934D01*
X121504768Y-65993954D01*
X121602315Y-66176450D01*
X121733590Y-66336410D01*
X121893550Y-66467685D01*
X122076046Y-66565232D01*
X122274066Y-66625300D01*
X122274070Y-66625300D01*
X122274072Y-66625301D01*
X122479997Y-66645583D01*
X122480000Y-66645583D01*
X122480003Y-66645583D01*
X122685927Y-66625301D01*
X122685928Y-66625300D01*
X122685934Y-66625300D01*
X122883954Y-66565232D01*
X123066450Y-66467685D01*
X123226410Y-66336410D01*
X123357685Y-66176450D01*
X123455232Y-65993954D01*
X123515300Y-65795934D01*
X123528503Y-65661889D01*
X123535583Y-65590003D01*
X123964417Y-65590003D01*
X123984698Y-65795927D01*
X123984699Y-65795933D01*
X123984700Y-65795934D01*
X124044768Y-65993954D01*
X124142315Y-66176450D01*
X124273590Y-66336410D01*
X124433550Y-66467685D01*
X124616046Y-66565232D01*
X124814066Y-66625300D01*
X124814070Y-66625300D01*
X124814072Y-66625301D01*
X125019997Y-66645583D01*
X125020000Y-66645583D01*
X125020003Y-66645583D01*
X125225927Y-66625301D01*
X125225928Y-66625300D01*
X125225934Y-66625300D01*
X125423954Y-66565232D01*
X125606450Y-66467685D01*
X125766410Y-66336410D01*
X125897685Y-66176450D01*
X125995232Y-65993954D01*
X126055300Y-65795934D01*
X126068503Y-65661889D01*
X126075583Y-65590003D01*
X126075583Y-65589996D01*
X126055301Y-65384072D01*
X126055300Y-65384070D01*
X126055300Y-65384066D01*
X125995232Y-65186046D01*
X125897685Y-65003550D01*
X125766410Y-64843590D01*
X125606450Y-64712315D01*
X125606448Y-64712314D01*
X125606447Y-64712313D01*
X125423954Y-64614768D01*
X125383106Y-64602377D01*
X125225934Y-64554700D01*
X125225933Y-64554699D01*
X125225927Y-64554698D01*
X125020003Y-64534417D01*
X125019997Y-64534417D01*
X124814072Y-64554698D01*
X124616045Y-64614768D01*
X124433552Y-64712313D01*
X124273590Y-64843590D01*
X124142313Y-65003552D01*
X124044768Y-65186045D01*
X123984698Y-65384072D01*
X123964417Y-65589996D01*
X123964417Y-65590003D01*
X123535583Y-65590003D01*
X123535583Y-65589996D01*
X123515301Y-65384072D01*
X123515300Y-65384070D01*
X123515300Y-65384066D01*
X123455232Y-65186046D01*
X123357685Y-65003550D01*
X123226410Y-64843590D01*
X123066450Y-64712315D01*
X123066448Y-64712314D01*
X123066447Y-64712313D01*
X122883955Y-64614768D01*
X122862042Y-64608121D01*
X122843104Y-64602376D01*
X122783724Y-64563462D01*
X122754808Y-64498620D01*
X122765539Y-64428439D01*
X122812509Y-64375200D01*
X122838769Y-64362629D01*
X123027369Y-64297883D01*
X123027371Y-64297882D01*
X123225300Y-64190768D01*
X123225301Y-64190767D01*
X123402902Y-64052534D01*
X123555325Y-63886958D01*
X123678419Y-63698548D01*
X123768820Y-63492457D01*
X123788473Y-63414848D01*
X123824585Y-63353722D01*
X123888012Y-63321822D01*
X123958616Y-63329278D01*
X124013981Y-63373722D01*
X124031192Y-63409200D01*
X124036750Y-63427523D01*
X124044768Y-63453955D01*
X124132985Y-63618995D01*
X124142315Y-63636450D01*
X124273590Y-63796410D01*
X124433550Y-63927685D01*
X124616046Y-64025232D01*
X124814066Y-64085300D01*
X124814070Y-64085300D01*
X124814072Y-64085301D01*
X125019997Y-64105583D01*
X125020000Y-64105583D01*
X125020003Y-64105583D01*
X125225927Y-64085301D01*
X125225928Y-64085300D01*
X125225934Y-64085300D01*
X125423954Y-64025232D01*
X125606450Y-63927685D01*
X125766410Y-63796410D01*
X125897685Y-63636450D01*
X125995232Y-63453954D01*
X126008806Y-63409204D01*
X126047720Y-63349823D01*
X126112561Y-63320906D01*
X126182742Y-63331635D01*
X126235981Y-63378604D01*
X126251525Y-63414847D01*
X126271176Y-63492449D01*
X126271179Y-63492456D01*
X126361580Y-63698548D01*
X126484674Y-63886958D01*
X126637097Y-64052534D01*
X126814698Y-64190767D01*
X126814699Y-64190768D01*
X127012628Y-64297882D01*
X127012630Y-64297883D01*
X127201230Y-64362629D01*
X127259165Y-64403666D01*
X127285717Y-64469511D01*
X127272456Y-64539258D01*
X127223591Y-64590763D01*
X127196894Y-64602376D01*
X127156051Y-64614765D01*
X127156046Y-64614767D01*
X126973552Y-64712313D01*
X126813590Y-64843590D01*
X126682313Y-65003552D01*
X126584768Y-65186045D01*
X126524698Y-65384072D01*
X126504417Y-65589996D01*
X126504417Y-65590003D01*
X126524698Y-65795927D01*
X126524699Y-65795933D01*
X126524700Y-65795934D01*
X126584768Y-65993954D01*
X126682315Y-66176450D01*
X126813590Y-66336410D01*
X126973550Y-66467685D01*
X127156046Y-66565232D01*
X127354066Y-66625300D01*
X127354070Y-66625300D01*
X127354072Y-66625301D01*
X127559997Y-66645583D01*
X127560000Y-66645583D01*
X127560003Y-66645583D01*
X127765927Y-66625301D01*
X127765928Y-66625300D01*
X127765934Y-66625300D01*
X127963954Y-66565232D01*
X128146450Y-66467685D01*
X128306410Y-66336410D01*
X128437685Y-66176450D01*
X128535232Y-65993954D01*
X128595300Y-65795934D01*
X128608503Y-65661889D01*
X128615583Y-65590003D01*
X129044417Y-65590003D01*
X129064698Y-65795927D01*
X129064699Y-65795933D01*
X129064700Y-65795934D01*
X129124768Y-65993954D01*
X129222315Y-66176450D01*
X129353590Y-66336410D01*
X129513550Y-66467685D01*
X129696046Y-66565232D01*
X129894066Y-66625300D01*
X129894070Y-66625300D01*
X129894072Y-66625301D01*
X130099997Y-66645583D01*
X130100000Y-66645583D01*
X130100003Y-66645583D01*
X130305927Y-66625301D01*
X130305928Y-66625300D01*
X130305934Y-66625300D01*
X130503954Y-66565232D01*
X130686450Y-66467685D01*
X130846410Y-66336410D01*
X130977685Y-66176450D01*
X131075232Y-65993954D01*
X131135300Y-65795934D01*
X131148503Y-65661889D01*
X131155583Y-65590003D01*
X131584417Y-65590003D01*
X131604698Y-65795927D01*
X131604699Y-65795933D01*
X131604700Y-65795934D01*
X131664768Y-65993954D01*
X131762315Y-66176450D01*
X131893590Y-66336410D01*
X132053550Y-66467685D01*
X132236046Y-66565232D01*
X132434066Y-66625300D01*
X132434070Y-66625300D01*
X132434072Y-66625301D01*
X132639997Y-66645583D01*
X132640000Y-66645583D01*
X132640003Y-66645583D01*
X132845927Y-66625301D01*
X132845928Y-66625300D01*
X132845934Y-66625300D01*
X133043954Y-66565232D01*
X133226450Y-66467685D01*
X133386410Y-66336410D01*
X133517685Y-66176450D01*
X133615232Y-65993954D01*
X133628806Y-65949204D01*
X133667720Y-65889823D01*
X133732561Y-65860906D01*
X133802742Y-65871635D01*
X133855981Y-65918604D01*
X133871525Y-65954847D01*
X133891176Y-66032449D01*
X133891179Y-66032456D01*
X133981580Y-66238548D01*
X134104674Y-66426958D01*
X134257097Y-66592534D01*
X134434698Y-66730767D01*
X134434699Y-66730768D01*
X134632628Y-66837882D01*
X134632630Y-66837883D01*
X134845483Y-66910955D01*
X134845492Y-66910957D01*
X134926000Y-66924391D01*
X134926000Y-66023674D01*
X135037685Y-66074680D01*
X135144237Y-66090000D01*
X135215763Y-66090000D01*
X135322315Y-66074680D01*
X135434000Y-66023674D01*
X135434000Y-66924390D01*
X135514507Y-66910957D01*
X135514516Y-66910955D01*
X135727369Y-66837883D01*
X135727371Y-66837882D01*
X135925300Y-66730768D01*
X135925301Y-66730767D01*
X136102902Y-66592534D01*
X136255325Y-66426958D01*
X136378419Y-66238548D01*
X136468820Y-66032456D01*
X136468823Y-66032449D01*
X136516544Y-65844000D01*
X135611116Y-65844000D01*
X135639493Y-65799844D01*
X135680000Y-65661889D01*
X135680000Y-65518111D01*
X135639493Y-65380156D01*
X135611116Y-65336000D01*
X136516544Y-65336000D01*
X136516544Y-65335999D01*
X136468823Y-65147550D01*
X136468820Y-65147543D01*
X136378419Y-64941451D01*
X136255325Y-64753041D01*
X136102902Y-64587465D01*
X135925301Y-64449232D01*
X135925300Y-64449231D01*
X135727371Y-64342117D01*
X135727368Y-64342116D01*
X135692075Y-64330000D01*
X136934615Y-64330000D01*
X136954140Y-64677690D01*
X137009506Y-65003552D01*
X137012473Y-65021013D01*
X137072911Y-65230797D01*
X137108880Y-65355648D01*
X137235730Y-65661889D01*
X137242145Y-65677376D01*
X137242152Y-65677388D01*
X137410588Y-65982153D01*
X137410592Y-65982160D01*
X137612109Y-66266172D01*
X137612114Y-66266179D01*
X137674876Y-66336409D01*
X137844161Y-66525839D01*
X137972466Y-66640499D01*
X138103820Y-66757885D01*
X138103823Y-66757887D01*
X138103824Y-66757888D01*
X138359652Y-66939407D01*
X138387839Y-66959407D01*
X138387846Y-66959411D01*
X138469379Y-67004472D01*
X138692624Y-67127855D01*
X139014356Y-67261121D01*
X139348987Y-67357527D01*
X139692307Y-67415859D01*
X139692306Y-67415859D01*
X139710793Y-67416897D01*
X140040000Y-67435385D01*
X140387693Y-67415859D01*
X140731013Y-67357527D01*
X141065644Y-67261121D01*
X141387376Y-67127855D01*
X141692164Y-66959405D01*
X141976176Y-66757888D01*
X142235839Y-66525839D01*
X142467888Y-66266176D01*
X142669405Y-65982164D01*
X142837855Y-65677376D01*
X142971121Y-65355644D01*
X143067527Y-65021013D01*
X143125859Y-64677693D01*
X143145385Y-64330000D01*
X143125859Y-63982307D01*
X143067527Y-63638987D01*
X142971121Y-63304356D01*
X142952683Y-63259844D01*
X142837859Y-62982634D01*
X142837855Y-62982624D01*
X142696177Y-62726276D01*
X142669411Y-62677846D01*
X142669407Y-62677839D01*
X142619530Y-62607543D01*
X142467888Y-62393824D01*
X142467887Y-62393823D01*
X142467885Y-62393820D01*
X142340674Y-62251472D01*
X142235839Y-62134161D01*
X142058820Y-61975967D01*
X141976179Y-61902114D01*
X141976172Y-61902109D01*
X141692160Y-61700592D01*
X141692153Y-61700588D01*
X141474402Y-61580242D01*
X141387376Y-61532145D01*
X141387369Y-61532142D01*
X141387365Y-61532140D01*
X141065648Y-61398880D01*
X140996223Y-61378879D01*
X140731013Y-61302473D01*
X140731007Y-61302472D01*
X140731004Y-61302471D01*
X140387687Y-61244140D01*
X140387693Y-61244140D01*
X140040000Y-61224615D01*
X139692309Y-61244140D01*
X139348995Y-61302471D01*
X139348989Y-61302472D01*
X139348987Y-61302473D01*
X139280472Y-61322212D01*
X139014351Y-61398880D01*
X138692634Y-61532140D01*
X138692611Y-61532152D01*
X138387846Y-61700588D01*
X138387839Y-61700592D01*
X138103827Y-61902109D01*
X138103820Y-61902114D01*
X137844161Y-62134161D01*
X137612114Y-62393820D01*
X137612109Y-62393827D01*
X137410592Y-62677839D01*
X137410588Y-62677846D01*
X137242152Y-62982611D01*
X137242140Y-62982634D01*
X137108880Y-63304351D01*
X137065781Y-63453953D01*
X137042524Y-63534680D01*
X137012471Y-63638995D01*
X136954140Y-63982309D01*
X136934615Y-64330000D01*
X135692075Y-64330000D01*
X135538769Y-64277370D01*
X135480834Y-64236333D01*
X135454282Y-64170488D01*
X135467544Y-64100741D01*
X135516408Y-64049236D01*
X135543105Y-64037623D01*
X135583954Y-64025232D01*
X135766450Y-63927685D01*
X135926410Y-63796410D01*
X136057685Y-63636450D01*
X136155232Y-63453954D01*
X136215300Y-63255934D01*
X136228503Y-63121889D01*
X136235583Y-63050003D01*
X136235583Y-63049996D01*
X136215301Y-62844072D01*
X136215300Y-62844070D01*
X136215300Y-62844066D01*
X136155232Y-62646046D01*
X136057685Y-62463550D01*
X135926410Y-62303590D01*
X135766450Y-62172315D01*
X135766448Y-62172314D01*
X135766447Y-62172313D01*
X135583954Y-62074768D01*
X135385927Y-62014698D01*
X135180003Y-61994417D01*
X135179997Y-61994417D01*
X134974072Y-62014698D01*
X134776045Y-62074768D01*
X134593552Y-62172313D01*
X134433590Y-62303590D01*
X134302313Y-62463552D01*
X134204768Y-62646045D01*
X134144698Y-62844072D01*
X134124417Y-63049996D01*
X134124417Y-63050003D01*
X134144698Y-63255927D01*
X134144699Y-63255933D01*
X134144700Y-63255934D01*
X134164409Y-63320906D01*
X134204768Y-63453954D01*
X134292980Y-63618987D01*
X134302315Y-63636450D01*
X134433590Y-63796410D01*
X134593550Y-63927685D01*
X134776046Y-64025232D01*
X134816893Y-64037622D01*
X134876274Y-64076536D01*
X134905190Y-64141377D01*
X134894461Y-64211558D01*
X134847492Y-64264798D01*
X134821231Y-64277370D01*
X134632628Y-64342118D01*
X134434699Y-64449231D01*
X134434698Y-64449232D01*
X134257097Y-64587465D01*
X134104674Y-64753041D01*
X133981580Y-64941451D01*
X133891179Y-65147543D01*
X133891177Y-65147547D01*
X133871525Y-65225153D01*
X133835412Y-65286279D01*
X133771985Y-65318177D01*
X133701381Y-65310720D01*
X133646017Y-65266276D01*
X133628806Y-65230795D01*
X133615232Y-65186046D01*
X133517686Y-65003552D01*
X133517685Y-65003550D01*
X133386410Y-64843590D01*
X133226450Y-64712315D01*
X133226448Y-64712314D01*
X133226447Y-64712313D01*
X133043954Y-64614768D01*
X133003106Y-64602377D01*
X132845934Y-64554700D01*
X132845933Y-64554699D01*
X132845927Y-64554698D01*
X132640003Y-64534417D01*
X132639997Y-64534417D01*
X132434072Y-64554698D01*
X132236045Y-64614768D01*
X132053552Y-64712313D01*
X131893590Y-64843590D01*
X131762313Y-65003552D01*
X131664768Y-65186045D01*
X131604698Y-65384072D01*
X131584417Y-65589996D01*
X131584417Y-65590003D01*
X131155583Y-65590003D01*
X131155583Y-65589996D01*
X131135301Y-65384072D01*
X131135300Y-65384070D01*
X131135300Y-65384066D01*
X131075232Y-65186046D01*
X130977685Y-65003550D01*
X130846410Y-64843590D01*
X130686450Y-64712315D01*
X130686448Y-64712314D01*
X130686447Y-64712313D01*
X130503954Y-64614768D01*
X130463106Y-64602377D01*
X130305934Y-64554700D01*
X130305933Y-64554699D01*
X130305927Y-64554698D01*
X130100003Y-64534417D01*
X130099997Y-64534417D01*
X129894072Y-64554698D01*
X129696045Y-64614768D01*
X129513552Y-64712313D01*
X129353590Y-64843590D01*
X129222313Y-65003552D01*
X129124768Y-65186045D01*
X129064698Y-65384072D01*
X129044417Y-65589996D01*
X129044417Y-65590003D01*
X128615583Y-65590003D01*
X128615583Y-65589996D01*
X128595301Y-65384072D01*
X128595300Y-65384070D01*
X128595300Y-65384066D01*
X128535232Y-65186046D01*
X128437685Y-65003550D01*
X128306410Y-64843590D01*
X128146450Y-64712315D01*
X128146448Y-64712314D01*
X128146447Y-64712313D01*
X127963955Y-64614768D01*
X127942042Y-64608121D01*
X127923104Y-64602376D01*
X127863724Y-64563462D01*
X127834808Y-64498620D01*
X127845539Y-64428439D01*
X127892509Y-64375200D01*
X127918769Y-64362629D01*
X128107369Y-64297883D01*
X128107371Y-64297882D01*
X128305300Y-64190768D01*
X128305301Y-64190767D01*
X128482902Y-64052534D01*
X128635325Y-63886958D01*
X128758419Y-63698548D01*
X128848820Y-63492457D01*
X128868473Y-63414848D01*
X128904585Y-63353722D01*
X128968012Y-63321822D01*
X129038616Y-63329278D01*
X129093981Y-63373722D01*
X129111192Y-63409200D01*
X129116750Y-63427523D01*
X129124768Y-63453955D01*
X129212985Y-63618995D01*
X129222315Y-63636450D01*
X129353590Y-63796410D01*
X129513550Y-63927685D01*
X129696046Y-64025232D01*
X129894066Y-64085300D01*
X129894070Y-64085300D01*
X129894072Y-64085301D01*
X130099997Y-64105583D01*
X130100000Y-64105583D01*
X130100003Y-64105583D01*
X130305927Y-64085301D01*
X130305928Y-64085300D01*
X130305934Y-64085300D01*
X130503954Y-64025232D01*
X130686450Y-63927685D01*
X130846410Y-63796410D01*
X130977685Y-63636450D01*
X131075232Y-63453954D01*
X131135300Y-63255934D01*
X131148503Y-63121889D01*
X131155583Y-63050003D01*
X131584417Y-63050003D01*
X131604698Y-63255927D01*
X131604699Y-63255933D01*
X131604700Y-63255934D01*
X131624409Y-63320906D01*
X131664768Y-63453954D01*
X131752980Y-63618987D01*
X131762315Y-63636450D01*
X131893590Y-63796410D01*
X132053550Y-63927685D01*
X132236046Y-64025232D01*
X132434066Y-64085300D01*
X132434070Y-64085300D01*
X132434072Y-64085301D01*
X132639997Y-64105583D01*
X132640000Y-64105583D01*
X132640003Y-64105583D01*
X132845927Y-64085301D01*
X132845928Y-64085300D01*
X132845934Y-64085300D01*
X133043954Y-64025232D01*
X133226450Y-63927685D01*
X133386410Y-63796410D01*
X133517685Y-63636450D01*
X133615232Y-63453954D01*
X133675300Y-63255934D01*
X133688503Y-63121889D01*
X133695583Y-63050003D01*
X133695583Y-63049996D01*
X133675301Y-62844072D01*
X133675300Y-62844070D01*
X133675300Y-62844066D01*
X133615232Y-62646046D01*
X133517685Y-62463550D01*
X133386410Y-62303590D01*
X133226450Y-62172315D01*
X133226448Y-62172314D01*
X133226447Y-62172313D01*
X133043954Y-62074768D01*
X132845927Y-62014698D01*
X132640003Y-61994417D01*
X132639997Y-61994417D01*
X132434072Y-62014698D01*
X132236045Y-62074768D01*
X132053552Y-62172313D01*
X131893590Y-62303590D01*
X131762313Y-62463552D01*
X131664768Y-62646045D01*
X131604698Y-62844072D01*
X131584417Y-63049996D01*
X131584417Y-63050003D01*
X131155583Y-63050003D01*
X131155583Y-63049996D01*
X131135301Y-62844072D01*
X131135300Y-62844070D01*
X131135300Y-62844066D01*
X131075232Y-62646046D01*
X130977685Y-62463550D01*
X130846410Y-62303590D01*
X130686450Y-62172315D01*
X130686448Y-62172314D01*
X130686447Y-62172313D01*
X130503954Y-62074768D01*
X130305927Y-62014698D01*
X130100003Y-61994417D01*
X130099997Y-61994417D01*
X129894072Y-62014698D01*
X129696045Y-62074768D01*
X129513552Y-62172313D01*
X129353590Y-62303590D01*
X129222313Y-62463552D01*
X129124767Y-62646046D01*
X129124765Y-62646051D01*
X129111192Y-62690797D01*
X129072277Y-62750178D01*
X129007435Y-62779094D01*
X128937254Y-62768363D01*
X128884016Y-62721393D01*
X128868473Y-62685151D01*
X128848820Y-62607542D01*
X128758419Y-62401451D01*
X128635325Y-62213041D01*
X128482902Y-62047465D01*
X128305301Y-61909232D01*
X128305300Y-61909231D01*
X128107371Y-61802117D01*
X128107369Y-61802116D01*
X127894512Y-61729043D01*
X127894501Y-61729040D01*
X127814000Y-61715606D01*
X127814000Y-62616325D01*
X127702315Y-62565320D01*
X127595763Y-62550000D01*
X127524237Y-62550000D01*
X127417685Y-62565320D01*
X127306000Y-62616325D01*
X127306000Y-61715607D01*
X127305999Y-61715606D01*
X127225498Y-61729040D01*
X127225487Y-61729043D01*
X127012630Y-61802116D01*
X127012628Y-61802117D01*
X126814699Y-61909231D01*
X126814698Y-61909232D01*
X126637097Y-62047465D01*
X126484674Y-62213041D01*
X126361580Y-62401451D01*
X126271179Y-62607543D01*
X126271177Y-62607547D01*
X126251525Y-62685153D01*
X126215412Y-62746279D01*
X126151985Y-62778177D01*
X126081381Y-62770720D01*
X126026017Y-62726276D01*
X126008806Y-62690795D01*
X125995232Y-62646046D01*
X125897686Y-62463552D01*
X125897685Y-62463550D01*
X125766410Y-62303590D01*
X125606450Y-62172315D01*
X125606448Y-62172314D01*
X125606447Y-62172313D01*
X125423954Y-62074768D01*
X125225927Y-62014698D01*
X125020003Y-61994417D01*
X125019997Y-61994417D01*
X124814072Y-62014698D01*
X124616045Y-62074768D01*
X124433552Y-62172313D01*
X124273590Y-62303590D01*
X124142313Y-62463552D01*
X124044767Y-62646046D01*
X124044765Y-62646051D01*
X124031192Y-62690797D01*
X123992277Y-62750178D01*
X123927435Y-62779094D01*
X123857254Y-62768363D01*
X123804016Y-62721393D01*
X123788473Y-62685151D01*
X123768820Y-62607542D01*
X123678419Y-62401451D01*
X123555325Y-62213041D01*
X123402902Y-62047465D01*
X123225301Y-61909232D01*
X123225300Y-61909231D01*
X123027371Y-61802117D01*
X123027369Y-61802116D01*
X122814512Y-61729043D01*
X122814501Y-61729040D01*
X122734000Y-61715606D01*
X122734000Y-62616325D01*
X122622315Y-62565320D01*
X122515763Y-62550000D01*
X122444237Y-62550000D01*
X122337685Y-62565320D01*
X122226000Y-62616325D01*
X122226000Y-61715607D01*
X122225999Y-61715606D01*
X122145498Y-61729040D01*
X122145487Y-61729043D01*
X121932630Y-61802116D01*
X121932628Y-61802117D01*
X121734699Y-61909231D01*
X121734698Y-61909232D01*
X121557097Y-62047465D01*
X121404674Y-62213041D01*
X121281580Y-62401451D01*
X121191179Y-62607543D01*
X121191177Y-62607547D01*
X121171525Y-62685153D01*
X121135412Y-62746279D01*
X121071985Y-62778177D01*
X121001381Y-62770720D01*
X120946017Y-62726276D01*
X120928806Y-62690795D01*
X120915232Y-62646046D01*
X120817686Y-62463552D01*
X120817685Y-62463550D01*
X120686410Y-62303590D01*
X120526450Y-62172315D01*
X120526448Y-62172314D01*
X120526447Y-62172313D01*
X120343954Y-62074768D01*
X120145927Y-62014698D01*
X119940003Y-61994417D01*
X119939997Y-61994417D01*
X119734072Y-62014698D01*
X119536045Y-62074768D01*
X119353552Y-62172313D01*
X119193590Y-62303590D01*
X119062313Y-62463552D01*
X118964768Y-62646045D01*
X118904698Y-62844072D01*
X118884417Y-63049996D01*
X118884417Y-63050003D01*
X118455583Y-63050003D01*
X118455583Y-63049996D01*
X118435301Y-62844072D01*
X118435300Y-62844070D01*
X118435300Y-62844066D01*
X118375232Y-62646046D01*
X118277685Y-62463550D01*
X118146410Y-62303590D01*
X117986450Y-62172315D01*
X117986448Y-62172314D01*
X117986447Y-62172313D01*
X117803954Y-62074768D01*
X117605927Y-62014698D01*
X117400003Y-61994417D01*
X117399997Y-61994417D01*
X117194072Y-62014698D01*
X116996045Y-62074768D01*
X116813552Y-62172313D01*
X116653590Y-62303590D01*
X116522313Y-62463552D01*
X116424768Y-62646045D01*
X116364698Y-62844072D01*
X116344417Y-63049996D01*
X116344417Y-63050003D01*
X116364698Y-63255927D01*
X116364699Y-63255933D01*
X116364700Y-63255934D01*
X116384409Y-63320906D01*
X116424768Y-63453954D01*
X116512980Y-63618987D01*
X116522315Y-63636450D01*
X116653590Y-63796410D01*
X116813550Y-63927685D01*
X116996046Y-64025232D01*
X117036893Y-64037622D01*
X117096274Y-64076536D01*
X117125190Y-64141377D01*
X117114461Y-64211558D01*
X117067492Y-64264798D01*
X117041231Y-64277370D01*
X116852628Y-64342118D01*
X116654699Y-64449231D01*
X116654698Y-64449232D01*
X116477097Y-64587465D01*
X116324674Y-64753041D01*
X116201580Y-64941451D01*
X116111179Y-65147543D01*
X116111177Y-65147547D01*
X116091525Y-65225153D01*
X116055412Y-65286279D01*
X115991985Y-65318177D01*
X115921381Y-65310720D01*
X115866017Y-65266276D01*
X115848806Y-65230795D01*
X115835232Y-65186046D01*
X115737686Y-65003552D01*
X115737685Y-65003550D01*
X115606410Y-64843590D01*
X115446450Y-64712315D01*
X115446448Y-64712314D01*
X115446447Y-64712313D01*
X115263954Y-64614768D01*
X115223106Y-64602377D01*
X115065934Y-64554700D01*
X115065933Y-64554699D01*
X115065927Y-64554698D01*
X114860003Y-64534417D01*
X114859997Y-64534417D01*
X114654072Y-64554698D01*
X114456045Y-64614768D01*
X114273552Y-64712313D01*
X114113590Y-64843590D01*
X113982313Y-65003552D01*
X113884768Y-65186045D01*
X113824698Y-65384072D01*
X113804417Y-65589996D01*
X113804417Y-65590003D01*
X113375583Y-65590003D01*
X113375583Y-65589996D01*
X113355301Y-65384072D01*
X113355300Y-65384070D01*
X113355300Y-65384066D01*
X113295232Y-65186046D01*
X113197685Y-65003550D01*
X113066410Y-64843590D01*
X112906450Y-64712315D01*
X112906448Y-64712314D01*
X112906447Y-64712313D01*
X112723954Y-64614768D01*
X112683106Y-64602377D01*
X112525934Y-64554700D01*
X112525933Y-64554699D01*
X112525927Y-64554698D01*
X112320003Y-64534417D01*
X112319997Y-64534417D01*
X112114072Y-64554698D01*
X111916045Y-64614768D01*
X111733552Y-64712313D01*
X111573590Y-64843590D01*
X111442313Y-65003552D01*
X111344768Y-65186045D01*
X111284698Y-65384072D01*
X111264417Y-65589996D01*
X111264417Y-65590003D01*
X110835583Y-65590003D01*
X110835583Y-65589996D01*
X110815301Y-65384072D01*
X110815300Y-65384070D01*
X110815300Y-65384066D01*
X110755232Y-65186046D01*
X110657685Y-65003550D01*
X110526410Y-64843590D01*
X110366450Y-64712315D01*
X110366448Y-64712314D01*
X110366447Y-64712313D01*
X110183955Y-64614768D01*
X110162042Y-64608121D01*
X110143104Y-64602376D01*
X110083724Y-64563462D01*
X110054808Y-64498620D01*
X110065539Y-64428439D01*
X110112509Y-64375200D01*
X110138769Y-64362629D01*
X110327369Y-64297883D01*
X110327371Y-64297882D01*
X110525300Y-64190768D01*
X110525301Y-64190767D01*
X110702902Y-64052534D01*
X110855325Y-63886958D01*
X110978419Y-63698548D01*
X111068820Y-63492457D01*
X111088473Y-63414848D01*
X111124585Y-63353722D01*
X111188012Y-63321822D01*
X111258616Y-63329278D01*
X111313981Y-63373722D01*
X111331192Y-63409200D01*
X111336750Y-63427523D01*
X111344768Y-63453955D01*
X111432985Y-63618995D01*
X111442315Y-63636450D01*
X111573590Y-63796410D01*
X111733550Y-63927685D01*
X111916046Y-64025232D01*
X112114066Y-64085300D01*
X112114070Y-64085300D01*
X112114072Y-64085301D01*
X112319997Y-64105583D01*
X112320000Y-64105583D01*
X112320003Y-64105583D01*
X112525927Y-64085301D01*
X112525928Y-64085300D01*
X112525934Y-64085300D01*
X112723954Y-64025232D01*
X112906450Y-63927685D01*
X113066410Y-63796410D01*
X113197685Y-63636450D01*
X113295232Y-63453954D01*
X113355300Y-63255934D01*
X113368503Y-63121889D01*
X113375583Y-63050003D01*
X113804417Y-63050003D01*
X113824698Y-63255927D01*
X113824699Y-63255933D01*
X113824700Y-63255934D01*
X113844409Y-63320906D01*
X113884768Y-63453954D01*
X113972980Y-63618987D01*
X113982315Y-63636450D01*
X114113590Y-63796410D01*
X114273550Y-63927685D01*
X114456046Y-64025232D01*
X114654066Y-64085300D01*
X114654070Y-64085300D01*
X114654072Y-64085301D01*
X114859997Y-64105583D01*
X114860000Y-64105583D01*
X114860003Y-64105583D01*
X115065927Y-64085301D01*
X115065928Y-64085300D01*
X115065934Y-64085300D01*
X115263954Y-64025232D01*
X115446450Y-63927685D01*
X115606410Y-63796410D01*
X115737685Y-63636450D01*
X115835232Y-63453954D01*
X115895300Y-63255934D01*
X115908503Y-63121889D01*
X115915583Y-63050003D01*
X115915583Y-63049996D01*
X115895301Y-62844072D01*
X115895300Y-62844070D01*
X115895300Y-62844066D01*
X115835232Y-62646046D01*
X115737685Y-62463550D01*
X115606410Y-62303590D01*
X115446450Y-62172315D01*
X115446448Y-62172314D01*
X115446447Y-62172313D01*
X115263954Y-62074768D01*
X115065927Y-62014698D01*
X114860003Y-61994417D01*
X114859997Y-61994417D01*
X114654072Y-62014698D01*
X114456045Y-62074768D01*
X114273552Y-62172313D01*
X114113590Y-62303590D01*
X113982313Y-62463552D01*
X113884768Y-62646045D01*
X113824698Y-62844072D01*
X113804417Y-63049996D01*
X113804417Y-63050003D01*
X113375583Y-63050003D01*
X113375583Y-63049996D01*
X113355301Y-62844072D01*
X113355300Y-62844070D01*
X113355300Y-62844066D01*
X113295232Y-62646046D01*
X113197685Y-62463550D01*
X113066410Y-62303590D01*
X112906450Y-62172315D01*
X112906448Y-62172314D01*
X112906447Y-62172313D01*
X112723954Y-62074768D01*
X112525927Y-62014698D01*
X112320003Y-61994417D01*
X112319997Y-61994417D01*
X112114072Y-62014698D01*
X111916045Y-62074768D01*
X111733552Y-62172313D01*
X111573590Y-62303590D01*
X111442313Y-62463552D01*
X111344767Y-62646046D01*
X111344765Y-62646051D01*
X111331192Y-62690797D01*
X111292277Y-62750178D01*
X111227435Y-62779094D01*
X111157254Y-62768363D01*
X111104016Y-62721393D01*
X111088473Y-62685151D01*
X111068820Y-62607542D01*
X110978419Y-62401451D01*
X110855325Y-62213041D01*
X110702902Y-62047465D01*
X110525301Y-61909232D01*
X110525300Y-61909231D01*
X110327371Y-61802117D01*
X110327369Y-61802116D01*
X110114512Y-61729043D01*
X110114501Y-61729040D01*
X110034000Y-61715606D01*
X110034000Y-62616325D01*
X109922315Y-62565320D01*
X109815763Y-62550000D01*
X109744237Y-62550000D01*
X109637685Y-62565320D01*
X109526000Y-62616325D01*
X109526000Y-61715607D01*
X109525999Y-61715606D01*
X109445498Y-61729040D01*
X109445487Y-61729043D01*
X109232630Y-61802116D01*
X109232628Y-61802117D01*
X109034699Y-61909231D01*
X109034698Y-61909232D01*
X108857097Y-62047465D01*
X108704674Y-62213041D01*
X108581580Y-62401451D01*
X108491179Y-62607543D01*
X108491177Y-62607547D01*
X108471525Y-62685153D01*
X108435412Y-62746279D01*
X108371985Y-62778177D01*
X108301381Y-62770720D01*
X108246017Y-62726276D01*
X108228806Y-62690795D01*
X108215232Y-62646046D01*
X108117686Y-62463552D01*
X108117685Y-62463550D01*
X107986410Y-62303590D01*
X107826450Y-62172315D01*
X107826448Y-62172314D01*
X107826447Y-62172313D01*
X107643954Y-62074768D01*
X107445927Y-62014698D01*
X107240003Y-61994417D01*
X107239997Y-61994417D01*
X107034072Y-62014698D01*
X106836045Y-62074768D01*
X106653552Y-62172313D01*
X106493590Y-62303590D01*
X106362313Y-62463552D01*
X106264768Y-62646045D01*
X106204698Y-62844072D01*
X106184417Y-63049996D01*
X106184417Y-63050003D01*
X105755583Y-63050003D01*
X105755583Y-63049996D01*
X105735301Y-62844072D01*
X105735300Y-62844070D01*
X105735300Y-62844066D01*
X105675232Y-62646046D01*
X105577685Y-62463550D01*
X105446410Y-62303590D01*
X105286450Y-62172315D01*
X105286448Y-62172314D01*
X105286447Y-62172313D01*
X105103954Y-62074768D01*
X104905927Y-62014698D01*
X104700003Y-61994417D01*
X104699997Y-61994417D01*
X104494072Y-62014698D01*
X104296045Y-62074768D01*
X104113552Y-62172313D01*
X103953590Y-62303590D01*
X103822313Y-62463552D01*
X103724767Y-62646046D01*
X103724765Y-62646051D01*
X103711192Y-62690797D01*
X103672277Y-62750178D01*
X103607435Y-62779094D01*
X103537254Y-62768363D01*
X103484016Y-62721393D01*
X103468473Y-62685151D01*
X103448820Y-62607542D01*
X103358419Y-62401451D01*
X103235325Y-62213041D01*
X103082902Y-62047465D01*
X102905301Y-61909232D01*
X102905300Y-61909231D01*
X102707371Y-61802117D01*
X102707369Y-61802116D01*
X102494512Y-61729043D01*
X102494501Y-61729040D01*
X102414000Y-61715606D01*
X102414000Y-62616325D01*
X102302315Y-62565320D01*
X102195763Y-62550000D01*
X102124237Y-62550000D01*
X102017685Y-62565320D01*
X101906000Y-62616325D01*
X101906000Y-61715607D01*
X101905999Y-61715606D01*
X101825498Y-61729040D01*
X101825487Y-61729043D01*
X101612630Y-61802116D01*
X101612628Y-61802117D01*
X101414699Y-61909231D01*
X101414698Y-61909232D01*
X101237097Y-62047465D01*
X101084674Y-62213041D01*
X100961580Y-62401451D01*
X100871179Y-62607543D01*
X100871177Y-62607547D01*
X100851525Y-62685153D01*
X100815412Y-62746279D01*
X100751985Y-62778177D01*
X100681381Y-62770720D01*
X100626017Y-62726276D01*
X100608806Y-62690795D01*
X100595232Y-62646046D01*
X100497686Y-62463552D01*
X100497685Y-62463550D01*
X100366410Y-62303590D01*
X100206450Y-62172315D01*
X100206448Y-62172314D01*
X100206447Y-62172313D01*
X100023954Y-62074768D01*
X99825927Y-62014698D01*
X99620003Y-61994417D01*
X99619997Y-61994417D01*
X99414072Y-62014698D01*
X99216045Y-62074768D01*
X99033552Y-62172313D01*
X98873590Y-62303590D01*
X98742313Y-62463552D01*
X98644768Y-62646045D01*
X98584698Y-62844072D01*
X98564417Y-63049996D01*
X98564417Y-63050003D01*
X98135583Y-63050003D01*
X98135583Y-63049996D01*
X98115301Y-62844072D01*
X98115300Y-62844070D01*
X98115300Y-62844066D01*
X98055232Y-62646046D01*
X97957685Y-62463550D01*
X97826410Y-62303590D01*
X97666450Y-62172315D01*
X97666448Y-62172314D01*
X97666447Y-62172313D01*
X97483954Y-62074768D01*
X97285927Y-62014698D01*
X97080003Y-61994417D01*
X97079997Y-61994417D01*
X96874072Y-62014698D01*
X96676045Y-62074768D01*
X96493552Y-62172313D01*
X96333590Y-62303590D01*
X96202313Y-62463552D01*
X96104768Y-62646045D01*
X96044698Y-62844072D01*
X96024417Y-63049996D01*
X96024417Y-63050003D01*
X96044698Y-63255927D01*
X96044699Y-63255933D01*
X96044700Y-63255934D01*
X96064409Y-63320906D01*
X96104768Y-63453954D01*
X96192980Y-63618987D01*
X96202315Y-63636450D01*
X96333590Y-63796410D01*
X96493550Y-63927685D01*
X96676046Y-64025232D01*
X96716893Y-64037622D01*
X96776274Y-64076536D01*
X96805190Y-64141377D01*
X96794461Y-64211558D01*
X96747492Y-64264798D01*
X96721231Y-64277370D01*
X96532628Y-64342118D01*
X96334699Y-64449231D01*
X96334698Y-64449232D01*
X96157097Y-64587465D01*
X96004674Y-64753041D01*
X95881580Y-64941451D01*
X95791179Y-65147543D01*
X95791177Y-65147547D01*
X95771525Y-65225153D01*
X95735412Y-65286279D01*
X95671985Y-65318177D01*
X95601381Y-65310720D01*
X95546017Y-65266276D01*
X95528806Y-65230795D01*
X95515232Y-65186046D01*
X95417686Y-65003552D01*
X95417685Y-65003550D01*
X95286410Y-64843590D01*
X95126450Y-64712315D01*
X95126448Y-64712314D01*
X95126447Y-64712313D01*
X94943954Y-64614768D01*
X94903106Y-64602377D01*
X94745934Y-64554700D01*
X94745933Y-64554699D01*
X94745927Y-64554698D01*
X94540003Y-64534417D01*
X94539997Y-64534417D01*
X94334072Y-64554698D01*
X94136045Y-64614768D01*
X93953552Y-64712313D01*
X93793590Y-64843590D01*
X93662313Y-65003552D01*
X93564768Y-65186045D01*
X93504698Y-65384072D01*
X93484417Y-65589996D01*
X93484417Y-65590003D01*
X93055583Y-65590003D01*
X93055583Y-65589996D01*
X93035301Y-65384072D01*
X93035300Y-65384070D01*
X93035300Y-65384066D01*
X92975232Y-65186046D01*
X92877685Y-65003550D01*
X92746410Y-64843590D01*
X92586450Y-64712315D01*
X92586448Y-64712314D01*
X92586447Y-64712313D01*
X92403955Y-64614768D01*
X92382042Y-64608121D01*
X92363104Y-64602376D01*
X92303724Y-64563462D01*
X92274808Y-64498620D01*
X92285539Y-64428439D01*
X92332509Y-64375200D01*
X92358769Y-64362629D01*
X92547369Y-64297883D01*
X92547371Y-64297882D01*
X92745300Y-64190768D01*
X92745301Y-64190767D01*
X92922902Y-64052534D01*
X93075325Y-63886958D01*
X93198419Y-63698548D01*
X93288820Y-63492457D01*
X93308473Y-63414848D01*
X93344585Y-63353722D01*
X93408012Y-63321822D01*
X93478616Y-63329278D01*
X93533981Y-63373722D01*
X93551192Y-63409200D01*
X93556750Y-63427523D01*
X93564768Y-63453955D01*
X93652985Y-63618995D01*
X93662315Y-63636450D01*
X93793590Y-63796410D01*
X93953550Y-63927685D01*
X94136046Y-64025232D01*
X94334066Y-64085300D01*
X94334070Y-64085300D01*
X94334072Y-64085301D01*
X94539997Y-64105583D01*
X94540000Y-64105583D01*
X94540003Y-64105583D01*
X94745927Y-64085301D01*
X94745928Y-64085300D01*
X94745934Y-64085300D01*
X94943954Y-64025232D01*
X95126450Y-63927685D01*
X95286410Y-63796410D01*
X95417685Y-63636450D01*
X95515232Y-63453954D01*
X95575300Y-63255934D01*
X95588503Y-63121889D01*
X95595583Y-63050003D01*
X95595583Y-63049996D01*
X95575301Y-62844072D01*
X95575300Y-62844070D01*
X95575300Y-62844066D01*
X95515232Y-62646046D01*
X95417685Y-62463550D01*
X95286410Y-62303590D01*
X95126450Y-62172315D01*
X95126448Y-62172314D01*
X95126447Y-62172313D01*
X94943954Y-62074768D01*
X94745927Y-62014698D01*
X94540003Y-61994417D01*
X94539997Y-61994417D01*
X94334072Y-62014698D01*
X94136045Y-62074768D01*
X93953552Y-62172313D01*
X93793590Y-62303590D01*
X93662313Y-62463552D01*
X93564767Y-62646046D01*
X93564765Y-62646051D01*
X93551192Y-62690797D01*
X93512277Y-62750178D01*
X93447435Y-62779094D01*
X93377254Y-62768363D01*
X93324016Y-62721393D01*
X93308473Y-62685151D01*
X93288820Y-62607542D01*
X93198419Y-62401451D01*
X93075325Y-62213041D01*
X92922902Y-62047465D01*
X92745301Y-61909232D01*
X92745300Y-61909231D01*
X92547371Y-61802117D01*
X92547369Y-61802116D01*
X92334512Y-61729043D01*
X92334501Y-61729040D01*
X92254000Y-61715606D01*
X92254000Y-62616325D01*
X92142315Y-62565320D01*
X92035763Y-62550000D01*
X91964237Y-62550000D01*
X91857685Y-62565320D01*
X91746000Y-62616325D01*
X91746000Y-61715607D01*
X91745999Y-61715606D01*
X91665498Y-61729040D01*
X91665487Y-61729043D01*
X91452630Y-61802116D01*
X91452628Y-61802117D01*
X91254699Y-61909231D01*
X91254698Y-61909232D01*
X91077097Y-62047465D01*
X90924674Y-62213041D01*
X90801580Y-62401451D01*
X90711179Y-62607543D01*
X90711177Y-62607547D01*
X90691525Y-62685153D01*
X90655412Y-62746279D01*
X90591985Y-62778177D01*
X90521381Y-62770720D01*
X90466017Y-62726276D01*
X90448806Y-62690795D01*
X90435232Y-62646046D01*
X90337686Y-62463552D01*
X90337685Y-62463550D01*
X90206410Y-62303590D01*
X90046450Y-62172315D01*
X90046448Y-62172314D01*
X90046447Y-62172313D01*
X89863954Y-62074768D01*
X89665927Y-62014698D01*
X89460003Y-61994417D01*
X89459997Y-61994417D01*
X89254072Y-62014698D01*
X89056045Y-62074768D01*
X88873552Y-62172313D01*
X88713590Y-62303590D01*
X88582313Y-62463552D01*
X88484768Y-62646045D01*
X88424698Y-62844072D01*
X88404417Y-63049996D01*
X88404417Y-63050003D01*
X87975583Y-63050003D01*
X87975583Y-63049996D01*
X87955301Y-62844072D01*
X87955300Y-62844070D01*
X87955300Y-62844066D01*
X87895232Y-62646046D01*
X87797685Y-62463550D01*
X87666410Y-62303590D01*
X87506450Y-62172315D01*
X87506448Y-62172314D01*
X87506447Y-62172313D01*
X87323954Y-62074768D01*
X87125927Y-62014698D01*
X86920003Y-61994417D01*
X86919997Y-61994417D01*
X86714072Y-62014698D01*
X86516045Y-62074768D01*
X86333552Y-62172313D01*
X86173590Y-62303590D01*
X86042313Y-62463552D01*
X85944768Y-62646045D01*
X85884698Y-62844072D01*
X85864417Y-63049996D01*
X85864417Y-63050003D01*
X84874049Y-63050003D01*
X84837855Y-62962624D01*
X84718286Y-62746279D01*
X84669411Y-62657846D01*
X84669407Y-62657839D01*
X84661040Y-62646046D01*
X84467888Y-62373824D01*
X84467887Y-62373823D01*
X84467885Y-62373820D01*
X84383205Y-62279063D01*
X84235839Y-62114161D01*
X84081200Y-61975967D01*
X83976179Y-61882114D01*
X83976172Y-61882109D01*
X83692160Y-61680592D01*
X83692153Y-61680588D01*
X83423554Y-61532140D01*
X83387376Y-61512145D01*
X83387369Y-61512142D01*
X83387365Y-61512140D01*
X83065648Y-61378880D01*
X82997221Y-61359166D01*
X82731013Y-61282473D01*
X82731007Y-61282472D01*
X82731004Y-61282471D01*
X82387687Y-61224140D01*
X82387693Y-61224140D01*
X82040000Y-61204615D01*
X81692309Y-61224140D01*
X81348995Y-61282471D01*
X81348989Y-61282472D01*
X81348987Y-61282473D01*
X81279573Y-61302471D01*
X81014351Y-61378880D01*
X80692634Y-61512140D01*
X80692611Y-61512152D01*
X80387846Y-61680588D01*
X80387839Y-61680592D01*
X80103827Y-61882109D01*
X80103820Y-61882114D01*
X79844161Y-62114161D01*
X79612114Y-62373820D01*
X79612109Y-62373827D01*
X79410592Y-62657839D01*
X79410588Y-62657846D01*
X79242152Y-62962611D01*
X79242140Y-62962634D01*
X79108880Y-63284351D01*
X79012471Y-63618995D01*
X78954140Y-63962309D01*
X78934615Y-64310000D01*
X78596856Y-64310000D01*
X78596856Y-63819382D01*
X78596955Y-63815849D01*
X78603542Y-63698548D01*
X78615203Y-63490893D01*
X78615994Y-63483877D01*
X78670212Y-63164763D01*
X78671784Y-63157880D01*
X78761390Y-62846841D01*
X78763724Y-62840172D01*
X78887590Y-62541126D01*
X78890646Y-62534778D01*
X79047235Y-62251447D01*
X79050976Y-62245494D01*
X79238299Y-61981482D01*
X79242695Y-61975971D01*
X79302336Y-61909232D01*
X79458385Y-61734609D01*
X79463371Y-61729623D01*
X79704737Y-61513921D01*
X79710247Y-61509527D01*
X79974245Y-61322207D01*
X79980211Y-61318459D01*
X80263522Y-61161873D01*
X80269872Y-61158815D01*
X80568937Y-61034935D01*
X80575580Y-61032611D01*
X80886649Y-60942989D01*
X80893498Y-60941426D01*
X81212643Y-60887196D01*
X81219642Y-60886409D01*
X81543618Y-60868210D01*
X81547152Y-60868111D01*
X81562765Y-60868111D01*
X140529948Y-60868111D01*
X140544588Y-60868111D01*
X140548120Y-60868210D01*
G37*
G04 #@! TD.AperFunction*
D32*
X143546356Y-113817611D02*
X143546356Y-63817611D01*
X78546356Y-63817611D02*
X78546356Y-113817611D01*
X140546356Y-116817555D02*
G75*
G03*
X143546350Y-113822847I44J2999955D01*
G01*
X140546356Y-60817611D02*
X81546356Y-60817611D01*
X81546356Y-116817611D02*
X140546356Y-116817611D01*
X143546389Y-63817611D02*
G75*
G03*
X140546356Y-60817611I-2999989J11D01*
G01*
X81546356Y-60817556D02*
G75*
G03*
X78546356Y-63817611I44J-3000044D01*
G01*
X78546389Y-113817611D02*
G75*
G03*
X81546356Y-116817611I3000011J11D01*
G01*
M02*
