G04 #@! TF.GenerationSoftware,KiCad,Pcbnew,7.0.8*
G04 #@! TF.CreationDate,2024-01-24T18:36:25+01:00*
G04 #@! TF.ProjectId,EDU_V3_0_Raspi_Hat,4544555f-5633-45f3-905f-52617370695f,rev?*
G04 #@! TF.SameCoordinates,Original*
G04 #@! TF.FileFunction,Soldermask,Top*
G04 #@! TF.FilePolarity,Negative*
%FSLAX46Y46*%
G04 Gerber Fmt 4.6, Leading zero omitted, Abs format (unit mm)*
G04 Created by KiCad (PCBNEW 7.0.8) date 2024-01-24 18:36:25*
%MOMM*%
%LPD*%
G01*
G04 APERTURE LIST*
G04 Aperture macros list*
%AMRoundRect*
0 Rectangle with rounded corners*
0 $1 Rounding radius*
0 $2 $3 $4 $5 $6 $7 $8 $9 X,Y pos of 4 corners*
0 Add a 4 corners polygon primitive as box body*
4,1,4,$2,$3,$4,$5,$6,$7,$8,$9,$2,$3,0*
0 Add four circle primitives for the rounded corners*
1,1,$1+$1,$2,$3*
1,1,$1+$1,$4,$5*
1,1,$1+$1,$6,$7*
1,1,$1+$1,$8,$9*
0 Add four rect primitives between the rounded corners*
20,1,$1+$1,$2,$3,$4,$5,0*
20,1,$1+$1,$4,$5,$6,$7,0*
20,1,$1+$1,$6,$7,$8,$9,0*
20,1,$1+$1,$8,$9,$2,$3,0*%
G04 Aperture macros list end*
%ADD10RoundRect,0.087500X-0.187500X-0.087500X0.187500X-0.087500X0.187500X0.087500X-0.187500X0.087500X0*%
%ADD11RoundRect,0.087500X-0.087500X-0.187500X0.087500X-0.187500X0.087500X0.187500X-0.087500X0.187500X0*%
%ADD12C,3.000000*%
%ADD13RoundRect,0.237500X-0.237500X0.250000X-0.237500X-0.250000X0.237500X-0.250000X0.237500X0.250000X0*%
%ADD14RoundRect,0.237500X-0.300000X-0.237500X0.300000X-0.237500X0.300000X0.237500X-0.300000X0.237500X0*%
%ADD15RoundRect,0.237500X0.237500X-0.287500X0.237500X0.287500X-0.237500X0.287500X-0.237500X-0.287500X0*%
%ADD16RoundRect,0.125000X-0.137500X0.125000X-0.137500X-0.125000X0.137500X-0.125000X0.137500X0.125000X0*%
%ADD17RoundRect,0.237500X0.237500X-0.300000X0.237500X0.300000X-0.237500X0.300000X-0.237500X-0.300000X0*%
%ADD18O,1.700000X1.700000*%
%ADD19R,1.700000X1.700000*%
%ADD20RoundRect,0.150000X-0.150000X-0.325000X0.150000X-0.325000X0.150000X0.325000X-0.150000X0.325000X0*%
%ADD21RoundRect,0.150000X-0.325000X-0.150000X0.325000X-0.150000X0.325000X0.150000X-0.325000X0.150000X0*%
%ADD22RoundRect,0.237500X-0.237500X0.300000X-0.237500X-0.300000X0.237500X-0.300000X0.237500X0.300000X0*%
%ADD23RoundRect,0.237500X-0.250000X-0.237500X0.250000X-0.237500X0.250000X0.237500X-0.250000X0.237500X0*%
%ADD24RoundRect,0.237500X0.237500X-0.250000X0.237500X0.250000X-0.237500X0.250000X-0.237500X-0.250000X0*%
%ADD25R,0.700000X0.340000*%
%ADD26C,0.200000*%
%ADD27RoundRect,0.237500X0.300000X0.237500X-0.300000X0.237500X-0.300000X-0.237500X0.300000X-0.237500X0*%
G04 #@! TA.AperFunction,Profile*
%ADD28C,0.100000*%
G04 #@! TD*
G04 APERTURE END LIST*
D10*
X90088000Y-103775000D03*
X90088000Y-104275000D03*
X90088000Y-104775000D03*
X90088000Y-105275000D03*
X90088000Y-105775000D03*
D11*
X90813000Y-106000000D03*
X91313000Y-106000000D03*
X91813000Y-106000000D03*
D10*
X92538000Y-105775000D03*
X92538000Y-105275000D03*
X92538000Y-104775000D03*
X92538000Y-104275000D03*
X92538000Y-103775000D03*
D11*
X91813000Y-103550000D03*
X91313000Y-103550000D03*
X90813000Y-103550000D03*
D12*
X82040000Y-64310000D03*
X140040000Y-64330000D03*
X82040000Y-113320000D03*
X140030000Y-113310000D03*
D13*
X107950000Y-92559500D03*
X107950000Y-94384500D03*
D14*
X93599000Y-100711000D03*
X91874000Y-100711000D03*
D13*
X96520000Y-71016500D03*
X96520000Y-69191500D03*
D15*
X102616000Y-72785000D03*
X102616000Y-74535000D03*
D16*
X90849500Y-88208000D03*
X90849500Y-89008000D03*
X90849500Y-89808000D03*
X90849500Y-90608000D03*
X88474500Y-90608000D03*
X88474500Y-89808000D03*
X88474500Y-89008000D03*
X88474500Y-88208000D03*
D17*
X85852000Y-78893500D03*
X85852000Y-80618500D03*
D15*
X105664000Y-72785000D03*
X105664000Y-74535000D03*
D13*
X102616000Y-71016500D03*
X102616000Y-69191500D03*
D18*
X117358000Y-69606000D03*
X117358000Y-72146000D03*
X117358000Y-74686000D03*
D19*
X117358000Y-77226000D03*
D13*
X99568000Y-71016500D03*
X99568000Y-69191500D03*
D20*
X89154000Y-75470000D03*
D21*
X90154000Y-75470000D03*
X90154000Y-76270000D03*
X90154000Y-77070000D03*
X90154000Y-77870000D03*
X90154000Y-78670000D03*
X90154000Y-79470000D03*
D20*
X89154000Y-79470000D03*
D21*
X88154000Y-79470000D03*
X88154000Y-78670000D03*
X88154000Y-77870000D03*
X88154000Y-77070000D03*
X88154000Y-76270000D03*
X88154000Y-75470000D03*
D22*
X85852000Y-76808500D03*
X85852000Y-75083500D03*
D23*
X89304500Y-81788000D03*
X87479500Y-81788000D03*
D24*
X107950000Y-91082500D03*
X107950000Y-89257500D03*
D25*
X110224000Y-105418000D03*
X110224000Y-105918000D03*
X110224000Y-106418000D03*
X108724000Y-106418000D03*
X108724000Y-105918000D03*
X108724000Y-105418000D03*
D17*
X86106000Y-89561500D03*
X86106000Y-91286500D03*
D26*
X110802000Y-91890000D03*
X110802000Y-92456000D03*
X110802000Y-93022000D03*
X110519000Y-92173000D03*
X110519000Y-92739000D03*
X110236000Y-91890000D03*
X110236000Y-93022000D03*
X109953000Y-92173000D03*
X109953000Y-92739000D03*
X109670000Y-91890000D03*
X109670000Y-92456000D03*
X109670000Y-93022000D03*
D14*
X93599000Y-99314000D03*
X91874000Y-99314000D03*
D15*
X96520000Y-72785000D03*
X96520000Y-74535000D03*
D13*
X105664000Y-71016500D03*
X105664000Y-69191500D03*
D14*
X111606500Y-89408000D03*
X109881500Y-89408000D03*
D18*
X131328000Y-69616000D03*
X131328000Y-72156000D03*
X131328000Y-74696000D03*
D19*
X131328000Y-77236000D03*
D15*
X99568000Y-72785000D03*
X99568000Y-74535000D03*
D22*
X112522000Y-107542500D03*
X112522000Y-105817500D03*
D23*
X90066500Y-107442000D03*
X88241500Y-107442000D03*
D18*
X124216000Y-69606000D03*
X124216000Y-72146000D03*
X124216000Y-74686000D03*
D19*
X124216000Y-77226000D03*
D22*
X112776000Y-92556500D03*
X112776000Y-90831500D03*
D27*
X91847500Y-102108000D03*
X93572500Y-102108000D03*
D22*
X93472000Y-89000500D03*
X93472000Y-87275500D03*
D18*
X135180000Y-63050000D03*
X135180000Y-65590000D03*
X132640000Y-63050000D03*
X132640000Y-65590000D03*
X130100000Y-63050000D03*
X130100000Y-65590000D03*
X127560000Y-63050000D03*
X127560000Y-65590000D03*
X125020000Y-63050000D03*
X125020000Y-65590000D03*
X122480000Y-63050000D03*
X122480000Y-65590000D03*
X119940000Y-63050000D03*
X119940000Y-65590000D03*
X117400000Y-63050000D03*
X117400000Y-65590000D03*
X114860000Y-63050000D03*
X114860000Y-65590000D03*
X112320000Y-63050000D03*
X112320000Y-65590000D03*
X109780000Y-63050000D03*
X109780000Y-65590000D03*
X107240000Y-63050000D03*
X107240000Y-65590000D03*
X104700000Y-63050000D03*
X104700000Y-65590000D03*
X102160000Y-63050000D03*
X102160000Y-65590000D03*
X99620000Y-63050000D03*
X99620000Y-65590000D03*
X97080000Y-63050000D03*
X97080000Y-65590000D03*
X94540000Y-63050000D03*
X94540000Y-65590000D03*
X92000000Y-63050000D03*
X92000000Y-65590000D03*
X89460000Y-63050000D03*
X89460000Y-65590000D03*
X86920000Y-63050000D03*
D19*
X86920000Y-65590000D03*
D28*
X143546356Y-113817611D02*
X143546356Y-63817611D01*
X78546356Y-63817611D02*
X78546356Y-113817611D01*
X140546356Y-116817555D02*
G75*
G03*
X143546350Y-113822847I44J2999955D01*
G01*
X140546356Y-60817611D02*
X81546356Y-60817611D01*
X81546356Y-116817611D02*
X140546356Y-116817611D01*
X143546389Y-63817611D02*
G75*
G03*
X140546356Y-60817611I-2999989J11D01*
G01*
X81546356Y-60817556D02*
G75*
G03*
X78546356Y-63817611I44J-3000044D01*
G01*
X78546389Y-113817611D02*
G75*
G03*
X81546356Y-116817611I3000011J11D01*
G01*
M02*
