G04 #@! TF.GenerationSoftware,KiCad,Pcbnew,7.0.8*
G04 #@! TF.CreationDate,2024-01-24T18:36:25+01:00*
G04 #@! TF.ProjectId,EDU_V3_0_Raspi_Hat,4544555f-5633-45f3-905f-52617370695f,rev?*
G04 #@! TF.SameCoordinates,Original*
G04 #@! TF.FileFunction,Copper,L4,Bot*
G04 #@! TF.FilePolarity,Positive*
%FSLAX46Y46*%
G04 Gerber Fmt 4.6, Leading zero omitted, Abs format (unit mm)*
G04 Created by KiCad (PCBNEW 7.0.8) date 2024-01-24 18:36:25*
%MOMM*%
%LPD*%
G01*
G04 APERTURE LIST*
G04 #@! TA.AperFunction,WasherPad*
%ADD10C,3.000000*%
G04 #@! TD*
G04 #@! TA.AperFunction,ComponentPad*
%ADD11O,1.700000X1.700000*%
G04 #@! TD*
G04 #@! TA.AperFunction,ComponentPad*
%ADD12R,1.700000X1.700000*%
G04 #@! TD*
G04 #@! TA.AperFunction,ViaPad*
%ADD13C,0.400000*%
G04 #@! TD*
G04 #@! TA.AperFunction,Conductor*
%ADD14C,0.250000*%
G04 #@! TD*
G04 #@! TA.AperFunction,Conductor*
%ADD15C,0.500000*%
G04 #@! TD*
G04 #@! TA.AperFunction,Profile*
%ADD16C,0.100000*%
G04 #@! TD*
G04 APERTURE END LIST*
D10*
X82040000Y-64310000D03*
X140040000Y-64330000D03*
X82040000Y-113320000D03*
X140030000Y-113310000D03*
D11*
X117358000Y-69606000D03*
X117358000Y-72146000D03*
X117358000Y-74686000D03*
D12*
X117358000Y-77226000D03*
D11*
X131328000Y-69616000D03*
X131328000Y-72156000D03*
X131328000Y-74696000D03*
D12*
X131328000Y-77236000D03*
D11*
X124216000Y-69606000D03*
X124216000Y-72146000D03*
X124216000Y-74686000D03*
D12*
X124216000Y-77226000D03*
D11*
X135180000Y-63050000D03*
X135180000Y-65590000D03*
X132640000Y-63050000D03*
X132640000Y-65590000D03*
X130100000Y-63050000D03*
X130100000Y-65590000D03*
X127560000Y-63050000D03*
X127560000Y-65590000D03*
X125020000Y-63050000D03*
X125020000Y-65590000D03*
X122480000Y-63050000D03*
X122480000Y-65590000D03*
X119940000Y-63050000D03*
X119940000Y-65590000D03*
X117400000Y-63050000D03*
X117400000Y-65590000D03*
X114860000Y-63050000D03*
X114860000Y-65590000D03*
X112320000Y-63050000D03*
X112320000Y-65590000D03*
X109780000Y-63050000D03*
X109780000Y-65590000D03*
X107240000Y-63050000D03*
X107240000Y-65590000D03*
X104700000Y-63050000D03*
X104700000Y-65590000D03*
X102160000Y-63050000D03*
X102160000Y-65590000D03*
X99620000Y-63050000D03*
X99620000Y-65590000D03*
X97080000Y-63050000D03*
X97080000Y-65590000D03*
X94540000Y-63050000D03*
X94540000Y-65590000D03*
X92000000Y-63050000D03*
X92000000Y-65590000D03*
X89460000Y-63050000D03*
X89460000Y-65590000D03*
X86920000Y-63050000D03*
D12*
X86920000Y-65590000D03*
D13*
X83000000Y-86000000D03*
X84000000Y-86000000D03*
X84000000Y-85000000D03*
X83000000Y-85000000D03*
X87000000Y-86000000D03*
X88000000Y-86000000D03*
X88000000Y-85000000D03*
X87000000Y-85000000D03*
X88773000Y-105791000D03*
X89408000Y-103886000D03*
X105918000Y-90932000D03*
X88392000Y-105029000D03*
X104394000Y-93726000D03*
X89535000Y-101727000D03*
X109220000Y-102362000D03*
X92456000Y-72390000D03*
X91948000Y-90678000D03*
X92710000Y-67818000D03*
X87376000Y-71628000D03*
X91186000Y-92964000D03*
X92710000Y-78994000D03*
X106426000Y-92710000D03*
X89154000Y-91694000D03*
X91186000Y-78486000D03*
X108712000Y-100330000D03*
D14*
X89408000Y-105156000D02*
X89408000Y-103886000D01*
X88773000Y-105791000D02*
X89408000Y-105156000D01*
X91948000Y-72898000D02*
X92456000Y-72390000D01*
X88392000Y-102870000D02*
X88392000Y-105029000D01*
X91948000Y-90678000D02*
X105664000Y-90678000D01*
D15*
X92710000Y-67818000D02*
X92710000Y-72136000D01*
X106944000Y-77714000D02*
X112512000Y-72146000D01*
X92456000Y-72390000D02*
X97780000Y-77714000D01*
D14*
X92456000Y-89916000D02*
X91948000Y-89408000D01*
X105664000Y-90678000D02*
X105918000Y-90932000D01*
X91948000Y-90678000D02*
X92456000Y-90170000D01*
X104394000Y-97536000D02*
X109220000Y-102362000D01*
D15*
X112512000Y-72146000D02*
X117358000Y-72146000D01*
D14*
X89535000Y-101727000D02*
X88392000Y-102870000D01*
X104394000Y-93726000D02*
X104394000Y-97536000D01*
X91948000Y-89408000D02*
X91948000Y-72898000D01*
D15*
X97780000Y-77714000D02*
X106944000Y-77714000D01*
D14*
X92456000Y-90170000D02*
X92456000Y-89916000D01*
D15*
X92710000Y-72136000D02*
X92456000Y-72390000D01*
X112268000Y-74676000D02*
X117348000Y-74676000D01*
X89662000Y-71628000D02*
X87376000Y-71628000D01*
X89916000Y-71882000D02*
X89662000Y-71628000D01*
D14*
X105410000Y-92964000D02*
X106172000Y-92964000D01*
X105410000Y-92964000D02*
X105410000Y-97028000D01*
X91186000Y-92964000D02*
X105410000Y-92964000D01*
X105410000Y-97028000D02*
X108712000Y-100330000D01*
D15*
X91186000Y-78486000D02*
X89916000Y-77216000D01*
D14*
X89154000Y-91694000D02*
X89154000Y-77216000D01*
D15*
X89916000Y-77216000D02*
X89916000Y-71882000D01*
D14*
X87376000Y-75438000D02*
X87376000Y-71628000D01*
D15*
X117348000Y-74676000D02*
X117358000Y-74686000D01*
X92710000Y-78994000D02*
X107950000Y-78994000D01*
X92000000Y-65590000D02*
X92000000Y-67004000D01*
X92000000Y-67004000D02*
X87376000Y-71628000D01*
X107950000Y-78994000D02*
X112268000Y-74676000D01*
D14*
X106172000Y-92964000D02*
X106426000Y-92710000D01*
X89154000Y-77216000D02*
X87376000Y-75438000D01*
G04 #@! TA.AperFunction,Conductor*
G36*
X140548120Y-60868210D02*
G01*
X140873075Y-60886454D01*
X140880086Y-60887244D01*
X141199208Y-60941461D01*
X141206076Y-60943029D01*
X141517133Y-61032638D01*
X141523781Y-61034965D01*
X141822835Y-61158833D01*
X141829197Y-61161896D01*
X142112513Y-61318476D01*
X142118482Y-61322227D01*
X142382475Y-61509536D01*
X142388002Y-61513944D01*
X142629359Y-61729632D01*
X142634343Y-61734616D01*
X142694666Y-61802116D01*
X142850030Y-61975967D01*
X142854439Y-61981495D01*
X143041751Y-62245485D01*
X143045513Y-62251472D01*
X143202082Y-62534761D01*
X143205150Y-62541132D01*
X143329017Y-62840172D01*
X143331352Y-62846846D01*
X143420959Y-63157878D01*
X143422533Y-63164771D01*
X143476750Y-63483878D01*
X143477542Y-63490904D01*
X143495757Y-63815262D01*
X143495856Y-63818795D01*
X143495856Y-113819929D01*
X143495854Y-113820890D01*
X143495751Y-113824472D01*
X143476973Y-114149065D01*
X143476171Y-114156082D01*
X143421513Y-114474753D01*
X143419931Y-114481636D01*
X143329981Y-114792179D01*
X143327639Y-114798842D01*
X143255585Y-114972153D01*
X143204898Y-115094069D01*
X143203519Y-115097385D01*
X143200446Y-115103744D01*
X143115963Y-115256176D01*
X143043713Y-115386534D01*
X143039953Y-115392504D01*
X142852575Y-115655990D01*
X142848166Y-115661507D01*
X142632501Y-115902380D01*
X142627503Y-115907370D01*
X142386239Y-116122620D01*
X142380714Y-116127019D01*
X142116911Y-116313921D01*
X142110928Y-116317674D01*
X141827856Y-116473913D01*
X141821491Y-116476974D01*
X141522740Y-116600564D01*
X141516072Y-116602894D01*
X141205359Y-116692299D01*
X141198473Y-116693869D01*
X140879711Y-116747963D01*
X140872693Y-116748753D01*
X140547122Y-116767012D01*
X140543594Y-116767111D01*
X81548131Y-116767111D01*
X81544597Y-116767012D01*
X81219647Y-116748758D01*
X81212630Y-116747968D01*
X80893525Y-116693745D01*
X80886642Y-116692175D01*
X80731122Y-116647368D01*
X80575607Y-116602563D01*
X80568934Y-116600228D01*
X80269909Y-116476364D01*
X80263539Y-116473297D01*
X79980237Y-116316719D01*
X79974256Y-116312960D01*
X79710268Y-116125647D01*
X79704763Y-116121256D01*
X79463411Y-115905569D01*
X79458414Y-115900572D01*
X79242729Y-115659216D01*
X79238321Y-115653688D01*
X79051023Y-115389715D01*
X79047261Y-115383729D01*
X78890693Y-115100439D01*
X78887625Y-115094069D01*
X78837128Y-114972160D01*
X78763756Y-114795022D01*
X78761425Y-114788360D01*
X78671820Y-114477332D01*
X78670248Y-114470450D01*
X78616029Y-114151337D01*
X78615237Y-114144311D01*
X78607750Y-114011004D01*
X78597453Y-113827656D01*
X78596955Y-113818782D01*
X78596856Y-113815248D01*
X78596856Y-113320000D01*
X78934615Y-113320000D01*
X78954140Y-113667690D01*
X79012471Y-114011004D01*
X79012473Y-114011013D01*
X79052900Y-114151337D01*
X79108880Y-114345648D01*
X79242140Y-114667365D01*
X79242145Y-114667376D01*
X79242152Y-114667388D01*
X79410588Y-114972153D01*
X79410592Y-114972160D01*
X79612109Y-115256172D01*
X79612114Y-115256179D01*
X79712465Y-115368471D01*
X79844161Y-115515839D01*
X79998414Y-115653688D01*
X80103820Y-115747885D01*
X80103823Y-115747887D01*
X80103824Y-115747888D01*
X80322728Y-115903208D01*
X80387839Y-115949407D01*
X80387846Y-115949411D01*
X80438824Y-115977585D01*
X80692624Y-116117855D01*
X81014356Y-116251121D01*
X81348987Y-116347527D01*
X81692307Y-116405859D01*
X81692306Y-116405859D01*
X81710793Y-116406897D01*
X82040000Y-116425385D01*
X82387693Y-116405859D01*
X82731013Y-116347527D01*
X83065644Y-116251121D01*
X83387376Y-116117855D01*
X83692164Y-115949405D01*
X83976176Y-115747888D01*
X84235839Y-115515839D01*
X84467888Y-115256176D01*
X84669405Y-114972164D01*
X84837855Y-114667376D01*
X84971121Y-114345644D01*
X85067527Y-114011013D01*
X85125859Y-113667693D01*
X85145385Y-113320000D01*
X85144823Y-113310000D01*
X136924615Y-113310000D01*
X136944140Y-113657690D01*
X137002471Y-114001004D01*
X137002473Y-114001013D01*
X137045781Y-114151337D01*
X137098880Y-114335648D01*
X137211782Y-114608216D01*
X137232145Y-114657376D01*
X137280242Y-114744402D01*
X137400588Y-114962153D01*
X137400592Y-114962160D01*
X137602109Y-115246172D01*
X137602114Y-115246179D01*
X137611051Y-115256179D01*
X137834161Y-115505839D01*
X137999063Y-115653205D01*
X138093820Y-115737885D01*
X138093823Y-115737887D01*
X138093824Y-115737888D01*
X138107914Y-115747885D01*
X138377839Y-115939407D01*
X138377846Y-115939411D01*
X138450312Y-115979461D01*
X138682624Y-116107855D01*
X139004356Y-116241121D01*
X139338987Y-116337527D01*
X139682307Y-116395859D01*
X139682306Y-116395859D01*
X139700793Y-116396897D01*
X140030000Y-116415385D01*
X140377693Y-116395859D01*
X140721013Y-116337527D01*
X141055644Y-116241121D01*
X141377376Y-116107855D01*
X141682164Y-115939405D01*
X141966176Y-115737888D01*
X142225839Y-115505839D01*
X142457888Y-115246176D01*
X142659405Y-114962164D01*
X142827855Y-114657376D01*
X142961121Y-114335644D01*
X143057527Y-114001013D01*
X143115859Y-113657693D01*
X143135385Y-113310000D01*
X143115859Y-112962307D01*
X143057527Y-112618987D01*
X142961121Y-112284356D01*
X142827855Y-111962624D01*
X142721275Y-111769783D01*
X142659411Y-111657846D01*
X142659407Y-111657839D01*
X142464981Y-111383820D01*
X142457888Y-111373824D01*
X142457887Y-111373823D01*
X142457885Y-111373820D01*
X142373205Y-111279063D01*
X142225839Y-111114161D01*
X142078471Y-110982465D01*
X141966179Y-110882114D01*
X141966172Y-110882109D01*
X141682160Y-110680592D01*
X141682153Y-110680588D01*
X141395482Y-110522152D01*
X141377376Y-110512145D01*
X141377369Y-110512142D01*
X141377365Y-110512140D01*
X141055648Y-110378880D01*
X140987221Y-110359166D01*
X140721013Y-110282473D01*
X140721007Y-110282472D01*
X140721004Y-110282471D01*
X140377687Y-110224140D01*
X140377693Y-110224140D01*
X140030000Y-110204615D01*
X139682309Y-110224140D01*
X139338995Y-110282471D01*
X139338989Y-110282472D01*
X139338987Y-110282473D01*
X139202142Y-110321897D01*
X139004351Y-110378880D01*
X138682634Y-110512140D01*
X138682611Y-110512152D01*
X138377846Y-110680588D01*
X138377839Y-110680592D01*
X138093827Y-110882109D01*
X138093820Y-110882114D01*
X137834161Y-111114161D01*
X137602114Y-111373820D01*
X137602109Y-111373827D01*
X137400592Y-111657839D01*
X137400588Y-111657846D01*
X137232152Y-111962611D01*
X137232140Y-111962634D01*
X137098880Y-112284351D01*
X137002471Y-112618995D01*
X136944140Y-112962309D01*
X136924615Y-113310000D01*
X85144823Y-113310000D01*
X85125859Y-112972307D01*
X85067527Y-112628987D01*
X84971121Y-112294356D01*
X84837855Y-111972624D01*
X84669405Y-111667836D01*
X84467888Y-111383824D01*
X84467887Y-111383823D01*
X84467885Y-111383820D01*
X84383205Y-111289063D01*
X84235839Y-111124161D01*
X84088471Y-110992465D01*
X83976179Y-110892114D01*
X83976172Y-110892109D01*
X83692160Y-110690592D01*
X83692153Y-110690588D01*
X83474402Y-110570242D01*
X83387376Y-110522145D01*
X83387369Y-110522142D01*
X83387365Y-110522140D01*
X83065648Y-110388880D01*
X82997221Y-110369166D01*
X82731013Y-110292473D01*
X82731007Y-110292472D01*
X82731004Y-110292471D01*
X82387687Y-110234140D01*
X82387693Y-110234140D01*
X82040000Y-110214615D01*
X81692309Y-110234140D01*
X81348995Y-110292471D01*
X81348989Y-110292472D01*
X81348987Y-110292473D01*
X81212142Y-110331897D01*
X81014351Y-110388880D01*
X80692634Y-110522140D01*
X80692611Y-110522152D01*
X80387846Y-110690588D01*
X80387839Y-110690592D01*
X80103827Y-110892109D01*
X80103820Y-110892114D01*
X79844161Y-111124161D01*
X79612114Y-111383820D01*
X79612109Y-111383827D01*
X79410592Y-111667839D01*
X79410588Y-111667846D01*
X79242152Y-111972611D01*
X79242140Y-111972634D01*
X79108880Y-112294351D01*
X79012471Y-112628995D01*
X78954140Y-112972309D01*
X78934615Y-113320000D01*
X78596856Y-113320000D01*
X78596856Y-105029000D01*
X87986508Y-105029000D01*
X88006354Y-105154304D01*
X88006355Y-105154305D01*
X88063949Y-105267342D01*
X88153657Y-105357050D01*
X88176041Y-105368455D01*
X88266696Y-105414646D01*
X88325421Y-105423947D01*
X88389572Y-105454358D01*
X88427099Y-105514627D01*
X88426085Y-105585616D01*
X88417975Y-105605597D01*
X88387355Y-105665692D01*
X88387354Y-105665694D01*
X88387354Y-105665696D01*
X88367508Y-105791000D01*
X88387354Y-105916304D01*
X88387355Y-105916305D01*
X88444949Y-106029342D01*
X88534657Y-106119050D01*
X88573299Y-106138738D01*
X88647696Y-106176646D01*
X88773000Y-106196492D01*
X88898304Y-106176646D01*
X89011342Y-106119050D01*
X89101050Y-106029342D01*
X89158646Y-105916304D01*
X89161768Y-105896591D01*
X89192177Y-105832437D01*
X89197104Y-105827220D01*
X89626186Y-105398138D01*
X89630204Y-105394456D01*
X89661194Y-105368455D01*
X89681415Y-105333428D01*
X89684352Y-105328817D01*
X89707554Y-105295684D01*
X89707555Y-105295681D01*
X89710157Y-105290101D01*
X89716479Y-105274838D01*
X89718587Y-105269046D01*
X89718588Y-105269045D01*
X89725607Y-105229231D01*
X89726798Y-105223863D01*
X89737264Y-105184808D01*
X89733740Y-105144518D01*
X89733500Y-105139026D01*
X89733500Y-104159597D01*
X89747233Y-104102394D01*
X89793646Y-104011304D01*
X89813492Y-103886000D01*
X89793646Y-103760696D01*
X89755738Y-103686299D01*
X89736050Y-103647657D01*
X89646342Y-103557949D01*
X89570502Y-103519307D01*
X89533304Y-103500354D01*
X89408000Y-103480508D01*
X89282696Y-103500354D01*
X89282694Y-103500354D01*
X89282694Y-103500355D01*
X89169657Y-103557949D01*
X89079949Y-103647657D01*
X89022355Y-103760694D01*
X89022354Y-103760696D01*
X89002508Y-103886000D01*
X89022354Y-104011304D01*
X89022355Y-104011305D01*
X89068767Y-104102394D01*
X89082500Y-104159597D01*
X89082500Y-104968982D01*
X89062498Y-105037103D01*
X89045594Y-105058079D01*
X89010248Y-105093424D01*
X88947935Y-105127448D01*
X88877120Y-105122382D01*
X88820285Y-105079835D01*
X88796706Y-105024040D01*
X88777646Y-104903696D01*
X88761731Y-104872463D01*
X88731233Y-104812604D01*
X88717500Y-104755402D01*
X88717500Y-103057016D01*
X88737502Y-102988895D01*
X88754400Y-102967925D01*
X89571204Y-102151120D01*
X89633515Y-102117097D01*
X89640591Y-102115768D01*
X89644933Y-102115080D01*
X89660304Y-102112646D01*
X89773342Y-102055050D01*
X89863050Y-101965342D01*
X89920646Y-101852304D01*
X89940492Y-101727000D01*
X89920646Y-101601696D01*
X89882738Y-101527299D01*
X89863050Y-101488657D01*
X89773342Y-101398949D01*
X89697502Y-101360307D01*
X89660304Y-101341354D01*
X89535000Y-101321508D01*
X89409696Y-101341354D01*
X89409694Y-101341354D01*
X89409694Y-101341355D01*
X89296657Y-101398949D01*
X89206949Y-101488657D01*
X89149354Y-101601695D01*
X89146230Y-101621416D01*
X89115815Y-101685568D01*
X89110877Y-101690795D01*
X88173843Y-102627829D01*
X88169792Y-102631542D01*
X88138806Y-102657544D01*
X88138804Y-102657547D01*
X88118589Y-102692558D01*
X88115638Y-102697191D01*
X88092445Y-102730316D01*
X88089873Y-102735832D01*
X88083493Y-102751235D01*
X88081412Y-102756952D01*
X88074392Y-102796761D01*
X88073203Y-102802126D01*
X88062736Y-102841192D01*
X88062736Y-102841194D01*
X88066260Y-102881465D01*
X88066500Y-102886959D01*
X88066500Y-104755402D01*
X88052767Y-104812604D01*
X88006355Y-104903692D01*
X88006354Y-104903694D01*
X88006354Y-104903696D01*
X87986508Y-105029000D01*
X78596856Y-105029000D01*
X78596856Y-92964000D01*
X90780508Y-92964000D01*
X90800354Y-93089304D01*
X90805853Y-93100096D01*
X90857949Y-93202342D01*
X90947657Y-93292050D01*
X90981909Y-93309502D01*
X91060696Y-93349646D01*
X91186000Y-93369492D01*
X91311304Y-93349646D01*
X91402394Y-93303232D01*
X91459597Y-93289500D01*
X103962631Y-93289500D01*
X104030752Y-93309502D01*
X104077245Y-93363158D01*
X104087349Y-93433432D01*
X104069186Y-93478177D01*
X104070452Y-93478822D01*
X104065950Y-93487658D01*
X104008354Y-93600696D01*
X103988508Y-93726000D01*
X104008354Y-93851304D01*
X104008355Y-93851305D01*
X104054767Y-93942394D01*
X104068500Y-93999597D01*
X104068500Y-97519039D01*
X104068260Y-97524532D01*
X104064736Y-97564804D01*
X104064736Y-97564806D01*
X104075203Y-97603872D01*
X104076393Y-97609240D01*
X104083412Y-97649047D01*
X104085505Y-97654796D01*
X104091866Y-97670152D01*
X104094445Y-97675683D01*
X104117634Y-97708800D01*
X104120587Y-97713436D01*
X104140806Y-97748455D01*
X104171787Y-97774451D01*
X104175829Y-97778155D01*
X106489331Y-100091657D01*
X108795877Y-102398203D01*
X108829903Y-102460515D01*
X108831230Y-102467583D01*
X108834354Y-102487304D01*
X108834355Y-102487305D01*
X108891949Y-102600342D01*
X108981657Y-102690050D01*
X109020299Y-102709738D01*
X109094696Y-102747646D01*
X109220000Y-102767492D01*
X109345304Y-102747646D01*
X109458342Y-102690050D01*
X109548050Y-102600342D01*
X109605646Y-102487304D01*
X109625492Y-102362000D01*
X109605646Y-102236696D01*
X109562044Y-102151122D01*
X109548050Y-102123657D01*
X109458342Y-102033949D01*
X109383458Y-101995794D01*
X109345304Y-101976354D01*
X109340520Y-101975596D01*
X109325583Y-101973230D01*
X109261431Y-101942816D01*
X109256203Y-101937877D01*
X104756405Y-97438079D01*
X104722379Y-97375767D01*
X104719500Y-97348984D01*
X104719500Y-93999597D01*
X104733233Y-93942394D01*
X104779646Y-93851304D01*
X104799492Y-93726000D01*
X104779646Y-93600696D01*
X104722050Y-93487658D01*
X104717548Y-93478822D01*
X104719285Y-93477936D01*
X104699575Y-93422697D01*
X104715653Y-93353545D01*
X104766566Y-93304063D01*
X104825369Y-93289500D01*
X104958500Y-93289500D01*
X105026621Y-93309502D01*
X105073114Y-93363158D01*
X105084500Y-93415500D01*
X105084500Y-97011039D01*
X105084260Y-97016532D01*
X105080736Y-97056804D01*
X105080736Y-97056806D01*
X105091203Y-97095872D01*
X105092393Y-97101240D01*
X105099412Y-97141047D01*
X105101505Y-97146796D01*
X105107866Y-97162152D01*
X105110445Y-97167683D01*
X105133634Y-97200800D01*
X105136587Y-97205436D01*
X105156806Y-97240455D01*
X105187787Y-97266451D01*
X105191829Y-97270155D01*
X107827550Y-99905877D01*
X108287877Y-100366204D01*
X108321903Y-100428516D01*
X108323230Y-100435584D01*
X108325702Y-100451191D01*
X108326354Y-100455304D01*
X108326355Y-100455305D01*
X108383949Y-100568342D01*
X108473657Y-100658050D01*
X108512299Y-100677738D01*
X108586696Y-100715646D01*
X108712000Y-100735492D01*
X108837304Y-100715646D01*
X108950342Y-100658050D01*
X109040050Y-100568342D01*
X109097646Y-100455304D01*
X109117492Y-100330000D01*
X109097646Y-100204696D01*
X109059738Y-100130299D01*
X109040050Y-100091657D01*
X108950342Y-100001949D01*
X108875458Y-99963794D01*
X108837304Y-99944354D01*
X108833191Y-99943702D01*
X108817584Y-99941230D01*
X108753432Y-99910816D01*
X108748204Y-99905877D01*
X105772405Y-96930078D01*
X105738379Y-96867766D01*
X105735500Y-96840983D01*
X105735500Y-93415500D01*
X105755502Y-93347379D01*
X105809158Y-93300886D01*
X105861500Y-93289500D01*
X106155040Y-93289500D01*
X106160525Y-93289739D01*
X106200807Y-93293264D01*
X106205338Y-93292050D01*
X106213958Y-93289740D01*
X106239870Y-93282796D01*
X106245231Y-93281607D01*
X106285045Y-93274588D01*
X106285047Y-93274586D01*
X106290838Y-93272479D01*
X106306101Y-93266157D01*
X106311681Y-93263555D01*
X106311681Y-93263554D01*
X106311684Y-93263554D01*
X106344817Y-93240352D01*
X106349428Y-93237415D01*
X106384455Y-93217194D01*
X106410453Y-93186209D01*
X106414146Y-93182178D01*
X106462204Y-93134120D01*
X106524514Y-93100096D01*
X106531591Y-93098768D01*
X106535933Y-93098080D01*
X106551304Y-93095646D01*
X106664342Y-93038050D01*
X106754050Y-92948342D01*
X106811646Y-92835304D01*
X106831492Y-92710000D01*
X106811646Y-92584696D01*
X106773738Y-92510299D01*
X106754050Y-92471657D01*
X106664342Y-92381949D01*
X106588502Y-92343307D01*
X106551304Y-92324354D01*
X106426000Y-92304508D01*
X106300696Y-92324354D01*
X106300694Y-92324354D01*
X106300694Y-92324355D01*
X106187657Y-92381949D01*
X106097951Y-92471655D01*
X106097949Y-92471658D01*
X106047993Y-92569703D01*
X105999244Y-92621318D01*
X105935726Y-92638500D01*
X91459597Y-92638500D01*
X91402394Y-92624767D01*
X91395625Y-92621318D01*
X91311304Y-92578354D01*
X91186000Y-92558508D01*
X91060696Y-92578354D01*
X91060694Y-92578354D01*
X91060694Y-92578355D01*
X90947657Y-92635949D01*
X90857949Y-92725657D01*
X90802082Y-92835304D01*
X90800354Y-92838696D01*
X90780508Y-92964000D01*
X78596856Y-92964000D01*
X78596856Y-71593957D01*
X86921685Y-71593957D01*
X86924603Y-71632911D01*
X86924735Y-71639976D01*
X86923275Y-71679008D01*
X86923276Y-71679012D01*
X86926859Y-71692386D01*
X86930798Y-71715571D01*
X86931832Y-71729372D01*
X86931834Y-71729379D01*
X86946104Y-71765740D01*
X86948313Y-71772454D01*
X86950184Y-71779435D01*
X86958424Y-71810187D01*
X86964018Y-71819090D01*
X86965790Y-71821910D01*
X86976391Y-71842910D01*
X86981447Y-71855793D01*
X87005801Y-71886332D01*
X87009890Y-71892095D01*
X87017235Y-71903783D01*
X87030677Y-71925175D01*
X87030678Y-71925175D01*
X87031184Y-71925981D01*
X87050500Y-71993022D01*
X87050500Y-75421039D01*
X87050260Y-75426526D01*
X87048871Y-75442409D01*
X87046736Y-75466804D01*
X87046736Y-75466806D01*
X87057203Y-75505872D01*
X87058393Y-75511240D01*
X87065412Y-75551047D01*
X87067505Y-75556796D01*
X87073866Y-75572152D01*
X87076445Y-75577683D01*
X87099634Y-75610800D01*
X87102587Y-75615436D01*
X87122806Y-75650455D01*
X87135649Y-75661232D01*
X87153787Y-75676451D01*
X87157829Y-75680155D01*
X88240658Y-76762984D01*
X88791595Y-77313921D01*
X88825621Y-77376233D01*
X88828500Y-77403016D01*
X88828500Y-91420402D01*
X88814767Y-91477604D01*
X88768355Y-91568692D01*
X88768354Y-91568694D01*
X88768354Y-91568696D01*
X88748508Y-91694000D01*
X88768354Y-91819304D01*
X88768355Y-91819305D01*
X88825949Y-91932342D01*
X88915657Y-92022050D01*
X88954299Y-92041738D01*
X89028696Y-92079646D01*
X89154000Y-92099492D01*
X89279304Y-92079646D01*
X89392342Y-92022050D01*
X89482050Y-91932342D01*
X89539646Y-91819304D01*
X89559492Y-91694000D01*
X89539646Y-91568696D01*
X89539644Y-91568692D01*
X89493233Y-91477604D01*
X89479500Y-91420402D01*
X89479500Y-77720794D01*
X89499502Y-77652673D01*
X89553158Y-77606180D01*
X89623432Y-77596076D01*
X89688012Y-77625570D01*
X89694595Y-77631699D01*
X90891318Y-78828422D01*
X90891321Y-78828424D01*
X90891322Y-78828425D01*
X90973118Y-78888793D01*
X90973119Y-78888793D01*
X90973120Y-78888794D01*
X90973123Y-78888795D01*
X91101298Y-78933646D01*
X91110747Y-78933999D01*
X91237010Y-78938724D01*
X91368187Y-78903575D01*
X91429464Y-78865071D01*
X91497784Y-78845766D01*
X91565698Y-78866461D01*
X91611641Y-78920588D01*
X91622500Y-78971759D01*
X91622500Y-89391039D01*
X91622260Y-89396532D01*
X91618736Y-89436804D01*
X91618736Y-89436806D01*
X91629203Y-89475872D01*
X91630393Y-89481240D01*
X91637412Y-89521047D01*
X91639505Y-89526796D01*
X91645866Y-89542152D01*
X91648445Y-89547683D01*
X91671634Y-89580800D01*
X91674587Y-89585436D01*
X91694806Y-89620455D01*
X91725781Y-89646447D01*
X91729835Y-89650162D01*
X92033578Y-89953905D01*
X92067603Y-90016217D01*
X92062538Y-90087033D01*
X92033577Y-90132095D01*
X91911795Y-90253877D01*
X91849483Y-90287903D01*
X91842416Y-90289230D01*
X91822695Y-90292354D01*
X91709657Y-90349949D01*
X91619949Y-90439657D01*
X91567177Y-90543230D01*
X91562354Y-90552696D01*
X91542508Y-90678000D01*
X91562354Y-90803304D01*
X91581307Y-90840502D01*
X91619949Y-90916342D01*
X91709657Y-91006050D01*
X91743909Y-91023502D01*
X91822696Y-91063646D01*
X91948000Y-91083492D01*
X92073304Y-91063646D01*
X92164394Y-91017232D01*
X92221597Y-91003500D01*
X105427726Y-91003500D01*
X105495847Y-91023502D01*
X105539993Y-91072297D01*
X105589949Y-91170341D01*
X105589951Y-91170344D01*
X105679657Y-91260050D01*
X105718299Y-91279738D01*
X105792696Y-91317646D01*
X105918000Y-91337492D01*
X106043304Y-91317646D01*
X106156342Y-91260050D01*
X106246050Y-91170342D01*
X106303646Y-91057304D01*
X106323492Y-90932000D01*
X106303646Y-90806696D01*
X106265738Y-90732299D01*
X106246050Y-90693657D01*
X106156342Y-90603949D01*
X106081458Y-90565794D01*
X106043304Y-90546354D01*
X106038520Y-90545596D01*
X106023583Y-90543230D01*
X105959431Y-90512816D01*
X105954203Y-90507877D01*
X105906165Y-90459839D01*
X105902450Y-90455786D01*
X105876454Y-90424805D01*
X105876451Y-90424803D01*
X105841435Y-90404586D01*
X105836800Y-90401633D01*
X105803683Y-90378445D01*
X105798152Y-90375866D01*
X105782796Y-90369505D01*
X105777047Y-90367412D01*
X105753174Y-90363202D01*
X105737234Y-90360391D01*
X105731872Y-90359203D01*
X105692808Y-90348736D01*
X105692805Y-90348736D01*
X105681127Y-90349757D01*
X105652524Y-90352260D01*
X105647040Y-90352500D01*
X92908288Y-90352500D01*
X92840167Y-90332498D01*
X92793674Y-90278842D01*
X92783570Y-90208568D01*
X92785032Y-90201436D01*
X92785261Y-90198812D01*
X92785263Y-90198807D01*
X92783052Y-90173541D01*
X92781740Y-90158529D01*
X92781500Y-90153037D01*
X92781500Y-89932948D01*
X92781740Y-89927455D01*
X92785263Y-89887193D01*
X92774794Y-89848126D01*
X92773610Y-89842779D01*
X92766588Y-89802955D01*
X92764492Y-89797196D01*
X92758146Y-89781876D01*
X92755553Y-89776316D01*
X92732364Y-89743198D01*
X92729410Y-89738561D01*
X92709195Y-89703547D01*
X92709194Y-89703545D01*
X92678215Y-89677550D01*
X92674175Y-89673848D01*
X92310405Y-89310078D01*
X92276379Y-89247766D01*
X92273500Y-89220983D01*
X92273500Y-79480045D01*
X92293502Y-79411924D01*
X92347158Y-79365431D01*
X92417432Y-79355327D01*
X92470477Y-79375939D01*
X92512327Y-79404472D01*
X92544769Y-79414479D01*
X92642095Y-79444500D01*
X92642098Y-79444500D01*
X107921157Y-79444500D01*
X107928211Y-79444895D01*
X107967035Y-79449270D01*
X107967035Y-79449269D01*
X107967036Y-79449270D01*
X107967036Y-79449269D01*
X107992397Y-79444470D01*
X108025478Y-79438212D01*
X108056636Y-79433515D01*
X108084287Y-79429348D01*
X108084295Y-79429343D01*
X108092472Y-79426821D01*
X108100472Y-79424023D01*
X108153073Y-79396222D01*
X108170484Y-79387836D01*
X108206642Y-79370425D01*
X108206646Y-79370421D01*
X108213685Y-79365622D01*
X108220531Y-79360569D01*
X108220538Y-79360566D01*
X108262600Y-79318503D01*
X108306194Y-79278055D01*
X108306197Y-79278048D01*
X108312081Y-79270672D01*
X108312762Y-79271215D01*
X108322219Y-79258883D01*
X109485354Y-78095748D01*
X116307500Y-78095748D01*
X116309489Y-78105746D01*
X116318161Y-78149348D01*
X116319133Y-78154231D01*
X116363448Y-78220552D01*
X116429769Y-78264867D01*
X116488252Y-78276500D01*
X116488253Y-78276500D01*
X118227747Y-78276500D01*
X118227748Y-78276500D01*
X118286231Y-78264867D01*
X118352552Y-78220552D01*
X118396867Y-78154231D01*
X118408500Y-78095748D01*
X123165500Y-78095748D01*
X123167489Y-78105746D01*
X123176161Y-78149348D01*
X123177133Y-78154231D01*
X123221448Y-78220552D01*
X123287769Y-78264867D01*
X123346252Y-78276500D01*
X123346253Y-78276500D01*
X125085747Y-78276500D01*
X125085748Y-78276500D01*
X125144231Y-78264867D01*
X125210552Y-78220552D01*
X125254867Y-78154231D01*
X125264510Y-78105750D01*
X130277500Y-78105750D01*
X130288682Y-78161967D01*
X130289133Y-78164231D01*
X130333448Y-78230552D01*
X130399769Y-78274867D01*
X130458252Y-78286500D01*
X130458253Y-78286500D01*
X132197747Y-78286500D01*
X132197748Y-78286500D01*
X132256231Y-78274867D01*
X132322552Y-78230552D01*
X132366867Y-78164231D01*
X132378500Y-78105748D01*
X132378500Y-76366252D01*
X132366867Y-76307769D01*
X132322552Y-76241448D01*
X132256231Y-76197133D01*
X132256228Y-76197132D01*
X132197750Y-76185500D01*
X132197748Y-76185500D01*
X130458252Y-76185500D01*
X130458249Y-76185500D01*
X130399771Y-76197132D01*
X130399768Y-76197133D01*
X130333448Y-76241448D01*
X130289133Y-76307768D01*
X130289132Y-76307771D01*
X130277500Y-76366249D01*
X130277500Y-78105750D01*
X125264510Y-78105750D01*
X125266500Y-78095748D01*
X125266500Y-76356252D01*
X125254867Y-76297769D01*
X125210552Y-76231448D01*
X125144231Y-76187133D01*
X125144228Y-76187132D01*
X125085750Y-76175500D01*
X125085748Y-76175500D01*
X123346252Y-76175500D01*
X123346249Y-76175500D01*
X123287771Y-76187132D01*
X123287768Y-76187133D01*
X123221448Y-76231448D01*
X123177133Y-76297768D01*
X123177132Y-76297771D01*
X123165500Y-76356249D01*
X123165500Y-76356252D01*
X123165500Y-78095748D01*
X118408500Y-78095748D01*
X118408500Y-76356252D01*
X118396867Y-76297769D01*
X118352552Y-76231448D01*
X118286231Y-76187133D01*
X118286228Y-76187132D01*
X118227750Y-76175500D01*
X118227748Y-76175500D01*
X116488252Y-76175500D01*
X116488249Y-76175500D01*
X116429771Y-76187132D01*
X116429768Y-76187133D01*
X116363448Y-76231448D01*
X116319133Y-76297768D01*
X116319132Y-76297771D01*
X116307500Y-76356249D01*
X116307500Y-76356252D01*
X116307500Y-78095748D01*
X109485354Y-78095748D01*
X112417698Y-75163405D01*
X112480010Y-75129379D01*
X112506793Y-75126500D01*
X116326781Y-75126500D01*
X116394902Y-75146502D01*
X116437901Y-75193101D01*
X116480313Y-75272447D01*
X116480316Y-75272451D01*
X116604512Y-75423786D01*
X116611590Y-75432410D01*
X116771550Y-75563685D01*
X116954046Y-75661232D01*
X117152066Y-75721300D01*
X117152070Y-75721300D01*
X117152072Y-75721301D01*
X117357997Y-75741583D01*
X117358000Y-75741583D01*
X117358003Y-75741583D01*
X117563927Y-75721301D01*
X117563928Y-75721300D01*
X117563934Y-75721300D01*
X117761954Y-75661232D01*
X117944450Y-75563685D01*
X118104410Y-75432410D01*
X118235685Y-75272450D01*
X118333232Y-75089954D01*
X118393300Y-74891934D01*
X118412599Y-74695996D01*
X118413583Y-74686003D01*
X123160417Y-74686003D01*
X123180698Y-74891927D01*
X123180699Y-74891933D01*
X123180700Y-74891934D01*
X123240768Y-75089954D01*
X123338315Y-75272450D01*
X123469590Y-75432410D01*
X123629550Y-75563685D01*
X123812046Y-75661232D01*
X124010066Y-75721300D01*
X124010070Y-75721300D01*
X124010072Y-75721301D01*
X124215997Y-75741583D01*
X124216000Y-75741583D01*
X124216003Y-75741583D01*
X124421927Y-75721301D01*
X124421928Y-75721300D01*
X124421934Y-75721300D01*
X124619954Y-75661232D01*
X124802450Y-75563685D01*
X124962410Y-75432410D01*
X125093685Y-75272450D01*
X125191232Y-75089954D01*
X125251300Y-74891934D01*
X125270598Y-74696003D01*
X130272417Y-74696003D01*
X130292698Y-74901927D01*
X130352768Y-75099954D01*
X130447811Y-75277767D01*
X130450315Y-75282450D01*
X130581590Y-75442410D01*
X130741550Y-75573685D01*
X130924046Y-75671232D01*
X131122066Y-75731300D01*
X131122070Y-75731300D01*
X131122072Y-75731301D01*
X131327997Y-75751583D01*
X131328000Y-75751583D01*
X131328003Y-75751583D01*
X131533927Y-75731301D01*
X131533928Y-75731300D01*
X131533934Y-75731300D01*
X131731954Y-75671232D01*
X131914450Y-75573685D01*
X132074410Y-75442410D01*
X132205685Y-75282450D01*
X132303232Y-75099954D01*
X132363300Y-74901934D01*
X132383583Y-74696000D01*
X132383583Y-74695996D01*
X132363301Y-74490072D01*
X132363300Y-74490070D01*
X132363300Y-74490066D01*
X132303232Y-74292046D01*
X132205685Y-74109550D01*
X132074410Y-73949590D01*
X131914450Y-73818315D01*
X131914448Y-73818314D01*
X131914447Y-73818313D01*
X131731954Y-73720768D01*
X131533927Y-73660698D01*
X131328003Y-73640417D01*
X131327997Y-73640417D01*
X131122072Y-73660698D01*
X130924045Y-73720768D01*
X130741552Y-73818313D01*
X130581590Y-73949590D01*
X130450313Y-74109552D01*
X130352768Y-74292045D01*
X130292698Y-74490072D01*
X130272417Y-74695996D01*
X130272417Y-74696003D01*
X125270598Y-74696003D01*
X125270599Y-74695996D01*
X125271583Y-74686003D01*
X125271583Y-74685996D01*
X125251301Y-74480072D01*
X125251300Y-74480070D01*
X125251300Y-74480066D01*
X125191232Y-74282046D01*
X125093685Y-74099550D01*
X124962410Y-73939590D01*
X124802450Y-73808315D01*
X124802448Y-73808314D01*
X124802447Y-73808313D01*
X124619954Y-73710768D01*
X124421927Y-73650698D01*
X124216003Y-73630417D01*
X124215997Y-73630417D01*
X124010072Y-73650698D01*
X123812045Y-73710768D01*
X123629552Y-73808313D01*
X123469590Y-73939590D01*
X123338313Y-74099552D01*
X123240768Y-74282045D01*
X123180698Y-74480072D01*
X123160417Y-74685996D01*
X123160417Y-74686003D01*
X118413583Y-74686003D01*
X118413583Y-74685996D01*
X118393301Y-74480072D01*
X118393300Y-74480070D01*
X118393300Y-74480066D01*
X118333232Y-74282046D01*
X118235685Y-74099550D01*
X118104410Y-73939590D01*
X117944450Y-73808315D01*
X117944448Y-73808314D01*
X117944447Y-73808313D01*
X117761954Y-73710768D01*
X117563927Y-73650698D01*
X117358003Y-73630417D01*
X117357997Y-73630417D01*
X117152072Y-73650698D01*
X116954045Y-73710768D01*
X116771552Y-73808313D01*
X116611590Y-73939590D01*
X116480313Y-74099552D01*
X116448594Y-74158896D01*
X116398842Y-74209544D01*
X116337472Y-74225500D01*
X112296843Y-74225500D01*
X112289788Y-74225104D01*
X112250965Y-74220730D01*
X112250964Y-74220730D01*
X112250963Y-74220730D01*
X112250962Y-74220730D01*
X112207131Y-74229023D01*
X112192520Y-74231788D01*
X112133713Y-74240652D01*
X112133711Y-74240653D01*
X112125536Y-74243174D01*
X112117528Y-74245977D01*
X112064936Y-74273773D01*
X112047757Y-74282046D01*
X112011357Y-74299575D01*
X112004331Y-74304365D01*
X111997462Y-74309434D01*
X111955413Y-74351483D01*
X111911808Y-74391942D01*
X111905919Y-74399327D01*
X111905244Y-74398789D01*
X111895779Y-74411116D01*
X107800302Y-78506595D01*
X107737990Y-78540620D01*
X107711207Y-78543500D01*
X92676238Y-78543500D01*
X92575713Y-78558652D01*
X92575711Y-78558652D01*
X92575710Y-78558653D01*
X92454169Y-78617184D01*
X92384116Y-78628719D01*
X92318947Y-78600550D01*
X92279353Y-78541619D01*
X92273500Y-78503662D01*
X92273500Y-73148793D01*
X92293502Y-73080672D01*
X92347158Y-73034179D01*
X92417432Y-73024075D01*
X92482012Y-73053569D01*
X92488580Y-73059684D01*
X97441056Y-78012159D01*
X97445758Y-78017421D01*
X97462571Y-78038503D01*
X97470121Y-78047970D01*
X97519271Y-78081480D01*
X97567118Y-78116793D01*
X97567121Y-78116794D01*
X97574660Y-78120779D01*
X97582324Y-78124470D01*
X97582327Y-78124472D01*
X97639177Y-78142007D01*
X97695301Y-78161646D01*
X97695307Y-78161646D01*
X97703715Y-78163237D01*
X97712094Y-78164500D01*
X97771574Y-78164500D01*
X97831010Y-78166724D01*
X97831016Y-78166722D01*
X97840390Y-78165667D01*
X97840487Y-78166528D01*
X97855897Y-78164500D01*
X106915157Y-78164500D01*
X106922211Y-78164895D01*
X106961035Y-78169270D01*
X106961035Y-78169269D01*
X106961036Y-78169270D01*
X106961036Y-78169269D01*
X106987681Y-78164228D01*
X107019478Y-78158212D01*
X107050636Y-78153515D01*
X107078287Y-78149348D01*
X107078295Y-78149343D01*
X107086472Y-78146821D01*
X107094472Y-78144023D01*
X107147073Y-78116222D01*
X107168826Y-78105746D01*
X107200642Y-78090425D01*
X107200646Y-78090421D01*
X107207685Y-78085622D01*
X107214531Y-78080569D01*
X107214538Y-78080566D01*
X107256600Y-78038503D01*
X107300194Y-77998055D01*
X107300197Y-77998048D01*
X107306081Y-77990672D01*
X107306762Y-77991215D01*
X107316219Y-77978883D01*
X112661698Y-72633405D01*
X112724010Y-72599379D01*
X112750793Y-72596500D01*
X116332127Y-72596500D01*
X116400248Y-72616502D01*
X116443249Y-72663104D01*
X116473958Y-72720558D01*
X116480315Y-72732450D01*
X116611590Y-72892410D01*
X116771550Y-73023685D01*
X116954046Y-73121232D01*
X117152066Y-73181300D01*
X117152070Y-73181300D01*
X117152072Y-73181301D01*
X117357997Y-73201583D01*
X117358000Y-73201583D01*
X117358003Y-73201583D01*
X117563927Y-73181301D01*
X117563928Y-73181300D01*
X117563934Y-73181300D01*
X117761954Y-73121232D01*
X117944450Y-73023685D01*
X118104410Y-72892410D01*
X118235685Y-72732450D01*
X118333232Y-72549954D01*
X118393300Y-72351934D01*
X118397894Y-72305299D01*
X118413583Y-72146003D01*
X118413583Y-72145996D01*
X118393301Y-71940072D01*
X118393300Y-71940070D01*
X118393300Y-71940066D01*
X118333232Y-71742046D01*
X118235685Y-71559550D01*
X118104410Y-71399590D01*
X117944450Y-71268315D01*
X117944448Y-71268314D01*
X117944447Y-71268313D01*
X117761955Y-71170768D01*
X117740042Y-71164121D01*
X117721104Y-71158376D01*
X117661724Y-71119462D01*
X117632808Y-71054620D01*
X117643539Y-70984439D01*
X117690509Y-70931200D01*
X117716769Y-70918629D01*
X117905369Y-70853883D01*
X117905371Y-70853882D01*
X118103300Y-70746768D01*
X118103301Y-70746767D01*
X118280902Y-70608534D01*
X118433325Y-70442958D01*
X118556419Y-70254548D01*
X118646820Y-70048456D01*
X118646823Y-70048449D01*
X118694544Y-69860000D01*
X122879455Y-69860000D01*
X122927176Y-70048449D01*
X122927179Y-70048456D01*
X123017580Y-70254548D01*
X123140674Y-70442958D01*
X123293097Y-70608534D01*
X123470698Y-70746767D01*
X123470699Y-70746768D01*
X123668628Y-70853882D01*
X123668630Y-70853883D01*
X123857230Y-70918629D01*
X123915165Y-70959666D01*
X123941717Y-71025511D01*
X123928456Y-71095258D01*
X123879591Y-71146763D01*
X123852894Y-71158376D01*
X123812051Y-71170765D01*
X123812046Y-71170767D01*
X123629552Y-71268313D01*
X123469590Y-71399590D01*
X123338313Y-71559552D01*
X123240768Y-71742045D01*
X123180698Y-71940072D01*
X123160417Y-72145996D01*
X123160417Y-72146003D01*
X123180698Y-72351927D01*
X123180699Y-72351933D01*
X123180700Y-72351934D01*
X123189862Y-72382138D01*
X123240768Y-72549954D01*
X123331958Y-72720558D01*
X123338315Y-72732450D01*
X123469590Y-72892410D01*
X123629550Y-73023685D01*
X123812046Y-73121232D01*
X124010066Y-73181300D01*
X124010070Y-73181300D01*
X124010072Y-73181301D01*
X124215997Y-73201583D01*
X124216000Y-73201583D01*
X124216003Y-73201583D01*
X124421927Y-73181301D01*
X124421928Y-73181300D01*
X124421934Y-73181300D01*
X124619954Y-73121232D01*
X124802450Y-73023685D01*
X124962410Y-72892410D01*
X125093685Y-72732450D01*
X125191232Y-72549954D01*
X125251300Y-72351934D01*
X125255894Y-72305299D01*
X125271583Y-72146003D01*
X125271583Y-72145996D01*
X125251301Y-71940072D01*
X125251300Y-71940070D01*
X125251300Y-71940066D01*
X125191232Y-71742046D01*
X125093685Y-71559550D01*
X124962410Y-71399590D01*
X124802450Y-71268315D01*
X124802448Y-71268314D01*
X124802447Y-71268313D01*
X124619955Y-71170768D01*
X124598042Y-71164121D01*
X124579104Y-71158376D01*
X124519724Y-71119462D01*
X124490808Y-71054620D01*
X124501539Y-70984439D01*
X124548509Y-70931200D01*
X124574769Y-70918629D01*
X124763369Y-70853883D01*
X124763371Y-70853882D01*
X124961300Y-70746768D01*
X124961301Y-70746767D01*
X125138902Y-70608534D01*
X125291325Y-70442958D01*
X125414419Y-70254548D01*
X125504820Y-70048456D01*
X125504823Y-70048449D01*
X125550012Y-69870000D01*
X129991455Y-69870000D01*
X130039176Y-70058449D01*
X130039179Y-70058456D01*
X130129580Y-70264548D01*
X130252674Y-70452958D01*
X130405097Y-70618534D01*
X130582698Y-70756767D01*
X130582699Y-70756768D01*
X130780628Y-70863882D01*
X130780630Y-70863883D01*
X130969230Y-70928629D01*
X131027165Y-70969666D01*
X131053717Y-71035511D01*
X131040456Y-71105258D01*
X130991591Y-71156763D01*
X130964894Y-71168376D01*
X130924051Y-71180765D01*
X130924046Y-71180767D01*
X130741552Y-71278313D01*
X130581590Y-71409590D01*
X130450313Y-71569552D01*
X130352768Y-71752045D01*
X130292698Y-71950072D01*
X130272417Y-72155996D01*
X130272417Y-72156003D01*
X130292698Y-72361927D01*
X130352768Y-72559954D01*
X130444969Y-72732450D01*
X130450315Y-72742450D01*
X130581590Y-72902410D01*
X130741550Y-73033685D01*
X130924046Y-73131232D01*
X131122066Y-73191300D01*
X131122070Y-73191300D01*
X131122072Y-73191301D01*
X131327997Y-73211583D01*
X131328000Y-73211583D01*
X131328003Y-73211583D01*
X131533927Y-73191301D01*
X131533928Y-73191300D01*
X131533934Y-73191300D01*
X131731954Y-73131232D01*
X131914450Y-73033685D01*
X132074410Y-72902410D01*
X132205685Y-72742450D01*
X132303232Y-72559954D01*
X132363300Y-72361934D01*
X132371683Y-72276828D01*
X132383583Y-72156003D01*
X132383583Y-72155996D01*
X132363301Y-71950072D01*
X132363300Y-71950070D01*
X132363300Y-71950066D01*
X132303232Y-71752046D01*
X132205685Y-71569550D01*
X132074410Y-71409590D01*
X131914450Y-71278315D01*
X131914448Y-71278314D01*
X131914447Y-71278313D01*
X131731955Y-71180768D01*
X131698988Y-71170768D01*
X131691104Y-71168376D01*
X131631724Y-71129462D01*
X131602808Y-71064620D01*
X131613539Y-70994439D01*
X131660509Y-70941200D01*
X131686769Y-70928629D01*
X131875369Y-70863883D01*
X131875371Y-70863882D01*
X132073300Y-70756768D01*
X132073301Y-70756767D01*
X132250902Y-70618534D01*
X132403325Y-70452958D01*
X132526419Y-70264548D01*
X132616820Y-70058456D01*
X132616823Y-70058449D01*
X132664544Y-69870000D01*
X131759116Y-69870000D01*
X131787493Y-69825844D01*
X131828000Y-69687889D01*
X131828000Y-69544111D01*
X131787493Y-69406156D01*
X131759116Y-69362000D01*
X132664544Y-69362000D01*
X132664544Y-69361999D01*
X132616823Y-69173550D01*
X132616820Y-69173543D01*
X132526419Y-68967451D01*
X132403325Y-68779041D01*
X132250902Y-68613465D01*
X132073301Y-68475232D01*
X132073300Y-68475231D01*
X131875371Y-68368117D01*
X131875369Y-68368116D01*
X131662512Y-68295043D01*
X131662501Y-68295040D01*
X131582000Y-68281606D01*
X131582000Y-69182325D01*
X131470315Y-69131320D01*
X131363763Y-69116000D01*
X131292237Y-69116000D01*
X131185685Y-69131320D01*
X131074000Y-69182325D01*
X131074000Y-68281607D01*
X131073999Y-68281606D01*
X130993498Y-68295040D01*
X130993487Y-68295043D01*
X130780630Y-68368116D01*
X130780628Y-68368117D01*
X130582699Y-68475231D01*
X130582698Y-68475232D01*
X130405097Y-68613465D01*
X130252674Y-68779041D01*
X130129580Y-68967451D01*
X130039179Y-69173543D01*
X130039176Y-69173550D01*
X129991455Y-69361999D01*
X129991456Y-69362000D01*
X130896884Y-69362000D01*
X130868507Y-69406156D01*
X130828000Y-69544111D01*
X130828000Y-69687889D01*
X130868507Y-69825844D01*
X130896884Y-69870000D01*
X129991455Y-69870000D01*
X125550012Y-69870000D01*
X125552544Y-69860000D01*
X124647116Y-69860000D01*
X124675493Y-69815844D01*
X124716000Y-69677889D01*
X124716000Y-69534111D01*
X124675493Y-69396156D01*
X124647116Y-69352000D01*
X125552544Y-69352000D01*
X125552544Y-69351999D01*
X125504823Y-69163550D01*
X125504820Y-69163543D01*
X125414419Y-68957451D01*
X125291325Y-68769041D01*
X125138902Y-68603465D01*
X124961301Y-68465232D01*
X124961300Y-68465231D01*
X124763371Y-68358117D01*
X124763369Y-68358116D01*
X124550512Y-68285043D01*
X124550501Y-68285040D01*
X124470000Y-68271606D01*
X124470000Y-69172325D01*
X124358315Y-69121320D01*
X124251763Y-69106000D01*
X124180237Y-69106000D01*
X124073685Y-69121320D01*
X123962000Y-69172325D01*
X123962000Y-68271607D01*
X123961999Y-68271606D01*
X123881498Y-68285040D01*
X123881487Y-68285043D01*
X123668630Y-68358116D01*
X123668628Y-68358117D01*
X123470699Y-68465231D01*
X123470698Y-68465232D01*
X123293097Y-68603465D01*
X123140674Y-68769041D01*
X123017580Y-68957451D01*
X122927179Y-69163543D01*
X122927176Y-69163550D01*
X122879455Y-69351999D01*
X122879456Y-69352000D01*
X123784884Y-69352000D01*
X123756507Y-69396156D01*
X123716000Y-69534111D01*
X123716000Y-69677889D01*
X123756507Y-69815844D01*
X123784884Y-69860000D01*
X122879455Y-69860000D01*
X118694544Y-69860000D01*
X117789116Y-69860000D01*
X117817493Y-69815844D01*
X117858000Y-69677889D01*
X117858000Y-69534111D01*
X117817493Y-69396156D01*
X117789116Y-69352000D01*
X118694544Y-69352000D01*
X118694544Y-69351999D01*
X118646823Y-69163550D01*
X118646820Y-69163543D01*
X118556419Y-68957451D01*
X118433325Y-68769041D01*
X118280902Y-68603465D01*
X118103301Y-68465232D01*
X118103300Y-68465231D01*
X117905371Y-68358117D01*
X117905369Y-68358116D01*
X117692512Y-68285043D01*
X117692501Y-68285040D01*
X117612000Y-68271606D01*
X117612000Y-69172325D01*
X117500315Y-69121320D01*
X117393763Y-69106000D01*
X117322237Y-69106000D01*
X117215685Y-69121320D01*
X117104000Y-69172325D01*
X117104000Y-68271607D01*
X117103999Y-68271606D01*
X117023498Y-68285040D01*
X117023487Y-68285043D01*
X116810630Y-68358116D01*
X116810628Y-68358117D01*
X116612699Y-68465231D01*
X116612698Y-68465232D01*
X116435097Y-68603465D01*
X116282674Y-68769041D01*
X116159580Y-68957451D01*
X116069179Y-69163543D01*
X116069176Y-69163550D01*
X116021455Y-69351999D01*
X116021456Y-69352000D01*
X116926884Y-69352000D01*
X116898507Y-69396156D01*
X116858000Y-69534111D01*
X116858000Y-69677889D01*
X116898507Y-69815844D01*
X116926884Y-69860000D01*
X116021455Y-69860000D01*
X116069176Y-70048449D01*
X116069179Y-70048456D01*
X116159580Y-70254548D01*
X116282674Y-70442958D01*
X116435097Y-70608534D01*
X116612698Y-70746767D01*
X116612699Y-70746768D01*
X116810628Y-70853882D01*
X116810630Y-70853883D01*
X116999230Y-70918629D01*
X117057165Y-70959666D01*
X117083717Y-71025511D01*
X117070456Y-71095258D01*
X117021591Y-71146763D01*
X116994894Y-71158376D01*
X116954051Y-71170765D01*
X116954046Y-71170767D01*
X116771552Y-71268313D01*
X116611590Y-71399590D01*
X116480313Y-71559552D01*
X116461924Y-71593957D01*
X116445143Y-71625353D01*
X116443249Y-71628896D01*
X116393497Y-71679544D01*
X116332127Y-71695500D01*
X112540843Y-71695500D01*
X112533788Y-71695104D01*
X112494965Y-71690730D01*
X112494964Y-71690730D01*
X112494963Y-71690730D01*
X112494962Y-71690730D01*
X112451131Y-71699023D01*
X112436520Y-71701788D01*
X112377713Y-71710652D01*
X112377711Y-71710653D01*
X112369536Y-71713174D01*
X112361528Y-71715977D01*
X112308936Y-71743773D01*
X112291757Y-71752046D01*
X112255357Y-71769575D01*
X112248331Y-71774365D01*
X112241462Y-71779434D01*
X112199413Y-71821483D01*
X112155808Y-71861942D01*
X112149919Y-71869327D01*
X112149244Y-71868789D01*
X112139779Y-71881116D01*
X106794302Y-77226595D01*
X106731990Y-77260621D01*
X106705207Y-77263500D01*
X98018794Y-77263500D01*
X97950673Y-77243498D01*
X97929699Y-77226595D01*
X93154427Y-72451324D01*
X93120401Y-72389012D01*
X93123119Y-72325091D01*
X93138006Y-72276828D01*
X93156039Y-72225292D01*
X93157646Y-72220700D01*
X93157646Y-72220691D01*
X93159229Y-72212325D01*
X93160500Y-72203901D01*
X93160500Y-72144426D01*
X93160801Y-72136379D01*
X93162724Y-72084990D01*
X93162722Y-72084984D01*
X93161667Y-72075608D01*
X93162528Y-72075510D01*
X93160500Y-72060102D01*
X93160500Y-67784242D01*
X93160500Y-67784238D01*
X93145348Y-67683713D01*
X93086425Y-67561358D01*
X92994055Y-67461806D01*
X92948292Y-67435385D01*
X92876443Y-67393903D01*
X92876445Y-67393903D01*
X92744048Y-67363685D01*
X92744047Y-67363685D01*
X92744046Y-67363685D01*
X92712155Y-67366075D01*
X92608620Y-67373834D01*
X92560368Y-67392771D01*
X92489648Y-67399038D01*
X92426767Y-67366075D01*
X92391689Y-67304350D01*
X92395551Y-67233458D01*
X92402945Y-67216591D01*
X92406791Y-67209314D01*
X92410471Y-67201674D01*
X92410470Y-67201674D01*
X92410472Y-67201673D01*
X92428007Y-67144822D01*
X92447646Y-67088699D01*
X92447646Y-67088696D01*
X92449229Y-67080330D01*
X92450500Y-67071901D01*
X92450500Y-67012441D01*
X92452725Y-66952990D01*
X92452723Y-66952985D01*
X92451668Y-66943605D01*
X92452527Y-66943508D01*
X92450500Y-66928096D01*
X92450500Y-66615873D01*
X92470502Y-66547752D01*
X92517103Y-66504751D01*
X92586450Y-66467685D01*
X92746410Y-66336410D01*
X92877685Y-66176450D01*
X92975232Y-65993954D01*
X93035300Y-65795934D01*
X93048503Y-65661889D01*
X93055583Y-65590003D01*
X93484417Y-65590003D01*
X93504698Y-65795927D01*
X93504699Y-65795933D01*
X93504700Y-65795934D01*
X93564768Y-65993954D01*
X93662315Y-66176450D01*
X93793590Y-66336410D01*
X93953550Y-66467685D01*
X94136046Y-66565232D01*
X94334066Y-66625300D01*
X94334070Y-66625300D01*
X94334072Y-66625301D01*
X94539997Y-66645583D01*
X94540000Y-66645583D01*
X94540003Y-66645583D01*
X94745927Y-66625301D01*
X94745928Y-66625300D01*
X94745934Y-66625300D01*
X94943954Y-66565232D01*
X95126450Y-66467685D01*
X95286410Y-66336410D01*
X95417685Y-66176450D01*
X95515232Y-65993954D01*
X95528806Y-65949204D01*
X95567720Y-65889823D01*
X95632561Y-65860906D01*
X95702742Y-65871635D01*
X95755981Y-65918604D01*
X95771525Y-65954847D01*
X95791176Y-66032449D01*
X95791179Y-66032456D01*
X95881580Y-66238548D01*
X96004674Y-66426958D01*
X96157097Y-66592534D01*
X96334698Y-66730767D01*
X96334699Y-66730768D01*
X96532628Y-66837882D01*
X96532630Y-66837883D01*
X96745483Y-66910955D01*
X96745492Y-66910957D01*
X96826000Y-66924391D01*
X96826000Y-66023674D01*
X96937685Y-66074680D01*
X97044237Y-66090000D01*
X97115763Y-66090000D01*
X97222315Y-66074680D01*
X97334000Y-66023674D01*
X97334000Y-66924390D01*
X97414507Y-66910957D01*
X97414516Y-66910955D01*
X97627369Y-66837883D01*
X97627371Y-66837882D01*
X97825300Y-66730768D01*
X97825301Y-66730767D01*
X98002902Y-66592534D01*
X98155325Y-66426958D01*
X98278419Y-66238548D01*
X98368820Y-66032457D01*
X98388473Y-65954848D01*
X98424585Y-65893722D01*
X98488012Y-65861822D01*
X98558616Y-65869278D01*
X98613981Y-65913722D01*
X98631192Y-65949200D01*
X98635121Y-65962153D01*
X98644768Y-65993955D01*
X98665348Y-66032457D01*
X98742315Y-66176450D01*
X98873590Y-66336410D01*
X99033550Y-66467685D01*
X99216046Y-66565232D01*
X99414066Y-66625300D01*
X99414070Y-66625300D01*
X99414072Y-66625301D01*
X99619997Y-66645583D01*
X99620000Y-66645583D01*
X99620003Y-66645583D01*
X99825927Y-66625301D01*
X99825928Y-66625300D01*
X99825934Y-66625300D01*
X100023954Y-66565232D01*
X100206450Y-66467685D01*
X100366410Y-66336410D01*
X100497685Y-66176450D01*
X100595232Y-65993954D01*
X100655300Y-65795934D01*
X100668503Y-65661889D01*
X100675583Y-65590003D01*
X100675583Y-65589996D01*
X100655301Y-65384072D01*
X100655300Y-65384070D01*
X100655300Y-65384066D01*
X100595232Y-65186046D01*
X100497685Y-65003550D01*
X100366410Y-64843590D01*
X100206450Y-64712315D01*
X100206448Y-64712314D01*
X100206447Y-64712313D01*
X100023954Y-64614768D01*
X99983106Y-64602377D01*
X99825934Y-64554700D01*
X99825933Y-64554699D01*
X99825927Y-64554698D01*
X99620003Y-64534417D01*
X99619997Y-64534417D01*
X99414072Y-64554698D01*
X99216045Y-64614768D01*
X99033552Y-64712313D01*
X98873590Y-64843590D01*
X98742313Y-65003552D01*
X98644767Y-65186046D01*
X98644765Y-65186051D01*
X98631192Y-65230797D01*
X98592277Y-65290178D01*
X98527435Y-65319094D01*
X98457254Y-65308363D01*
X98404016Y-65261393D01*
X98388473Y-65225151D01*
X98368820Y-65147542D01*
X98278419Y-64941451D01*
X98155325Y-64753041D01*
X98002902Y-64587465D01*
X97825301Y-64449232D01*
X97825300Y-64449231D01*
X97627371Y-64342117D01*
X97627368Y-64342116D01*
X97438769Y-64277370D01*
X97380834Y-64236333D01*
X97354282Y-64170488D01*
X97367544Y-64100741D01*
X97416408Y-64049236D01*
X97443105Y-64037623D01*
X97483954Y-64025232D01*
X97666450Y-63927685D01*
X97826410Y-63796410D01*
X97957685Y-63636450D01*
X98055232Y-63453954D01*
X98115300Y-63255934D01*
X98128503Y-63121889D01*
X98135583Y-63050003D01*
X98564417Y-63050003D01*
X98584698Y-63255927D01*
X98584699Y-63255933D01*
X98584700Y-63255934D01*
X98604409Y-63320906D01*
X98644768Y-63453954D01*
X98732980Y-63618987D01*
X98742315Y-63636450D01*
X98873590Y-63796410D01*
X99033550Y-63927685D01*
X99216046Y-64025232D01*
X99414066Y-64085300D01*
X99414070Y-64085300D01*
X99414072Y-64085301D01*
X99619997Y-64105583D01*
X99620000Y-64105583D01*
X99620003Y-64105583D01*
X99825927Y-64085301D01*
X99825928Y-64085300D01*
X99825934Y-64085300D01*
X100023954Y-64025232D01*
X100206450Y-63927685D01*
X100366410Y-63796410D01*
X100497685Y-63636450D01*
X100595232Y-63453954D01*
X100608806Y-63409204D01*
X100647720Y-63349823D01*
X100712561Y-63320906D01*
X100782742Y-63331635D01*
X100835981Y-63378604D01*
X100851525Y-63414847D01*
X100871176Y-63492449D01*
X100871179Y-63492456D01*
X100961580Y-63698548D01*
X101084674Y-63886958D01*
X101237097Y-64052534D01*
X101414698Y-64190767D01*
X101414699Y-64190768D01*
X101612628Y-64297882D01*
X101612630Y-64297883D01*
X101801230Y-64362629D01*
X101859165Y-64403666D01*
X101885717Y-64469511D01*
X101872456Y-64539258D01*
X101823591Y-64590763D01*
X101796894Y-64602376D01*
X101756051Y-64614765D01*
X101756046Y-64614767D01*
X101573552Y-64712313D01*
X101413590Y-64843590D01*
X101282313Y-65003552D01*
X101184768Y-65186045D01*
X101124698Y-65384072D01*
X101104417Y-65589996D01*
X101104417Y-65590003D01*
X101124698Y-65795927D01*
X101124699Y-65795933D01*
X101124700Y-65795934D01*
X101184768Y-65993954D01*
X101282315Y-66176450D01*
X101413590Y-66336410D01*
X101573550Y-66467685D01*
X101756046Y-66565232D01*
X101954066Y-66625300D01*
X101954070Y-66625300D01*
X101954072Y-66625301D01*
X102159997Y-66645583D01*
X102160000Y-66645583D01*
X102160003Y-66645583D01*
X102365927Y-66625301D01*
X102365928Y-66625300D01*
X102365934Y-66625300D01*
X102563954Y-66565232D01*
X102746450Y-66467685D01*
X102906410Y-66336410D01*
X103037685Y-66176450D01*
X103135232Y-65993954D01*
X103195300Y-65795934D01*
X103208503Y-65661889D01*
X103215583Y-65590003D01*
X103644417Y-65590003D01*
X103664698Y-65795927D01*
X103664699Y-65795933D01*
X103664700Y-65795934D01*
X103724768Y-65993954D01*
X103822315Y-66176450D01*
X103953590Y-66336410D01*
X104113550Y-66467685D01*
X104296046Y-66565232D01*
X104494066Y-66625300D01*
X104494070Y-66625300D01*
X104494072Y-66625301D01*
X104699997Y-66645583D01*
X104700000Y-66645583D01*
X104700003Y-66645583D01*
X104905927Y-66625301D01*
X104905928Y-66625300D01*
X104905934Y-66625300D01*
X105103954Y-66565232D01*
X105286450Y-66467685D01*
X105446410Y-66336410D01*
X105577685Y-66176450D01*
X105675232Y-65993954D01*
X105735300Y-65795934D01*
X105748503Y-65661889D01*
X105755583Y-65590003D01*
X106184417Y-65590003D01*
X106204698Y-65795927D01*
X106204699Y-65795933D01*
X106204700Y-65795934D01*
X106264768Y-65993954D01*
X106362315Y-66176450D01*
X106493590Y-66336410D01*
X106653550Y-66467685D01*
X106836046Y-66565232D01*
X107034066Y-66625300D01*
X107034070Y-66625300D01*
X107034072Y-66625301D01*
X107239997Y-66645583D01*
X107240000Y-66645583D01*
X107240003Y-66645583D01*
X107445927Y-66625301D01*
X107445928Y-66625300D01*
X107445934Y-66625300D01*
X107643954Y-66565232D01*
X107826450Y-66467685D01*
X107986410Y-66336410D01*
X108117685Y-66176450D01*
X108215232Y-65993954D01*
X108275300Y-65795934D01*
X108288503Y-65661889D01*
X108295583Y-65590003D01*
X108295583Y-65589996D01*
X108275301Y-65384072D01*
X108275300Y-65384070D01*
X108275300Y-65384066D01*
X108215232Y-65186046D01*
X108117685Y-65003550D01*
X107986410Y-64843590D01*
X107826450Y-64712315D01*
X107826448Y-64712314D01*
X107826447Y-64712313D01*
X107643954Y-64614768D01*
X107603106Y-64602377D01*
X107445934Y-64554700D01*
X107445933Y-64554699D01*
X107445927Y-64554698D01*
X107240003Y-64534417D01*
X107239997Y-64534417D01*
X107034072Y-64554698D01*
X106836045Y-64614768D01*
X106653552Y-64712313D01*
X106493590Y-64843590D01*
X106362313Y-65003552D01*
X106264768Y-65186045D01*
X106204698Y-65384072D01*
X106184417Y-65589996D01*
X106184417Y-65590003D01*
X105755583Y-65590003D01*
X105755583Y-65589996D01*
X105735301Y-65384072D01*
X105735300Y-65384070D01*
X105735300Y-65384066D01*
X105675232Y-65186046D01*
X105577685Y-65003550D01*
X105446410Y-64843590D01*
X105286450Y-64712315D01*
X105286448Y-64712314D01*
X105286447Y-64712313D01*
X105103954Y-64614768D01*
X105063106Y-64602377D01*
X104905934Y-64554700D01*
X104905933Y-64554699D01*
X104905927Y-64554698D01*
X104700003Y-64534417D01*
X104699997Y-64534417D01*
X104494072Y-64554698D01*
X104296045Y-64614768D01*
X104113552Y-64712313D01*
X103953590Y-64843590D01*
X103822313Y-65003552D01*
X103724768Y-65186045D01*
X103664698Y-65384072D01*
X103644417Y-65589996D01*
X103644417Y-65590003D01*
X103215583Y-65590003D01*
X103215583Y-65589996D01*
X103195301Y-65384072D01*
X103195300Y-65384070D01*
X103195300Y-65384066D01*
X103135232Y-65186046D01*
X103037685Y-65003550D01*
X102906410Y-64843590D01*
X102746450Y-64712315D01*
X102746448Y-64712314D01*
X102746447Y-64712313D01*
X102563955Y-64614768D01*
X102542042Y-64608121D01*
X102523104Y-64602376D01*
X102463724Y-64563462D01*
X102434808Y-64498620D01*
X102445539Y-64428439D01*
X102492509Y-64375200D01*
X102518769Y-64362629D01*
X102707369Y-64297883D01*
X102707371Y-64297882D01*
X102905300Y-64190768D01*
X102905301Y-64190767D01*
X103082902Y-64052534D01*
X103235325Y-63886958D01*
X103358419Y-63698548D01*
X103448820Y-63492457D01*
X103468473Y-63414848D01*
X103504585Y-63353722D01*
X103568012Y-63321822D01*
X103638616Y-63329278D01*
X103693981Y-63373722D01*
X103711192Y-63409200D01*
X103716750Y-63427523D01*
X103724768Y-63453955D01*
X103812985Y-63618995D01*
X103822315Y-63636450D01*
X103953590Y-63796410D01*
X104113550Y-63927685D01*
X104296046Y-64025232D01*
X104494066Y-64085300D01*
X104494070Y-64085300D01*
X104494072Y-64085301D01*
X104699997Y-64105583D01*
X104700000Y-64105583D01*
X104700003Y-64105583D01*
X104905927Y-64085301D01*
X104905928Y-64085300D01*
X104905934Y-64085300D01*
X105103954Y-64025232D01*
X105286450Y-63927685D01*
X105446410Y-63796410D01*
X105577685Y-63636450D01*
X105675232Y-63453954D01*
X105735300Y-63255934D01*
X105748503Y-63121889D01*
X105755583Y-63050003D01*
X106184417Y-63050003D01*
X106204698Y-63255927D01*
X106204699Y-63255933D01*
X106204700Y-63255934D01*
X106224409Y-63320906D01*
X106264768Y-63453954D01*
X106352980Y-63618987D01*
X106362315Y-63636450D01*
X106493590Y-63796410D01*
X106653550Y-63927685D01*
X106836046Y-64025232D01*
X107034066Y-64085300D01*
X107034070Y-64085300D01*
X107034072Y-64085301D01*
X107239997Y-64105583D01*
X107240000Y-64105583D01*
X107240003Y-64105583D01*
X107445927Y-64085301D01*
X107445928Y-64085300D01*
X107445934Y-64085300D01*
X107643954Y-64025232D01*
X107826450Y-63927685D01*
X107986410Y-63796410D01*
X108117685Y-63636450D01*
X108215232Y-63453954D01*
X108228806Y-63409204D01*
X108267720Y-63349823D01*
X108332561Y-63320906D01*
X108402742Y-63331635D01*
X108455981Y-63378604D01*
X108471525Y-63414847D01*
X108491176Y-63492449D01*
X108491179Y-63492456D01*
X108581580Y-63698548D01*
X108704674Y-63886958D01*
X108857097Y-64052534D01*
X109034698Y-64190767D01*
X109034699Y-64190768D01*
X109232628Y-64297882D01*
X109232630Y-64297883D01*
X109421230Y-64362629D01*
X109479165Y-64403666D01*
X109505717Y-64469511D01*
X109492456Y-64539258D01*
X109443591Y-64590763D01*
X109416894Y-64602376D01*
X109376051Y-64614765D01*
X109376046Y-64614767D01*
X109193552Y-64712313D01*
X109033590Y-64843590D01*
X108902313Y-65003552D01*
X108804768Y-65186045D01*
X108744698Y-65384072D01*
X108724417Y-65589996D01*
X108724417Y-65590003D01*
X108744698Y-65795927D01*
X108744699Y-65795933D01*
X108744700Y-65795934D01*
X108804768Y-65993954D01*
X108902315Y-66176450D01*
X109033590Y-66336410D01*
X109193550Y-66467685D01*
X109376046Y-66565232D01*
X109574066Y-66625300D01*
X109574070Y-66625300D01*
X109574072Y-66625301D01*
X109779997Y-66645583D01*
X109780000Y-66645583D01*
X109780003Y-66645583D01*
X109985927Y-66625301D01*
X109985928Y-66625300D01*
X109985934Y-66625300D01*
X110183954Y-66565232D01*
X110366450Y-66467685D01*
X110526410Y-66336410D01*
X110657685Y-66176450D01*
X110755232Y-65993954D01*
X110815300Y-65795934D01*
X110828503Y-65661889D01*
X110835583Y-65590003D01*
X111264417Y-65590003D01*
X111284698Y-65795927D01*
X111284699Y-65795933D01*
X111284700Y-65795934D01*
X111344768Y-65993954D01*
X111442315Y-66176450D01*
X111573590Y-66336410D01*
X111733550Y-66467685D01*
X111916046Y-66565232D01*
X112114066Y-66625300D01*
X112114070Y-66625300D01*
X112114072Y-66625301D01*
X112319997Y-66645583D01*
X112320000Y-66645583D01*
X112320003Y-66645583D01*
X112525927Y-66625301D01*
X112525928Y-66625300D01*
X112525934Y-66625300D01*
X112723954Y-66565232D01*
X112906450Y-66467685D01*
X113066410Y-66336410D01*
X113197685Y-66176450D01*
X113295232Y-65993954D01*
X113355300Y-65795934D01*
X113368503Y-65661889D01*
X113375583Y-65590003D01*
X113804417Y-65590003D01*
X113824698Y-65795927D01*
X113824699Y-65795933D01*
X113824700Y-65795934D01*
X113884768Y-65993954D01*
X113982315Y-66176450D01*
X114113590Y-66336410D01*
X114273550Y-66467685D01*
X114456046Y-66565232D01*
X114654066Y-66625300D01*
X114654070Y-66625300D01*
X114654072Y-66625301D01*
X114859997Y-66645583D01*
X114860000Y-66645583D01*
X114860003Y-66645583D01*
X115065927Y-66625301D01*
X115065928Y-66625300D01*
X115065934Y-66625300D01*
X115263954Y-66565232D01*
X115446450Y-66467685D01*
X115606410Y-66336410D01*
X115737685Y-66176450D01*
X115835232Y-65993954D01*
X115848806Y-65949204D01*
X115887720Y-65889823D01*
X115952561Y-65860906D01*
X116022742Y-65871635D01*
X116075981Y-65918604D01*
X116091525Y-65954847D01*
X116111176Y-66032449D01*
X116111179Y-66032456D01*
X116201580Y-66238548D01*
X116324674Y-66426958D01*
X116477097Y-66592534D01*
X116654698Y-66730767D01*
X116654699Y-66730768D01*
X116852628Y-66837882D01*
X116852630Y-66837883D01*
X117065483Y-66910955D01*
X117065492Y-66910957D01*
X117146000Y-66924391D01*
X117146000Y-66023674D01*
X117257685Y-66074680D01*
X117364237Y-66090000D01*
X117435763Y-66090000D01*
X117542315Y-66074680D01*
X117654000Y-66023674D01*
X117654000Y-66924390D01*
X117734507Y-66910957D01*
X117734516Y-66910955D01*
X117947369Y-66837883D01*
X117947371Y-66837882D01*
X118145300Y-66730768D01*
X118145301Y-66730767D01*
X118322902Y-66592534D01*
X118475325Y-66426958D01*
X118598419Y-66238548D01*
X118688820Y-66032457D01*
X118708473Y-65954848D01*
X118744585Y-65893722D01*
X118808012Y-65861822D01*
X118878616Y-65869278D01*
X118933981Y-65913722D01*
X118951192Y-65949200D01*
X118955121Y-65962153D01*
X118964768Y-65993955D01*
X118985348Y-66032457D01*
X119062315Y-66176450D01*
X119193590Y-66336410D01*
X119353550Y-66467685D01*
X119536046Y-66565232D01*
X119734066Y-66625300D01*
X119734070Y-66625300D01*
X119734072Y-66625301D01*
X119939997Y-66645583D01*
X119940000Y-66645583D01*
X119940003Y-66645583D01*
X120145927Y-66625301D01*
X120145928Y-66625300D01*
X120145934Y-66625300D01*
X120343954Y-66565232D01*
X120526450Y-66467685D01*
X120686410Y-66336410D01*
X120817685Y-66176450D01*
X120915232Y-65993954D01*
X120975300Y-65795934D01*
X120988503Y-65661889D01*
X120995583Y-65590003D01*
X120995583Y-65589996D01*
X120975301Y-65384072D01*
X120975300Y-65384070D01*
X120975300Y-65384066D01*
X120915232Y-65186046D01*
X120817685Y-65003550D01*
X120686410Y-64843590D01*
X120526450Y-64712315D01*
X120526448Y-64712314D01*
X120526447Y-64712313D01*
X120343954Y-64614768D01*
X120303106Y-64602377D01*
X120145934Y-64554700D01*
X120145933Y-64554699D01*
X120145927Y-64554698D01*
X119940003Y-64534417D01*
X119939997Y-64534417D01*
X119734072Y-64554698D01*
X119536045Y-64614768D01*
X119353552Y-64712313D01*
X119193590Y-64843590D01*
X119062313Y-65003552D01*
X118964767Y-65186046D01*
X118964765Y-65186051D01*
X118951192Y-65230797D01*
X118912277Y-65290178D01*
X118847435Y-65319094D01*
X118777254Y-65308363D01*
X118724016Y-65261393D01*
X118708473Y-65225151D01*
X118688820Y-65147542D01*
X118598419Y-64941451D01*
X118475325Y-64753041D01*
X118322902Y-64587465D01*
X118145301Y-64449232D01*
X118145300Y-64449231D01*
X117947371Y-64342117D01*
X117947368Y-64342116D01*
X117758769Y-64277370D01*
X117700834Y-64236333D01*
X117674282Y-64170488D01*
X117687544Y-64100741D01*
X117736408Y-64049236D01*
X117763105Y-64037623D01*
X117803954Y-64025232D01*
X117986450Y-63927685D01*
X118146410Y-63796410D01*
X118277685Y-63636450D01*
X118375232Y-63453954D01*
X118435300Y-63255934D01*
X118448503Y-63121889D01*
X118455583Y-63050003D01*
X118884417Y-63050003D01*
X118904698Y-63255927D01*
X118904699Y-63255933D01*
X118904700Y-63255934D01*
X118924409Y-63320906D01*
X118964768Y-63453954D01*
X119052980Y-63618987D01*
X119062315Y-63636450D01*
X119193590Y-63796410D01*
X119353550Y-63927685D01*
X119536046Y-64025232D01*
X119734066Y-64085300D01*
X119734070Y-64085300D01*
X119734072Y-64085301D01*
X119939997Y-64105583D01*
X119940000Y-64105583D01*
X119940003Y-64105583D01*
X120145927Y-64085301D01*
X120145928Y-64085300D01*
X120145934Y-64085300D01*
X120343954Y-64025232D01*
X120526450Y-63927685D01*
X120686410Y-63796410D01*
X120817685Y-63636450D01*
X120915232Y-63453954D01*
X120928806Y-63409204D01*
X120967720Y-63349823D01*
X121032561Y-63320906D01*
X121102742Y-63331635D01*
X121155981Y-63378604D01*
X121171525Y-63414847D01*
X121191176Y-63492449D01*
X121191179Y-63492456D01*
X121281580Y-63698548D01*
X121404674Y-63886958D01*
X121557097Y-64052534D01*
X121734698Y-64190767D01*
X121734699Y-64190768D01*
X121932628Y-64297882D01*
X121932630Y-64297883D01*
X122121230Y-64362629D01*
X122179165Y-64403666D01*
X122205717Y-64469511D01*
X122192456Y-64539258D01*
X122143591Y-64590763D01*
X122116894Y-64602376D01*
X122076051Y-64614765D01*
X122076046Y-64614767D01*
X121893552Y-64712313D01*
X121733590Y-64843590D01*
X121602313Y-65003552D01*
X121504768Y-65186045D01*
X121444698Y-65384072D01*
X121424417Y-65589996D01*
X121424417Y-65590003D01*
X121444698Y-65795927D01*
X121444699Y-65795933D01*
X121444700Y-65795934D01*
X121504768Y-65993954D01*
X121602315Y-66176450D01*
X121733590Y-66336410D01*
X121893550Y-66467685D01*
X122076046Y-66565232D01*
X122274066Y-66625300D01*
X122274070Y-66625300D01*
X122274072Y-66625301D01*
X122479997Y-66645583D01*
X122480000Y-66645583D01*
X122480003Y-66645583D01*
X122685927Y-66625301D01*
X122685928Y-66625300D01*
X122685934Y-66625300D01*
X122883954Y-66565232D01*
X123066450Y-66467685D01*
X123226410Y-66336410D01*
X123357685Y-66176450D01*
X123455232Y-65993954D01*
X123515300Y-65795934D01*
X123528503Y-65661889D01*
X123535583Y-65590003D01*
X123964417Y-65590003D01*
X123984698Y-65795927D01*
X123984699Y-65795933D01*
X123984700Y-65795934D01*
X124044768Y-65993954D01*
X124142315Y-66176450D01*
X124273590Y-66336410D01*
X124433550Y-66467685D01*
X124616046Y-66565232D01*
X124814066Y-66625300D01*
X124814070Y-66625300D01*
X124814072Y-66625301D01*
X125019997Y-66645583D01*
X125020000Y-66645583D01*
X125020003Y-66645583D01*
X125225927Y-66625301D01*
X125225928Y-66625300D01*
X125225934Y-66625300D01*
X125423954Y-66565232D01*
X125606450Y-66467685D01*
X125766410Y-66336410D01*
X125897685Y-66176450D01*
X125995232Y-65993954D01*
X126055300Y-65795934D01*
X126068503Y-65661889D01*
X126075583Y-65590003D01*
X126075583Y-65589996D01*
X126055301Y-65384072D01*
X126055300Y-65384070D01*
X126055300Y-65384066D01*
X125995232Y-65186046D01*
X125897685Y-65003550D01*
X125766410Y-64843590D01*
X125606450Y-64712315D01*
X125606448Y-64712314D01*
X125606447Y-64712313D01*
X125423954Y-64614768D01*
X125383106Y-64602377D01*
X125225934Y-64554700D01*
X125225933Y-64554699D01*
X125225927Y-64554698D01*
X125020003Y-64534417D01*
X125019997Y-64534417D01*
X124814072Y-64554698D01*
X124616045Y-64614768D01*
X124433552Y-64712313D01*
X124273590Y-64843590D01*
X124142313Y-65003552D01*
X124044768Y-65186045D01*
X123984698Y-65384072D01*
X123964417Y-65589996D01*
X123964417Y-65590003D01*
X123535583Y-65590003D01*
X123535583Y-65589996D01*
X123515301Y-65384072D01*
X123515300Y-65384070D01*
X123515300Y-65384066D01*
X123455232Y-65186046D01*
X123357685Y-65003550D01*
X123226410Y-64843590D01*
X123066450Y-64712315D01*
X123066448Y-64712314D01*
X123066447Y-64712313D01*
X122883955Y-64614768D01*
X122862042Y-64608121D01*
X122843104Y-64602376D01*
X122783724Y-64563462D01*
X122754808Y-64498620D01*
X122765539Y-64428439D01*
X122812509Y-64375200D01*
X122838769Y-64362629D01*
X123027369Y-64297883D01*
X123027371Y-64297882D01*
X123225300Y-64190768D01*
X123225301Y-64190767D01*
X123402902Y-64052534D01*
X123555325Y-63886958D01*
X123678419Y-63698548D01*
X123768820Y-63492457D01*
X123788473Y-63414848D01*
X123824585Y-63353722D01*
X123888012Y-63321822D01*
X123958616Y-63329278D01*
X124013981Y-63373722D01*
X124031192Y-63409200D01*
X124036750Y-63427523D01*
X124044768Y-63453955D01*
X124132985Y-63618995D01*
X124142315Y-63636450D01*
X124273590Y-63796410D01*
X124433550Y-63927685D01*
X124616046Y-64025232D01*
X124814066Y-64085300D01*
X124814070Y-64085300D01*
X124814072Y-64085301D01*
X125019997Y-64105583D01*
X125020000Y-64105583D01*
X125020003Y-64105583D01*
X125225927Y-64085301D01*
X125225928Y-64085300D01*
X125225934Y-64085300D01*
X125423954Y-64025232D01*
X125606450Y-63927685D01*
X125766410Y-63796410D01*
X125897685Y-63636450D01*
X125995232Y-63453954D01*
X126008806Y-63409204D01*
X126047720Y-63349823D01*
X126112561Y-63320906D01*
X126182742Y-63331635D01*
X126235981Y-63378604D01*
X126251525Y-63414847D01*
X126271176Y-63492449D01*
X126271179Y-63492456D01*
X126361580Y-63698548D01*
X126484674Y-63886958D01*
X126637097Y-64052534D01*
X126814698Y-64190767D01*
X126814699Y-64190768D01*
X127012628Y-64297882D01*
X127012630Y-64297883D01*
X127201230Y-64362629D01*
X127259165Y-64403666D01*
X127285717Y-64469511D01*
X127272456Y-64539258D01*
X127223591Y-64590763D01*
X127196894Y-64602376D01*
X127156051Y-64614765D01*
X127156046Y-64614767D01*
X126973552Y-64712313D01*
X126813590Y-64843590D01*
X126682313Y-65003552D01*
X126584768Y-65186045D01*
X126524698Y-65384072D01*
X126504417Y-65589996D01*
X126504417Y-65590003D01*
X126524698Y-65795927D01*
X126524699Y-65795933D01*
X126524700Y-65795934D01*
X126584768Y-65993954D01*
X126682315Y-66176450D01*
X126813590Y-66336410D01*
X126973550Y-66467685D01*
X127156046Y-66565232D01*
X127354066Y-66625300D01*
X127354070Y-66625300D01*
X127354072Y-66625301D01*
X127559997Y-66645583D01*
X127560000Y-66645583D01*
X127560003Y-66645583D01*
X127765927Y-66625301D01*
X127765928Y-66625300D01*
X127765934Y-66625300D01*
X127963954Y-66565232D01*
X128146450Y-66467685D01*
X128306410Y-66336410D01*
X128437685Y-66176450D01*
X128535232Y-65993954D01*
X128595300Y-65795934D01*
X128608503Y-65661889D01*
X128615583Y-65590003D01*
X129044417Y-65590003D01*
X129064698Y-65795927D01*
X129064699Y-65795933D01*
X129064700Y-65795934D01*
X129124768Y-65993954D01*
X129222315Y-66176450D01*
X129353590Y-66336410D01*
X129513550Y-66467685D01*
X129696046Y-66565232D01*
X129894066Y-66625300D01*
X129894070Y-66625300D01*
X129894072Y-66625301D01*
X130099997Y-66645583D01*
X130100000Y-66645583D01*
X130100003Y-66645583D01*
X130305927Y-66625301D01*
X130305928Y-66625300D01*
X130305934Y-66625300D01*
X130503954Y-66565232D01*
X130686450Y-66467685D01*
X130846410Y-66336410D01*
X130977685Y-66176450D01*
X131075232Y-65993954D01*
X131135300Y-65795934D01*
X131148503Y-65661889D01*
X131155583Y-65590003D01*
X131584417Y-65590003D01*
X131604698Y-65795927D01*
X131604699Y-65795933D01*
X131604700Y-65795934D01*
X131664768Y-65993954D01*
X131762315Y-66176450D01*
X131893590Y-66336410D01*
X132053550Y-66467685D01*
X132236046Y-66565232D01*
X132434066Y-66625300D01*
X132434070Y-66625300D01*
X132434072Y-66625301D01*
X132639997Y-66645583D01*
X132640000Y-66645583D01*
X132640003Y-66645583D01*
X132845927Y-66625301D01*
X132845928Y-66625300D01*
X132845934Y-66625300D01*
X133043954Y-66565232D01*
X133226450Y-66467685D01*
X133386410Y-66336410D01*
X133517685Y-66176450D01*
X133615232Y-65993954D01*
X133628806Y-65949204D01*
X133667720Y-65889823D01*
X133732561Y-65860906D01*
X133802742Y-65871635D01*
X133855981Y-65918604D01*
X133871525Y-65954847D01*
X133891176Y-66032449D01*
X133891179Y-66032456D01*
X133981580Y-66238548D01*
X134104674Y-66426958D01*
X134257097Y-66592534D01*
X134434698Y-66730767D01*
X134434699Y-66730768D01*
X134632628Y-66837882D01*
X134632630Y-66837883D01*
X134845483Y-66910955D01*
X134845492Y-66910957D01*
X134926000Y-66924391D01*
X134926000Y-66023674D01*
X135037685Y-66074680D01*
X135144237Y-66090000D01*
X135215763Y-66090000D01*
X135322315Y-66074680D01*
X135434000Y-66023674D01*
X135434000Y-66924390D01*
X135514507Y-66910957D01*
X135514516Y-66910955D01*
X135727369Y-66837883D01*
X135727371Y-66837882D01*
X135925300Y-66730768D01*
X135925301Y-66730767D01*
X136102902Y-66592534D01*
X136255325Y-66426958D01*
X136378419Y-66238548D01*
X136468820Y-66032456D01*
X136468823Y-66032449D01*
X136516544Y-65844000D01*
X135611116Y-65844000D01*
X135639493Y-65799844D01*
X135680000Y-65661889D01*
X135680000Y-65518111D01*
X135639493Y-65380156D01*
X135611116Y-65336000D01*
X136516544Y-65336000D01*
X136516544Y-65335999D01*
X136468823Y-65147550D01*
X136468820Y-65147543D01*
X136378419Y-64941451D01*
X136255325Y-64753041D01*
X136102902Y-64587465D01*
X135925301Y-64449232D01*
X135925300Y-64449231D01*
X135727371Y-64342117D01*
X135727368Y-64342116D01*
X135692075Y-64330000D01*
X136934615Y-64330000D01*
X136954140Y-64677690D01*
X137009506Y-65003552D01*
X137012473Y-65021013D01*
X137072911Y-65230797D01*
X137108880Y-65355648D01*
X137235730Y-65661889D01*
X137242145Y-65677376D01*
X137242152Y-65677388D01*
X137410588Y-65982153D01*
X137410592Y-65982160D01*
X137612109Y-66266172D01*
X137612114Y-66266179D01*
X137674876Y-66336409D01*
X137844161Y-66525839D01*
X137972466Y-66640499D01*
X138103820Y-66757885D01*
X138103823Y-66757887D01*
X138103824Y-66757888D01*
X138367092Y-66944686D01*
X138387839Y-66959407D01*
X138387846Y-66959411D01*
X138483798Y-67012441D01*
X138692624Y-67127855D01*
X139014356Y-67261121D01*
X139348987Y-67357527D01*
X139692307Y-67415859D01*
X139692306Y-67415859D01*
X139710793Y-67416897D01*
X140040000Y-67435385D01*
X140387693Y-67415859D01*
X140731013Y-67357527D01*
X141065644Y-67261121D01*
X141387376Y-67127855D01*
X141692164Y-66959405D01*
X141976176Y-66757888D01*
X142235839Y-66525839D01*
X142467888Y-66266176D01*
X142669405Y-65982164D01*
X142837855Y-65677376D01*
X142971121Y-65355644D01*
X143067527Y-65021013D01*
X143125859Y-64677693D01*
X143145385Y-64330000D01*
X143125859Y-63982307D01*
X143067527Y-63638987D01*
X142971121Y-63304356D01*
X142952683Y-63259844D01*
X142837859Y-62982634D01*
X142837855Y-62982624D01*
X142696177Y-62726276D01*
X142669411Y-62677846D01*
X142669407Y-62677839D01*
X142619530Y-62607543D01*
X142467888Y-62393824D01*
X142467887Y-62393823D01*
X142467885Y-62393820D01*
X142340674Y-62251472D01*
X142235839Y-62134161D01*
X142058820Y-61975967D01*
X141976179Y-61902114D01*
X141976172Y-61902109D01*
X141692160Y-61700592D01*
X141692153Y-61700588D01*
X141474402Y-61580242D01*
X141387376Y-61532145D01*
X141387369Y-61532142D01*
X141387365Y-61532140D01*
X141065648Y-61398880D01*
X140996223Y-61378879D01*
X140731013Y-61302473D01*
X140731007Y-61302472D01*
X140731004Y-61302471D01*
X140387687Y-61244140D01*
X140387693Y-61244140D01*
X140040000Y-61224615D01*
X139692309Y-61244140D01*
X139348995Y-61302471D01*
X139348989Y-61302472D01*
X139348987Y-61302473D01*
X139280472Y-61322212D01*
X139014351Y-61398880D01*
X138692634Y-61532140D01*
X138692611Y-61532152D01*
X138387846Y-61700588D01*
X138387839Y-61700592D01*
X138103827Y-61902109D01*
X138103820Y-61902114D01*
X137844161Y-62134161D01*
X137612114Y-62393820D01*
X137612109Y-62393827D01*
X137410592Y-62677839D01*
X137410588Y-62677846D01*
X137242152Y-62982611D01*
X137242140Y-62982634D01*
X137108880Y-63304351D01*
X137065781Y-63453953D01*
X137042524Y-63534680D01*
X137012471Y-63638995D01*
X136954140Y-63982309D01*
X136934615Y-64330000D01*
X135692075Y-64330000D01*
X135538769Y-64277370D01*
X135480834Y-64236333D01*
X135454282Y-64170488D01*
X135467544Y-64100741D01*
X135516408Y-64049236D01*
X135543105Y-64037623D01*
X135583954Y-64025232D01*
X135766450Y-63927685D01*
X135926410Y-63796410D01*
X136057685Y-63636450D01*
X136155232Y-63453954D01*
X136215300Y-63255934D01*
X136228503Y-63121889D01*
X136235583Y-63050003D01*
X136235583Y-63049996D01*
X136215301Y-62844072D01*
X136215300Y-62844070D01*
X136215300Y-62844066D01*
X136155232Y-62646046D01*
X136057685Y-62463550D01*
X135926410Y-62303590D01*
X135766450Y-62172315D01*
X135766448Y-62172314D01*
X135766447Y-62172313D01*
X135583954Y-62074768D01*
X135385927Y-62014698D01*
X135180003Y-61994417D01*
X135179997Y-61994417D01*
X134974072Y-62014698D01*
X134776045Y-62074768D01*
X134593552Y-62172313D01*
X134433590Y-62303590D01*
X134302313Y-62463552D01*
X134204768Y-62646045D01*
X134144698Y-62844072D01*
X134124417Y-63049996D01*
X134124417Y-63050003D01*
X134144698Y-63255927D01*
X134144699Y-63255933D01*
X134144700Y-63255934D01*
X134164409Y-63320906D01*
X134204768Y-63453954D01*
X134292980Y-63618987D01*
X134302315Y-63636450D01*
X134433590Y-63796410D01*
X134593550Y-63927685D01*
X134776046Y-64025232D01*
X134816893Y-64037622D01*
X134876274Y-64076536D01*
X134905190Y-64141377D01*
X134894461Y-64211558D01*
X134847492Y-64264798D01*
X134821231Y-64277370D01*
X134632628Y-64342118D01*
X134434699Y-64449231D01*
X134434698Y-64449232D01*
X134257097Y-64587465D01*
X134104674Y-64753041D01*
X133981580Y-64941451D01*
X133891179Y-65147543D01*
X133891177Y-65147547D01*
X133871525Y-65225153D01*
X133835412Y-65286279D01*
X133771985Y-65318177D01*
X133701381Y-65310720D01*
X133646017Y-65266276D01*
X133628806Y-65230795D01*
X133615232Y-65186046D01*
X133517686Y-65003552D01*
X133517685Y-65003550D01*
X133386410Y-64843590D01*
X133226450Y-64712315D01*
X133226448Y-64712314D01*
X133226447Y-64712313D01*
X133043954Y-64614768D01*
X133003106Y-64602377D01*
X132845934Y-64554700D01*
X132845933Y-64554699D01*
X132845927Y-64554698D01*
X132640003Y-64534417D01*
X132639997Y-64534417D01*
X132434072Y-64554698D01*
X132236045Y-64614768D01*
X132053552Y-64712313D01*
X131893590Y-64843590D01*
X131762313Y-65003552D01*
X131664768Y-65186045D01*
X131604698Y-65384072D01*
X131584417Y-65589996D01*
X131584417Y-65590003D01*
X131155583Y-65590003D01*
X131155583Y-65589996D01*
X131135301Y-65384072D01*
X131135300Y-65384070D01*
X131135300Y-65384066D01*
X131075232Y-65186046D01*
X130977685Y-65003550D01*
X130846410Y-64843590D01*
X130686450Y-64712315D01*
X130686448Y-64712314D01*
X130686447Y-64712313D01*
X130503954Y-64614768D01*
X130463106Y-64602377D01*
X130305934Y-64554700D01*
X130305933Y-64554699D01*
X130305927Y-64554698D01*
X130100003Y-64534417D01*
X130099997Y-64534417D01*
X129894072Y-64554698D01*
X129696045Y-64614768D01*
X129513552Y-64712313D01*
X129353590Y-64843590D01*
X129222313Y-65003552D01*
X129124768Y-65186045D01*
X129064698Y-65384072D01*
X129044417Y-65589996D01*
X129044417Y-65590003D01*
X128615583Y-65590003D01*
X128615583Y-65589996D01*
X128595301Y-65384072D01*
X128595300Y-65384070D01*
X128595300Y-65384066D01*
X128535232Y-65186046D01*
X128437685Y-65003550D01*
X128306410Y-64843590D01*
X128146450Y-64712315D01*
X128146448Y-64712314D01*
X128146447Y-64712313D01*
X127963955Y-64614768D01*
X127942042Y-64608121D01*
X127923104Y-64602376D01*
X127863724Y-64563462D01*
X127834808Y-64498620D01*
X127845539Y-64428439D01*
X127892509Y-64375200D01*
X127918769Y-64362629D01*
X128107369Y-64297883D01*
X128107371Y-64297882D01*
X128305300Y-64190768D01*
X128305301Y-64190767D01*
X128482902Y-64052534D01*
X128635325Y-63886958D01*
X128758419Y-63698548D01*
X128848820Y-63492457D01*
X128868473Y-63414848D01*
X128904585Y-63353722D01*
X128968012Y-63321822D01*
X129038616Y-63329278D01*
X129093981Y-63373722D01*
X129111192Y-63409200D01*
X129116750Y-63427523D01*
X129124768Y-63453955D01*
X129212985Y-63618995D01*
X129222315Y-63636450D01*
X129353590Y-63796410D01*
X129513550Y-63927685D01*
X129696046Y-64025232D01*
X129894066Y-64085300D01*
X129894070Y-64085300D01*
X129894072Y-64085301D01*
X130099997Y-64105583D01*
X130100000Y-64105583D01*
X130100003Y-64105583D01*
X130305927Y-64085301D01*
X130305928Y-64085300D01*
X130305934Y-64085300D01*
X130503954Y-64025232D01*
X130686450Y-63927685D01*
X130846410Y-63796410D01*
X130977685Y-63636450D01*
X131075232Y-63453954D01*
X131135300Y-63255934D01*
X131148503Y-63121889D01*
X131155583Y-63050003D01*
X131584417Y-63050003D01*
X131604698Y-63255927D01*
X131604699Y-63255933D01*
X131604700Y-63255934D01*
X131624409Y-63320906D01*
X131664768Y-63453954D01*
X131752980Y-63618987D01*
X131762315Y-63636450D01*
X131893590Y-63796410D01*
X132053550Y-63927685D01*
X132236046Y-64025232D01*
X132434066Y-64085300D01*
X132434070Y-64085300D01*
X132434072Y-64085301D01*
X132639997Y-64105583D01*
X132640000Y-64105583D01*
X132640003Y-64105583D01*
X132845927Y-64085301D01*
X132845928Y-64085300D01*
X132845934Y-64085300D01*
X133043954Y-64025232D01*
X133226450Y-63927685D01*
X133386410Y-63796410D01*
X133517685Y-63636450D01*
X133615232Y-63453954D01*
X133675300Y-63255934D01*
X133688503Y-63121889D01*
X133695583Y-63050003D01*
X133695583Y-63049996D01*
X133675301Y-62844072D01*
X133675300Y-62844070D01*
X133675300Y-62844066D01*
X133615232Y-62646046D01*
X133517685Y-62463550D01*
X133386410Y-62303590D01*
X133226450Y-62172315D01*
X133226448Y-62172314D01*
X133226447Y-62172313D01*
X133043954Y-62074768D01*
X132845927Y-62014698D01*
X132640003Y-61994417D01*
X132639997Y-61994417D01*
X132434072Y-62014698D01*
X132236045Y-62074768D01*
X132053552Y-62172313D01*
X131893590Y-62303590D01*
X131762313Y-62463552D01*
X131664768Y-62646045D01*
X131604698Y-62844072D01*
X131584417Y-63049996D01*
X131584417Y-63050003D01*
X131155583Y-63050003D01*
X131155583Y-63049996D01*
X131135301Y-62844072D01*
X131135300Y-62844070D01*
X131135300Y-62844066D01*
X131075232Y-62646046D01*
X130977685Y-62463550D01*
X130846410Y-62303590D01*
X130686450Y-62172315D01*
X130686448Y-62172314D01*
X130686447Y-62172313D01*
X130503954Y-62074768D01*
X130305927Y-62014698D01*
X130100003Y-61994417D01*
X130099997Y-61994417D01*
X129894072Y-62014698D01*
X129696045Y-62074768D01*
X129513552Y-62172313D01*
X129353590Y-62303590D01*
X129222313Y-62463552D01*
X129124767Y-62646046D01*
X129124765Y-62646051D01*
X129111192Y-62690797D01*
X129072277Y-62750178D01*
X129007435Y-62779094D01*
X128937254Y-62768363D01*
X128884016Y-62721393D01*
X128868473Y-62685151D01*
X128848820Y-62607542D01*
X128758419Y-62401451D01*
X128635325Y-62213041D01*
X128482902Y-62047465D01*
X128305301Y-61909232D01*
X128305300Y-61909231D01*
X128107371Y-61802117D01*
X128107369Y-61802116D01*
X127894512Y-61729043D01*
X127894501Y-61729040D01*
X127814000Y-61715606D01*
X127814000Y-62616325D01*
X127702315Y-62565320D01*
X127595763Y-62550000D01*
X127524237Y-62550000D01*
X127417685Y-62565320D01*
X127306000Y-62616325D01*
X127306000Y-61715607D01*
X127305999Y-61715606D01*
X127225498Y-61729040D01*
X127225487Y-61729043D01*
X127012630Y-61802116D01*
X127012628Y-61802117D01*
X126814699Y-61909231D01*
X126814698Y-61909232D01*
X126637097Y-62047465D01*
X126484674Y-62213041D01*
X126361580Y-62401451D01*
X126271179Y-62607543D01*
X126271177Y-62607547D01*
X126251525Y-62685153D01*
X126215412Y-62746279D01*
X126151985Y-62778177D01*
X126081381Y-62770720D01*
X126026017Y-62726276D01*
X126008806Y-62690795D01*
X125995232Y-62646046D01*
X125897686Y-62463552D01*
X125897685Y-62463550D01*
X125766410Y-62303590D01*
X125606450Y-62172315D01*
X125606448Y-62172314D01*
X125606447Y-62172313D01*
X125423954Y-62074768D01*
X125225927Y-62014698D01*
X125020003Y-61994417D01*
X125019997Y-61994417D01*
X124814072Y-62014698D01*
X124616045Y-62074768D01*
X124433552Y-62172313D01*
X124273590Y-62303590D01*
X124142313Y-62463552D01*
X124044767Y-62646046D01*
X124044765Y-62646051D01*
X124031192Y-62690797D01*
X123992277Y-62750178D01*
X123927435Y-62779094D01*
X123857254Y-62768363D01*
X123804016Y-62721393D01*
X123788473Y-62685151D01*
X123768820Y-62607542D01*
X123678419Y-62401451D01*
X123555325Y-62213041D01*
X123402902Y-62047465D01*
X123225301Y-61909232D01*
X123225300Y-61909231D01*
X123027371Y-61802117D01*
X123027369Y-61802116D01*
X122814512Y-61729043D01*
X122814501Y-61729040D01*
X122734000Y-61715606D01*
X122734000Y-62616325D01*
X122622315Y-62565320D01*
X122515763Y-62550000D01*
X122444237Y-62550000D01*
X122337685Y-62565320D01*
X122226000Y-62616325D01*
X122226000Y-61715607D01*
X122225999Y-61715606D01*
X122145498Y-61729040D01*
X122145487Y-61729043D01*
X121932630Y-61802116D01*
X121932628Y-61802117D01*
X121734699Y-61909231D01*
X121734698Y-61909232D01*
X121557097Y-62047465D01*
X121404674Y-62213041D01*
X121281580Y-62401451D01*
X121191179Y-62607543D01*
X121191177Y-62607547D01*
X121171525Y-62685153D01*
X121135412Y-62746279D01*
X121071985Y-62778177D01*
X121001381Y-62770720D01*
X120946017Y-62726276D01*
X120928806Y-62690795D01*
X120915232Y-62646046D01*
X120817686Y-62463552D01*
X120817685Y-62463550D01*
X120686410Y-62303590D01*
X120526450Y-62172315D01*
X120526448Y-62172314D01*
X120526447Y-62172313D01*
X120343954Y-62074768D01*
X120145927Y-62014698D01*
X119940003Y-61994417D01*
X119939997Y-61994417D01*
X119734072Y-62014698D01*
X119536045Y-62074768D01*
X119353552Y-62172313D01*
X119193590Y-62303590D01*
X119062313Y-62463552D01*
X118964768Y-62646045D01*
X118904698Y-62844072D01*
X118884417Y-63049996D01*
X118884417Y-63050003D01*
X118455583Y-63050003D01*
X118455583Y-63049996D01*
X118435301Y-62844072D01*
X118435300Y-62844070D01*
X118435300Y-62844066D01*
X118375232Y-62646046D01*
X118277685Y-62463550D01*
X118146410Y-62303590D01*
X117986450Y-62172315D01*
X117986448Y-62172314D01*
X117986447Y-62172313D01*
X117803954Y-62074768D01*
X117605927Y-62014698D01*
X117400003Y-61994417D01*
X117399997Y-61994417D01*
X117194072Y-62014698D01*
X116996045Y-62074768D01*
X116813552Y-62172313D01*
X116653590Y-62303590D01*
X116522313Y-62463552D01*
X116424768Y-62646045D01*
X116364698Y-62844072D01*
X116344417Y-63049996D01*
X116344417Y-63050003D01*
X116364698Y-63255927D01*
X116364699Y-63255933D01*
X116364700Y-63255934D01*
X116384409Y-63320906D01*
X116424768Y-63453954D01*
X116512980Y-63618987D01*
X116522315Y-63636450D01*
X116653590Y-63796410D01*
X116813550Y-63927685D01*
X116996046Y-64025232D01*
X117036893Y-64037622D01*
X117096274Y-64076536D01*
X117125190Y-64141377D01*
X117114461Y-64211558D01*
X117067492Y-64264798D01*
X117041231Y-64277370D01*
X116852628Y-64342118D01*
X116654699Y-64449231D01*
X116654698Y-64449232D01*
X116477097Y-64587465D01*
X116324674Y-64753041D01*
X116201580Y-64941451D01*
X116111179Y-65147543D01*
X116111177Y-65147547D01*
X116091525Y-65225153D01*
X116055412Y-65286279D01*
X115991985Y-65318177D01*
X115921381Y-65310720D01*
X115866017Y-65266276D01*
X115848806Y-65230795D01*
X115835232Y-65186046D01*
X115737686Y-65003552D01*
X115737685Y-65003550D01*
X115606410Y-64843590D01*
X115446450Y-64712315D01*
X115446448Y-64712314D01*
X115446447Y-64712313D01*
X115263954Y-64614768D01*
X115223106Y-64602377D01*
X115065934Y-64554700D01*
X115065933Y-64554699D01*
X115065927Y-64554698D01*
X114860003Y-64534417D01*
X114859997Y-64534417D01*
X114654072Y-64554698D01*
X114456045Y-64614768D01*
X114273552Y-64712313D01*
X114113590Y-64843590D01*
X113982313Y-65003552D01*
X113884768Y-65186045D01*
X113824698Y-65384072D01*
X113804417Y-65589996D01*
X113804417Y-65590003D01*
X113375583Y-65590003D01*
X113375583Y-65589996D01*
X113355301Y-65384072D01*
X113355300Y-65384070D01*
X113355300Y-65384066D01*
X113295232Y-65186046D01*
X113197685Y-65003550D01*
X113066410Y-64843590D01*
X112906450Y-64712315D01*
X112906448Y-64712314D01*
X112906447Y-64712313D01*
X112723954Y-64614768D01*
X112683106Y-64602377D01*
X112525934Y-64554700D01*
X112525933Y-64554699D01*
X112525927Y-64554698D01*
X112320003Y-64534417D01*
X112319997Y-64534417D01*
X112114072Y-64554698D01*
X111916045Y-64614768D01*
X111733552Y-64712313D01*
X111573590Y-64843590D01*
X111442313Y-65003552D01*
X111344768Y-65186045D01*
X111284698Y-65384072D01*
X111264417Y-65589996D01*
X111264417Y-65590003D01*
X110835583Y-65590003D01*
X110835583Y-65589996D01*
X110815301Y-65384072D01*
X110815300Y-65384070D01*
X110815300Y-65384066D01*
X110755232Y-65186046D01*
X110657685Y-65003550D01*
X110526410Y-64843590D01*
X110366450Y-64712315D01*
X110366448Y-64712314D01*
X110366447Y-64712313D01*
X110183955Y-64614768D01*
X110162042Y-64608121D01*
X110143104Y-64602376D01*
X110083724Y-64563462D01*
X110054808Y-64498620D01*
X110065539Y-64428439D01*
X110112509Y-64375200D01*
X110138769Y-64362629D01*
X110327369Y-64297883D01*
X110327371Y-64297882D01*
X110525300Y-64190768D01*
X110525301Y-64190767D01*
X110702902Y-64052534D01*
X110855325Y-63886958D01*
X110978419Y-63698548D01*
X111068820Y-63492457D01*
X111088473Y-63414848D01*
X111124585Y-63353722D01*
X111188012Y-63321822D01*
X111258616Y-63329278D01*
X111313981Y-63373722D01*
X111331192Y-63409200D01*
X111336750Y-63427523D01*
X111344768Y-63453955D01*
X111432985Y-63618995D01*
X111442315Y-63636450D01*
X111573590Y-63796410D01*
X111733550Y-63927685D01*
X111916046Y-64025232D01*
X112114066Y-64085300D01*
X112114070Y-64085300D01*
X112114072Y-64085301D01*
X112319997Y-64105583D01*
X112320000Y-64105583D01*
X112320003Y-64105583D01*
X112525927Y-64085301D01*
X112525928Y-64085300D01*
X112525934Y-64085300D01*
X112723954Y-64025232D01*
X112906450Y-63927685D01*
X113066410Y-63796410D01*
X113197685Y-63636450D01*
X113295232Y-63453954D01*
X113355300Y-63255934D01*
X113368503Y-63121889D01*
X113375583Y-63050003D01*
X113804417Y-63050003D01*
X113824698Y-63255927D01*
X113824699Y-63255933D01*
X113824700Y-63255934D01*
X113844409Y-63320906D01*
X113884768Y-63453954D01*
X113972980Y-63618987D01*
X113982315Y-63636450D01*
X114113590Y-63796410D01*
X114273550Y-63927685D01*
X114456046Y-64025232D01*
X114654066Y-64085300D01*
X114654070Y-64085300D01*
X114654072Y-64085301D01*
X114859997Y-64105583D01*
X114860000Y-64105583D01*
X114860003Y-64105583D01*
X115065927Y-64085301D01*
X115065928Y-64085300D01*
X115065934Y-64085300D01*
X115263954Y-64025232D01*
X115446450Y-63927685D01*
X115606410Y-63796410D01*
X115737685Y-63636450D01*
X115835232Y-63453954D01*
X115895300Y-63255934D01*
X115908503Y-63121889D01*
X115915583Y-63050003D01*
X115915583Y-63049996D01*
X115895301Y-62844072D01*
X115895300Y-62844070D01*
X115895300Y-62844066D01*
X115835232Y-62646046D01*
X115737685Y-62463550D01*
X115606410Y-62303590D01*
X115446450Y-62172315D01*
X115446448Y-62172314D01*
X115446447Y-62172313D01*
X115263954Y-62074768D01*
X115065927Y-62014698D01*
X114860003Y-61994417D01*
X114859997Y-61994417D01*
X114654072Y-62014698D01*
X114456045Y-62074768D01*
X114273552Y-62172313D01*
X114113590Y-62303590D01*
X113982313Y-62463552D01*
X113884768Y-62646045D01*
X113824698Y-62844072D01*
X113804417Y-63049996D01*
X113804417Y-63050003D01*
X113375583Y-63050003D01*
X113375583Y-63049996D01*
X113355301Y-62844072D01*
X113355300Y-62844070D01*
X113355300Y-62844066D01*
X113295232Y-62646046D01*
X113197685Y-62463550D01*
X113066410Y-62303590D01*
X112906450Y-62172315D01*
X112906448Y-62172314D01*
X112906447Y-62172313D01*
X112723954Y-62074768D01*
X112525927Y-62014698D01*
X112320003Y-61994417D01*
X112319997Y-61994417D01*
X112114072Y-62014698D01*
X111916045Y-62074768D01*
X111733552Y-62172313D01*
X111573590Y-62303590D01*
X111442313Y-62463552D01*
X111344767Y-62646046D01*
X111344765Y-62646051D01*
X111331192Y-62690797D01*
X111292277Y-62750178D01*
X111227435Y-62779094D01*
X111157254Y-62768363D01*
X111104016Y-62721393D01*
X111088473Y-62685151D01*
X111068820Y-62607542D01*
X110978419Y-62401451D01*
X110855325Y-62213041D01*
X110702902Y-62047465D01*
X110525301Y-61909232D01*
X110525300Y-61909231D01*
X110327371Y-61802117D01*
X110327369Y-61802116D01*
X110114512Y-61729043D01*
X110114501Y-61729040D01*
X110034000Y-61715606D01*
X110034000Y-62616325D01*
X109922315Y-62565320D01*
X109815763Y-62550000D01*
X109744237Y-62550000D01*
X109637685Y-62565320D01*
X109526000Y-62616325D01*
X109526000Y-61715607D01*
X109525999Y-61715606D01*
X109445498Y-61729040D01*
X109445487Y-61729043D01*
X109232630Y-61802116D01*
X109232628Y-61802117D01*
X109034699Y-61909231D01*
X109034698Y-61909232D01*
X108857097Y-62047465D01*
X108704674Y-62213041D01*
X108581580Y-62401451D01*
X108491179Y-62607543D01*
X108491177Y-62607547D01*
X108471525Y-62685153D01*
X108435412Y-62746279D01*
X108371985Y-62778177D01*
X108301381Y-62770720D01*
X108246017Y-62726276D01*
X108228806Y-62690795D01*
X108215232Y-62646046D01*
X108117686Y-62463552D01*
X108117685Y-62463550D01*
X107986410Y-62303590D01*
X107826450Y-62172315D01*
X107826448Y-62172314D01*
X107826447Y-62172313D01*
X107643954Y-62074768D01*
X107445927Y-62014698D01*
X107240003Y-61994417D01*
X107239997Y-61994417D01*
X107034072Y-62014698D01*
X106836045Y-62074768D01*
X106653552Y-62172313D01*
X106493590Y-62303590D01*
X106362313Y-62463552D01*
X106264768Y-62646045D01*
X106204698Y-62844072D01*
X106184417Y-63049996D01*
X106184417Y-63050003D01*
X105755583Y-63050003D01*
X105755583Y-63049996D01*
X105735301Y-62844072D01*
X105735300Y-62844070D01*
X105735300Y-62844066D01*
X105675232Y-62646046D01*
X105577685Y-62463550D01*
X105446410Y-62303590D01*
X105286450Y-62172315D01*
X105286448Y-62172314D01*
X105286447Y-62172313D01*
X105103954Y-62074768D01*
X104905927Y-62014698D01*
X104700003Y-61994417D01*
X104699997Y-61994417D01*
X104494072Y-62014698D01*
X104296045Y-62074768D01*
X104113552Y-62172313D01*
X103953590Y-62303590D01*
X103822313Y-62463552D01*
X103724767Y-62646046D01*
X103724765Y-62646051D01*
X103711192Y-62690797D01*
X103672277Y-62750178D01*
X103607435Y-62779094D01*
X103537254Y-62768363D01*
X103484016Y-62721393D01*
X103468473Y-62685151D01*
X103448820Y-62607542D01*
X103358419Y-62401451D01*
X103235325Y-62213041D01*
X103082902Y-62047465D01*
X102905301Y-61909232D01*
X102905300Y-61909231D01*
X102707371Y-61802117D01*
X102707369Y-61802116D01*
X102494512Y-61729043D01*
X102494501Y-61729040D01*
X102414000Y-61715606D01*
X102414000Y-62616325D01*
X102302315Y-62565320D01*
X102195763Y-62550000D01*
X102124237Y-62550000D01*
X102017685Y-62565320D01*
X101906000Y-62616325D01*
X101906000Y-61715607D01*
X101905999Y-61715606D01*
X101825498Y-61729040D01*
X101825487Y-61729043D01*
X101612630Y-61802116D01*
X101612628Y-61802117D01*
X101414699Y-61909231D01*
X101414698Y-61909232D01*
X101237097Y-62047465D01*
X101084674Y-62213041D01*
X100961580Y-62401451D01*
X100871179Y-62607543D01*
X100871177Y-62607547D01*
X100851525Y-62685153D01*
X100815412Y-62746279D01*
X100751985Y-62778177D01*
X100681381Y-62770720D01*
X100626017Y-62726276D01*
X100608806Y-62690795D01*
X100595232Y-62646046D01*
X100497686Y-62463552D01*
X100497685Y-62463550D01*
X100366410Y-62303590D01*
X100206450Y-62172315D01*
X100206448Y-62172314D01*
X100206447Y-62172313D01*
X100023954Y-62074768D01*
X99825927Y-62014698D01*
X99620003Y-61994417D01*
X99619997Y-61994417D01*
X99414072Y-62014698D01*
X99216045Y-62074768D01*
X99033552Y-62172313D01*
X98873590Y-62303590D01*
X98742313Y-62463552D01*
X98644768Y-62646045D01*
X98584698Y-62844072D01*
X98564417Y-63049996D01*
X98564417Y-63050003D01*
X98135583Y-63050003D01*
X98135583Y-63049996D01*
X98115301Y-62844072D01*
X98115300Y-62844070D01*
X98115300Y-62844066D01*
X98055232Y-62646046D01*
X97957685Y-62463550D01*
X97826410Y-62303590D01*
X97666450Y-62172315D01*
X97666448Y-62172314D01*
X97666447Y-62172313D01*
X97483954Y-62074768D01*
X97285927Y-62014698D01*
X97080003Y-61994417D01*
X97079997Y-61994417D01*
X96874072Y-62014698D01*
X96676045Y-62074768D01*
X96493552Y-62172313D01*
X96333590Y-62303590D01*
X96202313Y-62463552D01*
X96104768Y-62646045D01*
X96044698Y-62844072D01*
X96024417Y-63049996D01*
X96024417Y-63050003D01*
X96044698Y-63255927D01*
X96044699Y-63255933D01*
X96044700Y-63255934D01*
X96064409Y-63320906D01*
X96104768Y-63453954D01*
X96192980Y-63618987D01*
X96202315Y-63636450D01*
X96333590Y-63796410D01*
X96493550Y-63927685D01*
X96676046Y-64025232D01*
X96716893Y-64037622D01*
X96776274Y-64076536D01*
X96805190Y-64141377D01*
X96794461Y-64211558D01*
X96747492Y-64264798D01*
X96721231Y-64277370D01*
X96532628Y-64342118D01*
X96334699Y-64449231D01*
X96334698Y-64449232D01*
X96157097Y-64587465D01*
X96004674Y-64753041D01*
X95881580Y-64941451D01*
X95791179Y-65147543D01*
X95791177Y-65147547D01*
X95771525Y-65225153D01*
X95735412Y-65286279D01*
X95671985Y-65318177D01*
X95601381Y-65310720D01*
X95546017Y-65266276D01*
X95528806Y-65230795D01*
X95515232Y-65186046D01*
X95417686Y-65003552D01*
X95417685Y-65003550D01*
X95286410Y-64843590D01*
X95126450Y-64712315D01*
X95126448Y-64712314D01*
X95126447Y-64712313D01*
X94943954Y-64614768D01*
X94903106Y-64602377D01*
X94745934Y-64554700D01*
X94745933Y-64554699D01*
X94745927Y-64554698D01*
X94540003Y-64534417D01*
X94539997Y-64534417D01*
X94334072Y-64554698D01*
X94136045Y-64614768D01*
X93953552Y-64712313D01*
X93793590Y-64843590D01*
X93662313Y-65003552D01*
X93564768Y-65186045D01*
X93504698Y-65384072D01*
X93484417Y-65589996D01*
X93484417Y-65590003D01*
X93055583Y-65590003D01*
X93055583Y-65589996D01*
X93035301Y-65384072D01*
X93035300Y-65384070D01*
X93035300Y-65384066D01*
X92975232Y-65186046D01*
X92877685Y-65003550D01*
X92746410Y-64843590D01*
X92586450Y-64712315D01*
X92586448Y-64712314D01*
X92586447Y-64712313D01*
X92403955Y-64614768D01*
X92382042Y-64608121D01*
X92363104Y-64602376D01*
X92303724Y-64563462D01*
X92274808Y-64498620D01*
X92285539Y-64428439D01*
X92332509Y-64375200D01*
X92358769Y-64362629D01*
X92547369Y-64297883D01*
X92547371Y-64297882D01*
X92745300Y-64190768D01*
X92745301Y-64190767D01*
X92922902Y-64052534D01*
X93075325Y-63886958D01*
X93198419Y-63698548D01*
X93288820Y-63492457D01*
X93308473Y-63414848D01*
X93344585Y-63353722D01*
X93408012Y-63321822D01*
X93478616Y-63329278D01*
X93533981Y-63373722D01*
X93551192Y-63409200D01*
X93556750Y-63427523D01*
X93564768Y-63453955D01*
X93652985Y-63618995D01*
X93662315Y-63636450D01*
X93793590Y-63796410D01*
X93953550Y-63927685D01*
X94136046Y-64025232D01*
X94334066Y-64085300D01*
X94334070Y-64085300D01*
X94334072Y-64085301D01*
X94539997Y-64105583D01*
X94540000Y-64105583D01*
X94540003Y-64105583D01*
X94745927Y-64085301D01*
X94745928Y-64085300D01*
X94745934Y-64085300D01*
X94943954Y-64025232D01*
X95126450Y-63927685D01*
X95286410Y-63796410D01*
X95417685Y-63636450D01*
X95515232Y-63453954D01*
X95575300Y-63255934D01*
X95588503Y-63121889D01*
X95595583Y-63050003D01*
X95595583Y-63049996D01*
X95575301Y-62844072D01*
X95575300Y-62844070D01*
X95575300Y-62844066D01*
X95515232Y-62646046D01*
X95417685Y-62463550D01*
X95286410Y-62303590D01*
X95126450Y-62172315D01*
X95126448Y-62172314D01*
X95126447Y-62172313D01*
X94943954Y-62074768D01*
X94745927Y-62014698D01*
X94540003Y-61994417D01*
X94539997Y-61994417D01*
X94334072Y-62014698D01*
X94136045Y-62074768D01*
X93953552Y-62172313D01*
X93793590Y-62303590D01*
X93662313Y-62463552D01*
X93564767Y-62646046D01*
X93564765Y-62646051D01*
X93551192Y-62690797D01*
X93512277Y-62750178D01*
X93447435Y-62779094D01*
X93377254Y-62768363D01*
X93324016Y-62721393D01*
X93308473Y-62685151D01*
X93288820Y-62607542D01*
X93198419Y-62401451D01*
X93075325Y-62213041D01*
X92922902Y-62047465D01*
X92745301Y-61909232D01*
X92745300Y-61909231D01*
X92547371Y-61802117D01*
X92547369Y-61802116D01*
X92334512Y-61729043D01*
X92334501Y-61729040D01*
X92254000Y-61715606D01*
X92254000Y-62616325D01*
X92142315Y-62565320D01*
X92035763Y-62550000D01*
X91964237Y-62550000D01*
X91857685Y-62565320D01*
X91746000Y-62616325D01*
X91746000Y-61715607D01*
X91745999Y-61715606D01*
X91665498Y-61729040D01*
X91665487Y-61729043D01*
X91452630Y-61802116D01*
X91452628Y-61802117D01*
X91254699Y-61909231D01*
X91254698Y-61909232D01*
X91077097Y-62047465D01*
X90924674Y-62213041D01*
X90801580Y-62401451D01*
X90711179Y-62607543D01*
X90711177Y-62607547D01*
X90691525Y-62685153D01*
X90655412Y-62746279D01*
X90591985Y-62778177D01*
X90521381Y-62770720D01*
X90466017Y-62726276D01*
X90448806Y-62690795D01*
X90435232Y-62646046D01*
X90337686Y-62463552D01*
X90337685Y-62463550D01*
X90206410Y-62303590D01*
X90046450Y-62172315D01*
X90046448Y-62172314D01*
X90046447Y-62172313D01*
X89863954Y-62074768D01*
X89665927Y-62014698D01*
X89460003Y-61994417D01*
X89459997Y-61994417D01*
X89254072Y-62014698D01*
X89056045Y-62074768D01*
X88873552Y-62172313D01*
X88713590Y-62303590D01*
X88582313Y-62463552D01*
X88484768Y-62646045D01*
X88424698Y-62844072D01*
X88404417Y-63049996D01*
X88404417Y-63050003D01*
X88424698Y-63255927D01*
X88424699Y-63255933D01*
X88424700Y-63255934D01*
X88444409Y-63320906D01*
X88484768Y-63453954D01*
X88572980Y-63618987D01*
X88582315Y-63636450D01*
X88713590Y-63796410D01*
X88873550Y-63927685D01*
X89056046Y-64025232D01*
X89254066Y-64085300D01*
X89254070Y-64085300D01*
X89254072Y-64085301D01*
X89459997Y-64105583D01*
X89460000Y-64105583D01*
X89460003Y-64105583D01*
X89665927Y-64085301D01*
X89665928Y-64085300D01*
X89665934Y-64085300D01*
X89863954Y-64025232D01*
X90046450Y-63927685D01*
X90206410Y-63796410D01*
X90337685Y-63636450D01*
X90435232Y-63453954D01*
X90448806Y-63409204D01*
X90487720Y-63349823D01*
X90552561Y-63320906D01*
X90622742Y-63331635D01*
X90675981Y-63378604D01*
X90691525Y-63414847D01*
X90711176Y-63492449D01*
X90711179Y-63492456D01*
X90801580Y-63698548D01*
X90924674Y-63886958D01*
X91077097Y-64052534D01*
X91254698Y-64190767D01*
X91254699Y-64190768D01*
X91452628Y-64297882D01*
X91452630Y-64297883D01*
X91641230Y-64362629D01*
X91699165Y-64403666D01*
X91725717Y-64469511D01*
X91712456Y-64539258D01*
X91663591Y-64590763D01*
X91636894Y-64602376D01*
X91596051Y-64614765D01*
X91596046Y-64614767D01*
X91413552Y-64712313D01*
X91253590Y-64843590D01*
X91122313Y-65003552D01*
X91024768Y-65186045D01*
X90964698Y-65384072D01*
X90944417Y-65589996D01*
X90944417Y-65590003D01*
X90964698Y-65795927D01*
X90964699Y-65795933D01*
X90964700Y-65795934D01*
X91024768Y-65993954D01*
X91122315Y-66176450D01*
X91253590Y-66336410D01*
X91413550Y-66467685D01*
X91482896Y-66504751D01*
X91533544Y-66554503D01*
X91549500Y-66615873D01*
X91549500Y-66765206D01*
X91529498Y-66833327D01*
X91512595Y-66854301D01*
X87063412Y-71303484D01*
X87019806Y-71343944D01*
X87000270Y-71377778D01*
X86996400Y-71383690D01*
X86973205Y-71415120D01*
X86968632Y-71428188D01*
X86958829Y-71449559D01*
X86951904Y-71461555D01*
X86951902Y-71461559D01*
X86943210Y-71499641D01*
X86941254Y-71506431D01*
X86928354Y-71543299D01*
X86927836Y-71557138D01*
X86924767Y-71580449D01*
X86921685Y-71593953D01*
X86921685Y-71593957D01*
X78596856Y-71593957D01*
X78596856Y-64310000D01*
X78934615Y-64310000D01*
X78954140Y-64657690D01*
X79002353Y-64941451D01*
X79012473Y-65001013D01*
X79065782Y-65186051D01*
X79108880Y-65335648D01*
X79214238Y-65590003D01*
X79242145Y-65657376D01*
X79290242Y-65744402D01*
X79410588Y-65962153D01*
X79410592Y-65962160D01*
X79612109Y-66246172D01*
X79612114Y-66246179D01*
X79692749Y-66336409D01*
X79844161Y-66505839D01*
X79994846Y-66640499D01*
X80103820Y-66737885D01*
X80103823Y-66737887D01*
X80103824Y-66737888D01*
X80371898Y-66928096D01*
X80387839Y-66939407D01*
X80387846Y-66939411D01*
X80424034Y-66959411D01*
X80692624Y-67107855D01*
X81014356Y-67241121D01*
X81348987Y-67337527D01*
X81692307Y-67395859D01*
X81692306Y-67395859D01*
X81710793Y-67396897D01*
X82040000Y-67415385D01*
X82387693Y-67395859D01*
X82731013Y-67337527D01*
X83065644Y-67241121D01*
X83387376Y-67107855D01*
X83692164Y-66939405D01*
X83976176Y-66737888D01*
X84235839Y-66505839D01*
X84277027Y-66459750D01*
X85869500Y-66459750D01*
X85878667Y-66505838D01*
X85881133Y-66518231D01*
X85925448Y-66584552D01*
X85991769Y-66628867D01*
X86050252Y-66640500D01*
X86050253Y-66640500D01*
X87789747Y-66640500D01*
X87789748Y-66640500D01*
X87848231Y-66628867D01*
X87914552Y-66584552D01*
X87958867Y-66518231D01*
X87970500Y-66459748D01*
X87970500Y-65590003D01*
X88404417Y-65590003D01*
X88424698Y-65795927D01*
X88424699Y-65795933D01*
X88424700Y-65795934D01*
X88484768Y-65993954D01*
X88582315Y-66176450D01*
X88713590Y-66336410D01*
X88873550Y-66467685D01*
X89056046Y-66565232D01*
X89254066Y-66625300D01*
X89254070Y-66625300D01*
X89254072Y-66625301D01*
X89459997Y-66645583D01*
X89460000Y-66645583D01*
X89460003Y-66645583D01*
X89665927Y-66625301D01*
X89665928Y-66625300D01*
X89665934Y-66625300D01*
X89863954Y-66565232D01*
X90046450Y-66467685D01*
X90206410Y-66336410D01*
X90337685Y-66176450D01*
X90435232Y-65993954D01*
X90495300Y-65795934D01*
X90508503Y-65661889D01*
X90515583Y-65590003D01*
X90515583Y-65589996D01*
X90495301Y-65384072D01*
X90495300Y-65384070D01*
X90495300Y-65384066D01*
X90435232Y-65186046D01*
X90337685Y-65003550D01*
X90206410Y-64843590D01*
X90046450Y-64712315D01*
X90046448Y-64712314D01*
X90046447Y-64712313D01*
X89863954Y-64614768D01*
X89823106Y-64602377D01*
X89665934Y-64554700D01*
X89665933Y-64554699D01*
X89665927Y-64554698D01*
X89460003Y-64534417D01*
X89459997Y-64534417D01*
X89254072Y-64554698D01*
X89056045Y-64614768D01*
X88873552Y-64712313D01*
X88713590Y-64843590D01*
X88582313Y-65003552D01*
X88484768Y-65186045D01*
X88424698Y-65384072D01*
X88404417Y-65589996D01*
X88404417Y-65590003D01*
X87970500Y-65590003D01*
X87970500Y-64720252D01*
X87958867Y-64661769D01*
X87914552Y-64595448D01*
X87848231Y-64551133D01*
X87848228Y-64551132D01*
X87789750Y-64539500D01*
X87789748Y-64539500D01*
X86050252Y-64539500D01*
X86050249Y-64539500D01*
X85991771Y-64551132D01*
X85991768Y-64551133D01*
X85925448Y-64595448D01*
X85881133Y-64661768D01*
X85881132Y-64661771D01*
X85869500Y-64720249D01*
X85869500Y-66459750D01*
X84277027Y-66459750D01*
X84467888Y-66246176D01*
X84669405Y-65962164D01*
X84837855Y-65657376D01*
X84971121Y-65335644D01*
X85067527Y-65001013D01*
X85125859Y-64657693D01*
X85145385Y-64310000D01*
X85125859Y-63962307D01*
X85067527Y-63618987D01*
X84971121Y-63284356D01*
X84874049Y-63050003D01*
X85864417Y-63050003D01*
X85884698Y-63255927D01*
X85884699Y-63255933D01*
X85884700Y-63255934D01*
X85904409Y-63320906D01*
X85944768Y-63453954D01*
X86032980Y-63618987D01*
X86042315Y-63636450D01*
X86173590Y-63796410D01*
X86333550Y-63927685D01*
X86516046Y-64025232D01*
X86714066Y-64085300D01*
X86714070Y-64085300D01*
X86714072Y-64085301D01*
X86919997Y-64105583D01*
X86920000Y-64105583D01*
X86920003Y-64105583D01*
X87125927Y-64085301D01*
X87125928Y-64085300D01*
X87125934Y-64085300D01*
X87323954Y-64025232D01*
X87506450Y-63927685D01*
X87666410Y-63796410D01*
X87797685Y-63636450D01*
X87895232Y-63453954D01*
X87955300Y-63255934D01*
X87968503Y-63121889D01*
X87975583Y-63050003D01*
X87975583Y-63049996D01*
X87955301Y-62844072D01*
X87955300Y-62844070D01*
X87955300Y-62844066D01*
X87895232Y-62646046D01*
X87797685Y-62463550D01*
X87666410Y-62303590D01*
X87506450Y-62172315D01*
X87506448Y-62172314D01*
X87506447Y-62172313D01*
X87323954Y-62074768D01*
X87125927Y-62014698D01*
X86920003Y-61994417D01*
X86919997Y-61994417D01*
X86714072Y-62014698D01*
X86516045Y-62074768D01*
X86333552Y-62172313D01*
X86173590Y-62303590D01*
X86042313Y-62463552D01*
X85944768Y-62646045D01*
X85884698Y-62844072D01*
X85864417Y-63049996D01*
X85864417Y-63050003D01*
X84874049Y-63050003D01*
X84837855Y-62962624D01*
X84718286Y-62746279D01*
X84669411Y-62657846D01*
X84669407Y-62657839D01*
X84661040Y-62646046D01*
X84467888Y-62373824D01*
X84467887Y-62373823D01*
X84467885Y-62373820D01*
X84383205Y-62279063D01*
X84235839Y-62114161D01*
X84081200Y-61975967D01*
X83976179Y-61882114D01*
X83976172Y-61882109D01*
X83692160Y-61680592D01*
X83692153Y-61680588D01*
X83423554Y-61532140D01*
X83387376Y-61512145D01*
X83387369Y-61512142D01*
X83387365Y-61512140D01*
X83065648Y-61378880D01*
X82997221Y-61359166D01*
X82731013Y-61282473D01*
X82731007Y-61282472D01*
X82731004Y-61282471D01*
X82387687Y-61224140D01*
X82387693Y-61224140D01*
X82040000Y-61204615D01*
X81692309Y-61224140D01*
X81348995Y-61282471D01*
X81348989Y-61282472D01*
X81348987Y-61282473D01*
X81279573Y-61302471D01*
X81014351Y-61378880D01*
X80692634Y-61512140D01*
X80692611Y-61512152D01*
X80387846Y-61680588D01*
X80387839Y-61680592D01*
X80103827Y-61882109D01*
X80103820Y-61882114D01*
X79844161Y-62114161D01*
X79612114Y-62373820D01*
X79612109Y-62373827D01*
X79410592Y-62657839D01*
X79410588Y-62657846D01*
X79242152Y-62962611D01*
X79242140Y-62962634D01*
X79108880Y-63284351D01*
X79012471Y-63618995D01*
X78954140Y-63962309D01*
X78934615Y-64310000D01*
X78596856Y-64310000D01*
X78596856Y-63819382D01*
X78596955Y-63815849D01*
X78603542Y-63698548D01*
X78615203Y-63490893D01*
X78615994Y-63483877D01*
X78670212Y-63164763D01*
X78671784Y-63157880D01*
X78761390Y-62846841D01*
X78763724Y-62840172D01*
X78887590Y-62541126D01*
X78890646Y-62534778D01*
X79047235Y-62251447D01*
X79050976Y-62245494D01*
X79238299Y-61981482D01*
X79242695Y-61975971D01*
X79302336Y-61909232D01*
X79458385Y-61734609D01*
X79463371Y-61729623D01*
X79704737Y-61513921D01*
X79710247Y-61509527D01*
X79974245Y-61322207D01*
X79980211Y-61318459D01*
X80263522Y-61161873D01*
X80269872Y-61158815D01*
X80568937Y-61034935D01*
X80575580Y-61032611D01*
X80886649Y-60942989D01*
X80893498Y-60941426D01*
X81212643Y-60887196D01*
X81219642Y-60886409D01*
X81543618Y-60868210D01*
X81547152Y-60868111D01*
X81562765Y-60868111D01*
X140529948Y-60868111D01*
X140544588Y-60868111D01*
X140548120Y-60868210D01*
G37*
G04 #@! TD.AperFunction*
D16*
X143546356Y-113817611D02*
X143546356Y-63817611D01*
X78546356Y-63817611D02*
X78546356Y-113817611D01*
X140546356Y-116817555D02*
G75*
G03*
X143546350Y-113822847I44J2999955D01*
G01*
X140546356Y-60817611D02*
X81546356Y-60817611D01*
X81546356Y-116817611D02*
X140546356Y-116817611D01*
X143546389Y-63817611D02*
G75*
G03*
X140546356Y-60817611I-2999989J11D01*
G01*
X81546356Y-60817556D02*
G75*
G03*
X78546356Y-63817611I44J-3000044D01*
G01*
X78546389Y-113817611D02*
G75*
G03*
X81546356Y-116817611I3000011J11D01*
G01*
M02*
